<?xml version="1.0" encoding="UTF-8"?><svg id="Layer_1" xmlns="http://www.w3.org/2000/svg" viewBox="0 0 32 32"><defs><style>.cls-1{fill:#fff;}.cls-2{fill:#004c2e;}</style></defs><rect class="cls-1" x="0" y="0" width="32" height="32"/><g><rect class="cls-2" x=".5" y=".5" width="31" height="31"/><path class="cls-1" d="m31,1v30H1V1h30m1-1H0v32H32V0h0Z"/></g><g><path class="cls-1" d="m12.73,15.02h-2.97v9.98h-2.43v-9.98h-2.92v-2.02h8.31v2.02Z"/><path class="cls-1" d="m16.5,23.23c.68,0,1.02-.44,1.03-1.32h2.19c-.01.97-.31,1.76-.9,2.36s-1.35.9-2.27.9c-1.15,0-2.03-.36-2.63-1.07-.6-.71-.91-1.77-.92-3.16v-.71c0-1.4.3-2.47.89-3.21.6-.74,1.48-1.1,2.64-1.1.98,0,1.76.3,2.32.91.57.61.85,1.47.87,2.58h-2.19c0-.5-.09-.88-.25-1.15-.16-.27-.42-.4-.79-.4-.41,0-.7.14-.87.43-.18.29-.27.85-.28,1.68v.91c0,.73.04,1.23.11,1.52.07.29.19.5.35.63.16.13.4.2.7.2Z"/></g></svg>