<?xml version="1.0" encoding="UTF-8"?>
<svg id="Layer_1" data-name="Layer 1" xmlns="http://www.w3.org/2000/svg" viewBox="0 0 16 16">
  <path d="m13.7715,8.7881c-.115-.1832-.2925-.472-.4818-.7881h1.7103V0H2v2.8683L.2495,3.8804c-.1543.0894-.2495.2539-.2495.4326v4.6045c0,.1787.0952.3433.2495.4326l3.9985,2.313c.0771.0449.1631.0674.25.0674.0859,0,.1729-.0225.25-.0669l.7295-.4216c.1592.4629.4631.7581.8701.7581h1.7637c1.0303,4,1.5449,4,1.8887,4,.5234,0,4.4395-.7837,5.2188-.9404l.292-.0591.0879-.2852c.2881-.9424.4014-1.8987.4014-2.8691v-3.0581h-2.2285Zm-1.7715-7.7881h2v2h-2V1Zm0,3h2v1h-2v-1Zm2,2v1h-1.2823c-.0858-.1583-.1721-.3176-.2431-.4619-.0599-.2323-.2346-.4147-.4746-.4924v-.0457h2Zm-3.8447,3h-1.1773c.005-.0284.022-.053.022-.0825v-.9175h1.0197c-.0107.2923.0209.622.1356,1Zm-2.6548-4.6869l-.9445.546-2.963-1.757.907-.5245,3.0004,1.7355Zm3.4996.6869h-2v-.6865c0-.1205-.0549-.2245-.1306-.3135h2.1306v1Zm-.4824,1.6348c-.0716.0845-.1595.2086-.2425.3652h-1.2751v-1h2v.2366c-.173.1046-.3403.2305-.4824.3981Zm-2.5176-5.6348h3v2h-3V1Zm-5,0h4v1.8687l-2.25-1.3013c-.1543-.0898-.3457-.0898-.5,0l-1.25.7227v-1.2901Zm1,9.3647l-3-1.7358v-3.4484l3,1.7351v3.449Zm.498-4.3159l-3.0001-1.7352,1.1024-.6375,2.963,1.7568-1.0652.6158Zm.8971,4.0856l-.3951.2283v-3.4493l.9988-.5776-.0008.4513c0,.2759.2236.5.499.5005h.001c.2754,0,.5-.2236.5-.4995l.0015-1.0309,1.0005-.5786v3.4503l-.6421.3711h-1.0054c-.5084,0-.8583.4514-.9574,1.1344Zm9.6049,1.723c.0176.7651-.0762,1.5312-.2764,2.2817-1.6787.3354-3.8994.7593-4.5615.8452-.1086-.1798-.2531-.5375-.41-.9897h1.2449v-1h-1.5664c-.0971-.3225-.1929-.6594-.2833-.9946h1.8527v-1h-4.5654c-.1133-.2085-.1113-.793.0039-1h5.2715l-.3672-.7256c-.3838-.7583-.4355-1.4253-.1475-1.8779.127-.1987.292-.3125.4092-.3628.5205,1.0435,1.4307,2.4629,1.4707,2.5249l.1484.2295h1.7764v2.0693Z" class="aw-theme-iconOutline" fill="#464646"/>
</svg>