<?xml version="1.0" encoding="UTF-8"?><svg id="Layer_1" xmlns="http://www.w3.org/2000/svg" viewBox="0 0 24 24"><path d="M17.5,11c-3.584,0-6.5,2.916-6.5,6.5s2.916,6.5,6.5,6.5,6.5-2.916,6.5-6.5-2.916-6.5-6.5-6.5Zm0,12c-3.032,0-5.5-2.468-5.5-5.5s2.468-5.5,5.5-5.5,5.5,2.468,5.5,5.5-2.468,5.5-5.5,5.5Z" class="aw-theme-iconOutline" fill="#464646"/><polygon points="18 14 17 14 17 17 14 17 14 18 17 18 17 21 18 21 18 18 21 18 21 17 18 17 18 14" class="aw-theme-iconOutline" fill="#464646"/><path d="M1,1H12V7h6v2.02h1v-3.146L12.643,0H0V24H12v-1H1V1Zm12,.692l4.662,4.308h-4.662V1.692Z" class="aw-theme-iconOutline" fill="#464646"/></svg>