<?xml version="1.0" encoding="UTF-8"?>
<svg id="Layer_1" data-name="Layer 1" xmlns="http://www.w3.org/2000/svg" viewBox="0 0 16 16">
  <path d="M1,13.5V2.5c0-.8271,.6729-1.5,1.5-1.5h2.5V0H2.5C1.1216,0,0,1.1216,0,2.5V13.5c0,1.3784,1.1216,2.5,2.5,2.5h2.5v-1H2.5c-.8271,0-1.5-.6729-1.5-1.5Z" class="aw-theme-iconOutline" fill="#464646"/>
  <path d="M13.5,0h-2.5V1h2.5c.8271,0,1.5,.6729,1.5,1.5V13.5c0,.8271-.6729,1.5-1.5,1.5h-2.5v1h2.5c1.3784,0,2.5-1.1216,2.5-2.5V2.5c0-1.3784-1.1216-2.5-2.5-2.5Z" class="aw-theme-iconOutline" fill="#464646"/>
  <path d="M13,5.2412l-5-2.8755L3,5.2417v5.729l5,2.876,5-2.8755V5.2412Zm-5,2.3013l-1.3405-.7712,3.4962-2.011,1.3409,.7707-3.4965,2.0115Zm1.152-3.3591l-3.4957,2.0107-1.1536-.6636,3.4974-2.0114,1.152,.6643Zm-5.152,2.212l3.5,2.0129v3.9975l-3.5-2.0132v-3.9972Zm4.5,6.0104v-3.9976l3.5-2.0129v3.9977l-3.5,2.0128Z" class="aw-theme-iconOutline" fill="#464646"/>
</svg>