<?xml version="1.0" encoding="UTF-8"?>
<svg id="Layer_1" data-name="Layer 1" xmlns="http://www.w3.org/2000/svg" viewBox="0 0 16 16">
  <path d="m0,4h3V1H0v3Zm1-2h1v1h-1v-1Z" class="aw-theme-iconOutline" fill="#464646"/>
  <path d="m0,14h3v-3H0v3Zm1-2h1v1h-1v-1Z" class="aw-theme-iconOutline" fill="#464646"/>
  <path d="m0,9h3v-3H0v3Zm1-2h1v1h-1v-1Z" class="aw-theme-iconOutline" fill="#464646"/>
  <rect x="4" width="1" height="16" class="aw-theme-iconOutline" fill="#464646"/>
  <path d="m14.6821,8.3174c-.8496-.8496-1.9795-1.3174-3.1807-1.3174h-.0015c-.1698,0-.3336.0305-.5.049V0h-1v7.2733c-.3502.1241-.6893.2765-1,.4851v-1.7584h-3v3h1.7581c-.4002.5959-.6295,1.2812-.7093,2h-1.0488v3h1.7575c.1625.2422.3494.4707.5604.6816.4898.4898,1.0688.8282,1.6821,1.0447v.2737h1v-.0498c.1666.0186.3325.0479.5.0479,1.1523-.0005,2.3047-.439,3.1816-1.3159,1.7544-1.7549,1.7549-4.6104.0005-6.3647Zm-7.6821-1.3174h1v1h-1v-1Zm0,6v-1h.0488c.0381.3441.11.6784.2239,1h-.2727Zm6.9746.9751c-1.3638,1.3638-3.584,1.3652-4.9497-.0005-.6611-.6611-1.0249-1.54-1.0249-2.4741,0-.9346.3643-1.8135,1.0254-2.4746s1.54-1.0259,2.4746-1.0259h.0015c.9341,0,1.813.3638,2.4736,1.0244,1.3643,1.3647,1.3643,3.5854-.0005,4.9507Z" class="aw-theme-iconOutline" fill="#464646"/>
  <polygon points="12 11 12 9 11 9 11 11 9 11 9 12 11 12 11 14 12 14 12 12 14 12 14 11 12 11" class="aw-theme-iconOutline" fill="#464646"/>
</svg>