<?xml version="1.0" encoding="UTF-8"?>
<svg id="Layer_1" data-name="Layer 1" xmlns="http://www.w3.org/2000/svg" viewBox="0 0 16 16">
  <path d="m5,10v-1.0527c.8705-.1641,1.5-.7385,1.5-1.4473,0-1.1978-1.4009-1.4136-1.9277-1.4951-.4004-.062-1.0723-.21-1.0723-.5049,0-.2041.3877-.501.9956-.501.604,0,1.0044.2993,1.0044.4971h1c0-.7079-.6295-1.2816-1.5-1.4454v-1.0507h-1v1.0493c-.8702.1625-1.5.7389-1.5,1.4507,0,.7935.6455,1.2959,1.9194,1.4932,1.0806.167,1.0806.4141,1.0806.5068,0,.1987-.4004.499-1.0044.499-.6079,0-.9956-.2954-.9956-.499h-1c0,.7106.6298,1.2865,1.5,1.4489v1.0511h1Z" class="aw-theme-iconOutline" fill="#464646"/>
  <path d="m15.7251,10.3433c-.0674-.2046-.2588-.3433-.4746-.3433h-2.0483c.4933-.5206.7978-1.2161.7978-2v-2.5c0-.2764-.2236-.5-.5-.5h-3.5v-1.707L6.707,0H0v12h6v-1H1V1h5.02v2.98h2.98v1.02h-.5c-.2764,0-.5.2236-.5.5v2.5c0,.7839.3044,1.4794.7978,2h-2.0473c-.2158,0-.4072.1387-.4746.3433-.0679.2051.0039.4302.1772.5586l2.3359,1.7295-.8906,2.7129c-.0674.2056.0049.4312.1797.5591.0879.0645.1914.0967.2954.0967.1025,0,.2046-.0312.292-.0942l2.335-1.6787,2.3345,1.6787c.1758.1265.4126.125.5874-.0024.1748-.1279.2471-.3535.1797-.5591l-.8906-2.7129,2.3364-1.7295c.1733-.1284.2451-.3535.1772-.5586ZM6.98,1.687l1.333,1.333h-1.333v-1.333Zm2.02,4.313h4v2c0,.6417-.3096,1.194-.7885,1.5458l-.7369-2.2045c-.0679-.2036-.2593-.3413-.4741-.3413s-.4058.1377-.4741.3413l-.7374,2.2048c-.4791-.3519-.789-.9042-.789-1.5461v-2Zm3.3262,6.0425c-.1733.1284-.2451.353-.1777.5576l.5249,1.5981-1.3809-.9927c-.1748-.126-.4092-.126-.584,0l-1.3813.9932.5249-1.5986c.0674-.2046-.0044-.4292-.1777-.5576l-1.4082-1.0425h1.731c.2148,0,.4058-.1377.4741-.3413l.5293-1.582.5288,1.582c.0679.2036.2593.3413.4741.3413h1.731l-1.4082,1.0425Z" class="aw-theme-iconOutline" fill="#464646"/>
</svg>