<?xml version="1.0" encoding="UTF-8"?><svg id="Layer_1" xmlns="http://www.w3.org/2000/svg" viewBox="0 0 16 16"><path d="M1,1h7V5h4.004v1h1V3.929L8.752,0H0V16H6.991v-1H1V1Zm8,.59l2.608,2.41h-2.608V1.59Z" class="aw-theme-iconOutline" fill="#464646"/><path d="M11.5,7c-2.481,0-4.5,2.019-4.5,4.5s2.019,4.5,4.5,4.5,4.5-2.019,4.5-4.5-2.019-4.5-4.5-4.5Zm0,8c-1.93,0-3.5-1.57-3.5-3.5s1.57-3.5,3.5-3.5,3.5,1.57,3.5,3.5-1.57,3.5-3.5,3.5Z" class="aw-theme-iconOutline" fill="#464646"/><polygon points="12 11 12 9 11 9 11 11 9 11 9 12 11 12 11 14 12 14 12 12 14 12 14 11 12 11" class="aw-theme-iconOutline" fill="#464646"/></svg>