<?xml version="1.0" encoding="UTF-8"?>
<svg id="Layer_1" data-name="Layer 1" xmlns="http://www.w3.org/2000/svg" viewBox="0 0 16 16">
  <path d="M3.4999,3c.2762,0,.5001-.2239,.5001-.5001s-.2239-.4999-.5001-.4999-.4999,.2238-.4999,.4999,.2239,.5001,.4999,.5001Z" class="aw-theme-iconOutline" fill="#464646"/>
  <path d="M9.4999,3c.2762,0,.5001-.2239,.5001-.5001s-.2239-.4999-.5001-.4999-.4999,.2238-.4999,.4999,.2239,.5001,.4999,.5001Z" class="aw-theme-iconOutline" fill="#464646"/>
  <path d="M13,7.2764V2c0-1.103-.897-2-2-2H2C.897,0,0,.897,0,2V12c0,1.103,.897,2,2,2H7.7618c.8083,1.2047,2.1815,2,3.7382,2,2.4814,0,4.5-2.0186,4.5-4.5,0-1.9529-1.2578-3.6024-3-4.2236Zm-5.7236,2.7236h-2.2764v-2h3v.7065c-.309,.3862-.5543,.8189-.7236,1.2935Zm.7236-5v2h-3v-2h3Zm-4,2H1v-2h3v2Zm0,1v2H1v-2h3Zm5-1v-2h3v2h-3ZM2,1H11c.5513,0,1,.4487,1,1v2H1V2c0-.5513,.4487-1,1-1ZM1,12v-1h3v2H2c-.5513,0-1-.4487-1-1Zm4,1v-2h2.0505c-.0187,.1663-.0505,.3288-.0505,.5,0,.5285,.1083,1.0285,.2764,1.5h-2.2764Zm6.5,2c-1.9297,0-3.5-1.5703-3.5-3.5s1.5703-3.5,3.5-3.5,3.5,1.5703,3.5,3.5-1.5703,3.5-3.5,3.5Z" class="aw-theme-iconOutline" fill="#464646"/>
  <polygon points="12 11 12 9 11 9 11 11 9 11 9 12 11 12 11 14 12 14 12 12 14 12 14 11 12 11" class="aw-theme-iconOutline" fill="#464646"/>
</svg>