<?xml version="1.0" encoding="UTF-8"?><svg id="Layer_1" xmlns="http://www.w3.org/2000/svg" viewBox="0 0 16 16"><path d="M14,6c-.37,0-.712,.108-1.01,.283l-3.274-3.274c.176-.297,.283-.64,.283-1.01,0-1.103-.897-2-2-2s-2,.897-2,2c0,.37,.108,.712,.283,1.01l-3.274,3.274c-.297-.176-.64-.283-1.01-.283-1.103,0-2,.897-2,2s.897,2,2,2c.37,0,.712-.108,1.009-.284l3.274,3.274c-.176,.297-.284,.64-.284,1.009,0,1.103,.897,2,2,2s2-.897,2-2c0-.37-.108-.712-.284-1.009l3.274-3.274c.297,.176,.64,.284,1.009,.284,1.103,0,2-.897,2-2s-.897-2-2-2Zm-6,6c-.37,0-.712,.108-1.009,.284l-3.274-3.274c.176-.297,.284-.64,.284-1.009s-.108-.712-.283-1.01l3.274-3.274c.297,.176,.64,.283,1.01,.283s.712-.108,1.01-.283l3.274,3.274c-.176,.297-.283,.64-.283,1.01s.108,.712,.284,1.009l-3.274,3.274c-.297-.176-.64-.284-1.009-.284Zm0-11c.552,0,1,.449,1,1s-.448,1-1,1-1-.449-1-1,.448-1,1-1ZM2,9c-.552,0-1-.449-1-1s.448-1,1-1,1,.449,1,1-.448,1-1,1Zm6,6c-.552,0-1-.448-1-1s.448-1,1-1,1,.448,1,1-.448,1-1,1Zm6-6c-.552,0-1-.449-1-1s.448-1,1-1,1,.449,1,1-.448,1-1,1Z" class="aw-theme-iconOutline" fill="#464646"/></svg>