<?xml version="1.0" encoding="UTF-8"?><svg id="Layer_1" xmlns="http://www.w3.org/2000/svg" viewBox="0 0 24 24"><path d="M20.293,9.2c-.351,0-.684,.072-.995,.191l-4.697-4.696c.124-.316,.198-.657,.198-1.017,0-1.544-1.256-2.8-2.8-2.8s-2.8,1.256-2.8,2.8c0,.36,.074,.701,.198,1.017l-4.681,4.681c-.297-.105-.604-.176-.924-.176-1.544,0-2.8,1.256-2.8,2.8s1.256,2.8,2.8,2.8c.327,0,.637-.067,.929-.171l4.642,4.641c-.099,.286-.163,.587-.163,.906,0,1.544,1.256,2.8,2.8,2.8s2.8-1.256,2.8-2.8c0-.318-.065-.62-.163-.905l4.662-4.662c.31,.119,.643,.191,.995,.191,1.544,0,2.8-1.256,2.8-2.8s-1.256-2.8-2.8-2.8ZM12,1.878c.992,0,1.8,.808,1.8,1.8s-.808,1.8-1.8,1.8-1.8-.808-1.8-1.8,.808-1.8,1.8-1.8ZM1.993,12c0-.992,.808-1.8,1.8-1.8,.285,0,.559,.065,.812,.193,.609,.309,.987,.925,.987,1.607,0,.992-.808,1.8-1.8,1.8s-1.8-.808-1.8-1.8Zm10.007,9.976c-.992,0-1.8-.808-1.8-1.8s.808-1.8,1.8-1.8,1.8,.808,1.8,1.8-.808,1.8-1.8,1.8Zm2.122-3.605c-.514-.603-1.269-.995-2.122-.995s-1.608,.391-2.122,.994l-4.263-4.262c.594-.514,.978-1.263,.978-2.108,0-.829-.367-1.586-.975-2.11l4.326-4.326c.512,.558,1.241,.915,2.056,.915s1.544-.356,2.056-.915l4.367,4.367c-.567,.513-.931,1.246-.931,2.069s.363,1.557,.931,2.069l-4.301,4.301Zm6.171-4.571c-.992,0-1.8-.808-1.8-1.8s.808-1.8,1.8-1.8,1.8,.808,1.8,1.8-.808,1.8-1.8,1.8Z" class="aw-theme-iconOutline" fill="#464646"/></svg>