<?xml version="1.0" encoding="UTF-8"?>
<svg id="Layer_1" data-name="Layer 1" xmlns="http://www.w3.org/2000/svg" viewBox="0 0 16 16">
  <path d="M14,7.7616V0H0V13H7.2766c.6213,1.7423,2.2707,3,4.2234,3,2.4814,0,4.5-2.019,4.5-4.501,0-1.5564-.7953-2.9293-2-3.7374ZM1,5.707l2.293,2.293H1v-2.293Zm3.707,2.293L1.707,5h1.5859l3,3h-1.5859Zm3.9992,0h-.9992l-3-3h1.5859l2.7424,2.7424c-.117,.077-.22,.1703-.3291,.2576Zm1.2811-.7197l-2.2803-2.2803h1.5859l2.0187,2.019c-.4639,.0196-.9067,.111-1.3243,.2612Zm3.0127-.004c-.0082-.0029-.0167-.0048-.0248-.0077l-2.2682-2.2686h2.2931v2.2763ZM1,1H13v3H1V1Zm0,11v-3H7.7615c-.48,.7154-.7615,1.5746-.7615,2.499,0,.1716,.0318,.3344,.0506,.501H1Zm10.5,3c-1.9297,0-3.5-1.5703-3.5-3.501,0-1.9292,1.5703-3.499,3.5-3.499s3.5,1.5698,3.5,3.499c0,1.9307-1.5703,3.501-3.5,3.501Z" class="aw-theme-iconOutline" fill="#464646"/>
  <polygon points="12 11 12 9 11 9 11 11 9 11 9 12 11 12 11 14 12 14 12 12 14 12 14 11 12 11" class="aw-theme-iconOutline" fill="#464646"/>
</svg>