<svg id="Layer_1" data-name="Layer 1" xmlns="http://www.w3.org/2000/svg" viewBox="0 0 16 16">
  <path d="m13.8887,15H2.1113c-.7168,0-1.3774-.3779-1.7676-1.0107-.4243-.6885-.46-1.5312-.0957-2.2559.0024-.0049.0049-.0098.0073-.0137L5.9487,1.2334c.4185-.772,1.1851-1.2334,2.0513-1.2334h.0005c.8657,0,1.6323.4614,2.0503,1.2344l5.6943,10.4854c.3711.7383.335,1.582-.0889,2.2705-.3906.6318-1.0508,1.0098-1.7676,1.0098ZM1.1382,12.1895c-.2036.4102-.1826.8867.0571,1.2754.2095.3398.5435.5352.916.5352h11.7773c.373,0,.707-.1953.916-.5352.2412-.3906.2617-.8701.0547-1.2822L9.1719,1.7109c-.2407-.4453-.6787-.7109-1.1719-.7109h0c-.4932,0-.9312.2656-1.1724.7104L1.1382,12.1895Z" class="aw-theme-iconOutline" fill="#464646"/>
  <path d="m6.5,12.5c-.1323,0-.2598-.0527-.3535-.1465l-2-2c-.1953-.1953-.1953-.5117,0-.707s.5117-.1953.707,0l1.605,1.6045,3.6509-4.5635c.1729-.2148.4883-.2495.7031-.0781.2158.1729.25.4873.0781.7031l-4,5c-.0889.1113-.2212.1787-.3628.1865-.0093.001-.0186.001-.0278.001Z" class="aw-theme-iconOutline" fill="#464646"/>
</svg>