<?xml version="1.0" encoding="UTF-8"?><svg id="Layer_1" xmlns="http://www.w3.org/2000/svg" viewBox="0 0 16 16">
<path d="M13.328,7.395L11.688,.072l-3.688,.825V0H.997V9.999H0v1.001H7.05c-.019,.166-.05,.329-.05,.5,0,2.485,2.015,4.5,4.5,4.5s4.5-2.015,4.5-4.5c0-1.833-1.1-3.403-2.672-4.105ZM10.931,1.266l1.3,5.808c-.239-.039-.48-.074-.731-.074-.451,0-.877,.086-1.288,.21l-1.234-5.507,1.952-.437Zm-1.654,6.344c-.493,.283-.923,.652-1.276,1.094V1.906l1.276,5.704ZM7,1v7h-1v1h1v.999h-2V1h2ZM1.997,1H3.997v7h-.997v1h.997v.999H1.997V1ZM11.5,15c-1.93,0-3.5-1.57-3.5-3.5s1.57-3.5,3.5-3.5,3.5,1.57,3.5,3.5-1.57,3.5-3.5,3.5Z" class="aw-theme-iconOutline" fill="#464646"/>
<polygon points="12 11 12 9 11 9 11 11 9 11 9 12 11 12 11 14 12 14 12 12 14 12 14 11 12 11" class="aw-theme-iconOutline" fill="#464646"/>
</svg>