<?xml version="1.0" encoding="UTF-8"?>
<svg id="Layer_1" data-name="Layer 1" xmlns="http://www.w3.org/2000/svg" viewBox="0 0 16 16">
  <path d="m15.8535,12.1465l-3-3c-.1953-.1953-.5117-.1953-.707,0s-.1953.5117,0,.707l2.1465,2.1465h-2.562c-1.5059,0-2.731-1.2251-2.731-2.731v-2.269h-1v2.269c0,2.0571,1.6738,3.731,3.731,3.731h2.562l-2.1465,2.1465c-.1953.1953-.1953.5117,0,.707.0977.0977.2256.1465.3535.1465s.2559-.0488.3535-.1465l3-3c.1953-.1953.1953-.5117,0-.707Z" class="aw-theme-iconOutline" fill="#464646"/>
  <path d="m4.4956,4.999c.604,0,1.0044.3018,1.0044.501h1c0-.71-.6295-1.285-1.5-1.4493v-1.0507h-1v1.0489c-.8727.1618-1.5044.7371-1.5044,1.4472,0,.7959.647,1.2993,1.9238,1.4971,1.0762.166,1.0762.4146,1.0762.5083,0,.1982-.3989.4976-1,.4976-.6079,0-.9956-.2954-.9956-.499h-1c0,.7106.6298,1.2865,1.5,1.4489v1.0511h1v-1.0529c.8681-.1641,1.4956-.7376,1.4956-1.4457,0-1.1997-1.3975-1.4155-1.9233-1.4966-.3237-.0503-1.0767-.2002-1.0767-.5088,0-.1978.3989-.4971,1-.4971Z" class="aw-theme-iconOutline" fill="#464646"/>
  <path d="m1,1l5.02-.0018v2.9818h2.9808l.0021,2.0181,1-.001-.0034-2.7041L6.71-.002l-6.71.002v12h7v-1H1V1Zm5.98.6836l1.3345,1.3364h-1.3345v-1.3364Z" class="aw-theme-iconOutline" fill="#464646"/>
</svg>