<?xml version="1.0" encoding="UTF-8"?>
<svg id="Layer_1" data-name="Layer 1" xmlns="http://www.w3.org/2000/svg" viewBox="0 0 16 16">
  <rect x="6" y="3" width="2" height="1" class="aw-theme-iconOutline" fill="#464646"/>
  <rect x="4" y="3" width="1" height="1" class="aw-theme-iconOutline" fill="#464646"/>
  <rect x="6" y="5" width="2" height="1" class="aw-theme-iconOutline" fill="#464646"/>
  <rect x="4" y="5" width="1" height="1" class="aw-theme-iconOutline" fill="#464646"/>
  <rect x="6" y="7" width="2" height="1" class="aw-theme-iconOutline" fill="#464646"/>
  <rect x="4" y="7" width="1" height="1" class="aw-theme-iconOutline" fill="#464646"/>
  <rect x="6" y="9" width="2" height="1" class="aw-theme-iconOutline" fill="#464646"/>
  <rect x="4" y="9" width="1" height="1" class="aw-theme-iconOutline" fill="#464646"/>
  <path d="M15.9619,11.3086c-.0771-.187-.2598-.3086-.4619-.3086h-1.5V7h-2v-.3317l.3916-.5164,.8081,.1108c.1533,.0229,.311-.0312,.4214-.1416,.1108-.1104,.1631-.2666,.1416-.4214l-.1108-.8081,.6504-.4932c.1245-.0947,.1978-.2422,.1978-.3984s-.0732-.3037-.1978-.3984l-.6504-.4932,.1108-.8081c.0215-.1548-.0308-.311-.1416-.4214-.1104-.1104-.2681-.165-.4214-.1416l-.8081,.1108-.3916-.5164V0H0V15H10.293l.8535,.8535c.0977,.0977,.2256,.1465,.3535,.1465s.2559-.0488,.3535-.1465l4-4c.1431-.1431,.186-.3579,.1084-.5449ZM12.6826,2.8174l-.061,.4448c-.0249,.1787,.0488,.3569,.1929,.4663l.3579,.2715-.3579,.2715c-.144,.1094-.2178,.2876-.1929,.4663l.061,.4448-.4448-.061c-.1772-.0244-.3569,.0498-.4663,.1929l-.2715,.3579-.2715-.3579c-.0952-.1255-.2432-.1978-.3984-.1978-.0225,0-.0454,.0015-.0679,.0049l-.4448,.061,.061-.4448c.0249-.1787-.0488-.3569-.1929-.4663l-.3579-.2715,.3579-.2715c.144-.1094,.2178-.2876,.1929-.4663l-.061-.4448,.4448,.061c.1777,.0278,.3574-.0488,.4663-.1929l.2715-.3579,.2715,.3579c.1094,.144,.2881,.2197,.4663,.1929l.4448-.061ZM1,1h1V14H1V1ZM3,14V1H11v.3317l-.3916,.5164-.8081-.1108c-.1538-.0234-.311,.0312-.4214,.1416-.1108,.1104-.1631,.2666-.1416,.4214l.1108,.8081-.6504,.4932c-.1245,.0947-.1978,.2422-.1978,.3984s.0732,.3037,.1978,.3984l.6504,.4932-.1108,.8081c-.0215,.1548,.0308,.311,.1416,.4214,.1104,.1104,.2676,.1646,.4214,.1416l.8081-.1108,.3916,.5164v.3317h-2v4h-1.5c-.2021,0-.3848,.1216-.4619,.3086-.0776,.187-.0347,.4019,.1084,.5449l2.1465,2.1465H3Zm8.5,.793l-2.793-2.793h1.293v-4h3v4h1.293l-2.793,2.793Z" class="aw-theme-iconOutline" fill="#464646"/>
</svg>