<?xml version="1.0" encoding="UTF-8"?>
<svg id="Layer_1" data-name="Layer 1" xmlns="http://www.w3.org/2000/svg" viewBox="0 0 16.0014 15.958">
  <path d="M11.5014,6.958c-.1389,0-.2699,.0286-.4056,.041L7.0903,0l-.8682,.4971,3.8442,6.7172c-1.3007,.4417-2.3276,1.4515-2.7883,2.7433H1.3632l3.2026-5.584-.8672-.4971L.0663,10.209c-.0889,.1543-.0884,.3447,.001,.499s.2544,.2495,.4326,.2495H7.052c-.0187,.1664-.0506,.3291-.0506,.5005,0,2.4814,2.0186,4.5,4.5,4.5s4.5-2.0186,4.5-4.5-2.0186-4.5-4.5-4.5Zm0,8c-1.9297,0-3.5-1.5703-3.5-3.5s1.5703-3.5,3.5-3.5,3.5,1.5703,3.5,3.5-1.5703,3.5-3.5,3.5Z" class="aw-theme-iconOutline" fill="#464646"/>
  <path d="M11.7675,8.981c-.4438-.0752-.8916,.042-1.2319,.3276-.3403,.2861-.5356,.7046-.5356,1.1489,0,.2764,.2236,.5,.5,.5s.5-.2236,.5-.5c0-.1479,.0649-.2876,.1787-.3828,.1152-.0967,.2627-.1367,.416-.1084,.1958,.0342,.3623,.2007,.3965,.3965,.0474,.2676-.1074,.4683-.2812,.5488-.4312,.1992-.71,.6362-.71,1.1147l.0015,.4331c.001,.2759,.2246,.4985,.5,.4985h.0015c.2764-.001,.4995-.2256,.4985-.5015l-.0015-.4316c0-.0884,.0508-.1689,.1299-.2056,.6167-.2856,.9648-.9561,.8467-1.6289-.106-.6055-.603-1.1025-1.209-1.2095Z" class="aw-theme-iconOutline" fill="#464646"/>
  <circle cx="11.5014" cy="13.958" r=".5" class="aw-theme-iconOutline" fill="#464646"/>
</svg>