<?xml version="1.0" encoding="UTF-8"?><svg id="Layer_1" xmlns="http://www.w3.org/2000/svg" viewBox="0 0 16 16">
<polyline points="7.514 4 7.514 3 8.514 3 8.514 4" class="aw-theme-iconOutline" fill="#464646"/>
<path d="M7.514,13.9v-2.2h1v2.2m-1-3.3v-2.201h1v2.201m-1-3.3v-2.2h1v2.2" class="aw-theme-iconOutline" fill="#464646"/>
<polyline points="7.514 16 7.514 15 8.514 15 8.514 16" class="aw-theme-iconOutline" fill="#464646"/>
<path d="M11.887,.536l-.195,1.605C10.871,.883,9.477,.099,7.932,.099,6.089,.099,4.45,1.203,3.758,2.912l.928,.375c.538-1.329,1.812-2.188,3.246-2.188,1.234,0,2.346,.639,2.976,1.663l-1.523-.185-.121,.993,3.215,.39,.4-3.304s-.992-.12-.992-.12Z" class="aw-theme-iconOutline" fill="#464646"/>
<path d="M3.81,5.155l1.848,.752c.188,.077,.312,.26,.312,.463v6.584c0,.189-.106,.362-.275,.446L.755,15.885c-.071,.036-.147,.054-.225,.054H.53c-.091-.001-.183-.026-.263-.075-.147-.091-.237-.252-.237-.426V4.361c0-.167,.083-.322,.221-.415,.138-.093,.313-.11,.468-.048l1.627,.662m-.219,.99l-1.097-.446V14.628l3.939-1.981V6.707l-1.41-.574" class="aw-theme-iconOutline" fill="#464646"/>
<path d="M14.183,4.331l1.109-.449c.154-.062,.328-.044,.467,.049,.138,.093,.221,.248,.221,.415V15.423c0,.173-.09,.334-.237,.426-.08,.049-.171,.074-.263,.074-.076,0-.153-.018-.224-.053l-4.961-2.483c-.17-.085-.276-.258-.276-.447V6.354c0-.204,.124-.387,.312-.463l2.534-1.026m-.437,1.255l-1.409,.571v5.939h0l3.961,1.983V5.087l-1.493,.605" class="aw-theme-iconOutline" fill="#464646"/></svg>