<svg id="Layer_1" data-name="Layer 1" xmlns="http://www.w3.org/2000/svg" viewBox="0 0 16 16">
  <path d="m15.8535,10.6465c-.1953-.1953-.5117-.1953-.707,0l-.7114.7114c-.3096-1.8998-1.9489-3.3579-3.9351-3.3579-1.292,0-2.5107.6289-3.2603,1.6826l.8145.5801c.5625-.791,1.4771-1.2627,2.4458-1.2627,1.3599,0,2.4982.9152,2.8649,2.1578l-.5114-.5114c-.1953-.1953-.5117-.1953-.707,0s-.1953.5117,0,.707l1.5,1.5c.0977.0977.2256.1465.3535.1465s.2559-.0488.3535-.1465l1.5-1.5c.1953-.1953.1953-.5117,0-.707Z" class="aw-theme-iconOutline" fill="#464646"/>
  <path d="m12.9609,13.7168c-.5615.8037-1.4814,1.2832-2.4609,1.2832-1.3627,0-2.503-.9189-2.8672-2.1655l.5117.517c.0977.0986.2266.1484.3555.1484.127,0,.2544-.0479.3516-.1445.1963-.1943.1982-.5107.0039-.707l-1.4844-1.5c-.0933-.0947-.2202-.1475-.353-.1484h-.0024c-.1318,0-.2583.0518-.3516.1445l-1.5156,1.5c-.1963.1943-.1982.5107-.0039.707.1938.1953.5117.1992.707.0039l.7141-.7068c.3124,1.8967,1.9509,3.3513,3.9344,3.3513,1.3057,0,2.5322-.6396,3.2812-1.7109l-.8203-.5723Z" class="aw-theme-iconOutline" fill="#464646"/>
  <path d="m4.9961.0088L0,2.9004v5.7563l4.998,2.8901,1.4526-.8271-.4951-.8691-.4556.2598v-4.0309l3.5-2.0241v3.0311h1V2.9004L4.9961.0088Zm3.505,3.1805l-3.5011,2.0241L1.4985,3.1885l3.4976-2.0244,3.505,2.0252Zm-7.5011.8659l3.5,2.0243v4.0247l-3.5-2.0246v-4.0244Z" class="aw-theme-iconOutline" fill="#464646"/>
</svg>