<svg id="Layer_1" data-name="Layer 1" xmlns="http://www.w3.org/2000/svg" viewBox="0 0 16 16">
  <path d="m9.0073,1c.1384,0,.2774.0096.4146.0288l-1.2641,1.2642c-.0342.0342-.0578.0778-.0678.1253l-.2781,1.342c-.017.0821.0085.1672.0677.2264l1.1332,1.133c.047.047.1104.073.1754.073.0169,0,.034-.0018.0509-.0054l1.3421-.2778c.0474-.0098.0911-.0333.1253-.0676l1.2646-1.2643c.1294.9286-.1809,1.8638-.8478,2.5309-.4082.4081-1.0584.6238-1.8802.6238-.3548,0-.7417-.0412-1.1184-.1191-.0165-.0033-.0331-.0049-.0496-.0049-.0713,0-.1404.0301-.1882.0852l-4.2172,4.8422c-.2992.2996-.6934.4646-1.1101.4646-.417,0-.809-.1622-1.1036-.4568-.2941-.2942-.4561-.6861-.4561-1.1034s.162-.809.4437-1.0914l4.8628-4.2361c.0675-.0588.0981-.1495.0801-.2373-.0991-.486-.356-2.1384.5049-2.999.5649-.5651,1.3163-.8763,2.1158-.8763M9.0073,0C7.9406,0,6.938.4153,6.1843,1.1694c-.997.9966-.978,2.5397-.852,3.4656L.7869,8.5946c-.0176.0153-.0347.0313-.0512.0478C.2613,9.1181,0,9.7565,0,10.4401,0,11.1244.2659,11.7674.7488,12.2505c.4836.4836,1.1266.7498,1.8108.7498s1.3295-.2692,1.8176-.7579c.0161-.0161.0316-.0328.0466-.0499l3.9396-4.5235c.2974.0415.5964.0633.8796.0633,1.0928,0,1.9874-.3169,2.5872-.9166.8804-.8807,1.3032-2.1427,1.1313-3.3762-.0524-.3757-.3128-.6895-.6725-.8101-.1041-.0349-.2114-.0519-.3178-.0519-.261,0-.5165.1023-.7072.2928l-1.1057,1.1055-.7251.1501-.5599-.5598.1502-.7248,1.1054-1.1055c.2682-.2682.3616-.6651.2411-1.0248-.1205-.3597-.4341-.6202-.8098-.6727C9.3779.0129,9.1919,0,9.0073,0h0Z" class="aw-theme-iconOutline" fill="#464646"/>
  <path d="m2.2608,9.9615l-.0002.0002c-.2142.2149-.2142.5626.0002.7774.2148.2149.5629.2149.7779.0004l.0004-.0004c.2146-.2148.2146-.5631,0-.7778-.215-.2147-.5634-.2147-.7782.0002Z" class="aw-theme-iconOutline" fill="#464646"/>
  <path d="m11.498,16c-2.4814,0-4.4995-2.0186-4.4995-4.499s2.0181-4.501,4.4995-4.501,4.5,2.0195,4.5,4.501-2.0186,4.499-4.5,4.499Zm0-8c-1.9297,0-3.4995,1.5703-3.4995,3.501,0,1.9297,1.5698,3.499,3.4995,3.499s3.5-1.5693,3.5-3.499c0-1.9307-1.5703-3.501-3.5-3.501Z" class="aw-theme-iconOutline" fill="#464646"/>
  <polygon points="13.998 11 11.998 11 11.998 9 10.998 9 10.998 11 8.9985 11 8.9985 12 10.998 12 10.998 14 11.998 14 11.998 12 13.998 12 13.998 11" class="aw-theme-iconOutline" fill="#464646"/>
</svg>