<?xml version="1.0" encoding="UTF-8"?><svg id="Layer_1" xmlns="http://www.w3.org/2000/svg" viewBox="0 0 24 24">
<path d="M.5,23.983c-.105,0-.209-.033-.296-.098-.128-.094-.204-.243-.204-.402V5.991c0-.154,.071-.299,.192-.394,.122-.094,.282-.127,.429-.091l8,2.009c.223,.056,.378,.256,.378,.485v13c0,.219-.143,.412-.352,.478L.648,23.961c-.049,.015-.099,.022-.148,.022ZM1,6.632V22.805l7-2.173V8.39L1,6.632Z" class="aw-theme-iconOutline" fill="#464646"/>
<path d="M23.5,23.983c-.05,0-.1-.008-.148-.022l-8-2.483c-.209-.065-.352-.259-.352-.478V8c0-.229,.156-.429,.378-.485l8-2.009c.15-.04,.308-.004,.43,.091,.121,.095,.192,.24,.192,.394V23.483c0,.159-.075,.309-.203,.402-.087,.064-.191,.098-.297,.098Zm-7.5-3.352l7,2.173V6.632l-7,1.758v12.242Z" class="aw-theme-iconOutline" fill="#464646"/>
<path d="M18.852,.254l-.496,2.909c-1.509-1.987-3.83-3.163-6.356-3.163-2.762,0-5.292,1.396-6.768,3.733l.846,.534c1.292-2.046,3.506-3.267,5.922-3.267,2.238,0,4.293,1.058,5.612,2.839l-3.078-.524-.168,.985,4.675,.797,.797-4.675-.986-.168Z" class="aw-theme-iconOutline" fill="#464646"/>
<polyline points="11.5 6 11.5 4 12.5 4 12.5 6" class="aw-theme-iconOutline" fill="#464646"/>
<polyline points="11.5 9 11.5 7 12.5 7 12.5 9" class="aw-theme-iconOutline" fill="#464646"/>
<polyline points="11.5 12 11.5 10 12.5 10 12.5 12" class="aw-theme-iconOutline" fill="#464646"/>
<polyline points="11.5 15 11.5 13 12.5 13 12.5 15" class="aw-theme-iconOutline" fill="#464646"/>
<polyline points="11.5 18 11.5 16 12.5 16 12.5 18" class="aw-theme-iconOutline" fill="#464646"/>
<polyline points="11.5 21 11.5 19 12.5 19 12.5 21" class="aw-theme-iconOutline" fill="#464646"/>
<polyline points="11.5 24 11.5 22 12.5 22 12.5 24" class="aw-theme-iconOutline" fill="#464646"/></svg>