<?xml version="1.0" encoding="UTF-8"?>
<svg id="Layer_1" data-name="Layer 1" xmlns="http://www.w3.org/2000/svg" viewBox="0 0 16 16">
  <path d="M11.5,7.0003c-.1385,0-.2692,.0286-.4045,.0409L7.0908,.0423l-.8682,.4971,3.8433,6.7169c-1.3013,.4414-2.3287,1.4518-2.7895,2.7441H1.3633l3.2026-5.5845-.8672-.4971L.0664,10.2518c-.0889,.1543-.0884,.3447,.001,.499s.2544,.2495,.4326,.2495H7.0505c-.0187,.1663-.0505,.3288-.0505,.5,0,2.4814,2.0186,4.5,4.5,4.5s4.5-2.0186,4.5-4.5-2.0186-4.5-4.5-4.5Zm0,8c-1.9297,0-3.5-1.5703-3.5-3.5s1.5703-3.5,3.5-3.5,3.5,1.5703,3.5,3.5-1.5703,3.5-3.5,3.5Z" class="aw-theme-iconOutline" fill="#464646"/>
  <path d="M12.6001,9.7005l-1.9043,2.5386-.7173-.7173c-.1953-.1953-.5117-.1953-.707,0s-.1953,.5117,0,.707l1.125,1.125c.0942,.0942,.2212,.1465,.3535,.1465,.0117,0,.0234-.0005,.0356-.0015,.1445-.0103,.2773-.0825,.3643-.1987l2.25-3c.166-.2207,.1211-.5342-.1001-.6997-.2207-.165-.5342-.1201-.6997,.1001Z" class="aw-theme-iconOutline" fill="#464646"/>
</svg>