<svg id="Layer_1" data-name="Layer 1" xmlns="http://www.w3.org/2000/svg" viewBox="0 0 16 16">
  <polygon points="13.998 11 11.998 11 11.998 9 10.998 9 10.998 11 8.9985 11 8.9985 12 10.998 12 10.998 14 11.998 14 11.998 12 13.998 12 13.998 11" class="aw-theme-iconOutline" fill="#464646"/>
  <path d="m14,7.7631V3.2612l-5,2.0005v-2l-5.2778,2.1108-.2442-5.3726H.522L-.0234,12h7.0724c.252,2.2434,2.1385,4,4.449,4,2.4814,0,4.5-2.0186,4.5-4.499,0-1.5559-.7943-2.9291-1.998-3.7379ZM1.478,1h1.0439l.0454.9995h-1.1348l.0454-.9995Zm-.4546,10l.3637-8.0005h1.2257l.3637,8.0005h-1.9531Zm11.9766-6.2612v2.5383c-.472-.1686-.9727-.2771-1.502-.2771-.9236,0-1.782.2813-2.4971.7606v-1.4222l3.999-1.5996ZM3.978,11l-.0454-1h2.066v-1h-2.1115l-.0455-1h2.1569v-1h-2.2023l-.0259-.5696,4.2297-1.6921v3.9668c-.5172.646-.8534,1.4306-.9508,2.2949h-3.0712Zm7.5201,4c-1.9297,0-3.4995-1.5693-3.4995-3.499,0-1.9307,1.5698-3.501,3.4995-3.501s3.5,1.5703,3.5,3.501c0,1.9297-1.5703,3.499-3.5,3.499Z" class="aw-theme-iconOutline" fill="#464646"/>
</svg>