<?xml version="1.0" encoding="UTF-8"?><svg id="Layer_1" xmlns="http://www.w3.org/2000/svg" viewBox="0 0 24 24">
<path d="M19.864,9h.136V0H11V9h1.136c-1.317,.73-2.406,1.819-3.136,3.136v-1.136H0v9H9v-.136c1.365,2.463,3.99,4.136,7,4.136,4.411,0,8-3.589,8-8,0-3.01-1.673-5.635-4.136-7Zm-7.864-1V1h7v7h-7Zm-4,11H1v-7h7v7Zm8,4c-3.859,0-7-3.141-7-7s3.141-7,7-7,7,3.141,7,7-3.141,7-7,7Z" class="aw-theme-iconOutline" fill="#464646"/>
<path d="M9,0H0V9H9V0Zm-1,8H1V1h7v7Z" class="aw-theme-iconOutline" fill="#464646"/>
<polygon points="16.5 15.5 16.5 11 15.5 11 15.5 15.5 11 15.5 11 16.5 15.5 16.5 15.5 21 16.5 21 16.5 16.5 21 16.5 21 15.5 16.5 15.5" class="aw-theme-iconOutline" fill="#464646"/>
</svg>