<?xml version="1.0" encoding="UTF-8"?>
<svg id="Layer_1" data-name="Layer 1" xmlns="http://www.w3.org/2000/svg" viewBox="0 0 16 16">
  <path d="M15.8535,5.1465l-2-2c-.1953-.1953-.5117-.1953-.707,0s-.1953,.5117,0,.707l1.1465,1.1465h-2.6546L6.5,1.917,.5283,5.5l5.4717,3.283v3.0099l-1.1465-1.1465c-.1953-.1953-.5117-.1953-.707,0s-.1953,.5117,0,.707l2,2c.0977,.0977,.2256,.1465,.3535,.1465s.2559-.0488,.3535-.1465l2-2c.1953-.1953,.1953-.5117,0-.707s-.5117-.1953-.707,0l-1.1465,1.1465v-3.0099l4.6384-2.783h2.6546l-1.1465,1.1465c-.1953,.1953-.1953,.5117,0,.707,.0977,.0977,.2256,.1465,.3535,.1465s.2559-.0488,.3535-.1465l2-2c.1953-.1953,.1953-.5117,0-.707ZM6.5,7.917L2.4717,5.5,6.5,3.083l4.0283,2.417-4.0283,2.417Z" class="aw-theme-iconOutline" fill="#464646"/>
</svg>