<?xml version="1.0" encoding="UTF-8"?>
<svg id="Layer_1" data-name="Layer 1" xmlns="http://www.w3.org/2000/svg" viewBox="0 0 16 16">
  <path d="M15,8.813v-1.626c.5876-.2589,1-.845,1-1.5273,0-.9209-.749-1.6704-1.6699-1.6704-.3076,0-.5923,.0894-.8402,.235l-1.9167-1.08c-.0861-.8115-.7488-1.4479-1.5731-1.4874V0h-1V7.5h-2V0h-1V1.6569c-.8243,.0395-1.4871,.676-1.5731,1.4874l-1.9167,1.08c-.2479-.1456-.5327-.235-.8402-.235-.9209,0-1.6699,.7495-1.6699,1.6704,0,.6824,.4124,1.2685,1,1.5273v1.626c-.5876,.2589-1,.845-1,1.5273,0,.9209,.749,1.6704,1.6699,1.6704,.2708,0,.5231-.0709,.7496-.1859l2.0164,1.1201c.1235,.7691,.77,1.3601,1.5641,1.3981v1.6569h1v-7.5h2v7.5h1v-1.6569c.7941-.038,1.4406-.629,1.5641-1.3981l2.0164-1.1201c.2265,.1149,.4788,.1859,.7496,.1859,.9209,0,1.6699-.7495,1.6699-1.6704,0-.6824-.4124-1.2685-1-1.5273ZM6,2.665v1.3083c-.3303-.041-.5908-.3124-.5908-.6539s.2606-.6133,.5908-.6544ZM1.6699,4.9893c.3701,0,.6709,.3008,.6709,.6704s-.3008,.6699-.6709,.6699c-.3691,0-.6699-.3003-.6699-.6699s.3008-.6704,.6699-.6704Zm0,6.0215c-.3691,0-.6699-.3008-.6699-.6704s.3008-.6699,.6699-.6699c.3701,0,.6709,.3003,.6709,.6699s-.3008,.6704-.6709,.6704Zm3.7393,1.6699c0-.3416,.2606-.613,.5908-.6539v1.3083c-.3303-.041-.5908-.3128-.5908-.6544Zm.5908-1.6619c-.6028,.0288-1.1179,.3768-1.3875,.8801l-1.4575-.8095c.1148-.2263,.1857-.4784,.1857-.749,0-.8079-.5775-1.4828-1.3408-1.6365v-1.4076c.7634-.1537,1.3408-.8287,1.3408-1.6365,0-.2403-.0532-.4677-.1451-.6743l1.4526-.8185c.2784,.4681,.7753,.7869,1.3517,.8144v2.5187h-1.293l.6465-.6465c.1953-.1953,.1953-.5117,0-.707s-.5117-.1953-.707,0l-1.5,1.5c-.1953,.1953-.1953,.5117,0,.707l1.5,1.5c.0977,.0977,.2256,.1465,.3535,.1465s.2559-.0488,.3535-.1465c.1953-.1953,.1953-.5117,0-.707l-.6465-.6465h1.293v2.5187ZM14.3301,4.9893c.3691,0,.6699,.3008,.6699,.6704s-.3008,.6699-.6699,.6699c-.3701,0-.6709-.3003-.6709-.6699s.3008-.6704,.6709-.6704Zm-3.7393-1.6699c0,.3416-.2606,.613-.5908,.6539v-1.3083c.3303,.041,.5908,.3128,.5908,.6544Zm.0557,6.5342c.0977,.0977,.2256,.1465,.3535,.1465s.2559-.0488,.3535-.1465l1.5-1.5c.1953-.1953,.1953-.5117,0-.707l-1.5-1.5c-.1953-.1953-.5117-.1953-.707,0s-.1953,.5117,0,.707l.6465,.6465h-1.293v-2.5187c.5764-.0275,1.0733-.3463,1.3517-.8144l1.4526,.8185c-.0919,.2067-.1451,.434-.1451,.6743,0,.8079,.5775,1.4828,1.3408,1.6365v1.4076c-.7634,.1537-1.3408,.8287-1.3408,1.6365,0,.2706,.0709,.5227,.1857,.749l-1.4575,.8095c-.2696-.5034-.7847-.8513-1.3875-.8801v-2.5187h1.293l-.6465,.6465c-.1953,.1953-.1953,.5117,0,.707Zm-.6465,3.4815v-1.3083c.3303,.041,.5908,.3124,.5908,.6539s-.2606,.6133-.5908,.6544Zm4.3301-2.3243c-.3701,0-.6709-.3008-.6709-.6704s.3008-.6699,.6709-.6699c.3691,0,.6699,.3003,.6699,.6699s-.3008,.6704-.6699,.6704Z" class="aw-theme-iconOutline" fill="#464646"/>
</svg>