<?xml version="1.0" encoding="UTF-8"?>
<svg id="Layer_1" data-name="Layer 1" xmlns="http://www.w3.org/2000/svg" viewBox="0 0 16 16">
  <path d="M9.75,0H2V16H14V4.25L9.75,0Zm.25,1.667l2.333,2.333h-2.333V1.667ZM3,15V1h6V5h4V15H3Z" class="aw-theme-iconOutline" fill="#464646"/>
  <path d="M8.3765,5.1709c-.1904-.2178-.5625-.2178-.7529,0l-3.5,4c-.1289,.1475-.1602,.3569-.0786,.5356,.0811,.1787,.2588,.2935,.4551,.2935h1.5v3h4v-3h1.5c.1963,0,.374-.1147,.4551-.2935,.0815-.1787,.0503-.3882-.0786-.5356l-3.5-4Zm.6235,3.8291v3h-2v-3h-1.3979l2.3979-2.7407,2.3979,2.7407h-1.3979Z" class="aw-theme-iconOutline" fill="#464646"/>
</svg>