<?xml version="1.0" encoding="UTF-8"?>
<svg id="Layer_1" data-name="Layer 1" xmlns="http://www.w3.org/2000/svg" viewBox="0 0 16 16">
  <path d="M11.707,11l4.1465-4.1465c.1953-.1953,.1953-.5117,0-.707s-.5117-.1953-.707,0l-4.1465,4.1465L6.8535,6.1465c-.1953-.1953-.5117-.1953-.707,0s-.1953,.5117,0,.707l4.1465,4.1465-4.1465,4.1465c-.1953,.1953-.1953,.5117,0,.707,.0977,.0977,.2256,.1465,.3535,.1465s.2559-.0488,.3535-.1465l4.1465-4.1465,4.1465,4.1465c.0977,.0977,.2256,.1465,.3535,.1465s.2559-.0488,.3535-.1465c.1953-.1953,.1953-.5117,0-.707l-4.1465-4.1465Z"  class="aw-theme-iconOutline" fill="#464646"/>
  <path d="M0,4H4V0H0V4ZM1,1H3V3H1V1Z"  class="aw-theme-iconOutline" fill="#464646"/>
  <path d="M0,9H4V5H0v4Zm1-3H3v2H1v-2Z"  class="aw-theme-iconOutline" fill="#464646"/>
  <path d="M0,14H4v-4H0v4Zm1-3H3v2H1v-2Z"  class="aw-theme-iconOutline" fill="#464646"/>
</svg>