<?xml version="1.0" encoding="UTF-8"?>
<svg id="Layer_1" data-name="Layer 1" xmlns="http://www.w3.org/2000/svg" viewBox="0 0 16 16">
  <path d="M15.998,.5454c.0132-.1479-.0396-.2939-.1445-.3989-.1055-.1055-.2505-.1597-.3989-.1445-2.7114,.2466-5.2651,1.4429-7.1899,3.3682l-.6308,.6307-1.6563-.184c-1.0459-.1187-2.063,.2427-2.8013,.9829L.1465,7.8296c-.1357,.1357-.1821,.3379-.1182,.519,.0635,.1812,.2256,.3101,.4165,.3315l3.1183,.3463,3.4104,3.4104,.3463,3.1183c.0215,.1909,.1504,.353,.3315,.4165,.0542,.019,.1099,.0283,.1655,.0283,.1304,0,.2583-.0513,.3535-.1465l3.0298-3.0298c.7402-.7393,1.0981-1.7607,.9829-2.8013l-.184-1.6563,.6307-.6308c1.9253-1.9248,3.1216-4.4785,3.3682-7.1899Zm-1.0703,.5269c-.3384,2.2476-1.3916,4.3433-3.0049,5.9561l-.8006,.8007h-.0002l-3.6711,3.6713-2.9512-2.9512,1.9321-1.9323,2.5399-2.5396c1.6128-1.6133,3.7085-2.6665,5.9561-3.0049ZM3.8833,5.5068c.5239-.5239,1.2485-.7759,1.9839-.6958l.8607,.0957-3.119,3.1186-2.0196-.2245,2.2939-2.2939Zm7.3057,4.626c.082,.7368-.1719,1.46-.6958,1.9839l-2.2939,2.2939-.2245-2.0196,3.1186-3.119,.0957,.8607Z" class="aw-theme-iconOutline" fill="#464646"/>
  <path d="M7.1465,8.8535c.0977,.0977,.2256,.1465,.3535,.1465s.2559-.0488,.3535-.1465l4-4c.1953-.1953,.1953-.5117,0-.707s-.5117-.1953-.707,0l-4,4c-.1953,.1953-.1953,.5117,0,.707Z" class="aw-theme-iconOutline" fill="#464646"/>
  <path d="M5.5,12h-1.5v-1.5c0-.1919-.1099-.3672-.2832-.4507-.1729-.084-.3789-.0596-.5283,.0596-.1045,.0835-2.5586,2.0718-3.1797,5.2964-.0312,.1631,.0205,.3311,.1377,.4482,.0947,.0947,.2222,.1465,.3535,.1465,.0312,0,.063-.0029,.0947-.0088,3.2246-.6211,5.2129-3.0752,5.2964-3.1797,.1196-.1499,.1426-.3555,.0596-.5283-.0835-.1733-.2588-.2832-.4507-.2832ZM1.1899,14.8101c.4307-1.3638,1.2119-2.438,1.8101-3.1143v.8042c0,.2764,.2236,.5,.5,.5h.8071c-.6743,.5981-1.7476,1.3794-3.1172,1.8101Z" class="aw-theme-iconOutline" fill="#464646"/>
</svg>