<?xml version="1.0" encoding="UTF-8"?>
<svg id="Layer_1" data-name="Layer 1" xmlns="http://www.w3.org/2000/svg" viewBox="0 0 16 16">
  <rect x="1.1622" y="4.0974" width="9.1755" height=".9995" transform="translate(.1226 9.3436) rotate(-78.7889)" class="aw-theme-iconOutline" fill="#464646"/>
  <polygon points="7.9313 7.5972 7.294 6.8326 9.9768 4.5972 7.294 2.3617 7.9313 1.5972 11.5312 4.5972 7.9313 7.5972" class="aw-theme-iconOutline" fill="#464646"/>
  <polygon points="3.622 7.5972 .0221 4.5972 3.622 1.5972 4.2593 2.3617 1.5765 4.5972 4.2593 6.8326 3.622 7.5972" class="aw-theme-iconOutline" fill="#464646"/>
  <path d="m10.5,16c-2.2417,0-4.3306-1.4497-5.4507-3.7837-.0659-.1367-.0659-.2959,0-.4326,1.1201-2.334,3.209-3.7837,5.4507-3.7837s4.3306,1.4497,5.4507,3.7837c.0659.1367.0659.2959,0,.4326-1.1201,2.334-3.209,3.7837-5.4507,3.7837Zm-4.4409-4c.9727,1.8569,2.6558,3,4.4409,3s3.4683-1.1431,4.4409-3c-.9727-1.8569-2.6558-3-4.4409-3s-3.4683,1.1431-4.4409,3Z" class="aw-theme-iconOutline" fill="#464646"/>
  <path d="m10.5,14.5c-1.3784,0-2.5-1.1216-2.5-2.5s1.1216-2.5,2.5-2.5,2.5,1.1216,2.5,2.5-1.1216,2.5-2.5,2.5Zm0-4c-.8271,0-1.5.6729-1.5,1.5s.6729,1.5,1.5,1.5,1.5-.6729,1.5-1.5-.6729-1.5-1.5-1.5Z" class="aw-theme-iconOutline" fill="#464646"/>
</svg>