<svg id="Layer_1" data-name="Layer 1" xmlns="http://www.w3.org/2000/svg" viewBox="0 0 16 16">
  <g id="g846">
    <path id="path2" d="M15.855,3.149l-3-3a.5.5,0,0,0-.706.707L14.294,3H8V4h6.294L12.149,6.149a.5.5,0,1,0,.706.707l3-3A.5.5,0,0,0,15.855,3.149Z" class="aw-theme-iconOutline" fill="#464646"/>
    <path id="path2-4" d="M.146,12.141l3-2.992a.5.5,0,0,1,.706.705L1.707,12H8v1H1.707l2.145,2.14a.5.5,0,1,1-.706.705l-3-2.991A.5.5,0,0,1,.146,12.141Z" class="aw-theme-iconOutline" fill="#464646"/>
    <path id="rect1303" d="M7.5,3h1V13h-1Z" class="aw-theme-iconOutline" fill="#464646"/>
  </g>
</svg>
