<?xml version="1.0" encoding="UTF-8"?>
<svg id="Layer_1" data-name="Layer 1" xmlns="http://www.w3.org/2000/svg" viewBox="0 0 16 16">
  <path d="M15.75,6.4203c-.1553-.0894-.3457-.0889-.5,.0005l-1.75,1.0121v-1.6757l-1.7967-1.0386,1.5467-.8945c.1553-.0894,.25-.2544,.25-.4326,0-.1787-.0957-.3438-.25-.4331L8.2461,.0668c-.1553-.0894-.3467-.0889-.5,.0005L2.75,2.9589c-.1553,.0894-.25,.2544-.25,.4326,0,.1787,.0947,.3433,.25,.4326l1.5457,.8939-1.7957,1.0392v1.6752l-1.7495-1.012c-.1553-.0898-.3452-.0894-.5005-.0005-.1548,.0894-.25,.2544-.25,.4331v5.7554c0,.1787,.0952,.3433,.2495,.4326l5.0005,2.8917c.0771,.0449,.1631,.0674,.25,.0674,.0859,0,.1729-.0225,.25-.0669,.1543-.0894,.25-.2544,.25-.4331v-1.3875l2,1.157,2-1.157v1.3875c0,.1787,.0957,.3438,.25,.4331,.0771,.0444,.1641,.0669,.25,.0669,.0869,0,.1729-.0225,.25-.0674l5-2.8917c.1553-.0894,.25-.2539,.25-.4326V6.8535c0-.1787-.0957-.3438-.25-.4331ZM7.9961,1.0775l4.0049,2.314-4.001,2.314L3.998,3.3915,7.9961,1.0775Zm-.2461,5.6382c.0771,.0449,.1631,.0674,.25,.0674s.1729-.0225,.25-.0674l2.4543-1.4194,1.3298,.7688-4.0341,2.3323L3.965,6.0642l1.3286-.769,2.4564,1.4206Zm-2.75,7.9175L1,12.3198V7.7197l4,2.314v4.5997Zm.75-5.3209l-2.25-1.3016v-1.0611l4,2.3133v4.5621l-1.5-.8672v-3.2129c0-.1787-.0947-.3433-.25-.4326Zm2.75,4.5128v-4.5621l4-2.3129v1.061l-2.25,1.3012c-.1553,.0894-.25,.2539-.25,.4326v3.2129l-1.5,.8672Zm6.5-1.5054l-4,2.3135v-4.5997l4-2.3135v4.5996Z" class="aw-theme-iconOutline" fill="#464646"/>
</svg>