<svg id="Layer_1" data-name="Layer 1" xmlns="http://www.w3.org/2000/svg" viewBox="0 0 16 16">
  <path d="m6.355.1431l-.707.707,1.1637,1.1637c-.1035-.0058-.2062-.0172-.3102-.0172C3.9888,1.9966,1.8022,3.7061,1.1841,6.1533l.9697.2451c.5054-2.0029,2.2935-3.4019,4.3477-3.4019.0892,0,.1748.0242.2636.0294l-1.1171,1.1171.707.707,2.3535-2.3535L6.355.1431Z" class="aw-theme-iconOutline" fill="#464646"/>
  <path d="m11.9571,7.0463c-.1055-1.2948-.6345-2.5043-1.5626-3.435l-.709.7061c.7425.7438,1.1714,1.7059,1.2723,2.7374-2.2233.2711-3.9579,2.1501-3.9579,4.4462,0,.1548.0304.3011.0457.452-.1887.0269-.3705.0432-.5443.0432-1.7323,0-3.2898-1.0052-4.0356-2.519l1.5434.4135.2588-.9663-3.2148-.8613-.8613,3.2153.9658.2588.4269-1.5937c.9167,1.8347,2.8102,3.0527,4.9168,3.0527.2411,0,.4933-.0273.7526-.0675.6007,1.7787,2.2664,3.0714,4.245,3.0714,2.4814,0,4.501-2.0186,4.501-4.499,0-2.3246-1.7789-4.2213-4.0429-4.4547Zm-.4581,7.9537c-1.9297,0-3.499-1.5693-3.499-3.499,0-1.9307,1.5693-3.501,3.499-3.501,1.9307,0,3.501,1.5703,3.501,3.501,0,1.9297-1.5703,3.499-3.501,3.499Z" class="aw-theme-iconOutline" fill="#464646"/>
  <polygon points="13.6211 10.0859 12.9141 9.3789 11.5 10.793 10.0859 9.3789 9.3789 10.0859 10.793 11.5 9.3789 12.9141 10.0859 13.6211 11.5 12.207 12.9141 13.6211 13.6211 12.9141 12.207 11.5 13.6211 10.0859" class="aw-theme-iconOutline" fill="#464646"/>
</svg>