<?xml version="1.0" encoding="UTF-8"?>
<svg id="Layer_1" data-name="Layer 1" xmlns="http://www.w3.org/2000/svg" viewBox="0 0 16 16">
  <path d="M8.5957,6.8394l-.6001-4.4067c-.0278-.2026-.1758-.3682-.374-.4175-.1973-.0508-.4067,.0259-.5269,.1919l-2.6001,3.5933c-.0752,.104-.1074,.2329-.0903,.3604l.6001,4.4067c.0278,.2026,.1758,.3682,.374,.4175,.0405,.0103,.0811,.0151,.1216,.0151,.1577,0,.3096-.0752,.4053-.207l2.6001-3.5933c.0752-.104,.1074-.2329,.0903-.3604Zm-2.7686,2.356l-.4048-2.9712,1.7505-2.4194,.4048,2.9712-1.7505,2.4194Z" class="aw-theme-iconOutline" fill="#464646"/>
  <path d="M6.6274,6.0166c-.267-.0703-.5405,.0891-.6108,.3561s.0891,.5404,.3561,.6107c.267,.0703,.5405-.0891,.6108-.3561s-.0892-.5403-.3561-.6107Z" class="aw-theme-iconOutline" fill="#464646"/>
  <path d="M12.9335,7.2557c.0292-.2517,.0665-.5031,.0665-.7557C13,2.916,10.084,0,6.5,0S0,2.916,0,6.5s2.916,6.5,6.5,6.5c.2536,0,.5048-.0351,.7563-.0644,.6029,1.7753,2.267,3.0644,4.2437,3.0644,2.4814,0,4.5-2.0186,4.5-4.5,0-1.9774-1.2902-3.642-3.0665-4.2443Zm-5.8876,4.6979c-.182,.018-.3629,.0463-.5458,.0463-3.0327,0-5.5-2.4673-5.5-5.5S3.4673,1,6.5,1s5.5,2.4673,5.5,5.5c0,.1826-.03,.3636-.0479,.5457-.1508-.0153-.2973-.0457-.4521-.0457-2.4814,0-4.5,2.0186-4.5,4.5,0,.1553,.0304,.3023,.0458,.4537Zm4.4542,3.0463c-1.9297,0-3.5-1.5703-3.5-3.5s1.5703-3.5,3.5-3.5,3.5,1.5703,3.5,3.5-1.5703,3.5-3.5,3.5Z" class="aw-theme-iconOutline" fill="#464646"/>
  <path d="M12.584,9.7227l-1.6616,2.4927-1.0688-1.0688c-.1953-.1953-.5117-.1953-.707,0s-.1953,.5117,0,.707l1.5,1.5c.0942,.0942,.2217,.1465,.3535,.1465,.0161,0,.0327-.001,.0493-.0024,.1489-.0146,.2837-.0957,.3667-.2202l2-3c.1533-.23,.0913-.54-.1387-.6934-.2314-.1538-.5415-.0913-.6934,.1387Z" class="aw-theme-iconOutline" fill="#464646"/>
</svg>