<?xml version="1.0" encoding="UTF-8"?>
<svg id="Layer_1" data-name="Layer 1" xmlns="http://www.w3.org/2000/svg" viewBox="0 0 16 16">
  <path d="M16,4c-4.158,0-7.6857,1.4347-9.8201,3.7078-.7532-1.0973-1.1799-2.351-1.1799-3.7078h-1c0,1.4569,.4281,2.8063,1.1804,4H3V1.707l1.1465,1.1465c.0977,.0977,.2256,.1465,.3535,.1465s.2559-.0488,.3535-.1465c.1953-.1953,.1953-.5117,0-.707L2.8535,.1465c-.1953-.1953-.5117-.1953-.707,0L.1465,2.1465c-.1953,.1953-.1953,.5117,0,.707s.5117,.1953,.707,0l1.1465-1.1465v6.293H0v1H2v7h1v-7h2.1804c-.7523,1.1937-1.1804,2.5431-1.1804,4h1c0-1.3568,.4267-2.6105,1.1799-3.7078,2.1345,2.2731,5.6621,3.7078,9.8201,3.7078v-1c-3.6221,0-6.7223-1.1519-8.7014-3h8.7014v-1H7.2986c1.9791-1.8481,5.0793-3,8.7014-3v-1Z" class="aw-theme-iconOutline" fill="#464646"/>
</svg>