<?xml version="1.0" encoding="UTF-8"?>
<svg id="Layer_1" data-name="Layer 1" xmlns="http://www.w3.org/2000/svg" viewBox="0 0 16 16">
  <path d="m1.5,12.0003c-.1279,0-.2559-.0488-.3535-.1465-.1953-.1953-.1953-.5117,0-.707l4-4c.1572-.1572.3994-.1909.5928-.0854l5.0918,2.7773,4.2485-6.6089c.1489-.2329.4575-.2998.6909-.1499.2319.1489.2993.4585.1499.6909l-4.5,7c-.1406.2202-.4292.2939-.6597.1685l-5.1719-2.8208-3.7354,3.7354c-.0977.0977-.2256.1465-.3535.1465Z" class="aw-theme-iconOutline" fill="#464646"/>
  <rect x="0" y="1.0003" width="1" height="1" class="aw-theme-iconOutline" fill="#464646"/>
  <rect x="0" y="3.0003" width="1" height="1" class="aw-theme-iconOutline" fill="#464646"/>
  <rect x="0" y="5.0003" width="1" height="1" class="aw-theme-iconOutline" fill="#464646"/>
  <rect x="0" y="7.0003" width="1" height="1" class="aw-theme-iconOutline" fill="#464646"/>
  <rect x="0" y="9.0003" width="1" height="1" class="aw-theme-iconOutline" fill="#464646"/>
  <rect x="0" y="11.0003" width="1" height="1" class="aw-theme-iconOutline" fill="#464646"/>
  <rect x="0" y="13.0003" width="1" height="1" class="aw-theme-iconOutline" fill="#464646"/>
  <rect x="0" y="15.0003" width="1" height="1" class="aw-theme-iconOutline" fill="#464646"/>
  <rect x="2" y="15.0003" width="1" height="1" class="aw-theme-iconOutline" fill="#464646"/>
  <rect x="4" y="15.0003" width="1" height="1" class="aw-theme-iconOutline" fill="#464646"/>
  <rect x="6" y="15.0003" width="1" height="1" class="aw-theme-iconOutline" fill="#464646"/>
  <rect x="8" y="15.0003" width="1" height="1" class="aw-theme-iconOutline" fill="#464646"/>
  <rect x="10" y="15.0003" width="1" height="1" class="aw-theme-iconOutline" fill="#464646"/>
  <rect x="12" y="15.0003" width="1" height="1" class="aw-theme-iconOutline" fill="#464646"/>
  <rect x="14" y="15.0003" width="1" height="1" class="aw-theme-iconOutline" fill="#464646"/>
</svg>