<?xml version="1.0" encoding="UTF-8"?>
<svg id="Layer_1" data-name="Layer 1" xmlns="http://www.w3.org/2000/svg" viewBox="0 0 16 16">
  <path d="m4,4.0003H1V1.0003h3v3Zm-2-1h1v-1h-1v1Z" class="aw-theme-iconOutline" fill="#464646"/>
  <path d="m4,10.0003H0v-5H4v5Zm-3-1h2v-3H1v3Z" class="aw-theme-iconOutline" fill="#464646"/>
  <path d="m10,4.0003h-3V1.0003h3v3Zm-2-1h1v-1h-1v1Z" fill="#464646"/>
  <polygon points="7.9995 10.0003 7 10.0003 7 5.0003 11 5.0003 11 7.0003 10 7.0003 10 6.0003 8 6.0003 7.9995 10.0003" class="aw-theme-iconOutline" fill="#464646"/>
  <rect x="5" y=".0003" width="1" height="11" class="aw-theme-iconOutline" fill="#464646"/>
  <path d="m15.8511,11.1307l-1.3564-1.3374-.7021.7119.502.4951h-2.2944v-2.2925l.5024.499.7046-.7095-1.3608-1.3521c-.1953-.1934-.5098-.1934-.7051,0l-1.3481,1.3394.7046.7095.5024-.499v2.3052h-2.29l.5-.5-.707-.707-1.3564,1.356c-.0938.0938-.1465.2207-.1465.3535s.0527.2598.1465.3535l1.3516,1.3511.707-.707-.5-.5h2.2949v2.3052l-.5024-.499-.7046.7095,1.3481,1.3394c.0977.0967.2251.145.3525.145s.2549-.0483.3525-.145l1.3608-1.3521-.7046-.7095-.5024.499v-2.2925h2.2903l-.4978.5044.7114.7026,1.3521-1.3696c.0933-.0942.145-.2217.144-.3545s-.0547-.2593-.1489-.3525Z" class="aw-theme-iconOutline" fill="#464646"/>
</svg>