<?xml version="1.0" encoding="UTF-8"?>
<svg id="Layer_1" data-name="Layer 1" xmlns="http://www.w3.org/2000/svg" viewBox="0 0 16 16">
  <rect x="4" y="7.0003" width="2" height="1" class="aw-theme-iconOutline" fill="#464646"/>
  <path d="m15.8511,11.1307l-1.3564-1.3374-.7021.7119.502.4951h-2.2944v-2.2925l.5024.499.7046-.7095-1.3608-1.3521c-.1953-.1934-.5098-.1934-.7051,0l-1.1411,1.1337V2.2933L7.707.0003H0v10h8.2958l-1.1494,1.1489c-.0938.0938-.1465.2207-.1465.3535s.0527.2598.1465.3535l1.3516,1.3511.707-.707-.5-.5h2.2949v2.3052l-.5024-.499-.7046.7095,1.3481,1.3394c.0977.0967.2251.145.3525.145s.2549-.0483.3525-.145l1.3608-1.3521-.7046-.7095-.5024.499v-2.2925h2.2903l-.4978.5044.7114.7026,1.3521-1.3696c.0933-.0942.145-.2217.144-.3545s-.0547-.2593-.1489-.3525ZM4,1.0003h2v2h-2V1.0003Zm-3,0h2v3h4V1.0003h.293l1.707,1.707v6.293h-1v-2.5c0-.8271-.6729-1.5-1.5-1.5h-3c-.8271,0-1.5.6729-1.5,1.5v2.5h-1V1.0003Zm6,8H3v-2.5c0-.2759.2241-.5.5-.5h3c.2759,0,.5.2241.5.5v2.5Zm1.71,2l.5-.5-.5-.5h1.29v-1.3071l.4976.501.5024-.499v2.3052h-2.29Z" class="aw-theme-iconOutline" fill="#464646"/>
</svg>