<?xml version="1.0" encoding="UTF-8"?>
<svg id="Layer_1" data-name="Layer 1" xmlns="http://www.w3.org/2000/svg" viewBox="0 0 16 16">
  <path d="m15.8511,11.1307l-1.3564-1.3374-.7021.7119.502.4951h-2.2964v-2.2925l.5029.4995.7046-.7095-1.3613-1.3525c-.1953-.1934-.5098-.1934-.7051,0l-1.3486,1.3398.7046.7095.5029-.4995v2.3051h-2.2881l.4976-.4976-.707-.707-1.354,1.3535c-.0938.0938-.1465.2207-.1465.3535s.0527.2598.1465.3535l1.3491,1.3486.707-.707-.4976-.4976h2.293v2.3051l-.5029-.4995-.7046.7095,1.3486,1.3398c.0977.0967.2251.145.3525.145s.2549-.0483.3525-.145l1.3613-1.3525-.7046-.7095-.5029.4995v-2.2925h2.2922l-.4978.5044.7114.7026,1.3521-1.3696c.0933-.0942.145-.2217.144-.3545s-.0547-.2593-.1489-.3525Z" class="aw-theme-iconOutline" fill="#464646"/>
  <path d="m.8711,9.8631l-.9326-.3613C1.9404,4.3382,3.8574,1.8265,5.7969,1.8265c.0161,0,.0322.0005.0483.0005,1.2632.0278,2.1294,1.0894,2.8936,2.0264.6548.8037,1.2783,1.5527,1.9609,1.5137.6147-.0435,1.8457-.7856,3.1851-5.2715l.958.2861c-1.1689,3.9155-2.5015,5.8721-4.0728,5.9824-1.208.0884-2.0186-.9131-2.8062-1.8789-.6885-.8438-1.3389-1.6406-2.1401-1.6582-.0088-.0005-.0176-.0005-.0269-.0005-1.0088,0-2.6753,1.2329-4.9258,7.0366Z" class="aw-theme-iconOutline" fill="#464646"/>
</svg>