<?xml version="1.0" encoding="UTF-8"?>
<svg id="Layer_1" data-name="Layer 1" xmlns="http://www.w3.org/2000/svg" viewBox="0 0 16 16">
  <path d="m9.7255,8.8535l-4.2255-2.1359V1.5c0-.2764-.2236-.5-.5-.5s-.5.2236-.5.5v5.2176L.2745,8.8535c-.2465.1245-.3452.4253-.2206.6719.124.2456.4243.3442.6718.2207l4.2743-2.1611,4.2743,2.1611c.0723.0366.1494.0537.2251.0537.1826,0,.3589-.1001.4467-.2744.1245-.2466.0259-.5474-.2206-.6719Z" class="aw-theme-iconOutline" fill="#464646"/>
  <path d="m15.8511,11.1307l-1.3564-1.3374-.7021.7119.502.4951h-2.2944v-2.2925l.5024.499.7046-.7095-1.3608-1.3521c-.1953-.1934-.5098-.1934-.7051,0l-1.3481,1.3394.7046.7095.5024-.499v2.3052h-2.29l.5-.5-.707-.707-1.3564,1.356c-.0938.0938-.1465.2207-.1465.3535s.0527.2598.1465.3535l1.3516,1.3511.707-.707-.5-.5h2.2949v2.3052l-.5024-.499-.7046.7095,1.3481,1.3394c.0977.0967.2251.145.3525.145s.2549-.0483.3525-.145l1.3608-1.3521-.7046-.7095-.5024.499v-2.2925h2.2903l-.4978.5044.7114.7026,1.3521-1.3696c.0933-.0942.145-.2217.144-.3545s-.0547-.2593-.1489-.3525Z" class="aw-theme-iconOutline" fill="#464646"/>
</svg>