<?xml version="1.0" encoding="UTF-8"?>
<svg id="Layer_1" data-name="Layer 1" xmlns="http://www.w3.org/2000/svg" viewBox="0 0 16 16">
  <path d="m12.75,3.5373L6.7451.0671c-.1543-.0889-.3452-.0894-.5005.0005L.2495,3.5373c-.1543.0894-.2495.2544-.2495.4326v6.9058c0,.1787.0952.3433.2495.4326l6,3.4702c.0776.0449.1641.0674.2505.0674.0854,0,.1709-.022.2476-.0654l1.604-.9141-.4951-.8691-.8564.4881v-5.7568l5-2.8915v1.2774h1v-2.144c0-.1787-.0952-.3438-.25-.4331ZM6.4951,1.0778l5.0059,2.8928-5.001,2.8918L1.4982,3.9697,6.4951,1.0778ZM1,4.8366l5,2.892v5.7504l-5-2.8918v-5.7505Z" class="aw-theme-iconOutline" fill="#464646"/>
  <path d="m15.8511,11.1307l-1.3564-1.3374-.7021.7119.502.4951h-2.2944v-2.2925l.5024.499.7046-.7095-1.3608-1.3521c-.1953-.1934-.5098-.1934-.7051,0l-1.3481,1.3394.7046.7095.5024-.499v2.3052h-2.29l.5-.5-.707-.707-1.3564,1.356c-.0938.0938-.1465.2207-.1465.3535s.0527.2598.1465.3535l1.3516,1.3511.707-.707-.5-.5h2.2949v2.3052l-.5024-.499-.7046.7095,1.3481,1.3394c.0977.0967.2251.145.3525.145s.2549-.0483.3525-.145l1.3608-1.3521-.7046-.7095-.5024.499v-2.2925h2.2903l-.4978.5044.7114.7026,1.3521-1.3696c.0933-.0942.145-.2217.144-.3545s-.0547-.2593-.1489-.3525Z" class="aw-theme-iconOutline" fill="#464646"/>
</svg>