<?xml version="1.0" encoding="UTF-8"?>
<svg id="Layer_1" data-name="Layer 1" xmlns="http://www.w3.org/2000/svg" viewBox="0 0 16 16">
  <path d="M13,10H2v4H13v-4Zm-1,3H3v-2H12v2Z" class="aw-theme-iconOutline" fill="#464646"/>
  <path d="M7.1465,8.8535c.0977,.0977,.2256,.1465,.3535,.1465s.2559-.0488,.3535-.1465l2.5-2.5c.1953-.1953,.1953-.5117,0-.707s-.5117-.1953-.707,0l-1.6465,1.6465V2h-1V7.293l-1.6465-1.6465c-.1953-.1953-.5117-.1953-.707,0s-.1953,.5117,0,.707l2.5,2.5Z" class="aw-theme-iconOutline" fill="#464646"/>
  <path d="M0,0V16H15V0H0ZM14,15H1V1H14V15Z" class="aw-theme-iconOutline" fill="#464646"/>
</svg>