<?xml version="1.0" encoding="UTF-8"?><svg id="Layer_1" xmlns="http://www.w3.org/2000/svg" viewBox="0 0 24 24"><path d="m3.504,15.984c-.079,0-.159-.019-.232-.057-.201-.105-.306-.333-.255-.555l1.911-8.385H.506c-.208,0-.394-.128-.467-.322-.074-.194-.02-.414.135-.552L6.915.126c.091-.081.209-.126.332-.126h5.268c.201,0,.383.121.461.306s.037.4-.104.544l-3.119,3.182h3.777c.198,0,.378.117.458.298.079.182.045.393-.089.539L3.873,15.822c-.097.105-.232.162-.369.162ZM1.822,5.988h3.732c.152,0,.296.069.391.188.095.119.131.275.097.423l-1.63,7.153,7.983-8.721h-3.831c-.201,0-.383-.121-.461-.306s-.037-.4.104-.544l3.118-3.182h-3.888L1.822,5.988Z" fill="#464646"/><path d="m13.461,23.987c-.079,0-.158-.019-.232-.057-.2-.105-.306-.333-.255-.555l1.91-8.385h-4.421c-.208,0-.394-.128-.467-.322s-.02-.414.135-.552l6.741-5.989c.092-.081.21-.126.332-.126h5.267c.201,0,.383.121.461.306s.037.4-.104.544l-3.118,3.182h3.776c.198,0,.378.117.458.299.079.181.045.393-.089.539l-10.025,10.953c-.098.105-.232.162-.369.162Zm-1.683-9.996h3.732c.152,0,.296.069.391.188.095.118.131.274.097.423l-1.63,7.152,7.982-8.721h-3.83c-.201,0-.383-.121-.461-.307s-.037-.399.104-.543l3.118-3.182h-3.887l-5.616,4.989Z" fill="#464646"/></svg>