<?xml version="1.0" encoding="UTF-8"?><svg id="Layer_1" xmlns="http://www.w3.org/2000/svg" viewBox="0 0 24 24"><path d="M17.284,10.939c-1.389,0-2.677,.438-3.738,1.179l-.004-6.618h1.871c.196,0,.374-.114,.455-.293,.081-.178,.051-.388-.078-.535L11.919,.225c-.095-.109-.232-.172-.377-.172s-.282,.062-.377,.172l-3.872,4.446c-.129,.147-.159,.357-.078,.535,.081,.179,.259,.293,.455,.293h1.856l.005,7.797c-.719-.581-1.525-1.076-2.418-1.469l.6-2.133c.051-.18-.004-.373-.14-.5-.137-.127-.331-.17-.509-.106L.291,11.492c-.152,.054-.269,.178-.313,.333s-.012,.321,.088,.448l4.492,5.707c.116,.147,.308,.222,.49,.181,.185-.036,.333-.174,.384-.354l.581-2.066c1.828,1.12,3.524,3.828,3.524,7.776v.027c0,.276,.224,.5,.5,.5h3.016c.133,0,.26-.053,.354-.146s.146-.221,.146-.354v-.674c1.06,.738,2.345,1.174,3.731,1.174,3.612,0,6.551-2.938,6.551-6.551s-2.938-6.551-6.551-6.551Zm-11.383,3.613c-.132-.059-.284-.06-.416,.005-.131,.062-.229,.177-.269,.316l-.481,1.714L1.282,12.201l5.206-1.848-.458,1.629c-.069,.247,.06,.506,.298,.6,1.248,.493,2.321,1.187,3.204,2.053l.002,3.838c-.924-2.053-2.342-3.349-3.633-3.923Zm4.636,8.489l-.011-18.042c0-.276-.224-.5-.5-.5h-1.258l2.773-3.185,2.772,3.185h-1.272c-.133,0-.26,.053-.354,.146s-.146,.221-.146,.354l.005,7.978c-1.121,1.176-1.813,2.763-1.813,4.512s.695,3.341,1.819,4.518v1.033h-2.015Zm6.747,0c-3.061,0-5.551-2.49-5.551-5.551s2.49-5.551,5.551-5.551,5.551,2.491,5.551,5.551-2.49,5.551-5.551,5.551Z" class="aw-theme-iconOutline" fill="#464646"/><path d="M17.335,13.803l1.614,1.614h-2.017c-1.815,0-3.328,1.513-3.328,3.328,0,1.311,.807,2.521,2.017,3.025l.403-.908c-.908-.303-1.412-1.109-1.412-2.017,0-1.311,1.008-2.319,2.319-2.319h2.017l-1.614,1.614,.706,.706,2.925-2.925-2.925-2.824-.706,.706Z" class="aw-theme-iconOutline" fill="#464646"/></svg>