<?xml version="1.0" encoding="UTF-8"?>
<svg id="Layer_1" data-name="Layer 1" xmlns="http://www.w3.org/2000/svg" viewBox="0 0 16 16">
  <path d="M13.3535,8.6465c-.1953-.1953-.5117-.1953-.707,0s-.1953,.5117,0,.707l1.6465,1.6465h-2.793c-1.9297,0-3.5,1.5703-3.5,3.5v1.5h1v-1.5c0-1.3784,1.1216-2.5,2.5-2.5h2.793l-1.6465,1.6465c-.1953,.1953-.1953,.5117,0,.707,.0977,.0977,.2256,.1465,.3535,.1465s.2559-.0488,.3535-.1465l2.5-2.5c.1953-.1953,.1953-.5117,0-.707l-2.5-2.5Z" class="aw-theme-iconOutline" fill="#464646"/>
  <path d="M7,2V0H0V14H7v-1H1V6H15v2h1V2H7ZM1,5V1H6V3H15v2H1Z" class="aw-theme-iconOutline" fill="#464646"/>
</svg>