<?xml version="1.0" encoding="UTF-8"?>
<svg id="Layer_1" data-name="Layer 1" xmlns="http://www.w3.org/2000/svg" viewBox="0 0 16 16">
  <path d="M6,5l.0009-2h.692l.8599,1.7231c.0874,.1753,.2642,.2769,.4478,.2769,.0747,0,.1509-.0166,.2227-.0527,.2471-.123,.3477-.4233,.2241-.6704l-.7318-1.4664c.4651-.255,.785-.7435,.785-1.3105,0-.8271-.6729-1.5-1.4995-1.5h-2.001l.0014,1.7391-.0014,3.2609h1Zm1.5005-3.5c0,.2759-.2241,.5-.4995,.5h-.9995v-.1765s.0002-.8235,.0002-.8235h.9993c.2754,0,.4995,.2241,.4995,.5Z" class="aw-theme-iconOutline" fill="#464646"/>
  <path d="M4,3.0005V1.9995c0-1.1025-.8975-1.9995-2.0005-1.9995S0,.897,0,1.9995v1.001c0,1.1025,.897,1.9995,2,1.9995s2-.897,2-1.9995Zm-1,0c0,.5513-.4487,.9995-1,.9995s-1-.4482-1-.9995V1.9995c0-.5513,.4482-.9995,.999-.9995,.5518,0,1.001,.4482,1.001,.9995v1.001Z" class="aw-theme-iconOutline" fill="#464646"/>
  <path d="M15.8535,8.1465l-2-2c-.1953-.1953-.5117-.1953-.707,0s-.1953,.5117,0,.707l1.1465,1.1465h-2.6495l-4.1434-2.5898-4.9434,3.0898,4.4434,2.7773v3.0161l-1.1465-1.1465c-.1953-.1953-.5117-.1953-.707,0s-.1953,.5117,0,.707l2,2c.0977,.0977,.2256,.1465,.3535,.1465s.2559-.0488,.3535-.1465l2-2c.1953-.1953,.1953-.5117,0-.707s-.5117-.1953-.707,0l-1.1465,1.1465v-3.0161l3.6434-2.2773h2.6495l-1.1465,1.1465c-.1953,.1953-.1953,.5117,0,.707,.0977,.0977,.2256,.1465,.3535,.1465s.2559-.0488,.3535-.1465l2-2c.1953-.1953,.1953-.5117,0-.707Zm-8.3535,2.2637l-3.0566-1.9102,3.0566-1.9102,3.0566,1.9102-3.0566,1.9102Z" class="aw-theme-iconOutline" fill="#464646"/>
</svg>