<?xml version="1.0" encoding="UTF-8"?>
<svg id="Layer_1" data-name="Layer 1" xmlns="http://www.w3.org/2000/svg" viewBox="0 0 16 16">
  <path d="M7,6v10h9V6H7ZM15,15h-7V7h7V15Z" class="aw-theme-iconOutline" fill="#464646"/>
  <rect x="9" y="8" width="5" height="1" class="aw-theme-iconOutline" fill="#464646"/>
  <path d="M2,0C.897,0,0,.897,0,1.9995v1.001c0,1.1025,.897,1.9995,2,1.9995s2-.897,2-1.9995V1.9995c0-1.1025-.897-1.9995-2-1.9995Zm1,3.0005c0,.5513-.4487,.9995-1,.9995s-1-.4482-1-.9995V1.9995c0-.5513,.4487-.9995,1-.9995s1,.4482,1,.9995v1.001Z" class="aw-theme-iconOutline" fill="#464646"/>
  <path d="M6.6915,2.9995l.8612,1.7241c.0874,.1753,.2642,.2764,.4478,.2764,.0752,0,.1514-.0171,.2231-.0527,.2471-.1235,.3472-.4238,.2236-.6709l-.7325-1.4664c.4653-.2549,.7852-.7433,.7852-1.31,0-.8271-.6729-1.5-1.5-1.5h-2l.0005,2.8569-.0005,2.1431h1l.0004-2.0005h.6911Zm.8085-1.4995c0,.2754-.2241,.4995-.5,.4995h-.9993l.0002-.9995h.9991c.2759,0,.5,.2241,.5,.5Z" class="aw-theme-iconOutline" fill="#464646"/>
</svg>