<?xml version="1.0" encoding="UTF-8"?>
<svg id="Layer_1" data-name="Layer 1" xmlns="http://www.w3.org/2000/svg" viewBox="0 0 16 16">
  <path d="M13.6611,3l-.4526-1.9961-7.4011,1.6428-.6589-1.1584c-.1992-.3057-.5361-.4883-.9009-.4883H1.0796c-.5952,0-1.0796,.4902-1.0796,1.0928V15H16V3h-2.3389Zm-1.2075-.8037l.6357,2.8037H2.751l-.1431-.6187L12.4536,2.1963Zm-11.4536-.1035c0-.0513,.0356-.0928,.0796-.0928l3.2158,.0088,.491,.8646-3.3796,.7502,.3176,1.3765h-.7244V2.0928ZM15,14H1V6H15V14Zm0-9h-.8854l-.2267-1h1.1122v1Z" class="aw-theme-iconOutline" fill="#464646"/>
</svg>