<?xml version="1.0" encoding="UTF-8"?>
<svg id="Layer_1" data-name="Layer 1" xmlns="http://www.w3.org/2000/svg" viewBox="0 0 16 16">
  <path d="M15.7803,8.6885c-.3042-.4697-.937-.7588-1.6948-.3325l-.0854,.0554V3.686L9.5,1.1147,5,3.686V7.9864c-.6609,.0463-1.2502,.2419-1.9194,.4941-.5127,.1934-1.0225,.3105-1.4727,.4141-.23,.0527-.4395,.1016-.6201,.1528-.7017,.1978-1.1201,.9473-.9521,1.7065,.0815,.3672,.1694,.751,.2114,.8999,.1914,.688,.9121,1.105,1.6108,.9297,.2935-.0742,.5767-.1519,.8462-.2256,.8169-.2241,1.6611-.4561,1.9727-.3174,1.272,.562,3.6069,1.5049,4.957,1.5049l.3491,.0054c.1055,.0024,.2095,.0049,.314,.0049,.4683,0,.9341-.0498,1.4849-.3711,.0923-.0542,2.2783-1.3374,3.5874-2.5171,.7168-.5288,.772-1.4219,.4111-1.979Zm-3.3696,.7529l-.7256,.3291c-.1714-.1606-.3999-.2725-.6714-.3164l-1.0137-.1364v-2.766l3-1.7141v4.2219l-.5894,.382Zm-3.4106-2.8897v2.6273c-.0262-.0056-.0519-.011-.0762-.0232-.0146-.0073-1.478-.7314-1.5898-.772-.4991-.1799-.9351-.2902-1.334-.3506v-3.1956l3,1.7141Zm3.4924-2.5756l-2.9924,1.71-2.9924-1.71,2.9924-1.71,2.9924,1.71Zm2.2459,5.917c-1.2705,1.1416-3.4399,2.4155-3.4609,2.4282-.4287,.2495-.7446,.2417-1.271,.23l-.3726-.0059c-.8516,0-2.5112-.5176-4.5532-1.4199-.1978-.0874-.4194-.124-.665-.124-.5439,0-1.2041,.1807-1.9756,.3921-.2632,.0718-.54,.1479-.8271,.2202-.1763,.0449-.356-.0586-.4028-.229-.0391-.1406-.1211-.502-.1978-.8472-.0464-.2085,.0425-.4702,.2476-.5283,.1665-.0469,.3604-.0913,.5728-.1401,.4565-.1055,1.0254-.2363,1.6006-.4531,1.1567-.4351,1.9468-.6738,3.5391-.1006,.1187,.0522,1.2095,.5874,1.5029,.7339,.1289,.0649,.2686,.1084,.4155,.1284l1.9761,.2656c.1206,.0195,.1821,.0576,.1641,.2026-.0205,.166-.1694,.4297-.4839,.3916l-1.8472-.2515c-.1479-.0205-.291-.0635-.4248-.1274l-1.4668-.7041c-.2505-.1206-.5479-.0142-.667,.2344-.1196,.249-.0146,.5474,.2344,.667l1.4673,.7046c.228,.1089,.4702,.1816,.7212,.2163l1.8721,.2544c.8896,.0835,1.5024-.5806,1.5869-1.2617,.0024-.019,.0044-.0381,.0059-.0566l.8135-.3696c.0728-.0332,.0732-.0327,.1602-.0889l1.6011-1.0439c.2373-.1313,.3057-.0283,.3369,.021,.0928,.1431,.1025,.4336-.2021,.6616Z" class="aw-theme-iconOutline" fill="#464646"/>
</svg>