<?xml version="1.0" encoding="UTF-8"?>
<svg id="Layer_1" data-name="Layer 1" xmlns="http://www.w3.org/2000/svg" viewBox="0 0 16 16">
  <path d="m11,6.5c0-.1758-.0923-.3384-.2427-.4287l-5-3c-.1582-.0947-.3564-.0947-.5146,0L.2427,6.0713c-.1504.0903-.2427.2529-.2427.4287s.0923.3384.2427.4287l2.202,1.3212L.2427,9.5713c-.1504.0903-.2427.2529-.2427.4287s.0923.3384.2427.4287l5,3c.0791.0474.1685.0713.2573.0713s.1782-.0239.2573-.0713l5-3c.1504-.0903.2427-.2529.2427-.4287s-.0923-.3384-.2427-.4287l-2.2021-1.3214,2.2021-1.3212c.1504-.0903.2427-.2529.2427-.4287Zm-1.4717,3.5l-4.0283,2.417-4.0283-2.417,1.9448-1.167,1.8262,1.0957c.0791.0474.1685.0713.2573.0713s.1782-.0239.2573-.0713l1.8261-1.0956,1.9449,1.1669Zm-4.0283-1.083L1.4717,6.5l4.0283-2.417,4.0283,2.417-4.0283,2.417Z" class="aw-theme-iconOutline" fill="#464646"/>
  <path d="m11.5,3h-.293l1.1465-1.1465c.1953-.1953.1953-.5117,0-.707s-.5117-.1953-.707,0l-2,2c-.1953.1953-.1953.5117,0,.707l2,2c.0977.0977.2256.1465.3535.1465s.2559-.0488.3535-.1465c.1953-.1953.1953-.5117,0-.707l-1.1465-1.1465h.293c1.9297,0,3.5,1.5703,3.5,3.5s-1.5703,3.5-3.5,3.5v1c2.4814,0,4.5-2.0186,4.5-4.5s-2.0186-4.5-4.5-4.5Z" class="aw-theme-iconOutline" fill="#464646"/>
</svg>