<?xml version="1.0" encoding="UTF-8"?>
<svg id="Layer_1" data-name="Layer 1" xmlns="http://www.w3.org/2000/svg" viewBox="0 0 16 16">
  <path d="M11.5,7.0003c-.1389,0-.2699,.0286-.4056,.041L7.0889,.0423l-.8682,.4971,3.8442,6.7172c-1.3007,.4417-2.3276,1.4515-2.7883,2.7433H1.3618l3.2026-5.584-.8672-.4971L.0649,10.2513c-.0889,.1543-.0884,.3447,.001,.499s.2544,.2495,.4326,.2495H7.0506c-.0187,.1664-.0506,.3291-.0506,.5005,0,2.4814,2.0186,4.5,4.5,4.5s4.5-2.0186,4.5-4.5-2.0186-4.5-4.5-4.5Zm0,8c-1.9297,0-3.5-1.5703-3.5-3.5s1.5703-3.5,3.5-3.5,3.5,1.5703,3.5,3.5-1.5703,3.5-3.5,3.5Z" class="aw-theme-iconOutline" fill="#464646"/>
  <path d="M11.5,9.0003c-.2764,0-.5,.2236-.5,.5v2.5c0,.2764,.2236,.5,.5,.5s.5-.2236,.5-.5v-2.5c0-.2764-.2236-.5-.5-.5Z" class="aw-theme-iconOutline" fill="#464646"/>
  <circle cx="11.5" cy="13.5003" r=".5" class="aw-theme-iconOutline" fill="#464646"/>
</svg>