<?xml version="1.0" encoding="UTF-8"?>
<svg id="Layer_1" data-name="Layer 1" xmlns="http://www.w3.org/2000/svg" viewBox="0 0 16 16">
  <path d="m12.5361,5.228l-.2432.9697,1.6072.4036c-1.3276.7219-2.7668,1.9738-3.6715,3.2228-.4851-.4047-1.0749-.6788-1.7286-.7736V1.9827l1.7383,1.8224.7236-.6904L8,.0098l-2.9619,3.105.7236.6904,1.7383-1.8224v7.0678c-.6537.0948-1.2435.3689-1.7286.7736-.9047-1.2491-2.3439-2.5009-3.6715-3.2228l1.6072-.4036-.2432-.9697-3.4639.8696.8887,3.3389.9668-.2568-.4907-1.8438c1.309.6364,2.86,1.9818,3.7156,3.2424-.3648.5524-.5803,1.2118-.5803,1.9218,0,1.9297,1.5703,3.5,3.5,3.5s3.5-1.5703,3.5-3.5c0-.71-.2155-1.3694-.5803-1.9218.8555-1.2606,2.4066-2.606,3.7156-3.2424l-.4907,1.8438.9668.2568.8887-3.3389-3.4639-.8696Zm-4.5361,9.772c-1.3784,0-2.5-1.1216-2.5-2.5s1.1216-2.5,2.5-2.5,2.5,1.1216,2.5,2.5-1.1216,2.5-2.5,2.5Z" class="aw-theme-iconOutline" fill="#464646"/>
</svg>