<?xml version="1.0" encoding="UTF-8"?><svg id="Layer_1" xmlns="http://www.w3.org/2000/svg" viewBox="0 0 16 16"><path d="m8.972,13c.004-.096.016-.189.016-.286,0-.239-.015-.477-.039-.714h1.05v-4h-2.852c-.861-.935-1.941-1.593-3.148-1.922v-1.078H0v3h4v-.874c.602.196,1.163.489,1.667.874h-.667v4h2.923c.028.237.065.473.065.714,0,.097-.011.191-.016.286h-.972v3h4v-3h-2.028ZM3,7H1v-1h2v1Zm3,2h3v2h-3v-2Zm4,6h-2v-1h2v1Z" fill="#464646"/><path d="m13.972,8c.004-.096.016-.189.016-.286,0-.239-.015-.477-.039-.714h1.05V3h-2.851c-.861-.935-1.941-1.593-3.149-1.921V0h-4v3h4v-.874c.602.196,1.163.489,1.667.874h-.667v4h2.923c.028.237.065.472.065.714,0,.097-.011.191-.016.286h-.972v3h4v-3h-2.028Zm-5.972-6h-2v-1h2v1Zm3,2h3v2h-3v-2Zm4,6h-2v-1h2v1Z" fill="#464646"/></svg>