<?xml version="1.0" encoding="UTF-8"?>
<svg id="Layer_1" data-name="Layer 1" xmlns="http://www.w3.org/2000/svg" viewBox="0 0 16 16">
  <path d="m11,9.5c0-.1758-.0923-.3384-.2427-.4287l-2.202-1.3214,2.202-1.3212c.1504-.0903.2427-.2529.2427-.4287s-.0923-.3384-.2427-.4287l-5-3c-.1582-.0947-.3564-.0947-.5146,0L.2427,5.5713c-.1504.0903-.2427.2529-.2427.4287s.0923.3384.2427.4287l2.1964,1.3178L.2417,9.0718c-.1504.0908-.2417.2534-.2417.4287s.0923.3379.2427.4282l5,3c.0791.0474.1685.0713.2573.0713s.1782-.0239.2573-.0713l5-3c.1504-.0903.2427-.2529.2427-.4287ZM5.5,3.583l4.0283,2.417-4.0283,2.417L1.4717,6l4.0283-2.417Zm0,8.334l-4.0298-2.418,1.9397-1.17,1.8328,1.0997c.0791.0474.1685.0713.2573.0713s.1782-.0239.2573-.0713l1.8262-1.0957,1.9448,1.167-4.0283,2.417Z" class="aw-theme-iconOutline" fill="#464646"/>
  <path d="m16,8.5c0-2.4814-2.0186-4.5-4.5-4.5v1c1.9297,0,3.5,1.5703,3.5,3.5s-1.5703,3.5-3.5,3.5h-.293l1.1465-1.1465c.1953-.1953.1953-.5117,0-.707s-.5117-.1953-.707,0l-2,2c-.1953.1953-.1953.5117,0,.707l2,2c.0977.0977.2256.1465.3535.1465s.2559-.0488.3535-.1465c.1953-.1953.1953-.5117,0-.707l-1.1465-1.1465h.293c2.4814,0,4.5-2.0186,4.5-4.5Z" class="aw-theme-iconOutline" fill="#464646"/>
</svg>