<?xml version="1.0" encoding="UTF-8"?>
<svg id="Layer_1" data-name="Layer 1" xmlns="http://www.w3.org/2000/svg" viewBox="0 0 16 16">
  <path d="m7.999.0003C3.5884.0003,0,3.5897,0,8.0013s3.5884,7.999,7.999,7.999,8.001-3.5884,8.001-7.999S12.4106.0003,7.999.0003Zm.0096,1.0005h-.0193c.0032,0,.0064-.0005.0096-.0005s.0064.0005.0096.0005Zm-.0096,13.9995c-1.7512,0-3.35-.6509-4.5787-1.7177l.2931-.3141-.731-.6821-.2693.2886c-1.0641-1.2281-1.7131-2.825-1.7131-4.5737C1,4.3094,3.8736,1.2833,7.5,1.0256v.9742h1v-.9741c3.4605.2468,6.2281,3.0145,6.4747,6.4751h-.9747v.999h.9747c-.2576,3.6266-3.2837,6.5005-6.9757,6.5005Z" fill="#464646"/>
  <polygon points="6.0361 9.2572 6.7559 9.9515 7.4629 9.2445 6.7559 8.5374 6.0361 9.2572" fill="#464646"/>
  <polygon points="3.5371 11.7562 4.2568 12.4505 4.9639 11.7435 4.2568 11.0364 3.5371 11.7562" fill="#464646"/>
  <polygon points="4.7866 10.5067 5.5063 11.201 6.2134 10.494 5.5063 9.7869 4.7866 10.5067" fill="#464646"/>
  <rect x="7.5" y="3.0008" width="1" height=".999" fill="#464646"/>
  <rect x="7.5" y="5.0008" width="1" height=".999" fill="#464646"/>
  <polygon points="8.5 7.0008 7.5 7.0008 7.5 7.7832 7.2861 7.9827 7.9756 8.7069 8.1974 8.4998 9 8.4998 9 7.5008 8.5 7.5008 8.5 7.0008" fill="#464646"/>
  <rect x="10" y="7.5008" width="1" height=".999" fill="#464646"/>
  <rect x="12" y="7.5008" width="1" height=".999" fill="#464646"/>
</svg>