<?xml version="1.0" encoding="UTF-8"?>
<svg id="Layer_1" data-name="Layer 1" xmlns="http://www.w3.org/2000/svg" viewBox="0 0 16 16">
  <path d="m11.5,7h-2.7858l1.8044-1.8169c.1929-.1943.1919-.5083-.0024-.7017-.1938-.1934-.5078-.1919-.7017.0024l-2.6665,2.6851c-.1919.1934-.1919.5059,0,.6992l2.6304,2.6479c.0972.0977.2246.1465.3521.1465.1265,0,.2529-.0479.3496-.144.1943-.1934.1953-.5073.0024-.7017l-1.8049-1.8169h2.8225c1.9297,0,3.5,1.5703,3.5,3.5s-1.5703,3.5-3.5,3.5-3.5-1.5703-3.5-3.5h-1c0,2.4814,2.0186,4.5,4.5,4.5s4.5-2.0186,4.5-4.5-2.0186-4.5-4.5-4.5Z" class="aw-theme-iconOutline" fill="#464646"/>
  <path d="m0,14h4v-4H0v4Zm1-3h2v2H1v-2Z" class="aw-theme-iconOutline" fill="#464646"/>
  <path d="m0,9h4v-4H0v4Zm1-3h2v2H1v-2Z" class="aw-theme-iconOutline" fill="#464646"/>
  <path d="m0,4h4V0H0v4ZM1,1h2v2H1V1Z" class="aw-theme-iconOutline" fill="#464646"/>
</svg>