<?xml version="1.0" encoding="UTF-8"?>
<svg id="Layer_1" data-name="Layer 1" xmlns="http://www.w3.org/2000/svg" viewBox="0 0 16 16">
  <path d="M15.748,1.7964c-.0043-.0025-.0096-.0013-.014-.0037L12.7505,.0674c-.1553-.0898-.3457-.0898-.501,0l-3,1.7349c-.1538,.0889-.249,.2529-.2495,.4307,0,.0131,.0087,.0239,.0097,.0369l-.0097,3.4138c0,.0046,.0034,.0084,.0035,.013-.0001,.0046-.0035,.0082-.0035,.0129v3.4375c0,.1787,.0957,.3442,.2505,.4336l2.9619,1.7046c.0148,.0109,.022,.0288,.0381,.0381,.0771,.0444,.1631,.0669,.2495,.0669s.1733-.0225,.2505-.0674l3-1.7378c.1543-.0894,.2495-.2544,.2495-.4326v-3.4595s-.0003-.0008-.0003-.0012,.0003-.0008,.0003-.0012V2.2305c0-.1797-.0962-.3452-.252-.4341Zm-5.7471,3.6006l.0063-2.2783,1.9917,1.1675-.0063,2.2607-1.9917-1.1499Zm4.999,.0054l-2,1.1582v-2.2745l2-1.1768v2.293ZM12.5,1.0776l2.0048,1.1594-2.0051,1.1827-2.0075-1.181,2.0078-1.1611Zm-2.5,5.4966l2,1.1509v2.2837l-2-1.1509v-2.2837Zm3,3.4482v-2.2946l2-1.1625v2.2989l-2,1.1582Z" class="aw-theme-iconOutline" fill="#464646"/>
  <path d="M6.7495,9.8735c-.0043-.0024-.0095-.0014-.0139-.0037l-2.9852-1.7263c-.1553-.0898-.3462-.0898-.5015,0L.2588,9.8784c-.0782,.0453-.1403,.1104-.1833,.1864-.047,.077-.0755,.1649-.0755,.2584v3.438c0,.1787,.0957,.3442,.2505,.4336l2.9619,1.7041c.0148,.0109,.022,.0288,.0381,.0381,.0771,.0444,.1631,.0669,.2495,.0669s.1729-.0225,.2505-.0674l3-1.7373c.1543-.0894,.2495-.2544,.2495-.4326v-3.46c0-.1787-.0952-.3438-.2505-.4331Zm-3.249-.7197l1.9976,1.1555-1.9991,1.158-1.9926-1.1563,1.9941-1.1572Zm-2.5005,2.0342l2,1.1509v2.2837l-2-1.1504v-2.2842Zm3,3.4487v-2.3025l2-1.1566v2.3008l-2,1.1582Z" class="aw-theme-iconOutline" fill="#464646"/>
  <path d="M5.3535,.6465l-.707,.707,1.6465,1.6465H2.5c-.8271,0-1.5,.6729-1.5,1.5v3.5h1v-3.5c0-.2759,.2241-.5,.5-.5h3.793l-1.6465,1.6465,.707,.707,2.5-2.5c.1953-.1953,.1953-.5117,0-.707L5.3535,.6465Z" class="aw-theme-iconOutline" fill="#464646"/>
</svg>