<?xml version="1.0" encoding="UTF-8"?>
<svg id="Layer_1" data-name="Layer 1" xmlns="http://www.w3.org/2000/svg" viewBox="0 0 16 16">
  <path d="m6.4927,7.5034c0-1.1997-1.3975-1.4155-1.9233-1.4966-.3237-.0503-1.0767-.2002-1.0767-.5088,0-.1978.3989-.4971,1-.4971.6055,0,1.0073.3003,1.0073.499h1c0-.7103-.6331-1.2859-1.5078-1.4486v-1.0514h-1v1.0519c-.8701.1631-1.4995.7374-1.4995,1.4461,0,.7959.647,1.2993,1.9238,1.4971,1.0762.166,1.0762.4146,1.0762.5083,0,.1982-.3989.4976-1,.4976-.606,0-.9927-.2969-.9927-.501h-1c0,.7109.6274,1.2866,1.4945,1.45l.0055,1.0544,1-.0049-.0055-1.0498c.8694-.1635,1.4982-.7375,1.4982-1.4463Z" class="aw-theme-iconOutline" fill="#464646"/>
  <path d="m15.5,5.8291h-.8789c-.3198,0-.6147-.0723-.8521-.2095t-.0005-.0005c-.9155-.5264-1.3413-.6191-2.8457-.6191-.3338,0-.644.0051-.9233.0122v-1.7192L6.707,0H0v12h5.5v-1H1V1h5.02v2.98h2.9795v1.0705c-.127.0068-.2039.0118-.2065.012-.3042.0225-1.229.0908-1.3643.9937-.0068.1143.0034.2427.0342.373-.4756.1851-.8135.6455-.8135,1.1831,0,.1621.0308.3174.0869.46-.3633.2246-.606.6245-.606,1.0801,0,.2891.0981.5562.2627.77-.1646.2134-.2622.4805-.2622.7695,0,.7002.5732,1.27,1.2778,1.27l2.1768.0036c-.5776,1.6357-.442,2.3211-.0762,3.1033.2832.6006.7471.9312,1.3066.9312.3276,0,.5283-.1333.6396-.2446.2686-.2705.2666-.6401.2646-.9692,0-.917.0659-1.1128.4722-1.3984.1138-.0801.2139-.1899.2881-.3154l.2285-.3853c.5952-1.0103.7476-1.2085,1.1626-1.2085l1.6377-.0298c.2725-.0049.4907-.2275.4907-.5v-4.6196c0-.2764-.2236-.5-.5-.5ZM6.98,1.6871l1.3326,1.3329h-1.3326v-1.3329Zm8.02,8.7709l-1.1377.0205c-1.0127,0-1.4116.6768-2.0151,1.7012l-.2305.3901c-.8359.5884-.8965,1.23-.896,2.2817,0,.0376.0005.0874-.001.1338-.0815-.0273-.1953-.1079-.3057-.3418-.228-.4878-.3501-.9448.1616-2.3926.104-.2959.0586-.6255-.1226-.8813-.1807-.2554-.4761-.4077-.7896-.4077h-2.2549c-.1533,0-.2778-.1211-.2778-.27s.1245-.27.2773-.27h.0005c.2764,0,.5-.2236.5-.5s-.2236-.5-.5-.5h-.0005c-.1533,0-.2778-.1211-.2778-.2695,0-.1489.1245-.27.2778-.27h.5195c.2764,0,.5-.2236.5-.5s-.2236-.5-.5-.5c-.1533,0-.2783-.1211-.2783-.27s.125-.27.2783-.27h.647c.269,0,.4902-.2134.4995-.4819.0098-.269-.1953-.4976-.4639-.5166-.0669-.0049-.1919-.0137-.1899-.1899.0156-.0156.0947-.0684.4438-.0938.0088-.001.9282-.0601,2.0586-.0601,1.4463,0,1.6631.0928,2.3462.4858.3892.2246.8569.3433,1.3521.3433h.3789v3.6289Z" class="aw-theme-iconOutline" fill="#464646"/>
</svg>