<svg id="Layer_1" data-name="Layer 1" xmlns="http://www.w3.org/2000/svg" viewBox="0 0 16 16">
  <path d="m5.8545,2.1465L3.8545.1465c-.1953-.1953-.5117-.1953-.707,0s-.1953.5117,0,.707l1.147,1.147H0v1h4.2935l-1.146,1.146c-.1953.1953-.1953.5117,0,.707.0977.0977.2256.1465.3535.1465s.2559-.0488.3535-.1465l2-2c.1953-.1953.1953-.5117,0-.707Z" class="aw-theme-iconOutline" fill="#464646"/>
  <path d="m15.8555,12.1475l-2-2c-.1953-.1953-.5117-.1953-.707,0s-.1953.5117,0,.707l1.1465,1.1465h-2.292v-5.501c0-.2764-.2236-.5-.5-.5h-2.5278c.1157-.2661.1772-.5562.1772-.8535,0-1.1836-.9644-2.1465-2.1499-2.1465s-2.1499.9629-2.1499,2.1465c0,.2974.062.5874.1772.8535h-2.5273c-.2764,0-.5.2236-.5.5v3.0635c0,.2178.1416.4111.3496.4766.209.0664.4346-.0107.5601-.1895.2158-.3086.5674-.4932.9404-.4932.6343,0,1.1499.5166,1.1499,1.1504s-.5156,1.1494-1.1499,1.1494c-.373,0-.7246-.1836-.9404-.4922-.126-.1787-.3525-.2549-.5601-.1895-.208.0654-.3496.2588-.3496.4766v3.0479c0,.2764.2236.5.5.5h9.0005c.2764,0,.5-.2236.5-.5v-1.499h2.292l-1.1465,1.1465c-.1953.1953-.1953.5117,0,.707.0977.0977.2256.1465.3535.1465s.2559-.0488.3535-.1465l2-2c.1953-.1953.1953-.5117,0-.707Zm-4.8525,1.8525H3.0024v-1.5195c.2651.1152.5537.1768.8501.1768,1.1855,0,2.1499-.9639,2.1499-2.1494s-.9644-2.1499-2.1499-2.1499c-.2964,0-.585.0615-.8501.1768v-1.5347h3.0557c.2183,0,.4111-.1416.4771-.3496.0654-.208-.0112-.4346-.1899-.5601-.3086-.2158-.4927-.5688-.4927-.9438,0-.6323.5156-1.1465,1.1499-1.1465s1.1499.5142,1.1499,1.1465c0,.375-.1841.728-.4922.9443-.1787.125-.2554.3516-.1895.5596.0654.208.2583.3496.4766.3496h3.0557v5.001h-1.002v1h1.002v.999Z" class="aw-theme-iconOutline" fill="#464646"/>
</svg>