<svg id="Layer_1" data-name="Layer 1" xmlns="http://www.w3.org/2000/svg" viewBox="0 0 16 16">
  <path d="m15.5,16H6.5c-.2764,0-.5-.2236-.5-.5v-3.0479c0-.2178.1416-.4111.3496-.4766.2085-.0664.4341.0107.5601.1895.2158.3086.5674.4922.9404.4922.6343,0,1.1499-.5156,1.1499-1.1494,0-.6348-.5156-1.1504-1.1499-1.1504-.3726,0-.7241.1846-.9404.4932-.125.1787-.3501.2549-.5601.1895-.208-.0654-.3496-.2588-.3496-.4766v-3.0635c0-.2764.2236-.5.5-.5h2.5273c-.1157-.2661-.1777-.5562-.1777-.8535,0-1.1836.9648-2.1465,2.1504-2.1465s2.1504.9629,2.1504,2.1465c0,.2974-.0615.5874-.1777.8535h2.5273c.2764,0,.5.2236.5.5v8c0,.2764-.2236.5-.5.5Zm-8.5-1h8v-7h-3.0557c-.2178,0-.4111-.1416-.4766-.3496s.0107-.4346.1895-.5601c.3086-.2163.4932-.5688.4932-.9438,0-.6323-.5156-1.1465-1.1504-1.1465s-1.1504.5142-1.1504,1.1465c0,.375.1846.7275.4932.9438.1787.1255.2549.3521.1895.5601s-.2588.3496-.4766.3496h-3.0557v1.5342c.2651-.1152.5542-.1768.8501-.1768,1.1851,0,2.1499.9648,2.1499,2.1504s-.9648,2.1494-2.1499,2.1494c-.2964,0-.585-.0615-.8501-.1768v1.5195Z" class="aw-theme-iconOutline" fill="#464646"/>
  <path d="m7.855,3.1465L4.855.1465c-.1953-.1953-.5117-.1953-.707,0s-.1953.5117,0,.707l2.147,2.147H0v1h6.2939l-2.146,2.146c-.1953.1953-.1953.5117,0,.707.0977.0977.2256.1465.3535.1465s.2559-.0488.3535-.1465l3-3c.1953-.1953.1953-.5117,0-.707Z" class="aw-theme-iconOutline" fill="#464646"/>
</svg>