<?xml version="1.0" encoding="UTF-8"?>
<svg id="Layer_1" data-name="Layer 1" xmlns="http://www.w3.org/2000/svg" viewBox="0 0 16 16">
  <path d="m15.4056,8.219l-.0005-.0005c-.1066-.0707-.2324-.1286-.37-.1689.2554-.5253.1248-1.1949-.359-1.5529-.436-.3214-1.0619-.2884-1.5541.0459-.0768-.1064-.1567-.2123-.27-.3051-.4629-.3785-1.2428-.3002-1.7664.2029l-2.5871,2.9224c-.5352-.2827-1.0117-.4431-1.4193-.4617-.0515-.0005-.0865.0021-.1433.0096l5.7183-5.6803c.2222-.2197.3447-.5132.3457-.8262.001-.3135-.1206-.6079-.3423-.8301l-1.2314-1.2319c-.2207-.2207-.5142-.3423-.8267-.3423h-.0024c-.3135.0005-.6069.1235-.8271.3457L1.5567,8.6187c-.0474.0474-.0845.104-.1094.1665L.0357,12.3145c-.0742.1855-.0308.3975.1108.5391.0957.0957.2236.1465.3535.1465.0625,0,.1255-.0117.1855-.0356l1.832-.7328c.0623.9928.3138,2.0162,1.0313,2.4256.1584.0941.6263.3712.7789.4528.7741.3198,1.579.577,2.3917.7648.2736.063.6028.1252.9527.1252.1957,0,.3978-.0196.6003-.069,2.2934-.5579,3.1266-.998,4.507-1.7272l.183-.0978c.6527-.4034.9145-.7178,1.2012-1.2015l1.6641-2.9609c.3856-.6802.0699-1.3961-.4223-1.7247Zm-1.3255-.9164c.1121.0874.1017.2765.0346.3709l-1.5911,2.1489c-.1147-.23-.2985-.402-.5061-.5406l1.6071-1.895c.1458-.1448.3228-.1875.4555-.0841Zm-2.2723-.1688c.162-.1711.3198-.1711.4417-.0727.1422.1172.1094.2875.05.3609l-1.4044,1.6343c-.0674,0-.1368.0052-.2068.0266l-.8495.2843,1.9691-2.2335Zm-1.3279-6.084c.0439-.0444.1265-.0576.1196-.0498.0264,0,.0767.0063.1196.0493l1.231,1.2314c.0435.0439.0498.0942.0498.1206s-.0063.0762-.0503.1196l-.8637.858-1.4644-1.4645.8584-.8647Zm-1.5629,1.5743l1.4595,1.4595-5.3,5.2648c-.2349.1172-.4637.2488-.6885.4041l-1.0733-.1448-.6678-.6678,6.2702-6.3157Zm-6.8059,7.194l.4744.4744c-.0266.2209-.0556.5193-.0721.8636l-1.1158.4464.7136-1.7844Zm12.8367-.3543l-1.6521,2.94c-.2026.3418-.3533.5369-.8308.8333l-.1536.0812c-1.3564.7169-2.1035,1.1115-4.2761,1.6396-.3586.0885-.7711.0151-1.0897-.0592-.7599-.175-1.5115-.4156-2.1804-.6875-.0876-.0494-.6052-.3672-.7403-.4352-.5206-.2973-.5867-1.8895-.4702-3.1252l.8945.1208c.1267.0186.2563-.0151.3606-.0909.685-.4958,1.301-.7966,2.2361-.7785.2833.0128.7213.1805,1.2008.4606.412.2396.913.288,1.3774.1326l1.4233-.4763c.2574-.0763.5314.0685.6097.3262.066.2181-.0088.4435-.184.5668-.0446.0239-.0905.0464-.1375.0679-.0024.001-.0044.0015-.0063.002l-3.4481,1.2617-.0015.0005c-.2598.0953-.3934.3824-.2985.642.0949.2592.3802.3942.642.2988l3.2147-1.1678c.0891-.0312.5089-.2083.6165-.2836.3082-.1815.5789-.4103.8142-.6905l1.4427-1.9499c.1541-.2022.4212-.1402.5364-.0604.0448.031.2317.199.1.4312Z" class="aw-theme-iconOutline" fill="#464646"/>
</svg>