<?xml version="1.0" encoding="UTF-8"?>
<svg id="Layer_1" data-name="Layer 1" xmlns="http://www.w3.org/2000/svg" viewBox="0 0 16 16">
  <path d="m15.3779,8.207c-.1062-.0709-.2318-.1289-.3692-.1692.2549-.5244.1245-1.1931-.3583-1.55-.4343-.3222-1.0585-.2891-1.5507.045-.0767-.1063-.1566-.212-.2697-.3047-.4697-.3838-1.231-.3081-1.7627.2026l-1.0674,1.2066V3.293L6.707,0H0v12h2.5077c.0389,1.0546.2716,2.1974,1.0402,2.6357.1333.0679.2744.1558.4121.2402.1064.0659.2114.1304.3638.2119.77.3179,1.5728.5747,2.3867.7637.2729.063.6011.1245.9502.1245.1953,0,.3975-.019.5996-.0684,2.2886-.5571,3.1201-.9966,4.4976-1.7246l.1826-.0977c.6519-.4038.9131-.7173,1.1987-1.2002l1.6602-2.9561c.3862-.6797.0713-1.3945-.4214-1.7222Zm-1.3223-.915c.0879.0645.1348.2383.0679.3325l-.5531.7453c-.0162.0165-.0343.0314-.048.0501l-1.02,1.3882c-.1145-.2299-.2979-.4016-.5049-.54l1.105-1.3028c.0011-.0015.0012-.0032.0022-.0047l.4954-.5847c.1465-.146.3706-.1479.4556-.084Zm-2.2681-.1685c.1699-.1616.3721-.146.4092-.1216.2061.1691.1656.2741.1206.3436l-1.4402,1.6979c-.0693.012-.1364.0052-.2062.0264l-.8478.284,1.9645-2.2303ZM6.98,1.687l1.333,1.333h-1.333v-1.333ZM1,1h5.02v2.98h2.98v4.7877l-.5143.5814c-.5346-.2827-1.0101-.4427-1.4164-.4608-.8353-.0029-1.479.1734-2.0693.4786v-.4177c.8704-.1633,1.5-.7385,1.5-1.449,0-1.1978-1.4009-1.4136-1.9277-1.4951-.4004-.062-1.0723-.21-1.0723-.5049,0-.1992.3989-.5,1-.5s1,.3008,1,.5h1c0-.7105-.6296-1.2858-1.5-1.449v-1.051h-1v1.051c-.8704.1633-1.5.7385-1.5,1.449,0,.7935.6455,1.2959,1.9194,1.4932,1.0806.167,1.0806.4141,1.0806.5068,0,.1992-.3989.5-1,.5s-1-.3008-1-.5h-1c0,.7105.6296,1.2858,1.5,1.449v.7371l-.8169-.11c-.2764-.0317-.5215.1519-.5615.4229-.0256.1735-.0732.5435-.1006,1.001h-1.5209V1Zm13.9287,8.4375l-1.6558,2.9482c-.2017.3408-.3521.5356-.8291.832l-.1533.0811c-1.3535.7153-2.0991,1.1099-4.2666,1.6372-.3589.0864-.7705.0146-1.0879-.0591-.7607-.1763-1.5112-.416-2.1758-.6865-.0874-.0493-.1802-.1069-.2754-.1655-.1616-.0996-.3281-.2017-.4629-.269-.52-.2969-.5859-1.8867-.4697-3.1206l.8926.1201c.1294.0171.2563-.0156.3599-.0903.6836-.4951,1.2832-.7842,2.2319-.7773.2822.0127.7192.1802,1.1987.46.4106.2393.9106.2861,1.374.1323l1.4199-.4756c.2563-.0762.5303.0688.6084.3257.0396.1309.0283.2749-.0312.3945-.0322.0645-.0767.1191-.1353.1626-.0488.0264-.0991.0513-.1509.0752-.0034.001-.0063.002-.0098.0029l-3.4409,1.2603-.0015.0005c-.2593.0952-.3926.3818-.2979.6411.0947.2588.3804.3931.6406.2983l3.209-1.166c.0903-.0317.1782-.0664.2637-.1045.1289-.0444.249-.1064.3579-.1836.3042-.1807.5723-.4072.8052-.6846l.3528-.4799,1.1008-1.4831c.2073-.1312.422-.0916.5239-.0248v.0005c.0024.0015.2383.1621.1045.3979Z" class="aw-theme-iconOutline" fill="#464646"/>
</svg>