<?xml version="1.0" encoding="UTF-8"?><svg id="Layer_1" xmlns="http://www.w3.org/2000/svg" viewBox="0 0 24 24"><path d="M2.658,7.38l.073-.413c.118-.668,.533-1.343,1.116-1.439,.428,.295,1.053,.615,1.782,.613,.856-.011,1.454-.153,2.154-.867,.202-.198,.487-.31,.748-.288,.152,.01,.367,.065,.534,.279,.643,.783,2.255,1.358,3.486,.35,.569-.464,.703-.391,1.203-.119,.147,.081,.308,.168,.49,.249,.597,.26,1.391,.168,2.026-.233,.686-.431,1.079-1.129,1.109-1.985-.006-.738-.307-1.382-.847-1.814-.566-.452-1.355-.635-2.063-.481-.315,.07-.573,.177-.78,.262-.477,.198-.604,.25-1.067-.132-1.065-.895-2.335-.646-3.164-.121-.366,.226-1.093,.306-1.451-.075C7.421,.545,6.638-.065,5.305,.097c-1.065,.134-1.985,.78-2.341,1.642-.226,.526-.285,1.075-.292,1.468-1.232,.825-2.043,2.542-2.017,3.685l.011,.489h1.992Zm.755-3.454l.279-.149-.016-.316c-.024-.481,.051-.966,.209-1.335,.219-.532,.84-.949,1.542-1.037,.851-.1,1.323,.202,1.853,.762,.699,.747,1.948,.707,2.708,.237,.333-.212,1.194-.629,1.993,.042,.93,.767,1.546,.512,2.09,.288,.177-.073,.373-.157,.613-.21,.413-.088,.893,.022,1.224,.286,.309,.247,.468,.597,.471,1.019-.022,.633-.361,.977-.642,1.153-.354,.222-.803,.289-1.092,.163-.153-.067-.288-.142-.413-.21-.574-.315-1.225-.669-2.315,.222-.758,.621-1.743,.2-2.073-.201-.302-.387-.745-.619-1.248-.652-.564-.033-1.108,.172-1.521,.579-.472,.481-.778,.565-1.46,.574-.528-.019-.989-.278-1.329-.528l-.132-.097h-.165c-.969,0-1.808,.748-2.145,1.864h-.135c.18-.835,.798-1.968,1.704-2.454Z" class="aw-theme-iconOutline" fill="#464646"/><path d="M17.498,10.996c-2.107,0-3.977,1.012-5.166,2.571l-8.325,2.741v-.76l7.992-2.723v-2.955l-7.992,2.745v-4.615H0V24H16.974v-.03c.173,.014,.347,.027,.524,.027,3.584,0,6.5-2.916,6.5-6.5s-2.916-6.5-6.5-6.5Zm0,1c1.328,0,2.547,.473,3.499,1.26l-7.739,7.739c-.786-.952-1.26-2.171-1.26-3.499,0-3.032,2.467-5.5,5.5-5.5Zm-6.435,6.366l-1.062,.37v-1.146l1.011-.351c-.004,.088-.013,.174-.013,.262,0,.294,.026,.582,.065,.866ZM1.001,23V9H3.007v5.016l7.992-2.745v.839l-7.992,2.724v2.857l8.548-2.816c-.176,.398-.315,.817-.409,1.252l-2.145,.746v3.264l2.27-.789c.456,1.529,1.461,2.82,2.785,3.651H1.001Zm16.497-.004c-1.345,0-2.578-.487-3.535-1.293l7.742-7.742c.805,.957,1.292,2.189,1.292,3.535,0,3.032-2.468,5.5-5.5,5.5Z" class="aw-theme-iconOutline" fill="#464646"/></svg>