<?xml version="1.0" encoding="UTF-8"?>
<svg id="Layer_1" data-name="Layer 1" xmlns="http://www.w3.org/2000/svg" viewBox="0 0 16 16">
  <path d="m4.499,4.999c.6016,0,1.001.3018,1.001.501h1c0-.7203-.6457-1.3034-1.5345-1.4577l.0341-1.0257-.999-.0332-.0356,1.0743c-.8522.1718-1.4658.7391-1.4658,1.4384,0,.7959.647,1.2993,1.9238,1.4971,1.0762.166,1.0762.4146,1.0762.5083,0,.1982-.3989.4976-1,.4976-.6006,0-.999-.3003-.999-.499h-1c0,.7096.6291,1.2847,1.499,1.448l.001,1.0525,1-.001-.001-1.0513c.8704-.163,1.5001-.7374,1.5001-1.4467,0-1.1997-1.3975-1.4155-1.9233-1.4966-.3237-.0503-1.0767-.2002-1.0767-.5088,0-.1978.3989-.4971,1-.4971Z" class="aw-theme-iconOutline" fill="#464646"/>
  <path d="m1,1h5.02v2.98h2.98v3.52h1V3.293L6.707,0H0v12h7v-1H1V1Zm5.98.687l1.333,1.333h-1.333v-1.333Z" class="aw-theme-iconOutline" fill="#464646"/>
  <path d="m15.9755,7.3708c-.0035-.0131-.0042-.0253-.0088-.0381-.0034-.0096-.0027-.0196-.0067-.0291-.0327-.076-.0862-.1349-.1469-.1847-.0065-.0054-.0074-.0148-.0143-.0199-.0067-.0049-.0156-.0032-.0223-.0078-.0739-.0502-.1576-.0804-.2482-.0857-.0139-.0008-.0259.0015-.0398.0018-.0323.0007-.0643-.0031-.0969.0043l-9,2c-.1958.0435-.3462.1997-.3833.3965-.0366.1968.0479.3965.2144.5078l2.7773,1.8516v3.7324c0,.2124.1343.4014.3345.4717.0542.019.1104.0283.1655.0283.1489,0,.2935-.0669.3906-.1875l1.8553-2.3192,1.4889.9305c.0806.0503.1724.0762.2651.0762.0591,0,.1182-.0103.1748-.0317.1455-.0542.2573-.1729.3032-.3213l2-6.5c.0002-.0006-.0002-.0012,0-.0018.0267-.088.0222-.1823-.0026-.2743Zm-2.9802,1.1981l-1.7474,1.165-1.7478,1.165-1.7476-1.165,5.2428-1.165Zm-2.9952,5.5058v-1.6727l.8919.5574-.8919,1.1152Zm3.2134-.8433l-2.7915-1.7451,4.1875-2.7915-1.396,4.5366Z" class="aw-theme-iconOutline" fill="#464646"/>
</svg>