<svg id="Layer_1" data-name="Layer 1" xmlns="http://www.w3.org/2000/svg" viewBox="0 0 16 16">
  <path d="m7,12H.5c-.2764,0-.5-.2236-.5-.5v-3.0557c0-.2183.1416-.4111.3496-.4771.2075-.0649.4341.0112.5601.1899.2163.3091.5679.4932.9404.4932.6343,0,1.1499-.5161,1.1499-1.1504s-.5156-1.1499-1.1499-1.1499c-.373,0-.7246.1841-.9404.4927-.1255.1787-.3511.2559-.5601.1899-.208-.0659-.3496-.2588-.3496-.4771v-3.0557c0-.2764.2236-.5.5-.5h2.5273c-.1152-.2661-.1772-.5562-.1772-.854,0-1.1831.9644-2.146,2.1499-2.146s2.1499.9629,2.1499,2.146c0,.2979-.062.5879-.1772.854h2.5273c.2764,0,.5.2236.5.5v7.5h-1v-7h-3.0557c-.2183,0-.4111-.1416-.4771-.3496-.0654-.208.0112-.4346.1899-.5601.3086-.2158.4927-.5688.4927-.9443,0-.6318-.5156-1.146-1.1499-1.146s-1.1499.5142-1.1499,1.146c0,.3755.1841.7285.4927.9443.1787.1255.2554.3521.1899.5601-.0659.208-.2588.3496-.4771.3496H1v1.5269c.2651-.1152.5537-.1768.8501-.1768,1.1855,0,2.1499.9644,2.1499,2.1499s-.9644,2.1504-2.1499,2.1504c-.2959,0-.585-.0615-.8501-.1768v1.5264h6v1Z" class="aw-theme-iconOutline" fill="#464646"/>
  <path d="m15.8535,12.1465l-3-3c-.1953-.1953-.5117-.1953-.707,0s-.1953.5117,0,.707l2.1465,2.1465h-6.293v1h6.293l-2.1465,2.1465c-.1953.1953-.1953.5117,0,.707.0977.0977.2256.1465.3535.1465s.2559-.0488.3535-.1465l3-3c.1953-.1953.1953-.5117,0-.707Z" class="aw-theme-iconOutline" fill="#464646"/>
</svg>