<?xml version="1.0" encoding="UTF-8"?><svg id="Layer_1" xmlns="http://www.w3.org/2000/svg" viewBox="0 0 16 16"><path d="M11.849,9.86l-.697-.717-2.046,1.988c-.097,.094-.151,.223-.151,.357s.054,.264,.149,.357l2.046,2.009,.701-.713-1.171-1.15,3.153,.007,.002-1-3.151-.007,1.165-1.133Z" fill="#464646"/><path d="M11.496,6.99c-2.102,0-3.858,1.454-4.352,3.405l-.157,.044v-3.313l-3.99,1.762v-3.323H0V15.979H11.231v-.006c.089,.005,.174,.027,.265,.027,2.483,0,4.504-2.021,4.504-4.505s-2.021-4.505-4.504-4.505ZM1,14.979V6.563h.997v3.858l3.99-1.762v3.095l1.007-.281c0,.007-.002,.014-.002,.021,0,1.412,.666,2.658,1.684,3.484H1Zm10.496,.021c-1.932,0-3.504-1.572-3.504-3.505s1.572-3.505,3.504-3.505,3.504,1.572,3.504,3.505-1.572,3.505-3.504,3.505Z" class="aw-theme-iconOutline" fill="#464646"/><path d="M2.606,4.687c.009-.271,.097-.654,.298-.761,.295,.192,.719,.38,1.186,.379,.589-.008,1.028-.112,1.523-.615,.095-.095,.227-.148,.354-.138,.092,.006,.165,.043,.224,.119,.465,.566,1.631,.98,2.517,.252,.276-.228,.275-.231,.59-.06,.101,.055,.209,.114,.333,.169,.439,.192,1.021,.126,1.482-.164,.489-.308,.783-.826,.805-1.442-.004-.535-.224-1.002-.617-1.317-.409-.326-.976-.458-1.491-.348-.21,.047-.383,.116-.537,.18-.293,.122-.296,.121-.517-.059-.764-.643-1.675-.47-2.264-.094-.18,.111-.56,.16-.728-.021C5.352,.333,4.804-.098,3.854,.019c-.755,.095-1.408,.558-1.662,1.173-.136,.314-.186,.64-.199,.898-.955,.579-1.319,1.845-1.319,2.579v.5h1.917l.017-.483Zm.066-1.822l.335-.131-.019-.359c-.015-.289,.029-.575,.123-.794,.118-.286,.475-.52,.864-.569,.489-.058,.746,.111,1.059,.442,.523,.56,1.418,.533,1.986,.183,.184-.117,.66-.351,1.094,.015,.688,.567,1.181,.363,1.538,.214,.107-.044,.226-.095,.371-.127,.217-.047,.478,.014,.651,.152,.158,.126,.239,.309,.241,.521-.012,.337-.19,.518-.338,.611-.202,.128-.434,.143-.547,.094-.095-.042-.178-.088-.256-.13-.476-.259-.962-.441-1.702,.163-.401,.328-.935,.101-1.103-.103-.228-.292-.561-.467-.938-.492-.031-.002-.062-.003-.094-.003-.379,0-.749,.152-1.033,.431-.256,.26-.403,.317-.831,.323-.217,.006-.464-.092-.759-.31l-.133-.098h-.164c-.284,0-.538,.087-.75,.246,.117-.121,.252-.218,.403-.277Z" class="aw-theme-iconOutline" fill="#464646"/></svg>