<svg id="Layer_1" data-name="Layer 1" xmlns="http://www.w3.org/2000/svg" viewBox="0 0 16 16">
  <path d="m15.9512,11.7832c-1.1211-2.333-3.21-3.7832-5.4512-3.7832-1.2671,0-2.478.4765-3.5,1.3007v-1.3007h-3v1h-2v-3h2v1h3v-3h-3v1h-2v-2h1V0H0v3h1v7h3v1h1.4859c-.1572.249-.3048.5088-.4366.7832-.0659.1367-.0659.2969,0,.4336,1.1206,2.333,3.209,3.7832,5.4507,3.7832s4.3301-1.4502,5.4512-3.7832c.0654-.1367.0654-.2969,0-.4336ZM5,5h1v1h-1v-1ZM1,1h1v1h-1v-1Zm4,8h1v1h-1v-1Zm5.5,6c-1.7852,0-3.4678-1.1436-4.4404-3,.9727-1.8564,2.6553-3,4.4404-3s3.4678,1.1436,4.4404,3c-.9727,1.8564-2.6553,3-4.4404,3Z" class="aw-theme-iconOutline" fill="#464646"/>
  <path d="m10.5,14.5c-1.3789,0-2.5-1.1211-2.5-2.5s1.1211-2.5,2.5-2.5,2.5,1.1211,2.5,2.5-1.1211,2.5-2.5,2.5Zm0-4c-.8271,0-1.5.6729-1.5,1.5s.6729,1.5,1.5,1.5,1.5-.6729,1.5-1.5-.6729-1.5-1.5-1.5Z" class="aw-theme-iconOutline" fill="#464646"/>
</svg>