<?xml version="1.0" encoding="UTF-8"?><svg id="Layer_1" xmlns="http://www.w3.org/2000/svg" viewBox="0 0 16 16"><path d="M11.493,6.991c-2.1,0-3.854,1.452-4.348,3.401l-.156,.043v-3.311l-3.987,1.76v-3.319H.007V15.972H11.229v-.007c.089,.005,.174,.027,.265,.027,2.481,0,4.5-2.019,4.5-4.5s-2.019-4.5-4.5-4.5Zm0,1c.779,0,1.492,.265,2.074,.697l-4.868,4.889c-.438-.584-.706-1.302-.706-2.086,0-1.93,1.57-3.5,3.5-3.5ZM1.007,14.972V6.565h.995v3.854l3.987-1.76v3.092l1.006-.28c0,.007-.002,.013-.002,.02,0,1.41,.665,2.655,1.683,3.48H1.007Zm10.486,.02c-.785,0-1.502-.269-2.087-.707l4.87-4.891c.443,.586,.716,1.308,.716,2.098,0,1.93-1.57,3.5-3.5,3.5Z" class="aw-theme-iconOutline" fill="#464646"/><path d="M2.596,5.174l.017-.483c.008-.235,.082-.649,.296-.761,.295,.192,.698,.375,1.186,.379,.59-.008,1.029-.112,1.521-.615,.096-.094,.214-.148,.354-.138,.093,.006,.166,.043,.225,.118,.461,.565,1.625,.981,2.515,.253,.277-.228,.277-.229,.588-.06,.101,.055,.208,.114,.334,.169,.436,.189,1.019,.127,1.481-.164,.489-.309,.781-.826,.803-1.441-.004-.534-.223-1.001-.616-1.315-.407-.326-.975-.458-1.49-.348-.21,.047-.382,.116-.536,.18-.293,.122-.296,.122-.517-.059-.764-.642-1.672-.469-2.263-.093-.178,.11-.559,.158-.725-.021C5.354,.341,4.812-.09,3.857,.028c-.754,.094-1.407,.557-1.662,1.173-.135,.315-.184,.639-.198,.896-.955,.579-1.318,1.844-1.317,2.577v.5h1.916Zm.082-2.302l.335-.131-.019-.36c-.015-.286,.029-.573,.123-.792,.118-.286,.474-.52,.863-.568,.489-.055,.744,.111,1.059,.442,.521,.556,1.415,.532,1.983,.182,.183-.117,.659-.349,1.092,.015,.688,.567,1.181,.363,1.538,.214,.107-.044,.226-.095,.369-.127,.218-.046,.479,.014,.651,.152,.157,.126,.238,.308,.24,.52-.012,.335-.189,.516-.336,.609-.201,.127-.433,.143-.547,.094-.095-.042-.178-.088-.256-.13-.474-.259-.962-.441-1.7,.163-.401,.327-.934,.1-1.102-.104-.228-.292-.562-.466-.939-.49-.03-.002-.062-.003-.092-.003-.379,0-.749,.153-1.034,.432-.253,.259-.399,.316-.828,.321h-.011c-.288,0-.551-.166-.748-.31l-.132-.097h-.165c-.281,0-.534,.086-.745,.242,.116-.119,.25-.214,.399-.273Z" class="aw-theme-iconOutline" fill="#464646"/></svg>