<?xml version="1.0" encoding="UTF-8"?>
<svg id="Layer_1" data-name="Layer 1" xmlns="http://www.w3.org/2000/svg" viewBox="0 0 16 16">
  <path d="M4.5659,4.4158l-.8672-.4971L.0664,10.2518c-.0889,.1543-.0884,.3447,.001,.499s.2544,.2495,.4326,.2495H4.9956v-1H1.3633l3.2026-5.5845Z" class="aw-theme-iconOutline" fill="#464646"/>
  <path d="M11.5,9.0003c-.2764,0-.5,.2236-.5,.5v2c0,.1328,.0527,.2598,.1465,.3535l1,1c.0977,.0977,.2256,.1465,.3535,.1465s.2559-.0488,.3535-.1465c.1953-.1953,.1953-.5117,0-.707l-.8535-.8535v-1.793c0-.2764-.2236-.5-.5-.5Z" class="aw-theme-iconOutline" fill="#464646"/>
  <path d="M14.6821,8.3182c-.9809-.9803-2.3038-1.3923-3.5877-1.2767L7.0889,.0423l-.8682,.4971,3.8434,6.7159c-.637,.214-1.2396,.5566-1.7463,1.0629-.188,.188-.1904,.4857-.0165,.6821h-1.8013c-.2764,0-.5,.2236-.5,.5s.2236,.5,.5,.5h2c.2764,0,.5-.2236,.5-.5,0-.1434-.0618-.2706-.1584-.3618,.0667-.0242,.1298-.0599,.1833-.1133,1.3652-1.3643,3.5859-1.3643,4.9502,0,1.3643,1.3647,1.3643,3.5854,0,4.9502-1.3643,1.3643-3.5859,1.3643-4.9502,0-.0535-.0535-.1166-.0892-.1833-.1133,.0966-.0911,.1584-.2183,.1584-.3618,0-.2764-.2236-.5-.5-.5h-2c-.2764,0-.5,.2236-.5,.5s.2236,.5,.5,.5h1.8013c-.1738,.1964-.1714,.4941,.0165,.6821,.8774,.877,2.0298,1.3154,3.1821,1.3154s2.3047-.4385,3.1821-1.3154c1.7544-1.7549,1.7544-4.6094,0-6.3643Z" class="aw-theme-iconOutline" fill="#464646"/>
  <path d="M8,11.5003c0-.2764-.2236-.5-.5-.5h-2c-.2764,0-.5,.2236-.5,.5s.2236,.5,.5,.5h2c.2764,0,.5-.2236,.5-.5Z" class="aw-theme-iconOutline" fill="#464646"/>
</svg>