<svg id="Layer_1" data-name="Layer 1" xmlns="http://www.w3.org/2000/svg" viewBox="0 0 16 16">
  <g id="g845">
    <path id="path2" d="M12.481,0a.505.505,0,0,0-.334.855L14.293,3H12V4h2.294L12.147,6.149a.5.5,0,1,0,.707.707l3-3a.5.5,0,0,0,0-.707l-3-3A.487.487,0,0,0,12.481,0ZM8,3V4h2V3Z" class="aw-theme-iconOutline" fill="#464646"/>
    <path id="path2-4" d="M0,12v1l1.707-.006H4v-1H1.707Zm6-.006v1H8v-1Z" class="aw-theme-iconOutline" fill="#464646"/>
    <path id="rect1303" d="M7.5,3V5h1V3Zm0,4V9h1V7Zm0,4v2h1V11Z" class="aw-theme-iconOutline" fill="#464646"/>
  </g>
</svg>
