<?xml version="1.0" encoding="UTF-8"?>
<svg id="Layer_1" data-name="Layer 1" xmlns="http://www.w3.org/2000/svg" viewBox="0 0 16 16">
  <path d="M12.4276,4.2794l1.4259-1.4259-.707-.707-1.4255,1.4255c-1.0183-.8715-2.3055-1.438-3.721-1.5466V1h1V0h-3V1h1v1.0253c-3.3505,.257-6,3.0594-6,6.4747,0,3.584,2.916,6.5,6.5,6.5s6.5-2.916,6.5-6.5c0-1.6128-.5958-3.0846-1.5724-4.2206Zm-4.4276,9.6728v-.9522h-1v.9747c-2.6319-.2386-4.7105-2.3439-4.9522-4.9747h.9522v-1h-.9747c.2538-2.799,2.6107-5,5.4747-5s5.2209,2.201,5.4747,5h-.9747v1h.9747c-.2386,2.6319-2.3439,4.7105-4.9747,4.9522Z" class="aw-theme-iconOutline" fill="#464646"/>
  <path d="M10.1465,11.8535l-3-3c-.0938-.0938-.1465-.2207-.1465-.3535V4h1v4.293l2.8535,2.8535-.707,.707Z" class="aw-theme-iconOutline" fill="#464646"/>
</svg>