<?xml version="1.0" encoding="UTF-8"?><svg id="Layer_1" xmlns="http://www.w3.org/2000/svg" viewBox="0 0 24 24">
<path d="M9,0H0V9H9V0Zm-1,8H1V1h7v7Z" class="aw-theme-iconOutline" fill="#464646"/>
<path d="M18.526,12.388l4.678,.779,.78-4.677-.986-.165-.503,3.011c-.703-.981-1.611-1.768-2.645-2.336h.149V0H11V9h1.136c-1.317,.73-2.406,1.819-3.136,3.136v-1.136H0v9H9v-.136c1.365,2.463,3.99,4.136,7,4.136,1.123,0,2.209-.229,3.229-.679l-.404-.914c-.892,.394-1.842,.593-2.824,.593-3.859,0-7-3.141-7-7s3.141-7,7-7c2.278,0,4.361,1.09,5.666,2.897l-2.976-.496-.164,.987Zm-10.526,6.612H1v-7h7v7Zm4-11V1h7v7h-7Z" class="aw-theme-iconOutline" fill="#464646"/>
</svg>