<?xml version="1.0" encoding="UTF-8"?>
<svg id="Layer_1" data-name="Layer 1" xmlns="http://www.w3.org/2000/svg" viewBox="0 0 16 16">
  <rect x="2.4572" y="6.0001" width="6.0828" height=".9999" transform="translate(-1.8156 10.8575) rotate(-80.5561)" class="aw-theme-iconOutline" fill="#464646"/>
  <polygon points="3.6987 4.6001 1.165 6.5 3.6987 8.3999 4.2983 7.6001 2.832 6.5 4.2983 5.3999 3.6987 4.6001" class="aw-theme-iconOutline" fill="#464646"/>
  <path d="m15.9629,7.9526c-.0659-.4727-.5991-.6265-.8257-.6709-.1631-.0327-.332.0195-.4492.1372l-1.2173,1.2173h-.4951l-.6162-.6162v-.4946l1.2173-1.2173c.1177-.1177.1689-.2861.1372-.4492-.0439-.2266-.1978-.7598-.6719-.8262-.7103-.1005-1.4175.0457-2.0405.3682v-2.1099L7.7085-.002H.002v13h5.1319c-.0862.2396-.1382.492-.1382.7578,0,.5996.2329,1.1631.6562,1.5874.4243.4233.9883.6567,1.5874.6567s1.165-.2358,1.6157-.689l3.2319-3.7095c1.2168.1562,2.2646-.1104,2.9048-.7505.7563-.7563,1.1191-1.8398.9712-2.8984ZM7.9785,1.6821l1.3379,1.3379h-1.3379v-1.3379ZM1.002.998h6.0166v2.9819h2.9829v2.1953c-.0782.0946-.1492.1921-.2106.2939l-2.4925-1.869-.5996.7998,1.4663,1.1001-1.4663,1.1001.5996.7998,2.4295-1.8218c-.413.7672-.4147,1.6808-.3333,2.3291l-3.5473,3.0908H1.002V.998Zm13.2827,9.146c-.4507.4512-1.3389.6045-2.3057.4297-.1753-.0327-.3501.0312-.4653.1636l-3.3896,3.8916c-.4785.478-1.2959.4761-1.7646.0068-.2349-.2344-.3638-.5474-.3638-.8799,0-.3374.1299-.6455.3511-.8677l3.9116-3.4072c.1318-.1147.1943-.2905.1641-.4634-.0845-.4805-.2109-1.6665.4292-2.3066.4346-.4351,1.0059-.6846,1.6172-.709l-.9629.9629c-.0938.0938-.1465.2207-.1465.3535v.9087c0,.1328.0527.2598.1465.3535l.9092.9092c.0938.0938.2207.1465.3535.1465h.9092c.1328,0,.2598-.0527.3535-.1465l.9619-.9619c-.0259.6021-.2769,1.1846-.7085,1.6162Z" class="aw-theme-iconOutline" fill="#464646"/>
  <path d="m7.1738,13.1785h-.0002c-.177.1778-.177.4653.0002.6429.1775.1777.4652.1777.6429.0004l.0003-.0004c.1774-.1776.1774-.4656,0-.6431-.1777-.1775-.4657-.1775-.6432.0002Z" class="aw-theme-iconOutline" fill="#464646"/>
</svg>