<?xml version="1.0" encoding="UTF-8"?><svg id="Layer_1" xmlns="http://www.w3.org/2000/svg" viewBox="0 0 24 24"><polygon points="11 18 0 18 0 0 18 0 18 10 17 10 17 1 1 1 1 17 11 17 11 18" fill="#464646"/><g id="Production"><polygon points="7.004 14.513 3.034 10.507 3.744 9.803 6.927 13.015 14.177 4.02 14.955 4.647 7.004 14.513" class="aw-theme-iconOutline" fill="#464646"/></g><path d="M23,17v.5c0,2.485-2.015,4.5-4.5,4.5-1.03,.003-2.028-.35-2.827-1h2.327v-1h-4v4h1v-2.255c.984,.816,2.222,1.26,3.5,1.255,3.036-.003,5.497-2.464,5.5-5.5v-.5h-1Z" class="aw-theme-iconOutline" fill="#464646"/><path d="M22,11l-.011,2.249c-2.348-1.927-5.814-1.585-7.741,.763-.807,.983-1.248,2.216-1.248,3.488v.5h1v-.5c0-2.485,2.015-4.5,4.5-4.5,1.03-.003,2.028,.35,2.827,1h-2.327v1h3.981l.019-4h-1Z" class="aw-theme-iconOutline" fill="#464646"/></svg>