<?xml version="1.0" encoding="UTF-8"?><svg id="Layer_1" xmlns="http://www.w3.org/2000/svg" viewBox="0 0 16 16">
<path d="M6,0H0V6H6V0Zm-1,5H1V1H5V5Z" class="aw-theme-iconOutline" fill="#464646"/>
<path d="M12.369,8.8l3.316,.287,.286-3.316-.996-.086-.125,1.451c-.499-.643-1.137-1.154-1.85-1.52V0H7V6h.348c-.524,.368-.98,.824-1.348,1.348v-.348H0v6H5.607c.912,1.778,2.761,3,4.893,3,.966,0,1.917-.254,2.749-.735l-.5-.865c-.681,.393-1.458,.601-2.249,.601-2.481,0-4.5-2.019-4.5-4.5s2.019-4.5,4.5-4.5c1.481,0,2.864,.745,3.701,1.955l-1.745-.151-.086,.996Zm-7.369,3.2H1v-4H5v4Zm3-7V1h4V5h-4Z" class="aw-theme-iconOutline" fill="#464646"/>
</svg> 