<?xml version="1.0" encoding="UTF-8"?><svg id="Layer_1" xmlns="http://www.w3.org/2000/svg" viewBox="0 0 16 16"><path d="M9.027,3.5l-1.154,1.153,.707,.707,2.3-2.299L8.58,.764l-.707,.707,1.031,1.029h-3.904V0H0V6H5V3.5h4.027Zm-5.027,1.5H1V1h3V5Z" class="aw-theme-iconOutline" fill="#464646"/><polygon points="11 0 11 3.946 11.105 3.846 11.825 3.152 12 2.984 12 1 15 1 15 5 14.993 5 15.774 5.81 15.957 6 16 6 16 0 11 0" class="aw-theme-iconOutline" fill="#464646"/><path d="M11,14.962c-2.153,0-3.904-1.787-3.904-3.984s1.751-3.983,3.904-3.983h2.254l-1.365,1.429,.723,.691,2.496-2.61-2.535-2.631-.721,.693,1.376,1.428h-2.228c-2.704,0-4.904,2.235-4.904,4.983s2.2,4.984,4.904,4.984,4.904-2.236,4.904-4.984h-1c0,2.197-1.751,3.984-3.904,3.984Z" class="aw-theme-iconOutline" fill="#464646"/></svg>