<?xml version="1.0" encoding="UTF-8"?><svg id="Layer_1" xmlns="http://www.w3.org/2000/svg" viewBox="0 0 24 24"><path d="M15.008,6.003l-1.331,1.33,.707,.707,2.538-2.537-2.538-2.536-.707,.707,1.331,1.329H7.02V1.003H.051V10.01H7.02V6.003h7.989Zm-8.989,3.006H1.051V2.003H6.02v7.006Z" class="aw-theme-iconOutline" fill="#464646"/><path d="M17.5,23.048c-3.032,0-5.5-2.468-5.5-5.5s2.468-5.5,5.5-5.5h2.812l-2.119,2.169,.715,.699,3.292-3.369-3.344-3.397-.713,.701,2.163,2.197h-2.807c-3.584,0-6.5,2.916-6.5,6.5s2.916,6.5,6.5,6.5,6.5-2.916,6.5-6.5h-1c0,3.032-2.468,5.5-5.5,5.5Z" class="aw-theme-iconOutline" fill="#464646"/><polygon points="17.009 1.003 17.009 8.564 17.442 8.138 18.009 7.581 18.009 2.003 23.051 2.003 23.051 9.01 21.106 9.01 22.09 10.01 24.051 10.01 24.051 1.003 17.009 1.003" class="aw-theme-iconOutline" fill="#464646"/></svg>