<?xml version="1.0" encoding="UTF-8"?><svg id="Layer_1" xmlns="http://www.w3.org/2000/svg" viewBox="0 0 16 16"><g><path d="M6.113,14.126c.202,.208,.535,.213,.744,.01,.208-.202,.213-.535,.01-.743-.202-.208-.535-.213-.743-.01h0c-.208,.202-.213,.535-.01,.743Z" class="aw-theme-iconOutline" fill="#464646"/><path d="M15.769,7.002c-.05-.169-.187-.3-.358-.343-.172-.044-.354,.008-.477,.134l-1.289,1.306-.844,.117-.647-.646,.076-.906,1.297-1.278c.126-.124,.177-.306,.134-.478-.043-.171-.174-.308-.344-.358-1.268-.376-2.434-.119-3.276,.723-.806,.807-1.104,2.059-.798,3.266l-4.204,3.584c-.415,.415-.647,.966-.653,1.552-.006,.601,.23,1.171,.665,1.606l.707-.707c-.243-.243-.375-.56-.373-.89,.003-.322,.131-.626,.334-.831l4.419-3.766c.157-.134,.216-.351,.147-.545-.33-.945-.149-1.951,.461-2.562,.421-.421,.902-.576,1.356-.596l-.708,.698c-.085,.084-.137,.195-.146,.314l-.111,1.321c-.013,.147,.04,.292,.145,.396l.987,.987c.11,.109,.27,.162,.422,.142l1.258-.175c.109-.015,.21-.065,.287-.144l.698-.707c-.021,.455-.175,.935-.596,1.356-.702,.702-1.825,.73-2.627,.449-.192-.07-.415-.009-.549,.151l-3.674,4.401c-.233,.232-.534,.364-.849,.371-.23,0-.567-.056-.881-.37l-.707,.707c.429,.429,.982,.663,1.564,.663h.045c.574-.012,1.12-.248,1.569-.7l3.49-4.179c1.226,.312,2.528,.013,3.326-.787,.842-.842,1.099-2.005,.723-3.276Z" class="aw-theme-iconOutline" fill="#464646"/></g><path d="M6,5.077c0-1.103,.897-2,2-2,.714,0,1.337,.379,1.691,.943h1.107c-.429-1.133-1.517-1.943-2.798-1.943-1.654,0-3,1.346-3,3s1.346,3,3,3v-1c-1.103,0-2-.897-2-2Z" class="aw-theme-iconOutline" fill="#464646"/><path d="M1.073,5.066c.509-.838,2.606-3.784,6.927-3.784,4.36,0,6.423,2.933,6.929,3.782-.124,.209-.344,.545-.668,.931h1.254c.27-.39,.413-.666,.434-.71,.069-.14,.069-.304,0-.443-.092-.187-2.321-4.561-7.948-4.561S.144,4.656,.052,4.843c-.069,.14-.069,.304,0,.443,.085,.173,2.006,3.921,6.745,4.484l.994-.932c-4.209-.094-6.218-2.933-6.718-3.771Z" class="aw-theme-iconOutline" fill="#464646"/></svg>