<?xml version="1.0" encoding="UTF-8"?><svg id="Layer_1" xmlns="http://www.w3.org/2000/svg" viewBox="0 0 24 24"><ellipse cx="9.78" cy="21.069" rx=".343" ry=".338" transform="translate(-11.97 12.914) rotate(-44.546)" class="aw-theme-iconOutline" fill="none" stroke="#464646" stroke-miterlimit="10"/><g><path d="M23.207,10.554c-.172-.043-.357,.009-.481,.138l-2.159,2.152-1.1,.418-1.728-1.756,.437-1.093,1.621-1.596,.564-.527c.131-.122,.186-.305,.145-.479-.04-.175-.172-.313-.343-.365-1.7-.506-3.514-.072-4.738,1.133-1.219,1.199-1.677,2.948-1.232,4.631l-6.282,5.445c-.574,.565-.902,1.316-.922,2.114-.021,.822,.292,1.604,.88,2.2l.713-.701c-.396-.402-.606-.926-.593-1.474,.013-.538,.234-1.044,.604-1.41l6.498-5.63c.153-.133,.211-.345,.146-.537-.475-1.415-.134-2.919,.889-3.926,.746-.734,1.752-1.105,2.829-1.048l-1.556,1.531c-.05,.049-.088,.106-.114,.171l-.596,1.493c-.073,.185-.03,.395,.108,.536l2.186,2.222c.14,.143,.349,.189,.534,.116l1.503-.572c.064-.024,.124-.062,.173-.11l1.557-1.531c.04,1.053-.347,2.076-1.094,2.812-1.023,1.007-2.532,1.322-3.938,.825-.191-.064-.404-.013-.54,.139l-5.716,6.391c-.394,.387-.899,.605-1.426,.616-.549,0-1.051-.2-1.455-.612l-.713,.701c.579,.589,1.333,.911,2.129,.911h.059c.783-.016,1.531-.337,2.136-.933l5.517-6.167c1.675,.47,3.431,.041,4.648-1.158,1.226-1.207,1.688-3.015,1.209-4.72-.049-.172-.186-.306-.359-.35Z" class="aw-theme-iconOutline" fill="#464646"/><path d="M12,5.007c1.598,0,2.934,1.132,3.257,2.636,.263-.232,.547-.44,.849-.621-.562-1.742-2.179-3.015-4.106-3.015-2.39,0-4.333,1.944-4.333,4.334s1.943,4.333,4.333,4.333c.467,0,.909-.094,1.332-.231-.014-.165-.025-.331-.025-.499,0-.187,.01-.371,.028-.553-.409,.18-.859,.283-1.334,.283-1.838,0-3.333-1.495-3.333-3.333s1.495-3.334,3.333-3.334Z" class="aw-theme-iconOutline" fill="#464646"/><path d="M23.948,8.1c-.034-.068-3.485-6.844-11.948-6.844S.086,8.031,.052,8.1c-.069,.14-.069,.304,0,.443,.032,.064,3.097,6.071,10.518,6.773l1.025-.946c-6.787-.188-9.894-4.936-10.526-6.049,.645-1.135,3.855-6.065,10.932-6.065s10.282,4.924,10.931,6.062c-.185,.317-.592,.951-1.23,1.689h1.281c.642-.838,.957-1.445,.967-1.465,.069-.14,.069-.304,0-.443Z" class="aw-theme-iconOutline" fill="#464646"/></g></svg>