<?xml version="1.0" encoding="UTF-8"?>
<svg id="Layer_1" data-name="Layer 1" xmlns="http://www.w3.org/2000/svg" xmlns:xlink="http://www.w3.org/1999/xlink" viewBox="0 0 128 128">
  <defs>
    <linearGradient id="linear-gradient" x1="60.0913" y1="-2.2226" x2="125.6569" y2="63.3431" gradientUnits="userSpaceOnUse">
      <stop offset="0" stop-color="#fff"/>
      <stop offset="1" stop-color="#e5f1f4"/>
    </linearGradient>
    <linearGradient id="linear-gradient-2" x1="4.9663" y1="46.9024" x2="66.5976" y2="108.5337" gradientUnits="userSpaceOnUse">
      <stop offset="0" stop-color="#edf6f8"/>
      <stop offset="1" stop-color="#cfe2e8"/>
    </linearGradient>
  </defs>
  <path d="m78,61.5h5.5783s21.9217,22,21.9217,22v-22h8.5673c7.4187,0,13.4327-6.014,13.4327-13.4327V13.9389c0-7.4221-6.0168-13.4389-13.4389-13.4389h-51.1284c-7.4187,0-13.4327,6.014-13.4327,13.4327v30.0673" fill="url(#linear-gradient)" stroke="#bfd8e2" stroke-linejoin="round"/>
  <path d="m65.0673,104.5h-25.4245s-23.1428,23-23.1428,23v-23s-2.5673,0-2.5673,0c-7.4187,0-13.4327-6.014-13.4327-13.4327v-34.1346c0-7.4187,6.014-13.4327,13.4327-13.4327h51.1284c7.4221,0,13.4389,6.0168,13.4389,13.4389v34.1284c0,7.4187-6.014,13.4327-13.4327,13.4327Z" fill="url(#linear-gradient-2)" stroke="#bfd8e2" stroke-miterlimit="10"/>
</svg>