<?xml version="1.0" encoding="UTF-8"?>
<svg id="Layer_1" data-name="Layer 1" xmlns="http://www.w3.org/2000/svg" xmlns:xlink="http://www.w3.org/1999/xlink" viewBox="0 0 128 128">
  <defs>
    <linearGradient id="New_Gradient_Swatch_8" data-name="New Gradient Swatch 8" x1="46.5" y1=".5" x2="114.5" y2="68.5" gradientUnits="userSpaceOnUse">
      <stop offset="0" stop-color="#eef6f8"/>
      <stop offset="1" stop-color="#d1e6ec"/>
    </linearGradient>
    <linearGradient id="New_Gradient_Swatch_10" data-name="New Gradient Swatch 10" x1="45" y1="11" x2="92" y2="58" gradientUnits="userSpaceOnUse">
      <stop offset="0" stop-color="#cce4eb"/>
      <stop offset=".6517" stop-color="#87b8c8"/>
      <stop offset="1" stop-color="#68a4b8"/>
    </linearGradient>
    <linearGradient id="Dark_Blue_Grad" data-name="Dark Blue Grad" x1="62.094" y1="4.594" x2="100.906" y2="43.406" gradientUnits="userSpaceOnUse">
      <stop offset="0" stop-color="#73b4c8"/>
      <stop offset=".1747" stop-color="#6aaec2"/>
      <stop offset=".4567" stop-color="#529db5"/>
      <stop offset=".8089" stop-color="#2b839e"/>
      <stop offset="1" stop-color="#147391"/>
    </linearGradient>
    <linearGradient id="Dark_Blue_Grad-2" data-name="Dark Blue Grad" x1="93.6463" y1="41.0488" x2="113.5488" y2="60.9512" xlink:href="#Dark_Blue_Grad"/>
    <linearGradient id="New_Gradient_Swatch_8-2" data-name="New Gradient Swatch 8" x1="57.6851" y1="47.774" x2="127.6058" y2="117.6947" gradientTransform="translate(-51.542 -5.2343)" xlink:href="#New_Gradient_Swatch_8"/>
    <linearGradient id="New_Gradient_Swatch_10-2" data-name="New Gradient Swatch 10" x1="49.7265" y1="60.9527" x2="93.2702" y2="104.4964" gradientTransform="translate(-51.2224 -1.562)" xlink:href="#New_Gradient_Swatch_10"/>
    <linearGradient id="New_Gradient_Swatch_10-3" data-name="New Gradient Swatch 10" x1="92.0049" y1="60.9793" x2="135.5734" y2="104.5477" gradientTransform="translate(-51.8582 -8.9063)" xlink:href="#New_Gradient_Swatch_10"/>
    <linearGradient id="Dark_Blue_Grad-3" data-name="Dark Blue Grad" x1="70.6429" y1="61.595" x2="93.0676" y2="84.0197" gradientTransform="translate(-53.1019 -3.2098)" xlink:href="#Dark_Blue_Grad"/>
    <linearGradient id="Dark_Blue_Grad-4" data-name="Dark Blue Grad" x1="87.0408" y1="81.4458" x2="102.5662" y2="96.9711" gradientTransform="translate(-50.4506 -5.7074)" xlink:href="#Dark_Blue_Grad"/>
    <linearGradient id="Dark_Blue_Grad-5" data-name="Dark Blue Grad" x1="98.4774" y1="96.7668" x2="116.1629" y2="114.4524" gradientTransform="translate(-47.7927 -8.1301)" xlink:href="#Dark_Blue_Grad"/>
    <linearGradient id="Dark_Blue_Grad-6" data-name="Dark Blue Grad" x1="75.3811" y1="36.1206" x2="110.773" y2="71.5125" gradientTransform="translate(-56.5701 -4.87)" xlink:href="#Dark_Blue_Grad"/>
    <linearGradient id="Dark_Blue_Grad-7" data-name="Dark Blue Grad" x1="61.3997" y1="50.102" x2="69.5084" y2="58.2107" gradientTransform="translate(-64.5012 12.1103) rotate(-10)" xlink:href="#Dark_Blue_Grad"/>
    <linearGradient id="Dark_Blue_Grad-8" data-name="Dark Blue Grad" x1="116.6457" y1="50.102" x2="124.7544" y2="58.2107" gradientTransform="translate(-64.5012 12.1103) rotate(-10)" xlink:href="#Dark_Blue_Grad"/>
    <linearGradient id="Dark_Blue_Grad_2" data-name="Dark Blue Grad 2" x1="63.5445" y1="109.4545" x2="70.5419" y2="116.4519" gradientUnits="userSpaceOnUse">
      <stop offset="0" stop-color="#74b3c7"/>
      <stop offset=".1774" stop-color="#6badc1"/>
      <stop offset=".4638" stop-color="#539cb3"/>
      <stop offset=".8215" stop-color="#2c829c"/>
      <stop offset="1" stop-color="#177490"/>
    </linearGradient>
    <linearGradient id="New_Gradient_Swatch_10-4" data-name="New Gradient Swatch 10" x1="78.8475" y1="60.8475" x2="119.1526" y2="101.1526" xlink:href="#New_Gradient_Swatch_10"/>
    <linearGradient id="linear-gradient" x1="80.9689" y1="62.9688" x2="117.0313" y2="99.0312" gradientUnits="userSpaceOnUse">
      <stop offset="0" stop-color="#eef6f8"/>
      <stop offset=".6236" stop-color="#edf6f8"/>
      <stop offset="1" stop-color="#d1e6ec"/>
    </linearGradient>
    <linearGradient id="New_Gradient_Swatch_11" data-name="New Gradient Swatch 11" x1="73.0001" y1="81" x2="125" y2="81" gradientUnits="userSpaceOnUse">
      <stop offset="0" stop-color="#73b4c8"/>
      <stop offset=".4889" stop-color="#4695ae"/>
      <stop offset="1" stop-color="#147391"/>
    </linearGradient>
    <linearGradient id="New_Gradient_Swatch_11-2" data-name="New Gradient Swatch 11" x1="88.2373" y1="70.2367" x2="109.7638" y2="91.7632" xlink:href="#New_Gradient_Swatch_11"/>
  </defs>
  <rect x="46.5" y=".5" width="68" height="68" fill="url(#New_Gradient_Swatch_8)" stroke="#16748f" stroke-miterlimit="10"/>
  <rect x="55" y="1" width="27" height="67" fill="url(#New_Gradient_Swatch_10)"/>
  <rect x="50.5" y="14.5" width="62" height="19" rx="2.8815" ry="2.8815" fill="url(#Dark_Blue_Grad)" stroke="#147391" stroke-miterlimit="10"/>
  <path d="m114,60.5h-19.6064c-1.5981,0-2.8936-1.2955-2.8936-2.8936v-13.2128c0-1.5981,1.2955-2.8936,2.8936-2.8936h19.6064" fill="url(#Dark_Blue_Grad-2)" stroke="#147391" stroke-miterlimit="10"/>
  <rect x="6.1431" y="42.5397" width="69.9207" height="69.9207" transform="translate(-12.8333 8.3149) rotate(-10)" fill="url(#New_Gradient_Swatch_8-2)" stroke="#16748f" stroke-miterlimit="10"/>
  <rect x="11.2121" y="46.6931" width="18.1276" height="68.939" transform="translate(-13.7857 4.7539) rotate(-10)" fill="url(#New_Gradient_Swatch_10-2)"/>
  <rect x="52.8672" y="39.3576" width="18.1276" height="68.9991" transform="translate(-11.8843 11.8763) rotate(-10)" fill="url(#New_Gradient_Swatch_10-3)"/>
  <rect x="11.489" y="63.555" width="34.5287" height="12.0851" rx="1.5059" ry="1.5059" transform="translate(-11.6487 6.0503) rotate(-10)" fill="url(#Dark_Blue_Grad-3)" stroke="#147391" stroke-miterlimit="10"/>
  <rect x="33.9943" y="77.4585" width="20.7172" height="12.0851" rx="1.4951" ry="1.4951" transform="translate(-13.826 8.9704) rotate(-10)" fill="url(#Dark_Blue_Grad-4)" stroke="#147391" stroke-miterlimit="10"/>
  <rect x="47.0108" y="91.437" width="25.0333" height="12.0851" rx="1.4914" ry="1.4914" transform="translate(-16.0228 11.8178) rotate(-10)" fill="url(#Dark_Blue_Grad-5)" stroke="#147391" stroke-miterlimit="10"/>
  <rect x="4.5679" y="45.4937" width="63.8781" height="6.9057" transform="translate(-7.9449 7.083) rotate(-10)" fill="url(#Dark_Blue_Grad-6)" stroke="#147391" stroke-miterlimit="10"/>
  <polygon points="10.7707 62.0634 5.7452 58.4176 4.4536 51.0923 12.9546 49.5934 14.2462 56.9187 10.7707 62.0634" fill="url(#Dark_Blue_Grad-7)" stroke="#147391" stroke-miterlimit="10"/>
  <polygon points="65.1773 52.4701 60.1518 48.8243 58.8602 41.499 67.3612 40 68.6528 47.3253 65.1773 52.4701" fill="url(#Dark_Blue_Grad-8)" stroke="#147391" stroke-miterlimit="10"/>
  <g>
    <path d="m76.5239,96.4751l-22.6583,22.6655c-1.8208,1.8208-1.8208,4.7729,0,6.5938l.4.4c1.8208,1.8208,4.773,1.8208,6.5938,0l22.6502-22.656" fill="url(#Dark_Blue_Grad_2)" stroke="#16748f" stroke-miterlimit="10"/>
    <circle cx="99.0001" cy="81" r="28.5" fill="url(#New_Gradient_Swatch_10-4)" stroke="#16748f" stroke-linecap="round" stroke-linejoin="round"/>
    <circle cx="99.0001" cy="81" r="25.5" fill="url(#linear-gradient)" stroke="url(#New_Gradient_Swatch_11)" stroke-linecap="round" stroke-linejoin="round"/>
    <polygon points="111.5005 71.9735 108.0269 68.4999 99.0005 77.5263 89.9741 68.4999 86.5005 71.9735 95.5269 80.9999 86.5005 90.0263 89.9741 93.5 99.0005 84.4736 108.0269 93.5 111.5005 90.0263 102.4741 80.9999 111.5005 71.9735" fill="url(#New_Gradient_Swatch_11-2)" stroke="#16748f" stroke-linejoin="round"/>
  </g>
</svg>