<?xml version="1.0" encoding="UTF-8"?>
<svg id="Layer_1" data-name="Layer 1" xmlns="http://www.w3.org/2000/svg" xmlns:xlink="http://www.w3.org/1999/xlink" viewBox="0 0 128 128">
  <defs>
    <linearGradient id="linear-gradient" x1="60.2701" y1="12.8954" x2="111.3217" y2="63.947" gradientUnits="userSpaceOnUse">
      <stop offset="0" stop-color="#fff"/>
      <stop offset="1" stop-color="#e5f1f4"/>
    </linearGradient>
    <linearGradient id="linear-gradient-2" x1="73.1066" y1="76.5523" x2="98.2112" y2="101.657" gradientUnits="userSpaceOnUse">
      <stop offset="0" stop-color="#edf6f8"/>
      <stop offset="1" stop-color="#cfe2e8"/>
    </linearGradient>
    <linearGradient id="linear-gradient-3" x1="31.1932" y1="70.9983" x2="94.0482" y2="133.8532" xlink:href="#linear-gradient-2"/>
  </defs>
  <g>
    <path d="m97.4761,77.7926c0-8.409,8.9514-20.5876,8.9514-20.5876,6.2821-7.306,10.2431-17.2085,10.2431-26.1927,0-16.8516-13.8845-30.5124-31.0125-30.5124s-31.0107,13.6608-31.0107,30.5124c0,9.001,3.9765,18.9221,10.2763,26.234l-.0186.0209s9.051,11.6821,9.051,20.0911" fill="url(#linear-gradient)" stroke="#bfd8e2" stroke-linejoin="round"/>
    <polygon points="98.9496 77.2907 72.3682 77.2907 72.3682 100.9186 77.6998 100.9186 82.2551 106.8256 89.2905 106.8256 93.8472 100.9186 98.9496 100.9186 98.9496 77.2907" fill="url(#linear-gradient-2)" stroke="#bfd8e2" stroke-miterlimit="10"/>
  </g>
  <path d="m94.0419,104.8518l9.0521-4.1081c.5334-.2421,1.0474-.5249,1.5374-.8459l13.2034-8.6497c8.4143-4.7397,13.5071,7.1088,6.0449,12.6173-5.4256,4.0534-10.4878,7.6129-14.5156,9.4601-22.0817,10.1269-21.9175,10.1966-34.3843,10.1966-8.5465,0-21.202-1.3406-37.4043-8.4986-5.0687-2.2387-14.8018,1.3782-26.6162,4.3645-3.7099.9403-7.5024-1.2408-8.526-4.9039-.3423-1.2258-1.0602-4.3798-1.7292-7.3984-.8826-3.9822,1.1504-8.3499,5.0755-9.4592,4.5034-1.2727,11.2189-2.3301,18.062-4.9104,10.0863-3.803,17.8577-6.2833,33.0849-.798.4553.164,10.3777,5.0301,13.0053,6.3427.6887.344,1.4138.5642,2.1768.667l16.8388,2.2684c8.6111,1.3906,5.2137,14.2054-3.9539,13.4042l-15.6494-2.1344c-1.6824-.2295-3.3187-.7203-4.8496-1.4548l-12.4187-5.9581" fill="url(#linear-gradient-3)" stroke="#bfd8e2" stroke-miterlimit="10"/>
</svg>