<?xml version="1.0" encoding="UTF-8"?>
<svg id="Layer_1" data-name="Layer 1" xmlns="http://www.w3.org/2000/svg" xmlns:xlink="http://www.w3.org/1999/xlink" viewBox="0 0 128 128">
  <defs>
    <linearGradient id="linear-gradient" x1="-88.1675" y1="308.0214" x2="-61.6331" y2="334.5558" gradientTransform="translate(95.3912 -273.7162)" gradientUnits="userSpaceOnUse">
      <stop offset="0" stop-color="#edf6f8"/>
      <stop offset="1" stop-color="#cfe2e8"/>
    </linearGradient>
    <linearGradient id="linear-gradient-2" x1="-67.0464" y1="313.7021" x2="-44.2994" y2="336.4491" gradientTransform="translate(95.7567 -277.1126)" xlink:href="#linear-gradient"/>
    <linearGradient id="linear-gradient-3" x1="-53.4331" y1="296.593" x2="-19.4578" y2="330.5682" gradientTransform="translate(93.4917 -280.2788)" gradientUnits="userSpaceOnUse">
      <stop offset="0" stop-color="#fff"/>
      <stop offset="1" stop-color="#e5f1f4"/>
    </linearGradient>
    <linearGradient id="linear-gradient-4" x1="-167.5473" y1="434.0847" x2="-143.83" y2="457.802" gradientTransform="translate(50.3923 -428.3452) rotate(-22.3806)" xlink:href="#linear-gradient"/>
    <linearGradient id="linear-gradient-5" x1="-139.2237" y1="419.5021" x2="-106.0513" y2="452.6745" gradientTransform="translate(50.3923 -428.3452) rotate(-22.3806)" xlink:href="#linear-gradient"/>
    <linearGradient id="linear-gradient-6" x1="-144.0899" y1="457.5407" x2="-120.6324" y2="480.9982" gradientTransform="translate(50.3923 -428.3452) rotate(-22.3806)" xlink:href="#linear-gradient-3"/>
    <linearGradient id="linear-gradient-7" x1="7.12" y1="66.9072" x2="69.1202" y2="128.9073" gradientTransform="translate(15.3799 -1.4072)" xlink:href="#linear-gradient-3"/>
    <linearGradient id="linear-gradient-8" x1="28.0329" y1="93.2842" x2="66.388" y2="131.6393" gradientTransform="translate(15.3799 -1.4072)" xlink:href="#linear-gradient"/>
    <linearGradient id="linear-gradient-9" x1="-39.3517" y1="84.3881" x2="-37.7101" y2="86.0297" gradientTransform="translate(64.1491 3.8948) rotate(-10)" xlink:href="#linear-gradient"/>
    <linearGradient id="linear-gradient-10" x1="-20.3489" y1="100.4316" x2="-18.7073" y2="102.0733" gradientTransform="translate(64.1491 3.8948) rotate(-10)" xlink:href="#linear-gradient"/>
    <linearGradient id="linear-gradient-11" x1="6.6131" y1="74.2153" x2="8.2547" y2="75.8569" gradientTransform="translate(64.1491 3.8948) rotate(-10)" xlink:href="#linear-gradient"/>
    <linearGradient id="linear-gradient-12" x1="-61.0436" y1="100.8718" x2="-59.402" y2="102.5134" gradientTransform="translate(64.1491 3.8948) rotate(-10)" xlink:href="#linear-gradient"/>
  </defs>
  <g>
    <line x1="62.807" y1=".5" x2="1.4106" y2="11.3257" fill="none" stroke="#bfd8e2" stroke-miterlimit="10"/>
    <line x1="64.8306" y1="11.9767" x2="3.4343" y2="22.8024" fill="none" stroke="#bfd8e2" stroke-miterlimit="10"/>
    <line x1="66.8542" y1="23.4533" x2="5.4579" y2="34.279" fill="none" stroke="#bfd8e2" stroke-miterlimit="10"/>
    <line x1="68.8779" y1="34.93" x2="7.4816" y2="45.7557" fill="none" stroke="#bfd8e2" stroke-miterlimit="10"/>
    <line x1="70.9015" y1="46.4067" x2="9.5052" y2="57.2324" fill="none" stroke="#bfd8e2" stroke-miterlimit="10"/>
    <polyline points=".5 6.1612 11.5282 68.705 74.0722 57.6772" fill="none" stroke="#bfd8e2" stroke-miterlimit="10"/>
    <path d="m14.1204,27.7864h12.7411c.5036,0,.9125.4089.9125.9125v38.125h-14.566V28.6989c0-.5036.4089-.9125.9125-.9125Z" transform="translate(-7.9032 4.2769) rotate(-10)" fill="url(#linear-gradient)" stroke="#bfd8e2" stroke-miterlimit="10"/>
    <path d="m33.7133,31.9645h12.7411c.5036,0,.9125.4089.9125.9125v30.55h-14.566v-30.55c0-.5036.4089-.9125.9125-.9125Z" transform="translate(-7.6733 7.6851) rotate(-10)" fill="url(#linear-gradient-2)" stroke="#bfd8e2" stroke-miterlimit="10"/>
    <path d="m50.6757,6.075h12.7411c.5036,0,.9125.4089.9125.9125v52.8177c0,.2518-.2044.4562-.4562.4562h-13.6535c-.2518,0-.4562-.2044-.4562-.4562V6.9875c0-.5036.4089-.9125.9125-.9125Z" transform="translate(-4.8929 10.4099) rotate(-10)" fill="url(#linear-gradient-3)" stroke="#bfd8e2" stroke-linejoin="round"/>
  </g>
  <g>
    <path d="m80.6051,14.4389c-.0015.0006-.0029.0011-.0044.0017-16.942,6.9763-25.0128,26.366-18.0367,43.3075,3.5383,8.5928,10.2709,14.8987,18.2554,18.1224,1.3141-3.2554,12.4162-30.7579,12.4162-30.7579l-12.6306-30.6735Z" fill="url(#linear-gradient-4)" stroke="#bfd8e2" stroke-miterlimit="10"/>
    <path d="m84.027,6.2257l12.6306,30.6737h0s30.6737-12.6306,30.6737-12.6306C120.354,7.332,100.9699-.7483,84.027,6.2257Z" fill="url(#linear-gradient-5)" stroke="#bfd8e2" stroke-miterlimit="10"/>
    <path d="m93.2356,45.1125c-.0007.0018-11.1021,27.5026-12.4162,30.7579,7.7565,3.1316,16.6943,3.3551,25.0426-.0825,16.9456-6.9777,25.0249-26.3609,18.0493-43.3011-.0007-.0016-.0015-.0032-.0021-.0049l-30.6735,12.6306Z" fill="url(#linear-gradient-6)" stroke="#bfd8e2" stroke-linejoin="round"/>
  </g>
  <g>
    <rect x="22.5" y="65.5001" width="62" height="62.0001" fill="url(#linear-gradient-7)" stroke="#bfd8e2" stroke-linejoin="round"/>
    <polygon points="22.5 114.1517 40.8704 94.4196 62.6852 107.1874 84.5 76.4285 84.5 127.5 22.5 127.4999 22.5 114.1517" fill="url(#linear-gradient-8)" stroke="#bfd8e2" stroke-miterlimit="10"/>
    <path d="m42.1607,94.5c0,.641-.5197,1.1607-1.1607,1.1607-.641,0-1.1607-.5197-1.1607-1.1607,0-.641.5197-1.1607,1.1607-1.1607s1.1607.5197,1.1607,1.1607Z" fill="url(#linear-gradient-9)" stroke="#bfd8e2" stroke-miterlimit="10"/>
    <circle cx="62.5" cy="107" r="1.1607" fill="url(#linear-gradient-10)" stroke="#bfd8e2" stroke-miterlimit="10"/>
    <path d="m85.6607,76.5c0,.641-.5197,1.1607-1.1607,1.1607-.641,0-1.1607-.5197-1.1607-1.1607,0-.641.5197-1.1607,1.1607-1.1607s1.1607.5197,1.1607,1.1607Z" fill="url(#linear-gradient-11)" stroke="#bfd8e2" stroke-miterlimit="10"/>
    <circle cx="22.5" cy="114.5" r="1.1607" fill="url(#linear-gradient-12)" stroke="#bfd8e2" stroke-miterlimit="10"/>
    <circle cx="78" cy="70.5" r=".5" fill="#bfd8e2"/>
    <circle cx="72.5" cy="70.5" r=".5" fill="#bfd8e2"/>
    <circle cx="67" cy="70.5" r=".5" fill="#bfd8e2"/>
    <circle cx="61.5" cy="70.5" r=".5" fill="#bfd8e2"/>
    <circle cx="56" cy="70.5" r=".5" fill="#bfd8e2"/>
    <circle cx="50.5" cy="70.5" r=".5" fill="#bfd8e2"/>
    <circle cx="45" cy="70.5" r=".5" fill="#bfd8e2"/>
    <circle cx="39.5" cy="70.5" r=".5" fill="#bfd8e2"/>
    <circle cx="34" cy="70.5" r=".5" fill="#bfd8e2"/>
    <circle cx="28.5" cy="70.5" r=".5" fill="#bfd8e2"/>
    <circle cx="78" cy="76" r=".5" fill="#bfd8e2"/>
    <circle cx="72.5" cy="76" r=".5" fill="#bfd8e2"/>
    <circle cx="67" cy="76" r=".5" fill="#bfd8e2"/>
    <circle cx="61.5" cy="76" r=".5" fill="#bfd8e2"/>
    <circle cx="56" cy="76" r=".5" fill="#bfd8e2"/>
    <circle cx="50.5" cy="76" r=".5" fill="#bfd8e2"/>
    <circle cx="45" cy="76" r=".5" fill="#bfd8e2"/>
    <circle cx="39.5" cy="76" r=".5" fill="#bfd8e2"/>
    <circle cx="34" cy="76" r=".5" fill="#bfd8e2"/>
    <circle cx="28.5" cy="76" r=".5" fill="#bfd8e2"/>
    <circle cx="78" cy="81.5" r=".5" fill="#bfd8e2"/>
    <circle cx="72.5" cy="81.5" r=".5" fill="#bfd8e2"/>
    <circle cx="67" cy="81.5" r=".5" fill="#bfd8e2"/>
    <circle cx="61.5" cy="81.5" r=".5" fill="#bfd8e2"/>
    <circle cx="56" cy="81.5" r=".5" fill="#bfd8e2"/>
    <circle cx="50.5" cy="81.5" r=".5" fill="#bfd8e2"/>
    <circle cx="45" cy="81.5" r=".5" fill="#bfd8e2"/>
    <circle cx="39.5" cy="81.5" r=".5" fill="#bfd8e2"/>
    <circle cx="34" cy="81.5" r=".5" fill="#bfd8e2"/>
    <circle cx="28.5" cy="81.5" r=".5" fill="#bfd8e2"/>
    <circle cx="72.5" cy="87" r=".5" fill="#bfd8e2"/>
    <circle cx="67" cy="87" r=".5" fill="#bfd8e2"/>
    <circle cx="61.5" cy="87" r=".5" fill="#bfd8e2"/>
    <circle cx="56" cy="87" r=".5" fill="#bfd8e2"/>
    <circle cx="50.5" cy="87" r=".5" fill="#bfd8e2"/>
    <circle cx="45" cy="87" r=".5" fill="#bfd8e2"/>
    <circle cx="39.5" cy="87" r=".5" fill="#bfd8e2"/>
    <circle cx="34" cy="87" r=".5" fill="#bfd8e2"/>
    <circle cx="28.5" cy="87" r=".5" fill="#bfd8e2"/>
    <circle cx="67" cy="92.5" r=".5" fill="#bfd8e2"/>
    <circle cx="72.5" cy="92.5" r=".5" fill="#bfd8e2"/>
    <circle cx="61.5" cy="92.5" r=".5" fill="#bfd8e2"/>
    <circle cx="56" cy="92.5" r=".5" fill="#bfd8e2"/>
    <circle cx="50.5" cy="92.5" r=".5" fill="#bfd8e2"/>
    <circle cx="45" cy="92.5" r=".5" fill="#bfd8e2"/>
    <circle cx="39.5" cy="92.5" r=".5" fill="#bfd8e2"/>
    <circle cx="34" cy="92.5" r=".5" fill="#bfd8e2"/>
    <circle cx="28.5" cy="92.5" r=".5" fill="#bfd8e2"/>
    <circle cx="67" cy="98" r=".5" fill="#bfd8e2"/>
    <circle cx="61.5" cy="98" r=".5" fill="#bfd8e2"/>
    <circle cx="56" cy="98" r=".5" fill="#bfd8e2"/>
    <circle cx="50.5" cy="98" r=".5" fill="#bfd8e2"/>
    <circle cx="34" cy="98" r=".5" fill="#bfd8e2"/>
    <circle cx="28.5" cy="98" r=".5" fill="#bfd8e2"/>
    <circle cx="61.5" cy="104" r=".5" fill="#bfd8e2"/>
    <circle cx="28.5" cy="104" r=".5" fill="#bfd8e2"/>
  </g>
</svg>