<?xml version="1.0" encoding="UTF-8"?>
<svg id="Layer_1" data-name="Layer 1" xmlns="http://www.w3.org/2000/svg" xmlns:xlink="http://www.w3.org/1999/xlink" viewBox="0 0 128 128">
  <defs>
    <linearGradient id="New_Gradient_Swatch_8" data-name="New Gradient Swatch 8" x1="-12.9798" y1="238.8188" x2="43.1124" y2="294.911" gradientTransform="translate(11.2533 -212.7705)" gradientUnits="userSpaceOnUse">
      <stop offset="0" stop-color="#eef6f8"/>
      <stop offset="1" stop-color="#d1e6ec"/>
    </linearGradient>
    <linearGradient id="New_Gradient_Swatch_10" data-name="New Gradient Swatch 10" x1="16.1509" y1="21.4455" x2="29.7224" y2="35.017" gradientTransform="translate(5.2507 -3.554) rotate(9.9998)" gradientUnits="userSpaceOnUse">
      <stop offset="0" stop-color="#cce4eb"/>
      <stop offset=".6517" stop-color="#87b8c8"/>
      <stop offset="1" stop-color="#68a4b8"/>
    </linearGradient>
    <linearGradient id="New_Gradient_Swatch_8-2" data-name="New Gradient Swatch 8" x1="40.5224" y1="53.4999" x2="91.5226" y2="104.5001" gradientTransform="matrix(1, 0, 0, 1, 0, 0)" xlink:href="#New_Gradient_Swatch_8"/>
    <linearGradient id="New_Gradient_Swatch_11" data-name="New Gradient Swatch 11" x1="43.0652" y1="112.0186" x2="76.5654" y2="145.5188" gradientTransform="translate(6.2072 -67.2687)" gradientUnits="userSpaceOnUse">
      <stop offset="0" stop-color="#73b4c8"/>
      <stop offset=".4889" stop-color="#4695ae"/>
      <stop offset="1" stop-color="#147391"/>
    </linearGradient>
    <linearGradient id="New_Gradient_Swatch_8-3" data-name="New Gradient Swatch 8" x1="45.5195" y1="4.9969" x2="96.5257" y2="56.0031" gradientTransform="translate(88.7261 -44.7398) rotate(79.9999)" xlink:href="#New_Gradient_Swatch_8"/>
    <linearGradient id="New_Gradient_Swatch_11-2" data-name="New Gradient Swatch 11" x1="70.0135" y1="39.0522" x2="91.745" y2="60.7837" gradientTransform="matrix(1, 0, 0, 1, 0, 0)" xlink:href="#New_Gradient_Swatch_11"/>
    <linearGradient id="New_Gradient_Swatch_10-2" data-name="New Gradient Swatch 10" x1="47.3875" y1="39.306" x2="75.5829" y2="67.5014" gradientTransform="matrix(1, 0, 0, 1, 0, 0)" xlink:href="#New_Gradient_Swatch_10"/>
    <linearGradient id="New_Gradient_Swatch_8-4" data-name="New Gradient Swatch 8" x1="78.8475" y1="78.8475" x2="119.1525" y2="119.1525" gradientTransform="matrix(1, 0, 0, 1, 0, 0)" xlink:href="#New_Gradient_Swatch_8"/>
    <linearGradient id="Dark_Blue_Grad_2" data-name="Dark Blue Grad 2" x1="85.3535" y1="87.9689" x2="110.4423" y2="113.0576" gradientUnits="userSpaceOnUse">
      <stop offset="0" stop-color="#74b3c7"/>
      <stop offset=".1774" stop-color="#6badc1"/>
      <stop offset=".4638" stop-color="#539cb3"/>
      <stop offset=".8215" stop-color="#2c829c"/>
      <stop offset="1" stop-color="#177490"/>
    </linearGradient>
  </defs>
  <g>
    <rect x="6.5244" y="17.7987" width="39.5927" height="72.5913" transform="translate(-8.9933 5.3922) rotate(-9.9997)" fill="url(#New_Gradient_Swatch_8)" stroke="#16748f" stroke-linejoin="round"/>
    <line x1="28.464" y1="37.8031" x2="11.4055" y2="40.8109" fill="none" stroke="#16748f" stroke-miterlimit="10"/>
    <line x1="33.529" y1="42.7739" x2="12.4083" y2="46.4979" fill="none" stroke="#16748f" stroke-miterlimit="10"/>
    <line x1="24.7826" y1="50.1799" x2="13.411" y2="52.185" fill="none" stroke="#16748f" stroke-miterlimit="10"/>
    <line x1="35.5345" y1="54.1479" x2="14.4138" y2="57.872" fill="none" stroke="#16748f" stroke-miterlimit="10"/>
    <line x1="32.4751" y1="60.5512" x2="15.4166" y2="63.559" fill="none" stroke="#16748f" stroke-miterlimit="10"/>
    <line x1="37.5401" y1="65.522" x2="16.4194" y2="69.246" fill="none" stroke="#16748f" stroke-miterlimit="10"/>
    <line x1="28.7937" y1="72.928" x2="17.4221" y2="74.933" fill="none" stroke="#16748f" stroke-miterlimit="10"/>
    <line x1="39.5456" y1="76.896" x2="18.4249" y2="80.6201" fill="none" stroke="#16748f" stroke-miterlimit="10"/>
    <rect x="9.7385" y="25.7576" width="26.3963" height="4.9472" transform="translate(-4.5538 4.4117) rotate(-9.9998)" fill="url(#New_Gradient_Swatch_10)" stroke="#16748f" stroke-miterlimit="10"/>
  </g>
  <g>
    <rect x="36.5225" y="57.4999" width="59" height="43.0002" fill="url(#New_Gradient_Swatch_8-2)" stroke="#16748f" stroke-linejoin="round"/>
    <rect x="36.5225" y="57.4999" width="59" height="8.0002" fill="url(#New_Gradient_Swatch_11)" stroke="#16748f" stroke-linejoin="round"/>
    <line x1="95.0225" y1="72.5" x2="36.0225" y2="72.4999" fill="#e6e6e6" stroke="#16748f" stroke-miterlimit="10"/>
    <line x1="95.0225" y1="79.5" x2="36.0225" y2="79.4999" fill="#e6e6e6" stroke="#16748f" stroke-miterlimit="10"/>
    <line x1="95.0225" y1="86.5" x2="36.0225" y2="86.4999" fill="#e6e6e6" stroke="#16748f" stroke-miterlimit="10"/>
    <line x1="95.0225" y1="93.5" x2="36.0225" y2="93.4999" fill="#e6e6e6" stroke="#16748f" stroke-miterlimit="10"/>
    <line x1="55.5225" y1="57" x2="55.5225" y2="100.5" fill="#e6e6e6" stroke="#16748f" stroke-miterlimit="10"/>
    <line x1="75.5225" y1="57" x2="75.5225" y2="100.5" fill="#e6e6e6" stroke="#16748f" stroke-miterlimit="10"/>
  </g>
  <g>
    <rect x="45.126" y="4.6035" width="51.793" height="51.793" transform="translate(28.6528 95.1472) rotate(-79.9999)" fill="url(#New_Gradient_Swatch_8-3)" stroke="#16748f" stroke-linejoin="round"/>
    <circle cx="63.6159" cy="18.5636" r="6.6119" fill="#fff" stroke="#16748f" stroke-miterlimit="10"/>
    <path d="m55.0811,53.9846l32.201-24.8118c.9626-.7417,2.344-.5643,3.0879.3966l5.7933,7.4827-4.1346,23.4479-36.9476-6.5154Z" fill="url(#New_Gradient_Swatch_11-2)" stroke="#16748f" stroke-miterlimit="10"/>
    <path d="m41.0225,51.5062l1.2492-7.0843,15.1724-10.9986c.9009-.6531,2.1473-.5322,2.906.2819l23.65,25.3791-42.9775-7.5781Z" fill="url(#New_Gradient_Swatch_10-2)" stroke="#16748f" stroke-linejoin="round"/>
  </g>
  <circle cx="99" cy="99" r="28.5" fill="url(#New_Gradient_Swatch_8-4)" stroke="#16748f" stroke-linejoin="round"/>
  <path d="m111.5675,100.7989l-18.7451-20.2989-2.3449,27.5306,7.3403-5.6866,5.2052,15.156,4.4646-1.4876-5.2204-15.1992,9.3003-.0143Z" fill="url(#Dark_Blue_Grad_2)" stroke="#16748f" stroke-miterlimit="10"/>
</svg>