<?xml version="1.0" encoding="UTF-8"?>
<svg id="Layer_1" data-name="Layer 1" xmlns="http://www.w3.org/2000/svg" xmlns:xlink="http://www.w3.org/1999/xlink" viewBox="0 0 128 128">
  <defs>
    <linearGradient id="New_Gradient_Swatch_8" data-name="New Gradient Swatch 8" x1="-10.8142" y1="213.8096" x2="45.278" y2="269.9017" gradientTransform="translate(9.0654 -187.7612)" gradientUnits="userSpaceOnUse">
      <stop offset="0" stop-color="#eef6f8"/>
      <stop offset="1" stop-color="#d1e6ec"/>
    </linearGradient>
    <linearGradient id="New_Gradient_Swatch_10" data-name="New Gradient Swatch 10" x1="16.1285" y1="21.4455" x2="29.6999" y2="35.017" gradientTransform="translate(5.2503 -3.5501) rotate(9.9998)" gradientUnits="userSpaceOnUse">
      <stop offset="0" stop-color="#cce4eb"/>
      <stop offset=".6517" stop-color="#87b8c8"/>
      <stop offset="1" stop-color="#68a4b8"/>
    </linearGradient>
    <linearGradient id="New_Gradient_Swatch_8-2" data-name="New Gradient Swatch 8" x1="40.4999" y1="53.4999" x2="91.5001" y2="104.5001" gradientTransform="matrix(1, 0, 0, 1, 0, 0)" xlink:href="#New_Gradient_Swatch_8"/>
    <linearGradient id="New_Gradient_Swatch_11" data-name="New Gradient Swatch 11" x1="43.0427" y1="112.0186" x2="76.5429" y2="145.5188" gradientTransform="translate(6.2072 -67.2687)" gradientUnits="userSpaceOnUse">
      <stop offset="0" stop-color="#73b4c8"/>
      <stop offset=".4889" stop-color="#4695ae"/>
      <stop offset="1" stop-color="#147391"/>
    </linearGradient>
    <linearGradient id="New_Gradient_Swatch_8-3" data-name="New Gradient Swatch 8" x1="45.497" y1="4.9969" x2="96.5032" y2="56.003" gradientTransform="translate(88.7075 -44.7177) rotate(79.9999)" xlink:href="#New_Gradient_Swatch_8"/>
    <linearGradient id="New_Gradient_Swatch_11-2" data-name="New Gradient Swatch 11" x1="69.991" y1="39.0522" x2="91.7225" y2="60.7837" gradientTransform="matrix(1, 0, 0, 1, 0, 0)" xlink:href="#New_Gradient_Swatch_11"/>
    <linearGradient id="New_Gradient_Swatch_10-2" data-name="New Gradient Swatch 10" x1="47.3651" y1="39.306" x2="75.5604" y2="67.5013" gradientTransform="matrix(1, 0, 0, 1, 0, 0)" xlink:href="#New_Gradient_Swatch_10"/>
    <linearGradient id="Dark_Blue_Grad_2" data-name="Dark Blue Grad 2" x1="63.5445" y1="109.4545" x2="70.5419" y2="116.4519" gradientUnits="userSpaceOnUse">
      <stop offset="0" stop-color="#74b3c7"/>
      <stop offset=".1774" stop-color="#6badc1"/>
      <stop offset=".4638" stop-color="#539cb3"/>
      <stop offset=".8215" stop-color="#2c829c"/>
      <stop offset="1" stop-color="#177490"/>
    </linearGradient>
    <linearGradient id="New_Gradient_Swatch_10-3" data-name="New Gradient Swatch 10" x1="78.8475" y1="60.8475" x2="119.1526" y2="101.1526" gradientTransform="matrix(1, 0, 0, 1, 0, 0)" xlink:href="#New_Gradient_Swatch_10"/>
    <linearGradient id="linear-gradient" x1="80.9689" y1="62.9688" x2="117.0313" y2="99.0312" gradientUnits="userSpaceOnUse">
      <stop offset="0" stop-color="#eef6f8"/>
      <stop offset=".6236" stop-color="#edf6f8"/>
      <stop offset="1" stop-color="#d1e6ec"/>
    </linearGradient>
    <linearGradient id="New_Gradient_Swatch_11-3" data-name="New Gradient Swatch 11" x1="73.0001" y1="81" x2="125" y2="81" gradientTransform="matrix(1, 0, 0, 1, 0, 0)" xlink:href="#New_Gradient_Swatch_11"/>
    <linearGradient id="New_Gradient_Swatch_11-4" data-name="New Gradient Swatch 11" x1="84.7373" y1="66.7367" x2="113.2638" y2="95.2632" gradientTransform="translate(86.273 -46.2797) rotate(45.0004)" xlink:href="#New_Gradient_Swatch_11"/>
  </defs>
  <g>
    <rect x="6.5019" y="17.7987" width="39.5927" height="72.5913" transform="translate(-8.9936 5.3883) rotate(-9.9997)" fill="url(#New_Gradient_Swatch_8)" stroke="#16748f" stroke-linejoin="round"/>
    <line x1="28.4416" y1="37.8031" x2="11.383" y2="40.8109" fill="none" stroke="#16748f" stroke-miterlimit="10"/>
    <line x1="33.5065" y1="42.7739" x2="12.3858" y2="46.4979" fill="none" stroke="#16748f" stroke-miterlimit="10"/>
    <line x1="24.7601" y1="50.1799" x2="13.3886" y2="52.185" fill="none" stroke="#16748f" stroke-miterlimit="10"/>
    <line x1="35.5121" y1="54.1479" x2="14.3913" y2="57.872" fill="none" stroke="#16748f" stroke-miterlimit="10"/>
    <line x1="32.4527" y1="60.5512" x2="15.3941" y2="63.559" fill="none" stroke="#16748f" stroke-miterlimit="10"/>
    <line x1="37.5176" y1="65.522" x2="16.3969" y2="69.246" fill="none" stroke="#16748f" stroke-miterlimit="10"/>
    <line x1="28.7712" y1="72.928" x2="17.3997" y2="74.933" fill="none" stroke="#16748f" stroke-miterlimit="10"/>
    <line x1="39.5232" y1="76.896" x2="18.4024" y2="80.6201" fill="none" stroke="#16748f" stroke-miterlimit="10"/>
    <rect x="9.716" y="25.7576" width="26.3963" height="4.9472" transform="translate(-4.5541 4.4078) rotate(-9.9998)" fill="url(#New_Gradient_Swatch_10)" stroke="#16748f" stroke-miterlimit="10"/>
  </g>
  <g>
    <rect x="36.5" y="57.4999" width="59" height="43.0002" fill="url(#New_Gradient_Swatch_8-2)" stroke="#16748f" stroke-linejoin="round"/>
    <rect x="36.5" y="57.4999" width="59" height="8.0002" fill="url(#New_Gradient_Swatch_11)" stroke="#16748f" stroke-linejoin="round"/>
    <line x1="95" y1="72.5" x2="36" y2="72.4999" fill="#e6e6e6" stroke="#16748f" stroke-miterlimit="10"/>
    <line x1="95" y1="79.5" x2="36" y2="79.4999" fill="#e6e6e6" stroke="#16748f" stroke-miterlimit="10"/>
    <line x1="95" y1="86.5" x2="36" y2="86.4999" fill="#e6e6e6" stroke="#16748f" stroke-miterlimit="10"/>
    <line x1="95" y1="93.5" x2="36" y2="93.4999" fill="#e6e6e6" stroke="#16748f" stroke-miterlimit="10"/>
    <line x1="55.5" y1="57" x2="55.5" y2="100.5" fill="#e6e6e6" stroke="#16748f" stroke-miterlimit="10"/>
    <line x1="75.5" y1="57" x2="75.5" y2="100.5" fill="#e6e6e6" stroke="#16748f" stroke-miterlimit="10"/>
  </g>
  <g>
    <rect x="45.1036" y="4.6035" width="51.7929" height="51.793" transform="translate(28.6343 95.125) rotate(-79.9999)" fill="url(#New_Gradient_Swatch_8-3)" stroke="#16748f" stroke-linejoin="round"/>
    <circle cx="63.5935" cy="18.5636" r="6.6119" transform="translate(42.5723 81.3875) rotate(-87.7726)" fill="#fff" stroke="#16748f" stroke-miterlimit="10"/>
    <path d="m55.0587,53.9845l32.201-24.8118c.9626-.7417,2.344-.5643,3.0879.3966l5.7933,7.4827-4.1346,23.4479-36.9476-6.5154Z" fill="url(#New_Gradient_Swatch_11-2)" stroke="#16748f" stroke-miterlimit="10"/>
    <path d="m41,51.5062l1.2492-7.0843,15.1724-10.9986c.9009-.6531,2.1473-.5322,2.906.2819l23.65,25.3791-42.9775-7.5781Z" fill="url(#New_Gradient_Swatch_10-2)" stroke="#16748f" stroke-linejoin="round"/>
  </g>
  <g>
    <path d="m76.5239,96.4751l-22.6583,22.6655c-1.8208,1.8208-1.8208,4.7729,0,6.5938l.4.4c1.8208,1.8208,4.773,1.8208,6.5938,0l22.6502-22.656" fill="url(#Dark_Blue_Grad_2)" stroke="#16748f" stroke-miterlimit="10"/>
    <circle cx="99.0001" cy="81" r="28.5" fill="url(#New_Gradient_Swatch_10-3)" stroke="#16748f" stroke-linecap="round" stroke-linejoin="round"/>
    <circle cx="99.0001" cy="81" r="25.5" fill="url(#linear-gradient)" stroke="url(#New_Gradient_Swatch_11-3)" stroke-linecap="round" stroke-linejoin="round"/>
    <rect x="95.8372" y="60.8287" width="6.3267" height="40.3424" transform="translate(-28.2789 93.7291) rotate(-45.0004)" fill="url(#New_Gradient_Swatch_11-4)" stroke="#16748f" stroke-linejoin="round"/>
  </g>
</svg>