<?xml version="1.0" encoding="UTF-8"?>
<svg id="Layer_1" data-name="Layer 1" xmlns="http://www.w3.org/2000/svg" xmlns:xlink="http://www.w3.org/1999/xlink" viewBox="0 0 128 128">
  <defs>
    <linearGradient id="New_Gradient_Swatch_8" data-name="New Gradient Swatch 8" x1="46.5" y1=".5" x2="114.5" y2="68.5" gradientUnits="userSpaceOnUse">
      <stop offset="0" stop-color="#eef6f8"/>
      <stop offset="1" stop-color="#d1e6ec"/>
    </linearGradient>
    <linearGradient id="New_Gradient_Swatch_10" data-name="New Gradient Swatch 10" x1="45" y1="11" x2="92" y2="58" gradientUnits="userSpaceOnUse">
      <stop offset="0" stop-color="#cce4eb"/>
      <stop offset=".6517" stop-color="#87b8c8"/>
      <stop offset="1" stop-color="#68a4b8"/>
    </linearGradient>
    <linearGradient id="Dark_Blue_Grad" data-name="Dark Blue Grad" x1="62.094" y1="4.594" x2="100.906" y2="43.406" gradientUnits="userSpaceOnUse">
      <stop offset="0" stop-color="#73b4c8"/>
      <stop offset=".1747" stop-color="#6aaec2"/>
      <stop offset=".4567" stop-color="#529db5"/>
      <stop offset=".8089" stop-color="#2b839e"/>
      <stop offset="1" stop-color="#147391"/>
    </linearGradient>
    <linearGradient id="Dark_Blue_Grad-2" data-name="Dark Blue Grad" x1="93.6463" y1="41.0488" x2="113.5488" y2="60.9512" xlink:href="#Dark_Blue_Grad"/>
    <linearGradient id="New_Gradient_Swatch_8-2" data-name="New Gradient Swatch 8" x1="6.2853" y1="43.2771" x2="76.2059" y2="113.1978" gradientTransform="translate(-.1421 -.7374)" xlink:href="#New_Gradient_Swatch_8"/>
    <linearGradient id="New_Gradient_Swatch_10-2" data-name="New Gradient Swatch 10" x1="-1.6734" y1="56.4558" x2="41.8703" y2="99.9995" gradientTransform="translate(.1774 2.9349)" xlink:href="#New_Gradient_Swatch_10"/>
    <linearGradient id="New_Gradient_Swatch_10-3" data-name="New Gradient Swatch 10" x1="40.605" y1="56.4823" x2="84.1735" y2="100.0508" gradientTransform="translate(-.4583 -4.4094)" xlink:href="#New_Gradient_Swatch_10"/>
    <linearGradient id="Dark_Blue_Grad-3" data-name="Dark Blue Grad" x1="19.243" y1="57.0981" x2="41.6677" y2="79.5228" gradientTransform="translate(-1.702 1.2871)" xlink:href="#Dark_Blue_Grad"/>
    <linearGradient id="Dark_Blue_Grad-4" data-name="Dark Blue Grad" x1="35.641" y1="76.9489" x2="51.1663" y2="92.4742" gradientTransform="translate(.9493 -1.2105)" xlink:href="#Dark_Blue_Grad"/>
    <linearGradient id="Dark_Blue_Grad-5" data-name="Dark Blue Grad" x1="47.0775" y1="92.2699" x2="64.7631" y2="109.9555" gradientTransform="translate(3.6072 -3.6332)" xlink:href="#Dark_Blue_Grad"/>
    <linearGradient id="Dark_Blue_Grad-6" data-name="Dark Blue Grad" x1="23.9812" y1="31.6237" x2="59.3732" y2="67.0156" gradientTransform="translate(-5.1702 -.3731)" xlink:href="#Dark_Blue_Grad"/>
    <linearGradient id="Dark_Blue_Grad-7" data-name="Dark Blue Grad" x1="9.9999" y1="45.6051" x2="18.1086" y2="53.7138" gradientTransform="translate(-13.1013 7.6134) rotate(-10)" xlink:href="#Dark_Blue_Grad"/>
    <linearGradient id="Dark_Blue_Grad-8" data-name="Dark Blue Grad" x1="65.2458" y1="45.6051" x2="73.3545" y2="53.7138" gradientTransform="translate(-13.1013 7.6134) rotate(-10)" xlink:href="#Dark_Blue_Grad"/>
    <linearGradient id="New_Gradient_Swatch_8-3" data-name="New Gradient Swatch 8" x1="78.8475" y1="78.8475" x2="119.1525" y2="119.1525" xlink:href="#New_Gradient_Swatch_8"/>
    <linearGradient id="Dark_Blue_Grad_2" data-name="Dark Blue Grad 2" x1="85.331" y1="87.9689" x2="110.4198" y2="113.0576" gradientUnits="userSpaceOnUse">
      <stop offset="0" stop-color="#74b3c7"/>
      <stop offset=".1774" stop-color="#6badc1"/>
      <stop offset=".4638" stop-color="#539cb3"/>
      <stop offset=".8215" stop-color="#2c829c"/>
      <stop offset="1" stop-color="#177490"/>
    </linearGradient>
  </defs>
  <rect x="46.5" y=".5" width="68" height="68" fill="url(#New_Gradient_Swatch_8)" stroke="#16748f" stroke-miterlimit="10"/>
  <rect x="55" y="1" width="27" height="67" fill="url(#New_Gradient_Swatch_10)"/>
  <rect x="50.5" y="14.5" width="62" height="19" rx="2.8815" ry="2.8815" fill="url(#Dark_Blue_Grad)" stroke="#147391" stroke-miterlimit="10"/>
  <path d="m114,60.5h-19.6064c-1.5981,0-2.8936-1.2955-2.8936-2.8936v-13.2128c0-1.5981,1.2955-2.8936,2.8936-2.8936h19.6064" fill="url(#Dark_Blue_Grad-2)" stroke="#147391" stroke-miterlimit="10"/>
  <rect x="6.1431" y="42.5397" width="69.9207" height="69.9207" transform="translate(-12.8333 8.3149) rotate(-10)" fill="url(#New_Gradient_Swatch_8-2)" stroke="#16748f" stroke-miterlimit="10"/>
  <rect x="11.2121" y="46.6931" width="18.1276" height="68.939" transform="translate(-13.7857 4.7539) rotate(-10)" fill="url(#New_Gradient_Swatch_10-2)"/>
  <rect x="52.8672" y="39.3576" width="18.1276" height="68.9991" transform="translate(-11.8843 11.8763) rotate(-10)" fill="url(#New_Gradient_Swatch_10-3)"/>
  <rect x="11.489" y="63.555" width="34.5287" height="12.0851" rx="1.5059" ry="1.5059" transform="translate(-11.6487 6.0503) rotate(-10)" fill="url(#Dark_Blue_Grad-3)" stroke="#147391" stroke-miterlimit="10"/>
  <rect x="33.9943" y="77.4585" width="20.7172" height="12.0851" rx="1.4951" ry="1.4951" transform="translate(-13.826 8.9704) rotate(-10)" fill="url(#Dark_Blue_Grad-4)" stroke="#147391" stroke-miterlimit="10"/>
  <rect x="47.0108" y="91.437" width="25.0333" height="12.0851" rx="1.4914" ry="1.4914" transform="translate(-16.0228 11.8178) rotate(-10)" fill="url(#Dark_Blue_Grad-5)" stroke="#147391" stroke-miterlimit="10"/>
  <rect x="4.5679" y="45.4937" width="63.8781" height="6.9057" transform="translate(-7.9449 7.083) rotate(-10)" fill="url(#Dark_Blue_Grad-6)" stroke="#147391" stroke-miterlimit="10"/>
  <polygon points="10.7707 62.0634 5.7452 58.4176 4.4536 51.0923 12.9546 49.5934 14.2462 56.9187 10.7707 62.0634" fill="url(#Dark_Blue_Grad-7)" stroke="#147391" stroke-miterlimit="10"/>
  <polygon points="65.1773 52.4701 60.1518 48.8243 58.8602 41.499 67.3612 40 68.6528 47.3253 65.1773 52.4701" fill="url(#Dark_Blue_Grad-8)" stroke="#147391" stroke-miterlimit="10"/>
  <circle cx="99" cy="99" r="28.5" fill="url(#New_Gradient_Swatch_8-3)" stroke="#16748f" stroke-linejoin="round"/>
  <path d="m111.545,100.7989l-18.7451-20.2989-2.3449,27.5306,7.3403-5.6866,5.2052,15.156,4.4646-1.4876-5.2204-15.1992,9.3003-.0143Z" fill="url(#Dark_Blue_Grad_2)" stroke="#16748f" stroke-miterlimit="10"/>
</svg>