<?xml version="1.0" encoding="UTF-8"?>
<svg id="Layer_1" data-name="Layer 1" xmlns="http://www.w3.org/2000/svg" viewBox="0 0 64 64">
  <path d="m61,37h-4.3154l5.1934-9.521c.1689-.3101.1621-.686-.0176-.9893-.1807-.3037-.5078-.4897-.8604-.4897h-8.3657l4.2368-7.5088c.017-.0302.0225-.0637.0361-.095.0189-.0432.037-.085.0497-.1307.0164-.059.0235-.1177.0289-.178.0027-.0298.0142-.0571.0142-.0875,0-.0128-.0055-.0243-.006-.037-.0024-.0643-.0159-.1261-.0306-.1889-.0089-.038-.0132-.0765-.0263-.1128-.0204-.0566-.0527-.108-.0836-.1608-.0213-.0364-.0375-.075-.0631-.1083-.0046-.006-.0063-.0132-.0111-.0191-.0364-.0452-.0827-.0776-.1253-.1152-.0286-.0253-.0521-.055-.0837-.077-.0877-.0612-.183-.1086-.2843-.1389l-25.9921-7.9976c-.1914-.0596-.3965-.0596-.5879,0l-11.7061,3.6019v-.2322l3.707-3.707c.1875-.1875.293-.4419.293-.707V1c0-.5522-.4473-1-1-1h-8c-.5522,0-1,.4478-1,1v7c0,.2651.1055.5195.293.707l3.707,3.707v.8476l-12.2902,3.7816c-.0991.0302-.1924.0771-.2784.1368-.0358.0248-.0628.058-.0948.087-.0388.0351-.082.0643-.1154.106-.0045.0056-.0062.0124-.0105.018-.0277.0358-.0453.0773-.0679.1166-.0287.0502-.0597.0986-.0791.1522-.0139.0383-.0185.0789-.0278.119-.014.061-.0273.1209-.0297.1833-.0005.0131-.0062.0248-.0062.038,0,.0308.0117.0586.0144.0889.0054.0598.0123.118.0286.1764.0128.0459.0309.0879.0499.1311.0136.0312.019.0647.0361.0948l25.1211,44.5205c.3516.6094,1.0068.9883,1.71.9883.012,0,.0273-.0026.0405-.0032.0129.0006.0278.0032.0396.0032.7031,0,1.3584-.3789,1.7148-.9966l10.1583-18.0034h3.7226l-5.5889,17.6987c-.1455.4595.0576.9565.4824,1.1836.1484.0796.3105.1177.4697.1177.2959,0,.5869-.1313.7822-.3755l20-25c.2402-.2998.2861-.7114.1201-1.0576-.167-.3467-.5166-.5669-.9014-.5669ZM14,7.5859V2h6v5.5859l-3,3-3-3Zm36.3379,18.4141h-3.3379c-.3368.2255-.5881.3939-.9249.6194l-2.7872,6.769-12.2878,3.7801v-10.4297l22.8965-7.0454-3.5586,6.3066Zm-21.3379,34.2715l-6.509-11.5358,6.509,2.0029v9.5328Zm0-11.6255l-7.9375-2.442-6.408-11.3568,14.3455,4.4139v9.3848Zm0-11.4775l-15.7739-4.8527-7.1221-12.6223,1.7612.5419,21.1348,6.5035v10.4297Zm1-12.2148l-22.5996-6.9536,8.5996-2.646v4.646h2v-5.2614l12-3.6923,22.5996,6.9536-22.5996,6.9536Zm1,35.3423v-9.5572l6.5139-2.0044-6.5139,11.5616Zm7.9398-14.0924l-7.9398,2.4425v-9.3848l11.3015-3.4772-3.2263,7.8352c-.127.3086-.0918.6602.0938.9375.1189.1774.2924.3028.4875.3748l-.7167,1.272Zm4.6276,11.986l4.3857-13.8882c.0967-.3042.042-.6353-.1465-.8926-.1885-.2568-.4883-.4087-.8066-.4087h-5.5068l6.1768-15h11.6455l-5.1934,9.521c-.1689.3101-.1621.686.0176.9893.1807.3037.5078.4897.8604.4897h3.9189l-15.3516,19.1895Z" class="aw-theme-iconHomeOutline" fill="#464646"/>
</svg>