<?xml version="1.0" encoding="UTF-8"?>
<svg id="Layer_1" data-name="Layer 1" xmlns="http://www.w3.org/2000/svg" viewBox="0 0 64 64">
  <path d="m37,36.939V0h-10v36.939c-5.2543,2.0187-9,7.1044-9,13.061,0,7.7197,6.2803,14,14,14s14-6.2803,14-14c0-5.9565-3.7457-11.0422-9-13.061ZM29,2h6v34.3318c-.9677-.2123-1.9695-.3318-3-.3318s-2.0323.1196-3,.3318V2Zm3,60c-6.6172,0-12-5.3833-12-12s5.3828-12,12-12,12,5.3833,12,12-5.3828,12-12,12Z" class="aw-theme-iconHomeOutline" fill="#464646"/>
  <path d="m27.5,41c-2.4814,0-4.5,2.0186-4.5,4.5s2.0186,4.5,4.5,4.5,4.5-2.0186,4.5-4.5-2.0186-4.5-4.5-4.5Zm0,7c-1.3789,0-2.5-1.1216-2.5-2.5s1.1211-2.5,2.5-2.5,2.5,1.1216,2.5,2.5-1.1211,2.5-2.5,2.5Z" class="aw-theme-iconHomeOutline" fill="#464646"/>
</svg>