<svg id="Layer_1" data-name="Layer 1" xmlns="http://www.w3.org/2000/svg" viewBox="0 0 64 64">
  <path d="m40,1c-12.7,0-23,10.3-23,23,0,4.4,1.3,8.6,3.5,12.1L2.3,54.3c-1,1-1.5,2.3-1.5,3.7s.5,2.7,1.5,3.7,2.4,1.5,3.7,1.5,2.7-.5,3.7-1.5l18.2-18.2c3.5,2.2,7.7,3.5,12.1,3.5,12.7,0,23-10.3,23-23S52.7,1,40,1ZM8.3,60.3c-1.3,1.3-3.3,1.3-4.6,0-.6-.6-.9-1.4-.9-2.3s.3-1.7.9-2.3l17.9-17.9c1.3,1.7,2.9,3.3,4.6,4.6l-17.9,17.9Zm31.7-15.3c-11.6,0-21-9.4-21-21S28.4,3,40,3s21,9.4,21,21-9.4,21-21,21Z"  class="aw-theme-iconHomeOutline" fill="#464646"/>
  <path d="m52,18h-24c-.5527,0-1-.4478-1-1v-6c0-.5522.4473-1,1-1h24c.5527,0,1,.4478,1,1v6c0,.5522-.4473,1-1,1Zm-23-2h22v-4h-22v4Z" class="aw-theme-iconHomeOutline" fill="#464646"/>
  <path d="m52,28h-24c-.5527,0-1-.4478-1-1v-6c0-.5522.4473-1,1-1h24c.5527,0,1,.4478,1,1v6c0,.5522-.4473,1-1,1Zm-23-2h22v-4h-22v4Z" class="aw-theme-iconHomeOutline" fill="#464646"/>
  <path d="m52,38h-24c-.5527,0-1-.4478-1-1v-6c0-.5522.4473-1,1-1h24c.5527,0,1,.4478,1,1v6c0,.5522-.4473,1-1,1Zm-23-2h22v-4h-22v4Z" class="aw-theme-iconHomeOutline" fill="#464646"/>
</svg>