<svg id="Layer_1" data-name="Layer 1" xmlns="http://www.w3.org/2000/svg" viewBox="0 0 64 64">
  <path d="m44.9863,23.3066l-16.9863,9.8311v19.5693l17,9.8325,17-9.8311v-19.5698l-17.0137-9.832Zm14.0153,10.4094l-14.0016,8.0969-14.0029-8.0991,13.9893-8.0967,14.0153,8.0989Zm-29.0016,1.7321l14,8.097v16.1055l-14-8.0969v-16.1055Zm16,24.2026v-16.1055l14-8.0958v16.1057l-14,8.0956Z" class="aw-theme-iconHomeOutline" fill="#464646"/>
  <path d="m25.8164,35.6846c-.4902-.2236-.9727-.4717-1.4365-.7388-.3135-.1807-.6221-.3711-.9238-.5713-.0229-.0152-.0515-.0144-.0753-.0275l-.0106-.0071c-1.8658-1.2551-3.4221-2.796-4.6327-4.5762-.0235-.0536-.042-.1089-.0753-.1587-1.8838-2.8174-2.8794-6.1016-2.8794-9.4966,0-9.4336,7.6753-17.1084,17.1089-17.1084s17.1084,7.6748,17.1084,17.1084c0,1.0112-.0889,2.0239-.2637,3.0103-.0967.5439.2656,1.063.8096,1.1592.5518.0986,1.0625-.2661,1.1592-.8096.1953-1.1016.2949-2.2319.2949-3.3599,0-10.5366-8.5723-19.1084-19.1084-19.1084S13.7827,9.5718,13.7827,20.1084c0,3.5273.9624,6.9473,2.7905,9.9409l-14.2524,14.2534c-.8516.8516-1.3208,1.9834-1.3208,3.188s.4688,2.3369,1.3208,3.1885c.2167.2169.4523.4075.702.5733.0449.0298.0949.0473.1407.0753.2083.1277.4205.2477.6458.3394.0248.0101.0512.0135.0761.0231.512.1978,1.0584.3098,1.6239.3098.5519,0,1.0843-.1099,1.5857-.2985.0379-.0142.078-.0197.1156-.035.2064-.0841.3998-.1965.592-.3111.0638-.0378.1327-.0631.195-.1044.2172-.1444.4183-.3157.6109-.4989.0281-.0267.0612-.0449.0888-.0725l14.2661-14.2488c.1389.084.2787.1669.4195.2478.5166.2983,1.0566.5762,1.6035.8252.5039.23,1.0957.0073,1.3252-.4946.2285-.5029.0068-1.0957-.4951-1.3247Zm-4.5553-.3973l-13.9779,13.9779c-.9487.9482-2.6006.9482-3.5483,0-.4741-.4741-.7349-1.104-.7349-1.7744,0-.6699.2607-1.2997.7348-1.7739l14.0005-13.9239c1.0044,1.3006,2.1845,2.4701,3.5258,3.4943Z" class="aw-theme-iconHomeOutline" fill="#464646"/>
</svg>