<?xml version="1.0" encoding="UTF-8"?>
<svg id="Layer_1" data-name="Layer 1" xmlns="http://www.w3.org/2000/svg" viewBox="0 0 64 64">
  <path d="m58.6748,21h-7.6748v-2c0-.5522-.4473-1-1-1h-5v-6c0-.5522-.4473-1-1-1h-24c-.5522,0-1,.4478-1,1v6h-5c-.5522,0-1,.4478-1,1v2h-7.6743c-2.9365,0-5.3257,2.3892-5.3257,5.3257v27.6743h64v-27.6743c0-2.9365-2.3887-5.3257-5.3252-5.3257Zm-9.6748-1v1h-4v-1h4Zm-7-7h1v8h-1v-8Zm-18,8v-4h16v4h-16Zm16-6h-16v-2h16v2Zm-19-2h1v8h-1v-8Zm-6,7h4v1h-4v-1Zm47,32H2v-21h60v21Zm0-23H2v-2.6743c0-1.834,1.4917-3.3257,3.3257-3.3257h53.3491c1.834,0,3.3252,1.4917,3.3252,3.3257v2.6743Z" class="aw-theme-iconHomeOutline" fill="#464646"/>
  <path d="m19.5859,44h-5.5859c-.3506,0-.6753.1836-.8564.4834-.1807.2998-.1914.6729-.0283.9829,1.4741,2.7964,4.3452,4.5337,7.4932,4.5337,2.9551,0,5.6572-1.5259,7.1992-4.0234l17.7539,1.0244c1.4346-.0024,2.7949-.5757,3.832-1.6152,1.0361-1.0405,1.6064-2.4204,1.6064-3.8862,0-1.4688-.5703-2.8496-1.6064-3.8892-1.0332-1.0366-2.4258-1.6079-3.9785-1.6079h-.0166l-17.5928,1.0186c-1.541-2.4961-4.2422-4.021-7.1973-4.021-3.1479,0-6.019,1.7373-7.4932,4.5337-.1631.3101-.1523.6831.0283.9829.1812.2998.5059.4834.8564.4834h5.5859l1.4141,1.4141v2.1719l-1.4141,1.4141Zm3.1211-4.707l-2-2c-.1875-.1875-.4419-.293-.707-.293h-4.062c1.2036-1.2617,2.8784-2,4.6704-2,2.4238,0,4.626,1.3467,5.7461,3.5142.1816.3506.5381.5625.9463.5396l18.1572-1.0527h.0059c.9785,0,1.8477.353,2.5137,1.0215.6592.6616,1.0225,1.5415,1.0225,2.4771,0,.9331-.3633,1.812-1.0234,2.4746-.6592.6606-1.5176,1.0254-2.3594,1.0283l-18.3154-1.0586c-.4092-.0161-.7646.1895-.9463.5396-1.1201,2.1689-3.3223,3.5166-5.7471,3.5166-1.792,0-3.4668-.7383-4.6704-2h4.062c.2651,0,.5195-.1055.707-.293l2-2c.1875-.1875.293-.4419.293-.707v-3c0-.2651-.1055-.5195-.293-.707Z" class="aw-theme-iconHomeOutline" fill="#464646"/>
  <path d="m46.0006,42.5h.0004c.5515-.0009.9985-.4479.999-.9996.0001-.5524-.4473-.9998-.9993-1.0004h-.001c-.5518.0003-.9996.4481-.9997.9998.0004.5524.4483,1.0003,1.0006,1.0002Z" class="aw-theme-iconHomeOutline" fill="#464646"/>
</svg>