<?xml version="1.0" encoding="UTF-8"?>
<svg id="Layer_1" data-name="Layer 1" xmlns="http://www.w3.org/2000/svg" viewBox="0 0 64 64">
  <path d="M64.001,21l-.001-1.4286v-.5714h-.0004l-.0055-8H26.3252l-4.3926-6.3647c-.6982-1.0239-1.8643-1.6353-3.1182-1.6353H3.7559C1.6846,3,0,4.6562,0,6.6919V61H64V21h.001ZM2,6.6919c0-.9331,.7881-1.6919,1.7559-1.6919h15.0586c.5928,0,1.1406,.2847,1.4688,.7666l4.9912,7.2334H61.9961l.0029,6H2V6.6919ZM62,59H2V21H62V59Z" class="aw-theme-iconHomeOutline" fill="#464646"/>
  <polygon points="31 49 33 49 33 41 41 41 41 39 33 39 33 31 31 31 31 39 23 39 23 41 31 41 31 49" class="aw-theme-iconHomeOutline" fill="#464646"/>
  <path d="M32,55c8.2715,0,15-6.729,15-15s-6.7285-15-15-15-15,6.729-15,15,6.7285,15,15,15Zm0-28c7.168,0,13,5.8315,13,13s-5.832,13-13,13-13-5.8315-13-13,5.832-13,13-13Z" class="aw-theme-iconHomeOutline" fill="#464646"/>
</svg>