<?xml version="1.0" encoding="UTF-8"?>
<svg id="Layer_1" data-name="Layer 1" xmlns="http://www.w3.org/2000/svg" viewBox="0 0 64 64">
  <path d="M59.9653,16.277c-.0046-.0172-.0148-.032-.0203-.0489-.0216-.0657-.045-.1309-.0794-.1905-.0064-.011-.0165-.0196-.0233-.0305-.0394-.0624-.0822-.1229-.1347-.1755-.0052-.0052-.0123-.0085-.0177-.0137-.057-.0547-.119-.1051-.189-.1456-.0007-.0004-.0015-.0005-.0022-.0009-.0002-.0002-.0005-.0004-.0007-.0005L32.4527,.1328c-.3096-.1772-.6905-.1772-.9972,.001L4.5005,15.6704s-.0002,.0001-.0002,.0002c-.0002,.0001-.0005,.0002-.0007,.0003-.0435,.0251-.0788,.0595-.1174,.0903-.0299,.0238-.0641,.0431-.0908,.0699-.0228,.0229-.0382,.0516-.0587,.0765-.0344,.0421-.0717,.0822-.0987,.1291-.0189,.0328-.0285,.0701-.0436,.1049-.0193,.0445-.043,.087-.0557,.1342-.0227,.0839-.0346,.1716-.0346,.2608v30.9253c0,.3579,.1909,.6885,.501,.8667l26.9967,15.5365s.0004,.0004,.0007,.0006,.0006,.0002,.0009,.0004l.001,.0006c.049,.0283,.1022,.0443,.1544,.0635,.0297,.011,.0576,.0281,.0879,.0362,.0842,.0223,.1705,.0336,.2567,.0336s.1726-.0112,.2567-.0336c.0303-.0081,.0582-.0252,.0879-.0362,.0522-.0193,.1054-.0353,.1544-.0635l.001-.0006s.0006-.0002,.0009-.0004,.0004-.0004,.0007-.0006l26.9977-15.535c.3096-.1782,.501-.5088,.501-.8667V16.5381c0-.0894-.0119-.1771-.0347-.2611Zm-14.1247,6.6794l-12.0065-6.9101,11.1424-6.4117,12.0172,6.9041-11.1531,6.4177Zm-2.005,1.1537l-11.8361,6.8108-12.0067-6.9099,11.8362-6.811,12.0066,6.91Zm-25.8477-1.2529l-10.9842-6.3214,11.8267-6.8168,10.9937,6.3271-11.8362,6.811Zm-11.9877-4.5911l11.001,6.3309v14.0005l-11.001-6.3303v-14.001Zm13.0011,7.482l11.9981,6.9047v13.9997l-11.9981-6.9041v-14.0003Zm11.9981,23.2122v12.3102l-11.9981-6.9047v-12.3096l11.9981,6.9041Zm2.0002,.0068l12.004-6.9077v12.3041l-12.004,6.9073v-12.3037Zm0-2.3078v-14.0064l12.004-6.9074v14.0062l-12.004,6.9076Zm14.0042-22.0648l10.9961-6.3274v14.006l-10.9961,6.3276v-14.0062ZM31.9556,2.1538l11.0141,6.3278-11.1405,6.4108-10.9953-6.3281L31.9556,2.1538ZM6.0002,34.5749l11.001,6.3303v12.3094l-11.001-6.3309v-12.3089Zm41.0036,18.6376v-12.3041l10.9961-6.3276v12.3044l-10.9961,6.3273Z" class="aw-theme-iconHomeOutline" fill="#464646"/>
</svg>