<?xml version="1.0" encoding="UTF-8"?>
<svg id="Layer_1" data-name="Layer 1" xmlns="http://www.w3.org/2000/svg" viewBox="0 0 64 64">
  <path d="M63.2627,40.4644c-.5012-.7751-1.2878-1.3913-2.2627-1.6303V16.9907L40,4.9912l-21,11.9995v21.1356c-2.3588,.2582-4.5266,.9817-6.9575,1.899-2.1875,.8242-4.333,1.3179-6.2261,1.7534-.9302,.2144-1.7793,.4102-2.5107,.6167-2.3569,.666-3.7549,3.2119-3.1821,5.7964,.4233,1.9111,.7119,3.144,.8569,3.6646,.6411,2.2954,3.0483,3.6821,5.3706,3.0947,1.2056-.3047,2.3672-.623,3.4731-.9258,3.8828-1.0635,7.2354-1.981,8.8716-1.2598,6.4497,2.8491,12.5552,4.2344,18.6646,4.2344,6.1533,0,6.3457-.0884,16.4219-4.7104l.7812-.3589c2.1436-.9834,4.7598-2.8525,7.2627-4.7222,2.458-1.814,2.6602-4.8535,1.4365-6.7441Zm-5.2785-22.8929l-17.9842,10.2767-17.9842-10.2767L40,7.2949l17.9842,10.2765Zm-18.9842,12.0088v13.8134l-2.9072-.3917c-.2676-.0361-.5137-.1108-.75-.229-.6807-.3398-6.1182-3.0205-6.457-3.1426-3.1158-1.123-5.629-1.5832-7.8857-1.6031V19.2944l18,10.2858Zm2,0l12.5332-7.1619,5.4668-3.1238v19.6039c-.4093,.1108-.8289,.2621-1.2666,.5094l-6.4453,4.2227c-.1963,.1284-.4023,.2417-.6162,.3389l-3.7168,1.6865c-.5244-.7578-1.3857-1.3433-2.6426-1.5464l-3.3125-.4463v-14.0829Zm19.6338,16.0223c-2.3037,1.7207-4.9248,3.6025-6.9043,4.5103l-.7812,.3589q-9.8711,4.5283-15.5879,4.5283c-5.8252,0-11.666-1.3291-17.856-4.0635-.6729-.2974-1.4502-.4243-2.3257-.4243-2.0986,0-4.7593,.729-7.8828,1.5845-1.0938,.2993-2.2427,.6138-3.436,.9155-1.2778,.3228-2.6016-.4365-2.9526-1.6938-.0933-.334-.3135-1.2227-.8311-3.5591-.3379-1.5244,.4575-3.0674,1.7734-3.439,.7036-.1987,1.5205-.3862,2.415-.5923,1.8579-.4272,4.1699-.9595,6.4834-1.8315,5.0059-1.8882,8.4316-2.917,15.4297-.396,.3438,.1455,4.8701,2.3618,6.2715,3.062,.4307,.2148,.8945,.3569,1.376,.4219l8.1943,1.1035c1.6084,.2598,1.6309,1.4995,1.5664,2.021-.168,1.3545-1.3594,2.7007-3.2021,2.5449l-7.6387-1.042c-.7217-.0986-1.418-.3076-2.0713-.6211l-6.0625-2.9087c-.499-.2417-1.0947-.0283-1.334,.4688-.2393,.498-.0293,1.0952,.4688,1.334l6.0625,2.9087c.8408,.4038,1.7373,.6733,2.666,.7998l7.6875,1.0474c3.0264,.2773,5.1211-1.9712,5.4082-4.2852,.0332-.2622,.042-.5288,.0254-.7939l3.9023-1.771c.3057-.1387,.6035-.3022,.8857-.4873l6.3887-4.188c1.1777-.6641,2.2031-.5029,2.8115,.436,.7217,1.1143,.5645,2.9331-.9502,4.0513Z" class="aw-theme-iconHomeOutline" fill="#464646"/>
</svg>