<?xml version="1.0" encoding="UTF-8"?>
<svg id="Layer_1" data-name="Layer 1" xmlns="http://www.w3.org/2000/svg" viewBox="0 0 64 64">
  <path d="m23,23l19,.0015v2.9985l2-.001V0H0v44h26v-2h-2.999l-.001-19Zm19-1.9985l-19-.0015V2h19v19.0015ZM21,2v19H2V2h19ZM2,23.0015l19-.0015v19H2v-18.9985Z" class="aw-theme-iconHomeOutline"  fill="#464646"/>
  <path d="m31,36.0552v-5.0552h-2v9h9v-2h-5.8559c2.8572-4.9581,8.0757-8,13.8559-8,8.8223,0,16,7.1777,16,16h2c0-9.9253-8.0752-18-18-18-6.1262,0-11.6886,3.0399-15,8.0552Z" class="aw-theme-iconHomeOutline"  fill="#464646"/>
  <path d="m38,46v2l9.001.0005c.5527,0,1-.4478,1-1l-.001-13.0005h-2l.001,12.0005-8.001-.0005Z" class="aw-theme-iconHomeOutline"  fill="#464646"/>
  <path d="m54,54l5.8561.0015c-2.8392,4.8945-8.1517,7.9985-13.8561,7.9985-8.8223,0-16-7.1777-16-16h-2c0,9.9253,8.0752,18,18,18,6.0435,0,11.6962-3.0981,15.001-8.0582l-.001,5.0582h2v-9h-9v2Z" class="aw-theme-iconHomeOutline" fill="#464646"/>
</svg>