<?xml version="1.0" encoding="UTF-8"?>
<svg id="Layer_1" data-name="Layer 1" xmlns="http://www.w3.org/2000/svg" viewBox="0 0 64 64">
  <path d="M61.665,4.2505l-3.958-3.9575c-.3906-.3906-1.0234-.3906-1.4141,0l-19.7871,19.7871c-.0967,.0967-.1729,.2124-.2227,.3394l-2.5869,6.5449c-.1465,.3706-.0596,.793,.2227,1.0747,.1914,.1914,.4473,.293,.707,.293,.124,0,.248-.0229,.3672-.0698l6.5449-2.5874c.1279-.0503,.2432-.1265,.3398-.2231L61.665,5.6646c.1875-.1875,.293-.4419,.293-.707s-.1055-.5195-.293-.707Zm-7.9628,1.4614l2.5438,2.5436-14.0352,14.0352-2.5438-2.5436,14.0352-14.0352Zm-15.7026,19.2113l-.9613-.9738,1.0281-2.6017,.1866-.1866,2.5438,2.5436-.1865,.1865-2.6108,1.032ZM57.6601,6.8414l-2.5438-2.5436,1.8837-1.8837,2.5439,2.5435-1.8839,1.8839Z" class="aw-theme-iconHomeOutline" fill="#464646"/>
  <g>
    <path d="M64,7.564l-26.2704,26.2709-7.7296-4.3842V14.2666c0-.0878-.0121-.1736-.0341-.2563-.0085-.0321-.025-.0607-.0366-.0917-.0182-.0487-.0343-.0982-.0599-.1434-.0191-.0338-.0455-.0624-.0685-.0938-.0272-.0372-.0519-.0759-.0842-.1092-.0279-.0287-.0616-.0512-.0931-.0766-.0308-.0249-.0575-.0538-.0914-.0752L15.8662,4.8203c-.3188-.2017-.7241-.2065-1.0474-.0112L.4858,13.4092C.1846,13.5898,.0005,13.9155,.0005,14.2666v31.5332c0,.3477,.1807,.6699,.4766,.8521l27.9995,17.2002c.0039,.0024,.0085,.0031,.0124,.0054,.0037,.0022,.0063,.0056,.0101,.0078,.0475,.0276,.0993,.043,.1499,.0622,.0297,.0112,.0574,.0282,.0878,.0365,.0862,.0235,.1747,.0361,.2632,.0361,.1719,0,.3438-.0439,.4971-.1323l15-8.6001c.3115-.1782,.5029-.5093,.5029-.8677v-14.3999h19V7.564ZM14,52.6121l-11.9995-7.3713v-13.4202l11.9995,7.367v13.4245Zm0-15.7713L2.0005,29.4738v-13.4514l11.9995,7.1008v13.7176ZM2.9529,14.2615L15.3208,6.8403l11.76,7.4001-12.0804,7.1503L2.9529,14.2615Zm25.0471,1.759v13.4521l-12,7.3452v-13.6948l12-7.1025Zm0,45.1918l-12-7.3716v-13.4252l12,7.3672v13.4296Zm15-7.392l-13,7.4536v-13.4644l13-7.5342v13.5449Zm-13.9766-7.7561l-12.1308-7.4476,12.1273-7.4228,7.2429,4.1078-4.6983,4.6984h7.9222l-10.4632,6.0642ZM62,15h-1v2h1v2h-2v2h2v2.0005h-1v2h1v2h-2v2h2v1.9995h-1v2h1v2h-2v2h2v1h-25.6074L62,12.3921v2.6079Z" class="aw-theme-iconHomeOutline" fill="#464646"/>
    <path d="M58,34v-12.4668l-12.4668,12.4668h12.4668Zm-2-2h-5.6387l5.6387-5.6387v5.6387Z" class="aw-theme-iconHomeOutline" fill="#464646"/>
  </g>
</svg>