<?xml version="1.0" encoding="UTF-8"?>
<svg id="Layer_1" data-name="Layer 1" xmlns="http://www.w3.org/2000/svg" viewBox="0 0 64 64">
  <path d="m47,13h-6v-6h6v6Zm-4-2h2v-2h-2v2Z" fill="#464646"/>
  <path d="m39,13h-6v-6h6v6Zm-4-2h2v-2h-2v2Z" fill="#464646"/>
  <rect x="51.0001" y="6.4645" width="1.9998" height="7.0711" transform="translate(8.1594 39.6985) rotate(-45)" class="aw-theme-iconHomeOutline" fill="#464646"/>
  <rect x="48.4645" y="9.0001" width="7.0711" height="1.9998" transform="translate(8.1594 39.6985) rotate(-45)" class="aw-theme-iconHomeOutline" fill="#464646"/>
  <path d="m60,55.5475c2.4813-2.8195,4-6.5054,4-10.5475s-1.5187-7.728-4-10.5475V4H0v52h36.4113c2.9173,3.072,7.028,5,11.5887,5s8.6714-1.928,11.5887-5h.4113v-.4525Zm-58-1.5475V6h56v26.5299c-.6287-.5051-1.299-.9579-2-1.3649V14H4v38h29.6348c.3395.6938.7142,1.3668,1.1468,2H2Zm30.8113-4H6V16h48v14.178c-1.8549-.7537-3.8777-1.178-6-1.178-8.8223,0-16,7.1777-16,16,0,1.747.2913,3.4249.8113,5Zm15.1887,9c-7.7197,0-14-6.2803-14-14s6.2803-14,14-14,14,6.2803,14,14-6.2803,14-14,14Z" class="aw-theme-iconHomeOutline" fill="#464646"/>
  <path d="m57.707,40.293l-5-5c-.3906-.3906-1.0234-.3906-1.4141,0s-.3906,1.0234,0,1.4141l3.293,3.293h-7.9561c-3.7197,0-6.877,2.5444-7.5068,6.0498-.5703,3.1689.8535,6.2378,3.626,7.8188l.9902-1.7373c-2.0264-1.1558-3.0654-3.4038-2.6475-5.7275.4512-2.5107,2.832-4.4038,5.5381-4.4038h7.9561l-3.293,3.293c-.3906.3906-.3906,1.0234,0,1.4141.1953.1953.4512.293.707.293s.5117-.0977.707-.293l5-5c.3906-.3906.3906-1.0234,0-1.4141Z" class="aw-theme-iconHomeOutline" fill="#464646"/>
</svg>