<svg id="Layer_1" data-name="Layer 1" xmlns="http://www.w3.org/2000/svg" viewBox="0 0 64 64">
  <g>
    <path d="m8.6152,10.4614c1.9512,0,3.5381-1.5874,3.5381-3.5386s-1.5869-3.5386-3.5381-3.5386-3.5381,1.5874-3.5381,3.5386,1.5869,3.5386,3.5381,3.5386Zm0-5.0771c.8477,0,1.5381.6904,1.5381,1.5386s-.6904,1.5386-1.5381,1.5386-1.5381-.6904-1.5381-1.5386.6904-1.5386,1.5381-1.5386Z" class="aw-theme-iconHomeOutline" fill="#464646"/>
    <path d="m24,0H0v24h24V0Zm-2,2v9.3015l-2.5195-2.5436c-.1885-.1895-.4434-.2959-.71-.2964h-.001c-.2656,0-.5215.106-.709.2949l-6.8334,6.8692-3.7105-2.7379c-.3955-.29-.9434-.252-1.2949.0918l-4.2217,4.1545V2h20ZM2,22v-2.0601l5.0156-4.936,9.4824,6.9961H2Zm17.8661,0l-7.0123-5.1742,5.9138-5.9449,3.2324,3.2634v7.8558h-2.1339Z" class="aw-theme-iconHomeOutline"  fill="#464646"/>
  </g>
  <g>
    <path d="m36.6152,10.4614c1.9512,0,3.5381-1.5874,3.5381-3.5386s-1.5869-3.5386-3.5381-3.5386-3.5381,1.5874-3.5381,3.5386,1.5869,3.5386,3.5381,3.5386Zm0-5.0771c.8477,0,1.5381.6904,1.5381,1.5386s-.6904,1.5386-1.5381,1.5386-1.5381-.6904-1.5381-1.5386.6904-1.5386,1.5381-1.5386Z" class="aw-theme-iconHomeOutline" fill="#464646"/>
    <path d="m52,0h-24v24h24V0Zm-2,2v9.3015l-2.5195-2.5436c-.1885-.1895-.4434-.2959-.71-.2964h-.001c-.2656,0-.5215.106-.709.2949l-6.8334,6.8692-3.7105-2.7379c-.3955-.29-.9434-.252-1.2949.0918l-4.2217,4.1545V2h20Zm-20,20v-2.0601l5.0156-4.936,9.4824,6.9961h-14.498Zm17.8661,0l-7.0123-5.1742,5.9138-5.9449,3.2324,3.2634v7.8558h-2.1339Z" class="aw-theme-iconHomeOutline"  fill="#464646"/>
  </g>
  <g>
    <path d="m8.6152,38.4614c1.9512,0,3.5381-1.5874,3.5381-3.5386s-1.5869-3.5386-3.5381-3.5386-3.5381,1.5874-3.5381,3.5386,1.5869,3.5386,3.5381,3.5386Zm0-5.0771c.8477,0,1.5381.6904,1.5381,1.5386s-.6904,1.5386-1.5381,1.5386-1.5381-.6904-1.5381-1.5386.6904-1.5386,1.5381-1.5386Z" class="aw-theme-iconHomeOutline" fill="#464646"/>
    <path d="m24,28H0v24h24v-24Zm-2,2v9.3015l-2.5195-2.5436c-.1885-.1895-.4434-.2959-.71-.2964h-.001c-.2656,0-.5215.106-.709.2949l-6.8334,6.8692-3.7105-2.7379c-.3955-.29-.9434-.252-1.2949.0918l-4.2217,4.1545v-15.134h20ZM2,50v-2.0601l5.0156-4.936,9.4824,6.9961H2Zm17.8661,0l-7.0123-5.1742,5.9138-5.9449,3.2324,3.2634v7.8558h-2.1339Z" class="aw-theme-iconHomeOutline"  fill="#464646"/>
  </g>
  <g>
    <path d="m40.1533,34.9229c0-1.9512-1.5869-3.5386-3.5381-3.5386s-3.5381,1.5874-3.5381,3.5386,1.5869,3.5386,3.5381,3.5386,3.5381-1.5874,3.5381-3.5386Zm-5.0762,0c0-.8481.6904-1.5386,1.5381-1.5386s1.5381.6904,1.5381,1.5386-.6904,1.5386-1.5381,1.5386-1.5381-.6904-1.5381-1.5386Z" class="aw-theme-iconHomeOutline" fill="#464646"/>
    <path d="m52,34.3025v-6.3025h-24v24h6.3025c1.3939,6.8384,7.4534,12,14.6965,12,8.2715,0,15.001-6.7295,15.001-15.001,0-7.2431-5.1616-13.3026-12-14.6965Zm-22-4.3025h20v4.0507c-.3324-.0221-.6631-.0507-1.001-.0507-5.4698,0-10.251,2.9526-12.8716,7.3384l-.6108-.4507c-.3955-.29-.9434-.252-1.2949.0918l-4.2217,4.1545v-15.134Zm0,20v-2.0601l5.0156-4.936.1794.1324c-.7683,1.8021-1.195,3.7833-1.195,5.8627,0,.3379.0286.6686.0507,1.001h-4.0507Zm18.999,12c-7.168,0-12.999-5.832-12.999-13.001s5.8311-12.999,12.999-12.999,13.001,5.8315,13.001,12.999-5.832,13.001-13.001,13.001Z" class="aw-theme-iconHomeOutline"  fill="#464646"/>
  </g>
  <path d="m49,53c-.5527,0-1-.4478-1-1v-10c0-.5522.4473-1,1-1s1,.4478,1,1v10c0,.5522-.4473,1-1,1Z" class="aw-theme-iconHomeOutline" fill="#464646"/>
  <path d="m49,57c-.2705,0-.5205-.1104-.71-.29-.0898-.1001-.1602-.21-.21-.3301s-.0801-.25-.0801-.3799c0-.0703.0098-.1304.0195-.2002.0107-.0601.0303-.1201.0605-.1802.0195-.0596.0498-.1196.0898-.1797.0303-.0503.0801-.1001.1201-.1499.2295-.23.5801-.3403.8994-.27.0703.0098.1299.0298.1904.0596.0596.02.1201.0503.1699.0903.0596.04.1104.0801.1602.1201.1797.1899.29.4497.29.71,0,.1299-.0303.2598-.0801.3799s-.1201.23-.21.3301c-.0498.04-.1006.0898-.1602.1196-.0498.04-.1104.0703-.1699.0903-.0605.0298-.1201.0498-.1904.0601-.0596.0098-.1299.02-.1895.02Z" class="aw-theme-iconHomeOutline" fill="#464646"/>
</svg>