<?xml version="1.0" encoding="UTF-8"?>
<svg id="Layer_1" data-name="Layer 1" xmlns="http://www.w3.org/2000/svg" viewBox="0 0 64 64">
  <path d="M63.9287,50.5l-13.9287-13.6274v8.1274h-9v-5h-2V11h-.0429c-.2176-2.9952-2.2807-5.7536-5.9073-7.8079-7.5137-4.2571-19.7012-4.2556-27.1665,.0015C2.2783,5.2497,.2362,8.0081,.039,11h-.039v29.0117c-.0093,3.314,2.1021,6.3882,5.9448,8.6572,3.6499,2.1543,8.5356,3.3311,13.5645,3.3311,1.0125,0,2.0302-.0593,3.0453-.1563l7.4454,7.2833v-8.127h9v5h11v8.1274l13.9287-13.6274ZM6.8726,4.9525c3.4609-1.9683,8.0161-2.9525,12.5771-2.9525s9.1304,.9846,12.6157,2.9539c3.1787,1.7957,4.9316,4.1254,4.9346,6.5594,.0039,2.4209-1.7275,4.7399-4.876,6.5302-6.9219,3.9371-18.2124,3.9429-25.1685,.0117-3.1919-1.8035-4.9521-4.1395-4.9556-6.5779-.0034-2.4185,1.7271-4.736,4.8726-6.5248Zm.0889,41.9938c-3.2065-1.8931-4.9688-4.354-4.9614-6.9316V16.5855c.9866,1.1922,2.3062,2.2885,3.9712,3.2318,3.7456,2.1219,8.6567,3.1832,13.5659,3.1827,4.9209,0,9.8389-1.0661,13.5771-3.1973,1.6251-.9271,2.9161-2.0026,3.8857-3.1714v23.3688h-7v-8.127l-13.9302,13.627,4.5757,4.4761c-5.0724,.1942-10.0598-.8898-13.6841-3.0298Zm21.0386,2.0537v5.373l-9.0698-8.873,9.0698-8.873v5.373h11v7h-11Zm13,5v-7h11v-5.3726l9.0693,8.8726-9.0693,8.8726v-5.3726h-11Z" class="aw-theme-iconHomeOutline" fill="#464646"/>
</svg>