<?xml version="1.0" encoding="UTF-8"?>
<svg id="Layer_1" data-name="Layer 1" xmlns="http://www.w3.org/2000/svg" viewBox="0 0 64 64">
  <path d="m13.7419,17.6938c-.0293.1899-.7236,4.6821-.7236,8.1035,0,3.335-.0156,4.1245-.0161,4.1392l-.019.9502,12.0205.8564-.002-1.0757c0-.001-.0059-2.6675,0-4.8677.0117-4.4614.6728-7.7168.6796-7.749l.248-1.2026h-12.0552l-.1323.8457Zm1.2764,8.1035c0-2.4106.3779-5.4863.5781-6.9492h7.9191c-.2109,1.3892-.5059,3.8789-.5137,6.9468-.0039,1.3252-.0029,2.8193-.002,3.8008l-7.9889-.5693c.0039-.6328.0073-1.6475.0073-3.229Z" class="aw-theme-iconHomeOutline" fill="#464646"/>
  <path d="m60.0002,28h-6.9997v5h6.9997v-5Zm-1.9999,3h-2.9999v-1h2.9999v1Z" class="aw-theme-iconHomeOutline" fill="#464646"/>
  <path d="m51.4764,42.9895l3.1686-6.9895h8.3551v-11h-11.6528l-4.3465,9.8929V10.2793l-6.8376-2.2793H2.2429l-.2036.7319C1.9568,9.0278.0242,16.1055.0242,27.1978h.0527C-.0104,28.3184-.0065,31.7949.0081,43.7993v6.6699l53.8907,5.5254.2637.0273,9.8375-4.3633v-7.3154l-12.5236-1.3538Zm7.5486,2.8279l-5.1779,2.1625-4.4358-.4353,1.1957-2.6376,8.418.9104Zm-6.3712-18.8174h8.3463v7h-7.6442l-6.0477,13.3383-3.4415-.3378,8.7871-20.0005Zm-11.4391,19.7403l.7443-.3722-.1875.4268-.5568-.0546Zm3.7861-7.2954l-1.7826,4.0573-5.2125,2.6064c.0147-2.8886.0599-11.9452.0599-14.5856,0-11.5856,1.8757-19.0363,2.5257-21.2722l4.4095,1.4699v27.7242ZM2.0159,27.5518l.0083-.354c0-8.8052,1.2787-15.1265,1.7606-17.1978h34.7932c-.7629,2.6857-2.5123,10.0843-2.5123,21.5229,0,2.6799-.0466,11.9728-.0605,14.7061l-8.0026-.7853c.0016-2.2182.0008-5.5199,0-9.2528l-.001-7.6328c0-8.3193,1.3788-15.0757,1.6562-16.3452l.2637-1.2129H12.1981l-.1694.7905c-.6045,2.8247-2.0117,10.3892-2.0117,19.5947h.0864c-.0903.7939-.0918,2.2817-.0947,5.1265l-.0055,7.1656-7.9962-.7847c-.0065-5.8157-.0082-13.7059.0089-15.3409Zm23.9868,8.6396c.0008,3.6274.0016,6.8416.0002,9.0561l-13.9999-1.3739c.0042-6.0132.0083-10.0147.0111-11.6441l.0029-.8442c0-8.2593,1.1547-15.1616,1.8036-18.3853h13.6371c-.499,2.6182-1.456,8.5537-1.456,15.5581l.001,7.6333ZM2.0081,44.9022l50.9924,5.0044v3.9855L2.0081,48.6636v-3.7614Zm52.9923,8.5604v-3.7962l6.9997-2.9236v3.6151l-6.9997,3.1047Z" class="aw-theme-iconHomeOutline" fill="#464646"/>
</svg>