<?xml version="1.0" encoding="UTF-8"?>
<svg id="Layer_1" data-name="Layer 1" xmlns="http://www.w3.org/2000/svg" viewBox="0 0 64 64">
  <path d="m55.5146,35.6427l-14.5146-8.709v-15.9335c0-.3511-.1846-.6768-.4854-.8574L25.5146,1.1428c-.3164-.1904-.7129-.1904-1.0293,0l-15,8.9999c-.3013.1807-.4854.5063-.4854.8574v32.9999c0,.3511.1841.6768.4854.8574l30,17.9999c.1582.0952.3369.1426.5146.1426s.3564-.0474.5146-.1426l15-9c.3008-.1807.4854-.5063.4854-.8574v-16.4999c0-.3511-.1846-.6767-.4854-.8574Zm-2.4584.8575l-13.0562,7.8339-13.0564-7.8339,13.0564-7.8338,13.0562,7.8339ZM11,12.7664l13,7.8v14.1676l-13-7.8v-14.1675Zm28,14.1675l-13,7.8v-14.1675l13-7.8v14.1675Zm0,33.3l-13-7.8001v-14.1675l13,7.8v14.1677ZM25,3.1663l13.0562,7.834-13.0562,7.8339-13.0562-7.8339,13.0562-7.834Zm-14,26.1001l13,7.7999v14.1675l-13-7.8002v-14.1673Zm30,30.9676v-14.1677l13-7.8v14.1673l-13,7.8004Z" class="aw-theme-iconHomeOutline" fill="#464646"/>
</svg>