<?xml version="1.0" encoding="UTF-8"?>
<svg id="Layer_1" data-name="Layer 1" xmlns="http://www.w3.org/2000/svg" viewBox="0 0 64 64">
  <path d="M17,6c-1.6543,0-3,1.3457-3,3s1.3457,3,3,3,3-1.3457,3-3-1.3457-3-3-3Zm0,4c-.5518,0-1-.4487-1-1s.4482-1,1-1,1,.4487,1,1-.4482,1-1,1Z" class="aw-theme-iconHomeOutline" fill="#464646"/>
  <path d="M40,6c-1.6543,0-3,1.3457-3,3s1.3457,3,3,3,3-1.3457,3-3-1.3457-3-3-3Zm0,4c-.5518,0-1-.4487-1-1s.4482-1,1-1,1,.4487,1,1-.4482,1-1,1Z" class="aw-theme-iconHomeOutline" fill="#464646"/>
  <path d="M63.4717,14.1182c-.3252-.1743-.7207-.1548-1.0264,.0498l-5.4453,3.6302V5c0-2.7568-2.2432-5-5-5H5C2.2432,0,0,2.2432,0,5V49c0,2.7568,2.2432,5,5,5H42v9c0,.5522,.4473,1,1,1h20c.5527,0,1-.4478,1-1V15c0-.3687-.2031-.7075-.5283-.8818Zm-17.2742,10.8818h-.1974v-7h9v1.1316l-8.8026,5.8684Zm-4.1974,3.3335v5.6665h-7v-7h8.1975l-.7522,.5015c-.2783,.1855-.4453,.4976-.4453,.832ZM2,27H11v7H2v-7Zm20-9v7H13v-7h9Zm13,7v-7h9v7h-9Zm-2,0h-9v-7h9v7Zm0,2v7h-9v-7h9Zm-11,0v7H13v-7h9ZM2,36H11v7H2v-7Zm11,0h9v7H13v-7Zm9,9v7H13v-7h9Zm2,0h9v7h-9v-7Zm0-2v-7h9v7h-9Zm11-7h7v7h-7v-7ZM2,5c0-1.6543,1.3457-3,3-3H52c1.6543,0,3,1.3457,3,3v11H2V5Zm9,13v7H2v-7H11ZM2,49v-4H11v7H5c-1.6543,0-3-1.3457-3-3Zm33,3v-7h7v7h-7Zm19,10h-2v-3h2v3Zm8,0h-6v-5h-6v5h-6V28.8687l2.803-1.8687h.197v-.1313l15-10V62Z" class="aw-theme-iconHomeOutline" fill="#464646"/>
  <rect x="48" y="39" width="10" height="2" class="aw-theme-iconHomeOutline" fill="#464646"/>
  <rect x="48" y="35" width="10" height="2" class="aw-theme-iconHomeOutline" fill="#464646"/>
  <rect x="48" y="31" width="10" height="2" class="aw-theme-iconHomeOutline" fill="#464646"/>
  <rect x="48" y="51" width="10" height="2" class="aw-theme-iconHomeOutline" fill="#464646"/>
  <rect x="48" y="47" width="10" height="2" class="aw-theme-iconHomeOutline" fill="#464646"/>
  <rect x="48" y="43" width="10" height="2" class="aw-theme-iconHomeOutline" fill="#464646"/>
</svg>