<?xml version="1.0" encoding="UTF-8"?>
<svg id="Layer_1" data-name="Layer 1" xmlns="http://www.w3.org/2000/svg" viewBox="0 0 16 16">
  <path d="M14.5449,1.4541C13.4561,.3657,11.9492-.1514,10.4102,.0386c-2.0381,.249-3.7305,1.7837-4.2109,3.8193-.249,1.0532-.1377,2.1284,.3203,3.1304l-1.3447,1.3491v1.4878l-1.7861,.0122v1.7739H1.8955l-1.6162,1.6108c-.1797,.1782-.2783,.4155-.2793,.668-.001,.2529,.0967,.4912,.2754,.6704l1.1562,1.1616c.1846,.1851,.4277,.2773,.6699,.2773,.2432,0,.4854-.0923,.6699-.2769l6.2402-6.2412c1.0039,.457,2.0771,.5693,3.1318,.3193,2.0352-.4814,3.5703-2.1743,3.8184-4.2124,.1875-1.5396-.3281-3.0464-1.417-4.1343Zm-3.0645,3.9053c-.4629,0-.8398-.377-.8398-.8398s.377-.8398,.8398-.8398,.8398,.377,.8398,.8398-.377,.8398-.8398,.8398Z" fill="#464646"/>
  <path d="M13.8379,2.1616c-.8682-.8691-2.0732-1.2754-3.3066-1.1309-1.5986,.1958-2.9795,1.4526-3.3594,3.0571-.2217,.9424-.0898,1.8711,.3945,2.7603l.1777,.3276-1.5693,1.5747v1.2095c0,.4771-.3877,.8652-.8652,.8652h-.9209v.9209c0,.4771-.3877,.8652-.8652,.8652h-1.2139l-1.3252,1.3193,1.1553,1.0854,6.6846-6.7603,.3281,.1782c.8887,.4839,1.8203,.6172,2.7607,.3936,1.6045-.3794,2.8613-1.7612,3.0566-3.3604,.1504-1.2319-.2627-2.437-1.1318-3.3057Zm-2.3574,4.1978c-1.0146,0-1.8398-.8252-1.8398-1.8398s.8252-1.8398,1.8398-1.8398,1.8398,.8252,1.8398,1.8398-.8252,1.8398-1.8398,1.8398Z" fill="#fff"/>
</svg>