<?xml version="1.0" encoding="UTF-8"?>
<svg id="Layer_1" data-name="Layer 1" xmlns="http://www.w3.org/2000/svg" viewBox="0 0 16 16">
  <path d="m8,16C3.5889,16,0,12.4111,0,8S3.5889,0,8,0,16,3.5889,16,8s-3.5889,8-8,8Z" class="aw-theme-iconOutline" fill="#464646"/>
  <g>
    <path d="m13.2841,3.4229L3.4229,13.2841c1.2286,1.0657,2.8268,1.7159,4.5771,1.7159,3.8599,0,7-3.1401,7-7,0-1.7503-.6502-3.3484-1.7159-4.5771Z" fill="#ffcd50"/>
    <path d="m12.5771,2.7159c-1.2286-1.0657-2.8268-1.7159-4.5771-1.7159C4.1401,1,1,4.1401,1,8c0,1.7503.6502,3.3484,1.7159,4.5771L12.5771,2.7159Z" fill="#ffcd50"/>
  </g>
</svg>