<?xml version="1.0" encoding="UTF-8"?>
<svg id="Layer_1" data-name="Layer 1" xmlns="http://www.w3.org/2000/svg" viewBox="0 0 16 16">
  <g>
    <path d="M13.7393,9.061l-1.9453-1.061,1.9453-1.061c.1606-.0874,.2607-.2559,.2607-.439s-.1001-.3516-.2607-.439l-5.5-3c-.1484-.0811-.3301-.0811-.4785,0L2.2607,6.061c-.1606,.0874-.2607,.2559-.2607,.439s.1001,.3516,.2607,.439l1.9453,1.061-1.9453,1.061c-.1606,.0874-.2607,.2559-.2607,.439s.1001,.3516,.2607,.439l5.5,3c.0742,.0405,.1567,.061,.2393,.061s.165-.0205,.2393-.061l5.5-3c.1606-.0874,.2607-.2559,.2607-.439s-.1001-.3516-.2607-.439Z" fill="#464646"/>
    <path d="M15.8535,2.1465c-.1953-.1953-.5117-.1953-.707,0l-1.1465,1.1465v-.793c0-1.3784-1.1216-2.5-2.5-2.5h-3.5V1h3.5c.8271,0,1.5,.6729,1.5,1.5v.793l-1.1465-1.1465c-.1953-.1953-.5117-.1953-.707,0s-.1953,.5117,0,.707l2,2c.0977,.0977,.2256,.1465,.3535,.1465s.2559-.0488,.3535-.1465l2-2c.1953-.1953,.1953-.5117,0-.707Z" fill="#464646"/>
    <path d="M4.5,15c-.8271,0-1.5-.6729-1.5-1.5v-.793l1.1465,1.1465c.0977,.0977,.2256,.1465,.3535,.1465s.2559-.0488,.3535-.1465c.1953-.1953,.1953-.5117,0-.707l-2-2c-.1953-.1953-.5117-.1953-.707,0L.1465,13.1465c-.1953,.1953-.1953,.5117,0,.707s.5117,.1953,.707,0l1.1465-1.1465v.793c0,1.3784,1.1216,2.5,2.5,2.5h3.5v-1h-3.5Z" fill="#464646"/>
  </g>
  <polygon points="3.5439 6.5 8 8.9307 12.4561 6.5 8 4.0693 3.5439 6.5" fill="#969696"/>
  <path d="M8.2393,9.939c-.0742,.0405-.1567,.061-.2393,.061s-.165-.0205-.2393-.061l-2.5108-1.3695-1.706,.9305,4.4561,2.4307,4.4561-2.4307-1.706-.9305-2.5108,1.3695Z" fill="#dbdbdb"/>
</svg>