<?xml version="1.0" encoding="UTF-8"?>
<svg id="Layer_1" data-name="Layer 1" xmlns="http://www.w3.org/2000/svg" viewBox="0 0 16 16">
  <path d="M10,4c-2.5988,0-4.8104,1.6636-5.6425,3.9795-.8259-.7333-1.3575-1.7908-1.3575-2.9795V1.707l1.1465,1.1465c.0977,.0977,.2256,.1465,.3535,.1465s.2559-.0488,.3535-.1465c.1953-.1953,.1953-.5117,0-.707L2.8535,.1465c-.1953-.1953-.5117-.1953-.707,0L.1465,2.1465c-.1953,.1953-.1953,.5117,0,.707s.5117,.1953,.707,0l1.1465-1.1465v3.293c0,1.6658,.8271,3.1344,2.0837,4.0435-.0504,.3123-.0837,.6302-.0837,.9565,0,3.3086,2.6914,6,6,6s6-2.6914,6-6-2.6914-6-6-6Z" fill="#464646"/>
  <path d="M10,5c-2.2567,0-4.147,1.5129-4.7666,3.5704,.5351,.2661,1.1295,.4296,1.7666,.4296v1c-.6953,0-1.3571-.1442-1.9594-.4018-.011,.1348-.0406,.2642-.0406,.4018,0,2.7568,2.2432,5,5,5s5-2.2432,5-5-2.2432-5-5-5Z" fill="#dbdbdb"/>
  <path d="M12,10c0,1.104-.896,2-2,2s-2-.896-2-2,.896-2,2-2,2,.896,2,2" fill="#464646"/>
  <path d="M11,10c0,.552-.448,1-1,1s-1-.448-1-1,.448-1,1-1,1,.448,1,1" fill="#969696"/>
</svg>