<?xml version="1.0" encoding="UTF-8"?>
<svg id="Layer_1" data-name="Layer 1" xmlns="http://www.w3.org/2000/svg" viewBox="0 0 16 16">
  <path d="M4.9927,11.3848c-.0864,0-.1733-.0225-.2505-.0674L.2495,8.7144c-.1543-.0894-.2495-.2544-.2495-.4326V3.1021c0-.1782,.0947-.3433,.249-.4326L4.7339,.0674c.1548-.0898,.3452-.0903,.5005-.0005l4.5151,2.6025c.1553,.0894,.2505,.2544,.2505,.4331v5.1797c0,.1787-.0952,.3438-.25,.4331l-4.5073,2.6025c-.0771,.0444-.1636,.0669-.25,.0669Z" class="aw-theme-iconOutline" fill="#464646"/>
  <path d="M15.8535,8.1465l-2-2c-.1953-.1953-.5117-.1953-.707,0l-2,2c-.1953,.1953-.1953,.5117,0,.707s.5117,.1953,.707,0l1.1465-1.1465v1.312c0,2.1953-1.7861,3.981-3.9814,3.981h-1.3115l1.1465-1.1465c.1953-.1953,.1953-.5117,0-.707s-.5117-.1953-.707,0l-2,2c-.1953,.1953-.1953,.5117,0,.707l2,2c.0977,.0977,.2256,.1465,.3535,.1465s.2559-.0488,.3535-.1465c.1953-.1953,.1953-.5117,0-.707l-1.1465-1.1465h1.3115c2.7466,0,4.9814-2.2344,4.9814-4.981v-1.312l1.1465,1.1465c.0977,.0977,.2256,.1465,.3535,.1465s.2559-.0488,.3535-.1465c.1953-.1953,.1953-.5117,0-.707Z" class="aw-theme-iconOutline" fill="#464646"/>
  <g>
    <polygon points="1 3.9683 1 7.9937 4.5 10.0214 4.5 5.9899 1 3.9683" fill="#c8d2d7"/>
    <polygon points="8.4968 3.1015 4.9858 1.0776 1.4982 3.1011 4.9858 5.1152 8.4968 3.1015" fill="#dce1e6"/>
    <polygon points="9 3.9657 5.5 5.9731 5.5 10.0145 9 7.9937 9 3.9657" fill="#b2c0c7"/>
    <polygon points="9 3.9657 9 3.3916 8.4968 3.1015 4.9858 5.1152 1.4982 3.1011 1 3.3901 1 3.9683 4.5 5.9899 4.5 10.0214 4.9932 10.3071 5.5 10.0145 5.5 5.9731 9 3.9657" fill="#879baa"/>
  </g>
</svg>