<?xml version="1.0" encoding="UTF-8"?>
<svg id="Layer_1" data-name="Layer 1" xmlns="http://www.w3.org/2000/svg" viewBox="0 0 16 16">
  <path d="M15.5037,12.77c1.2567-2.7621,.0363-6.02-2.7258-7.2767-1.9142-.8709-4.1575-.5728-5.7779,.7676v-2.2609h-3V1.707l1.1465,1.1465c.1986,.1918,.5152,.1863,.707-.0123,.1871-.1938,.1871-.501,0-.6947L3.8535,.1465c-.1953-.1952-.5117-.1952-.707,0L1.1465,2.1465c-.1918,.1986-.1863,.5152,.0123,.707,.1938,.1871,.501,.1871,.6947,0l1.1465-1.1465v2.293H0v7H5.0253c.2723,3.0217,2.9426,5.2506,5.9643,4.9783,1.9046-.1716,3.5829-1.3213,4.4309-3.0353,.0388-.0517,.067-.1105,.0832-.173Z" fill="#464646"/>
  <path d="M10.5,15c-.4827,0-1.1315-1.1044-1.3861-2.9166,.46-.0554,.9228-.0832,1.3861-.0834,.4633-.0003,.9262,.0276,1.3861,.0835-.2545,1.8121-.9034,2.9165-1.3861,2.9165Z" fill="#fff"/>
  <path d="M10.5,11c-.4934-.0004-.9864,.0282-1.4765,.0857-.0094-.1934-.0235-.3809-.0235-.5857s.0141-.3924,.0235-.5859c.4901,.0575,.9831,.0862,1.4765,.0859,.4934,.0004,.9864-.0283,1.4765-.0857,.0094,.1934,.0235,.3809,.0235,.5857s-.0141,.3924-.0235,.5859c-.4901-.0575-.9831-.0862-1.4765-.0859Z" fill="#fff"/>
  <path d="M6,10.5c.0063-.4703,.0873-.9367,.24-1.3816,.5633,.2908,1.1645,.5013,1.7862,.6256-.0162,.2519-.0262,.5045-.0262,.756s.01,.5044,.0258,.7565c-.6216,.1243-1.2228,.3346-1.7863,.6248-.1525-.4448-.2334-.9111-.2395-1.3813Z" fill="#fff"/>
  <path d="M10.5,6c.4827,0,1.1317,1.1046,1.3862,2.9169-.46,.0552-.9229,.083-1.3862,.0831-.4633-.0001-.9262-.0278-1.3862-.0829,.2545-1.8124,.9035-2.9171,1.3862-2.9171Z" fill="#fff"/>
  <path d="M12.9742,9.744c.6217-.1241,1.223-.3345,1.7864-.6251,.1524,.4448,.2332,.911,.2394,1.3811-.0063,.4703-.0873,.9367-.24,1.3816-.5633-.2908-1.1645-.5014-1.7862-.6257,.0162-.2519,.0262-.5045,.0262-.7559s-.01-.5041-.0258-.756Z" fill="#fff"/>
  <path d="M14.3528,8.2109c-.4652,.2497-.9642,.4304-1.4814,.5364-.106-.839-.3445-1.6558-.7066-2.42,.9162,.3708,1.6851,1.0327,2.188,1.8836Z" fill="#fff"/>
  <path d="M8.8352,6.3277c-.3621,.7642-.6006,1.581-.7066,2.42-.5172-.106-1.0162-.2868-1.4813-.5368,.5029-.8508,1.2717-1.5125,2.1879-1.8832Z" fill="#fff"/>
  <path d="M6.647,12.7889c.4653-.2494,.9644-.43,1.4816-.536,.1061,.8388,.3446,1.6554,.7066,2.4194-.9163-.3707-1.6852-1.0325-2.1882-1.8834Z" fill="#fff"/>
  <path d="M12.1648,14.6723c.3613-.7623,.5995-1.577,.7057-2.4138,.5157,.1089,1.0136,.2894,1.4792,.5363-.5031,.8481-1.2707,1.5077-2.1849,1.8775Z" fill="#fff"/>
  <path d="M4,5v3h-1v-3H1v5H5.0253c.0867-.9543,.4228-1.8689,.9747-2.6522v-2.3478h-2Z" fill="#dcdcdc"/>
</svg>