<?xml version="1.0" encoding="UTF-8"?>
<svg id="Layer_1" data-name="Layer 1" xmlns="http://www.w3.org/2000/svg" viewBox="0 0 16 16">
  <path d="M15.7501,8.1492l-2.7501-1.5915V1.5c0-.8272-.6732-1.5-1.5-1.5H1.5C.6732,0,0,.6729,0,1.5V11.5c0,.8272,.6732,1.5,1.5,1.5H7l.0038,.1864c0,.1787,.0952,.3433,.2494,.4326l3.9983,2.3135c.0776,.0449,.164,.0674,.2504,.0674s.1728-.0225,.2504-.0674l3.9983-2.3135c.1542-.0894,.2494-.2539,.2494-.4326v-4.6041c0-.1787-.0952-.3438-.2499-.4331Z" fill="#464646"/>
  <path d="M.9996,1.5c0-.2759,.224-.5,.4998-.5H11.4951c.2758,0,.4998,.2241,.4998,.5l.0051,2.5H1l-.0004-2.5Z" fill="#dcdcdc"/>
  <polygon points="8 7.7189 7.5151 7.9998 5 7.9998 5 4.9992 8 4.9992 8 7.7189" fill="#fff"/>
  <path d="M4,12H1.4994c-.276,0-.4998-.2238-.4998-.4998v-2.5004h3.0004v3.0002Z" fill="#fff"/>
  <rect x=".9996" y="4.9992" width="3.0004" height="3.0006" fill="#fff"/>
  <rect x="5" y="9" width="2" height="3" fill="#fff"/>
  <path d="M11.75,5.8361c-.1543-.0889-.3462-.0894-.5005,.0005l-2.2495,1.303v-2.1404h3v.9812l-.25-.1443Z" fill="#fff"/>
  <polygon points="11.5 6.8469 14.5013 8.5827 11.5 10.3177 8.5013 8.5819 11.5 6.8469" fill="#dcdcdc"/>
  <polygon points="8 9.4489 11 11.1837 11 14.6331 8 12.8979 8 9.4489" fill="#dcdcdc"/>
  <polygon points="12 14.6331 12 11.1837 15 9.4489 15 12.8979 12 14.6331" fill="#dcdcdc"/>
  <path d="M4,2.5c0,.2762-.2239,.5-.5,.5s-.5-.2239-.5-.5,.2239-.5,.5-.5,.5,.2239,.5,.5Z" fill="#464646"/>
  <path d="M10,2.5c0,.2762-.2239,.5-.5,.5s-.5-.2239-.5-.5,.2239-.5,.5-.5,.5,.2239,.5,.5Z" fill="#464646"/>
</svg>