<?xml version="1.0" encoding="UTF-8"?>
<svg id="Layer_1" data-name="Layer 1" xmlns="http://www.w3.org/2000/svg" viewBox="0 0 16 16">
  <path d="M15.6094,1.9343h-.0005l-1.5391-1.5392C13.8175,.1427,13.482,.0036,13.1246,.0036c-.3354-.0308-.6953,.1401-.9482,.3949L1.9098,10.7375c-.0475,.0478-.0839,.1044-.1086,.1659-.0002,.0004-.0006,.0007-.0008,.0011L.0358,15.3146c-.0742,.1855-.0308,.3979,.1113,.5394,.0957,.0952,.2231,.146,.353,.146,.063,0,.1265-.0117,.187-.0361l4.4341-1.7867s0,0,.0001,0c.0601-.0242,.1163-.0604,.1649-.1088L15.605,3.8274c.2539-.2519,.394-.5878,.395-.9456s-.1382-.6942-.3906-.9475Z" fill="#464646"/>
  <g>
    <path d="M2.4497,11.9722l-1.0508,2.6265,2.6401-1.064-1.5894-1.5625Z" fill="#dcdcdc"/>
    <path d="M2.9736,11.084l1.959,1.9263L13.0591,4.9429l-2.0015-2.0015L2.9736,11.084Z" fill="#fff"/>
    <path d="M11.7622,2.2314l2.0068,2.0068,1.1318-1.1235c.0635-.0635,.0991-.1479,.0991-.2378,.0005-.0903-.0347-.1748-.0981-.2388l-1.5396-1.5396c-.0635-.0635-.1479-.0986-.2378-.0986h-.0005c-.0898,0-.1743,.0356-.2378,.0991l-1.124,1.1323Z" fill="#dcdcdc"/>
  </g>
</svg>