<?xml version="1.0" encoding="UTF-8"?>
<svg id="Layer_1" data-name="Layer 1" xmlns="http://www.w3.org/2000/svg" viewBox="0 0 16 16">
  <path d="M9.5001,1c.1367,0,.2705,.0562,.3672,.1606l6,6.5c.1769,.1917,.1769,.4871,0,.6787l-6,6.5c-.1406,.1519-.3594,.2007-.5488,.1265-.1924-.0752-.3184-.2598-.3184-.4658v-2.5h-3V4h3V1.5c0-.2061,.126-.3906,.3184-.4658,.0586-.0229,.1201-.0342,.1816-.0342Z" fill="#464646"/>
  <polygon points="14.8195 8 10 2.7788 10 5 7 5 7 11 10 11 10 13.2212 14.8195 8" fill="#fff"/>
  <rect y="4" width="5" height="8" fill="#464646"/>
  <rect x="1" y="5" width="3" height="6" fill="#fff"/>
</svg>