<?xml version="1.0" encoding="UTF-8"?>
<svg id="Layer_1" data-name="Layer 1" xmlns="http://www.w3.org/2000/svg" viewBox="0 0 16 16">
  <g>
    <path d="M7.9976,13C4.7232,13,1.7544,11.0259,.0552,7.7188c-.0737-.144-.0737-.3145,.0005-.458C1.7584,3.9668,4.7276,2,7.9976,2c3.2739,0,6.2446,1.9702,7.9467,5.271,.0742,.1436,.0742,.3145,0,.458-1.7026,3.3008-4.6733,5.271-7.9467,5.271Z" fill="#464646"/>
    <path d="M1.066,7.4907c1.5405,2.8291,4.1147,4.5093,6.9316,4.5093s5.3926-1.6768,6.9365-4.5c-1.5435-2.8232-4.1196-4.5-6.9365-4.5-2.814,0-5.3882,1.6733-6.9316,4.4907Z" fill="#fff"/>
  </g>
  <g>
    <path d="M8,11c-1.9297,0-3.5-1.5703-3.5-3.5005s1.5703-3.4995,3.5-3.4995,3.5,1.5698,3.5,3.4995-1.5703,3.5005-3.5,3.5005Z" fill="#464646"/>
    <path d="M8,5c-1.3784,0-2.5,1.1211-2.5,2.4995s1.1216,2.5005,2.5,2.5005,2.5-1.1216,2.5-2.5005-1.1216-2.4995-2.5-2.4995Z" fill="#dcdcdc"/>
  </g>
</svg>