<?xml version="1.0" encoding="UTF-8"?>
<svg id="Layer_1" data-name="Layer 1" xmlns="http://www.w3.org/2000/svg" viewBox="0 0 16 16">
  <path d="M10.2263,9.5192l5.3455-5.2985c.2754-.2734,.4277-.6372,.4282-1.0249,.001-.3877-.1499-.7524-.4238-1.0264l-1.7446-1.7451c-.2734-.2734-.6367-.4243-1.0239-.4243h-.0029c-.3877,.001-.7515,.1528-1.0244,.4282L6.481,5.774,.8535,.1465C.6582-.0488,.3418-.0488,.1465,.1465S-.0488,.6582,.1465,.8535L5.777,6.4841l-3.632,3.6639c-.0474,.0479-.0845,.104-.1094,.1665L.0358,15.3145c-.0742,.1855-.0308,.3975,.1108,.5391,.0957,.0957,.2236,.1465,.3535,.1465,.0625,0,.1255-.0117,.1855-.0356l4.9999-2c.0625-.0249,.1187-.062,.1665-.1094l3.664-3.6318,5.6304,5.6304c.0977,.0977,.2256,.1465,.3535,.1465s.2559-.0488,.3535-.1465c.1953-.1953,.1953-.5117,0-.707l-5.6273-5.6273Z" class="aw-theme-iconOutline" fill="#464646"/>
  <path d="M14.8677,3.5107l-1.3311,1.3193-2.366-2.3665,1.3196-1.3312c.0845-.085,.1968-.1318,.3164-.1323h.001c.1196,0,.2324,.0469,.3169,.1313l1.7446,1.7451c.0845,.085,.1313,.1973,.1309,.3174,0,.1196-.0474,.2324-.1323,.3169Z" fill="#dcdcdc"/>
  <polygon points="2.0105 14.3573 4.6102 13.3173 2.6827 11.3898 1.6458 13.9818 2.0105 14.3573" fill="#dcdcdc"/>
  <g>
    <polygon points="9.5192 8.8121 12.8265 5.5339 10.4666 3.1737 7.188 6.481 9.5192 8.8121" fill="#dcdcdc"/>
    <polygon points="6.4841 7.1912 3.2056 10.4985 5.5015 12.7944 8.809 9.5161 6.4841 7.1912" fill="#dcdcdc"/>
  </g>
</svg>