<?xml version="1.0" encoding="UTF-8"?>
<svg id="Layer_1" data-name="Layer 1" xmlns="http://www.w3.org/2000/svg" viewBox="0 0 16 16">
  <path d="M15.499,7.9989h.001c.2759,0,.4995-.2231,.5-.4989,.0005-.2764-.2231-.5006-.499-.5011h-4.1319s-1.7962-1.9453-1.7962-1.9453l-.0768,.9011c-.181-.1334-.3946-.2269-.66-.2116-.688,.0234-1.0508,.5034-1.3154,.854-.1396,.1855-.2334,.3018-.3193,.3589-.0254-.187-.02-.4966-.0161-.7007,.0117-.6704,.0229-1.3037-.459-1.5791-.2856-.1621-.6279-.123-1.02,.1187-.9482,.584-.9521,1.4287-.9546,1.9336-.001,.1123-.0107,.2524,.0444,.2578-.0122,.0029-.0425,.0083-.0996,.0083-.0513,.0088-.1245-.0273-.1514-.0649-.187-.2637-.1816-1.1016,.1909-2.1934,.2515-.7358,.4585-1.0977,.772-1.6445l.1255-.2188c.375-.6582,.4853-1.3467,.3027-1.8892-.1304-.3872-.3984-.6772-.7749-.8379-.8765-.3735-2.1421,.0347-2.9585,.499C1.1955,1.2177,.5588,1.9838,.4562,2.747c-.1645,1.2241,.4492,2.082,.9907,2.8394,.3247,.4536,.6323,.8838,.7119,1.3262-.145,.0674-.6123,.1675-1.5552-.0322-.2671-.0542-.5352,.1157-.5928,.3857-.0571,.27,.1157,.5356,.3857,.5928,.6748,.144,1.896,.3037,2.4819-.2358,.2187-.2007,.3193-.4712,.2832-.7617-.0884-.7197-.5019-1.2979-.9014-1.8569-.4756-.6646-.9248-1.2925-.813-2.1245,.0586-.4375,.5376-.9609,1.2495-1.3657,.7764-.4409,1.6474-.6304,2.0718-.4482,.1128,.0483,.1807,.1211,.2197,.2373,.0889,.2642,.0034,.6763-.2241,1.0752l-.1235,.2158c-.3301,.5762-.5688,.9922-.8511,1.8188-.2207,.646-.668,2.2407-.0591,3.0962,.2212,.311,.5605,.4834,.9556,.4854h.0098c.5586,0,.8125-.2646,.9277-.4878,.1255-.2432,.1265-.5127,.1279-.7734,.002-.4741,.0249-.7847,.4297-1.0552,.0107,.1719,.0068,.3999,.0039,.5591-.0107,.6084-.021,1.1831,.3159,1.5264,.1514,.1538,.3486,.2354,.5708,.2354,.6435,0,.9922-.4619,1.2471-.7993,.2363-.313,.3599-.4507,.5532-.4575,.0586,.0142,.2134,.1924,.3057,.2988,.0599,.0691,.1335,.1478,.2064,.225l-.6136,7.1978,2.7655-2.1423,1.2582,3.6786,.9463-.3289-1.2582-3.674,3.4972-.0055-3.6872-3.993,3.2068,.0003Z" fill="#464646"/>
  <polygon points="10.3765 7.3983 13.6983 10.9955 11.6109 10.9989 9.961 12.2773 10.3765 7.3983" fill="#fff"/>
</svg>