<?xml version="1.0" encoding="UTF-8"?>
<svg id="Layer_1" data-name="Layer 1" xmlns="http://www.w3.org/2000/svg" viewBox="0 0 16 16">
  <path d="m14.854,2.853c.1953-.1953.1953-.5117,0-.707s-.5117-.1953-.707,0l-1.5699,1.5699c-.7407-.6424-1.6143-1.1334-2.5771-1.4211V1h.5c.2764,0,.5-.2236.5-.5S10.7764,0,10.5,0h-5C5.2236,0,5,.2236,5,.5s.2236.5.5.5h.5v1.2948c-2.8878.863-5,3.5405-5,6.7052,0,3.8599,3.1401,7,7,7s7-3.1401,7-7c0-1.7503-.6502-3.3484-1.7159-4.5771l1.5699-1.5699Zm-7.854-.7732V1h2v1.0798c-.3275-.0472-.6596-.0798-1-.0798s-.6725.0327-1,.0798Z" class="aw-theme-iconOutline" fill="#464646"/>
  <path d="m13,9.5v-1h.9747c-.2417-2.9098-2.5653-5.2343-5.4747-5.4759v.9759h-1v-.9759c-2.9094.2416-5.233,2.5661-5.4747,5.4759h.9747v1h-.9747c.2417,2.9098,2.5653,5.2343,5.4747,5.4759v-.9759h1v.9747c2.9098-.2417,5.2343-2.5653,5.4759-5.4747h-.9759Z" fill="#ff8000"/>
  <rect x="7.5" y="5.5" width="1" height="5" fill="#fff"/>
  <circle cx="8" cy="11.75" r=".5" fill="#fff"/>
</svg>