<?xml version="1.0" encoding="UTF-8"?>
<svg id="Layer_1" data-name="Layer 1" xmlns="http://www.w3.org/2000/svg" viewBox="0 0 16 16">
  <path d="M14,0H2C.897,0,0,.897,0,2V14c0,1.103,.897,2,2,2H14c1.103,0,2-.897,2-2V2c0-1.103-.897-2-2-2Z" class="aw-theme-iconOutline" fill="#464646"/>
  <path d="M14,1H2c-.5513,0-1,.4487-1,1v2.5H15V2c0-.5513-.4487-1-1-1ZM4.4999,3.25c-.2761,0-.4999-.2239-.4999-.5001s.2239-.4999,.4999-.4999,.5001,.2238,.5001,.4999-.2239,.5001-.5001,.5001Zm7,0c-.2761,0-.4999-.2239-.4999-.5001s.2239-.4999,.4999-.4999,.5001,.2238,.5001,.4999-.2239,.5001-.5001,.5001Z" fill="#32a2bc"/>
  <rect x="6" y="9" width="4" height="2.5" fill="#dcdcdc"/>
  <rect x="6" y="12.5" width="4" height="2.5" fill="#dcdcdc"/>
  <rect x="6" y="5.5" width="4" height="2.5" fill="#dcdcdc"/>
  <rect x="1" y="5.5" width="4" height="2.5" fill="#dcdcdc"/>
  <rect x="1" y="9" width="4" height="2.5" fill="#dcdcdc"/>
  <rect x="11" y="9" width="4" height="2.5" fill="#dcdcdc"/>
  <rect x="11" y="5.5" width="4" height="2.5" fill="#dcdcdc"/>
  <path d="M1,14v-1.5H5v2.5H2c-.5513,0-1-.4487-1-1Z" fill="#dcdcdc"/>
  <path d="M14,15h-3v-2.5h4v1.5c0,.5513-.4487,1-1,1Z" fill="#dcdcdc"/>
</svg>