<?xml version="1.0" encoding="UTF-8"?>
<svg id="Layer_1" data-name="Layer 1" xmlns="http://www.w3.org/2000/svg" viewBox="0 0 16 16">
  <path d="M16,4c0-1.103-.8975-2-2-2h-1V0H3V2h-1C.8975,2,0,2.897,0,4v6.9995H3v5.0005H13v-5.0005h3V4Z" fill="#464646"/>
  <rect x="4" y="1" width="8" height="1" fill="#fff"/>
  <rect x="4" y="14" width="8" height="1" fill="#fff"/>
  <path d="M14,3H2c-.5518,0-1,.4487-1,1v5.9995h1.9999v-3.0001H13.0001v3.0001h1.9999V4c0-.5513-.4482-1-1-1Z" fill="#dcdcdc"/>
  <rect x="4" y="12" width="8" height="1" fill="#fff"/>
  <rect x="4" y="8" width="8" height="3" fill="#fff"/>
  <rect x="11" y="4.9995" width="2" height="1" fill="#464646"/>
</svg>