<?xml version="1.0" encoding="UTF-8"?>
<svg id="Layer_1" data-name="Layer 1" xmlns="http://www.w3.org/2000/svg" viewBox="0 0 16 16">
  <circle cx="8" cy="8" r="8" class="aw-theme-iconOutline" fill="#464646"/>
  <circle cx="8" cy="8" r="7" fill="#3caf82"/>
  <path d="M11.6813,3l-.0368,.0007c-.2794,.0103-.5417,.1371-.7234,.3496l-4.5989,5.3806-2.3177-1.2772c-.1522-.0839-.318-.1242-.4821-.1243-.3001,0-.5945,.135-.7897,.3859l-.5218,.6705c-.3098,.3981-.2746,.9646,.0821,1.3213l4,4c.1885,.1885,.4434,.2929,.7071,.2929,.036,0,.0722-.0019,.1084-.0059,.3013-.0328,.5714-.2005,.7345-.456L13.1717,5.1917c.2516-.3941,.1966-.9099-.1325-1.242l-.6476-.6536c-.1881-.1898-.444-.2961-.7103-.2961h0Z" fill="#464646"/>
  <polyline points="11.6812 4 12.3289 4.6536 7 13 3 9 3.5218 8.3295 6.5531 9.9999 11.6812 4" fill="#fff"/>
</svg>