<?xml version="1.0" encoding="UTF-8"?>
<svg id="Layer_1" data-name="Layer 1" xmlns="http://www.w3.org/2000/svg" viewBox="0 0 16 16">
  <path d="M2,12C.8972,12,0,12.8972,0,14s.8972,2,2,2,2-.897,2-2-.8972-2-2-2h0Z" fill="#464646"/>
  <path d="M8,13h-3v-.4985c0-.8271-.6729-1.5015-1.5-1.5015h-.5v-3l.5,.0015c2.4814,0,4.5,2.0186,4.5,4.5v.4985Z" fill="#464646"/>
  <path d="M12,13h-3v-.5c0-3.0327-2.4673-5.4995-5.5-5.4995l-.5-.0005v-3l.5,.0005c4.687,0,8.5,3.8125,8.5,8.4995v.5Z" fill="#464646"/>
  <path d="M16,13h-3v-.5C13,7.2617,8.7383,3,3.5,3h-.5V0h.5c6.8926,0,12.5,5.6079,12.5,12.5v.5Z" fill="#464646"/>
  <path d="M3,13.9997c0,.5524-.4474,1.0003-1,1.0003-.5519,0-1-.4479-1-1.0003,0-.5519,.4481-.9999,1-.9999,.5526,0,1,.448,1,.9999Z" fill="#fff"/>
  <path d="M2,12.9998c.5526,0,1,.448,1,.9999,0,.5524-.4474,1.0003-1,1.0003-.5519,0-1-.4479-1-1.0003,0-.5519,.4481-.9999,1-.9999" fill="#fff"/>
  <path d="M5.9497,12.0015h1.0146c-.2197-1.5308-1.4336-2.7446-2.9644-2.9644v1.0146c.978,.1992,1.7505,.9717,1.9497,1.9497Z" fill="#fff"/>
  <path d="M9.981,12.0005h1.0024c-.2471-3.7378-3.2456-6.7363-6.9834-6.9834v1.0024c3.1865,.2437,5.7373,2.7944,5.981,5.981Z" fill="#fff"/>
  <path d="M13.9883,11.9995h1.001C14.7334,6.0557,9.9443,1.2661,4,1.0107v1.001c5.3931,.2539,9.7344,4.5952,9.9883,9.9878Z" fill="#fff"/>
</svg>