<?xml version="1.0" encoding="UTF-8"?>
<svg id="Layer_1" data-name="Layer 1" xmlns="http://www.w3.org/2000/svg" viewBox="0 0 16 16">
  <g>
    <path d="m8,15.9995c-.439,0-.8779-.1675-1.2119-.5015L.502,9.2119c-.6685-.6685-.6685-1.7554,0-2.4238L6.7881.502c.668-.668,1.7559-.668,2.4238,0l6.2861,6.2861c.6685.6685.6685,1.7554,0,2.4238l-6.2861,6.2861c-.334.334-.7729.5015-1.2119.5015Z" class="aw-theme-iconOutline" fill="#464646"/>
    <path d="m8,1c-.1826,0-.3657.0698-.5049.209L1.209,7.4951c-.2783.2783-.2783.7314,0,1.0098l6.2861,6.2861c.2783.2783.7314.2783,1.0098,0l6.2861-6.2861c.2783-.2783.2783-.7314,0-1.0098L8.5049,1.209c-.1392-.1392-.3223-.209-.5049-.209Z" fill="#3c91af"/>
  </g>
  <path d="m8,10.6805c-.3311,0-.6001-.269-.6001-.6001v-.6805c0-.7983.4658-1.5298,1.1865-1.8628.5859-.271.9038-.8862.7905-1.5303-.0977-.5601-.5576-1.02-1.1182-1.1177-.0874-.0151-.1743-.0229-.2598-.0229-.333,0-.6436.1128-.8989.3267-.3179.2671-.5.6577-.5,1.0728,0,.3311-.269.6001-.6001.6001s-.6001-.269-.6001-.6001c0-.77.3384-1.4961.9287-1.9917.4663-.3911,1.0625-.6069,1.6792-.6069.1519,0,.3052.0132.458.0396,1.0488.1841,1.9097,1.0449,2.0938,2.0933.2051,1.1689-.3994,2.3315-1.4692,2.8267-.2979.1377-.4902.4409-.4902.7734v.6805c0,.3311-.269.6001-.6001.6001Z" fill="#fff"/>
  <rect x="7.25" y="11.5151" width="1.5" height="1.5" rx=".75" ry=".75" fill="#fff"/>
</svg>