<?xml version="1.0" encoding="UTF-8"?>
<svg id="Layer_1" data-name="Layer 1" xmlns="http://www.w3.org/2000/svg" viewBox="0 0 16 16">
  <polygon points="1 14 14.0029 14 14 4.6709 10.335 1.0005 1 1 1 14" fill="#fff"/>
  <g>
    <path d="M3.3027,3h-.7998c-.2764,0-.5,.2236-.5,.5v1.5h-.0029v3h1v-2h.3027c1.0166,0,1.7002-.603,1.7002-1.5s-.6836-1.5-1.7002-1.5Zm0,2h-.2998v-1h.2998c.2617,0,.7002,.0649,.7002,.5,0,.3315-.2354,.5-.7002,.5Z" fill="#464646"/>
    <path d="M6.6709,8h-.668c-.2764,0-.5-.2236-.5-.5V3.5c0-.2764,.2236-.5,.5-.5h.668c1.0098,0,1.832,.8218,1.832,1.832v1.3359c0,1.0103-.8223,1.832-1.832,1.832Zm-.168-1h.168c.459,0,.832-.373,.832-.832v-1.3359c0-.459-.373-.832-.832-.832h-.168v3Z" fill="#464646"/>
    <polygon points="11.5 4 11.4999 3 9 3 9 8 10 8 10 6 11 6 11 5 10 5 10 4 11.5 4" fill="#464646"/>
  </g>
  <path d="M15.0615,10.0121l.4251-.8943-.4866-.4865V4.2477L10.7461,0H0V15H8.6536l.4752,.4756,.8923-.4233,.3347,.9478h2.2886l.3351-.9489,.8914,.4236,.4749-.4747h.6544v-.6542l.4868-.4866-.425-.8947,.9383-.3331v-2.2861l-.9385-.3331ZM1,1H10.335l3.668,3.6709v2.9637l-.1326-.1325-.8972,.4268-.3313-.9289h-2.2838l-.3312,.9285-.8976-.4267-1.616,1.6158,.425,.8947-.9383,.333v2.2861l.9388,.3333-.4251,.8947,.1406,.1407H1V1Z" fill="#464646"/>
  <path d="M13.7492,12.5322l.5315,1.1187-.618,.6178-1.1187-.5317c-.0736-.0349-.159-.0047-.1921,.0878l-.415,1.1752h-.8738l-.415-1.1753c-.0309-.0867-.1217-.1191-.1921-.0857l-1.1186,.5307-.6178-.6183,.5317-1.1189c.0347-.0729,.0019-.1624-.0819-.1921l-1.1694-.4151v-.8737l1.1694-.4151c.0822-.0291,.1154-.1203,.0814-.192l-.5315-1.1186,.618-.6179,1.1187,.5318c.0749,.0356,.1659-.0029,.1921-.0761l.415-1.1635h.8738l.415,1.1636c.0263,.0739,.1142,.1139,.1921,.0769l1.1186-.5322,.6178,.6177-.5317,1.1185c-.0349,.0733-.0014,.1624,.0819,.1919l1.1694,.4151v.8737l-1.1694,.4151c-.0818,.029-.1157,.1196-.0814,.1919Z" fill="#dcdcdc"/>
  <circle cx="11.5" cy="11.5" r="1" fill="#464646"/>
</svg>