<?xml version="1.0" encoding="UTF-8"?>
<svg id="Layer_1" data-name="Layer 1" xmlns="http://www.w3.org/2000/svg" viewBox="0 0 16 16">
  <path d="M15.9998,2h-2.3389L13.2084,.0039,5.8073,1.6467l-.6589-1.1584c-.1992-.3057-.5361-.4883-.9009-.4883H1.0796C.4844,0,0,.4902,0,1.0928V14H8.6874c.6578,1.9919,1.0385,2,1.311,2,.5234,0,4.4418-.7837,5.2221-.9404l.2925-.0591,.0869-.2852c.0721-.2365,.1342-.4752,.187-.7153h.213V2Z" fill="#464646"/>
  <polygon points="13.0892 4 2.7509 4 2.6079 3.3813 12.4535 1.1963 13.0892 4" fill="#fff"/>
  <path d="M1,1.0928c0-.0513,.0356-.0928,.0796-.0928l3.2158,.0088,.491,.8646-3.3797,.7502,.3176,1.3765H1V1.0928Z" fill="#dcdcdc"/>
  <polygon points="14.1144 4 13.8877 3 14.9998 3 14.9998 4 14.1144 4" fill="#dcdcdc"/>
  <path d="M8.1093,11.9893h-2.1108c-.5972,0-.999-.604-.999-1.5029,0-.8984,.4019-1.5024,.999-1.5024h4.1586c-.3843-1.2671,.0986-2.0479,.3574-2.353,.4165-.4907,1.022-.7329,1.4785-.5908,.2441,.0767,.4214,.2627,.4829,.4985,.3735,.7598,1.0117,1.7954,1.2968,2.2495h1.2271v-3.7881H1V13h7.3831c-.0875-.3077-.1777-.6364-.2739-1.0107Z" fill="#dcdcdc"/>
  <path d="M14.9979,11.8569c.0171,.772-.0747,1.5381-.2729,2.2822-1.6792,.3354-3.9008,.7593-4.5644,.8452-.1082-.18-.2521-.5375-.4086-.9897h1.246v-1h-1.5667c-.0979-.3259-.1946-.6664-.2858-1.0054h1.8525v-1H6.0849c-.1138-.209-.1143-.7964,0-1.0054h5.6269l-.3672-.7256c-.3838-.7583-.436-1.4224-.1484-1.8711,.1265-.1963,.2915-.3081,.4072-.3569,.52,1.0439,1.4341,2.4663,1.4741,2.5283l.1475,.2295h1.7729v2.0688Z" fill="#fff"/>
</svg>