<?xml version="1.0" encoding="UTF-8"?>
<svg id="Layer_1" data-name="Layer 1" xmlns="http://www.w3.org/2000/svg" viewBox="0 0 16 16">
  <path d="M6.4999,15c-.1367,0-.2705-.0562-.3672-.1606L.1327,8.3394c-.1769-.1917-.1769-.4871,0-.6787L6.1327,1.1606c.1406-.1519,.3594-.2007,.5488-.1265,.1924,.0752,.3184,.2598,.3184,.4658v2.5h3V12h-3v2.5c0,.2061-.126,.3906-.3184,.4658-.0586,.0229-.1201,.0342-.1816,.0342Z" fill="#464646"/>
  <polygon points="1.1805 8 5.9999 13.2212 5.9999 11 8.9999 11 8.9999 5 5.9999 5 5.9999 2.7788 1.1805 8" fill="#fff"/>
  <rect x="11" y="4" width="5" height="8" fill="#464646"/>
  <rect x="12" y="5" width="3" height="6" fill="#fff"/>
</svg>