<?xml version="1.0" encoding="UTF-8"?>
<svg id="Layer_1" data-name="Layer 1" xmlns="http://www.w3.org/2000/svg" viewBox="0 0 16 16">
  <path d="M15,7.5C15,2.8652,10.7749-.8007,5.9737,.1515,3.0606,.7293,.7187,3.0816,.1477,5.9961c-.7621,3.8901,1.5108,7.35,4.8523,8.541v1.4629h5v-1.4629c2.9035-1.0349,5-3.7827,5-7.0371Z" fill="#464646"/>
  <path d="M13.9747,7h-1.9894c-.0266-.6999-.1075-1.3696-.2374-2h1.7506c.2608,.6234,.4222,1.2968,.4761,2Z" fill="#fff"/>
  <path d="M12.9684,4h-1.4745c-.2797-.9019-.6641-1.6927-1.1307-2.3265,1.0659,.526,1.9667,1.3323,2.6052,2.3265Z" fill="#fff"/>
  <path d="M8,1.0776c1.0048,.2811,1.8851,1.3848,2.4277,2.9224h-2.4277V1.0776Z" fill="#fff"/>
  <path d="M7,1.0776v2.9224h-2.4277c.5426-1.5376,1.4229-2.6413,2.4277-2.9224Z" fill="#fff"/>
  <path d="M4.6368,1.6735c-.4666,.6338-.851,1.4246-1.1307,2.3265h-1.4745c.6385-.9941,1.5394-1.8005,2.6052-2.3265Z" fill="#fff"/>
  <path d="M1.5015,5h1.7505c-.1299,.6304-.2108,1.3001-.2374,2H1.0253c.054-.7032,.2154-1.3766,.4762-2Z" fill="#fff"/>
  <path d="M10,13.4588v-2.4637h1.5c.2021,0,.3848-.1221,.4619-.3086,.0771-.187,.0342-.4023-.1084-.5454l-4-3.9951c-.1953-.1943-.5117-.1948-.707,.0005L3.1465,10.1465c-.1426,.1426-.1855,.3574-.1084,.5439,.0762,.1865,.2578,.3086,.46,.3096l1.502,.0063v2.4525c-1.2177-.5125-2.2613-1.3578-2.9684-2.4588h.4684v-1h-.9985c-.2608-.6234-.4222-1.2967-.4762-2h1.9926c.0055,.142,.005,.2871,.0153,.4268l.998-.0732c-.0085-.1159-.0079-.236-.0129-.3535h.9817v-1h-.9859c.0303-.7,.1203-1.3741,.2655-2h2.7204v.5h1v-.5h2.7204c.1452,.6259,.2352,1.3,.2655,2h-.9859v1h.9799c-.0066,.1564-.0067,.316-.0189,.4692l.9961,.0801c.0143-.1794,.0152-.366,.0225-.5493h1.9951c-.054,.7033-.2153,1.3766-.4761,2h-.9985v1h.4684c-.7071,1.101-1.7507,1.9464-2.9684,2.4588Z" fill="#fff"/>
  <polygon points="6 15 9 15 9 10 10.292 9.9951 7.5 7.207 4.7021 10.0049 6 10 6 15" fill="#dcdcdc"/>
</svg>