<?xml version="1.0" encoding="UTF-8"?>
<svg id="Layer_1" data-name="Layer 1" xmlns="http://www.w3.org/2000/svg" viewBox="0 0 16 16">
  <polygon points="16.0024 5.9976 14.9995 5.9976 15 4 11 0 1 0 .9998 5.9976 -.0024 5.9976 -.0024 14.0024 .9996 14.0024 .9995 15.9985 14.9995 15.9985 14.9995 14.0024 16.0049 14.0024 16.0024 5.9976" class="aw-theme-iconOutline" fill="#464646"/>
  <polygon points="11 1.3 13.7 4 11 4 11 1.3" fill="#ebf0f5"/>
  <path d="m2,1l7.9995-.0015v3.5c0,.2764.2236.5.5.5h3.5v.999H1.9998l.0002-4.9976Z" fill="#d1d3d4"/>
  <rect x="1.9995" y="14.0024" width="12" height=".9961" fill="#d1d3d4"/>
  <path d="m1,13.0001h14.0021l-.0021-5.9999H1v5.9999" fill="#019ce0" fill-rule="evenodd"/>
  <g>
    <path d="m4.8735,10.874c0,.3794-.1377.6733-.4131.8818s-.6558.3125-1.1411.3125c-.4131,0-.7583-.0742-1.0352-.2231v-.8931c.3198.2715.6724.4072,1.0571.4072.186,0,.3301-.0371.4312-.1113.1016-.0742.1523-.1729.1523-.2959,0-.1206-.0488-.2261-.1465-.3154-.0977-.0889-.2964-.2046-.5957-.3457-.6104-.2866-.9155-.6772-.9155-1.1719,0-.3589.1333-.647.3994-.8638.2656-.2163.6191-.3247,1.0601-.3247.3906,0,.7144.0508.9712.1533v.834c-.27-.1855-.5767-.2788-.9209-.2788-.1729,0-.3096.0366-.4102.1104-.1006.0732-.1509.1714-.1509.2944,0,.1265.0405.23.1216.311.0811.0806.2471.1807.498.2998.374.1768.6401.3564.7993.5386s.2388.4092.2388.6807Z" fill="#fff"/>
    <path d="m9.2563,11.9985h-.9824l-.2842-.8901h-1.4233l-.2817.8901h-.9766l1.4565-4.001h1.0688l1.4229,4.001Zm-1.4731-1.582l-.4297-1.3447c-.0337-.106-.0562-.2261-.0669-.3599h-.0225c-.0112.1172-.0347.2334-.0698.3486l-.4351,1.356h1.0239Z" fill="#fff"/>
    <path d="m12.9087,9.2725c0,.2642-.0664.4985-.1982.7031-.1323.2046-.3198.3633-.5635.4756-.2437.1128-.521.1689-.8315.1689h-.4297v1.3784h-.9014v-4.001h1.4121c1.0078,0,1.5122.4248,1.5122,1.2749Zm-.9487.0337c0-.4111-.2402-.6167-.7197-.6167h-.3545v1.2471h.3545c.4795,0,.7197-.21.7197-.6304Z" fill="#fff"/>
  </g>
</svg>