<?xml version="1.0" encoding="UTF-8"?>
<svg id="Layer_1" data-name="Layer 1" xmlns="http://www.w3.org/2000/svg" viewBox="0 0 16 16">
  <path d="M13.9999,15H2c-.7139,0-1.373-.3799-1.7305-.9976-.3579-.6172-.3594-1.3784-.0044-1.9976L4.3739,4.8459l3.4707,1.9902-2.3915,4.1639h5.0888L5.7519,2.6812l3.4668-1.9941,6.5146,11.3159c.3564,.6187,.3555,1.3804-.002,1.9985s-1.0176,.9985-1.7314,.9985Z" fill="#464646"/>
  <path d="M13.9999,14.0001H2c-.3564,0-.6865-.1899-.8652-.4985-.1787-.3091-.1797-.6895-.002-.999l3.6269-6.3237,1.7344,.9951-2.7676,4.8262H12.2714L7.124,3.0533l1.7344-.9971,6.0087,10.4453c.1777,.3096,.1768,.6904-.002,.999-.1787,.3091-.5078,.4995-.8652,.4995Z" fill="#fff"/>
</svg>