<?xml version="1.0" encoding="UTF-8"?>
<svg id="Layer_1" data-name="Layer 1" xmlns="http://www.w3.org/2000/svg" viewBox="0 0 16 16">
  <rect x="3.0001" y="15" width="10" height="1" fill="#464646"/>
  <path d="M15.8533,4.2681l-2.1162-2.1211c-.1768-.1792-.4629-.1958-.6621-.0405l-1.455,1.1415C10.3139,1.2097,8.2575,0,5.998,0,3.5527,0,1.333,1.4038,.0601,3.7554c-.0801,.1484-.0801,.3271-.0005,.4751,1.2082,2.2446,3.2787,3.6136,5.5831,3.744l-.1858,.1945c-.2949,.3013-.457,.6987-.457,1.1201l-.0107,2.0004c-.0128,.0092-.028,.0125-.04,.023l-1.58,1.373c-.1387,.1206-.2002,.3081-.1592,.4878,.04,.1797,.1768,.3223,.3535,.3716l1.5781,.437c.0439,.0122,.0889,.0181,.1338,.0181,.1113,0,.2207-.0371,.3096-.1074l.9648-.7617c.0074-.0058,.0107-.0149,.0176-.0211,.04-.0219,.0807-.0427,.1152-.0771,.0225-.0146,.0869-.0347,.1143-.0356l2.0214-.0005h.0029c.4248,0,.8389-.1733,1.1377-.4751,.0254-.0259,.0488-.0547,.0674-.0854l.1747-.2778,5.6914-7.2275c.1572-.1992,.1406-.4834-.0391-.6626Z" fill="#464646"/>
  <polygon points="4.7286 12.8296 5.1641 12.9507 5.5079 12.6797 5.2383 12.3862 4.7286 12.8296" fill="#fff"/>
  <path d="M8.8204,11.9966h-.001l-2.0225,.0005c-.1335,0-.299,.0406-.4606,.1065l-.4133-.45c.049-.1206,.0771-.2492,.0771-.3792v-1.9854c0-.1343,.0459-.2661,.1309-.3745l2.999,2.9961c-.0928,.0557-.2002,.0859-.3096,.0859Z" fill="#fff"/>
  <polygon points="13.3428 3.1675 14.8331 4.6602 14.5298 5.0452 12.955 3.4717 13.3428 3.1675" fill="#dcdcdc"/>
  <polygon points="9.7491 11.1157 6.8741 8.2427 12.1626 4.0934 13.9069 5.8362 9.7491 11.1157" fill="#dcdcdc"/>
  <path d="M5.9981,1c-1.9893,0-3.8125,1.1138-4.9238,2.9941,1.1094,1.8877,2.9326,3.0059,4.9238,3.0059,.3289,0,.6504-.0412,.9677-.1005l3.869-3.0353c-1.119-1.798-2.8959-2.8642-4.8366-2.8642Zm.002,5.5c-1.3789,0-2.5-1.1216-2.5-2.5s1.1211-2.5,2.5-2.5,2.5,1.1216,2.5,2.5-1.1211,2.5-2.5,2.5Z" fill="#fff"/>
  <circle cx="6.0001" cy="4" r="1.5" fill="#dcdcdc"/>
</svg>