<?xml version="1.0" encoding="UTF-8"?>
<svg id="Layer_1" data-name="Layer 1" xmlns="http://www.w3.org/2000/svg" viewBox="0 0 16 16">
  <path d="M11.2695,10c2.0566,0,3.7305-1.5703,3.7305-3.5,0-1.7861-1.4336-3.2642-3.2783-3.4746-.2363-1.1523-1.3154-2.0254-2.6064-2.0254-.4111,0-.8096,.0903-1.1738,.2646-.5928-.7812-1.5615-1.2646-2.5957-1.2646-1.7598,0-3.1914,1.3457-3.1914,3,0,.1094,.0078,.2192,.0234,.332C.8579,3.896,0,5.1201,0,6.5c0,1.9297,1.6738,3.5,3.7305,3.5h1.2695v1.0049h-1.5c-.2021,0-.3848,.1221-.4619,.3086-.0771,.187-.0342,.4023,.1084,.5454l4,3.9951c.0977,.0972,.2256,.146,.3535,.146s.2559-.0488,.3535-.1465l4-4c.1426-.1426,.1855-.3574,.1084-.5439-.0762-.1865-.2578-.3086-.46-.3096l-1.502-.0063v-.9937h1.2695Z" fill="#464646"/>
  <path d="M3.7305,9c-1.5059,0-2.7305-1.1216-2.7305-2.5,0-1.0806,.7637-2.0317,1.9004-2.3672l.4785-.1411-.1406-.4795c-.0576-.1953-.084-.3584-.084-.5122,0-1.103,.9834-2,2.1914-2,.8477,0,1.6279,.459,1.9863,1.1689l.2676,.5293,.4766-.353c.3047-.2261,.6641-.3452,1.0391-.3452,.9121,0,1.6543,.6729,1.6543,1.5v.5h.5c1.5059,0,2.7305,1.1216,2.7305,2.5s-1.2246,2.5-2.7305,2.5h-1.2695v-2.5c0-.2764-.2236-.5-.5-.5H5.5c-.2764,0-.5,.2236-.5,.5v2.5h-1.2695Z" fill="#fff"/>
  <polygon points="10.2979 12 7.5 14.793 4.708 12 6 12 6 7 9 7 9 12 10.2979 12" fill="#dcdcdc"/>
</svg>