<?xml version="1.0" encoding="UTF-8"?>
<svg id="Layer_1" data-name="Layer 1" xmlns="http://www.w3.org/2000/svg" viewBox="0 0 16 16">
  <path d="m8,16c-1.103,0-2-.9033-2-2.0137,0-1.1138.8784-1.9863,2-1.9863s2,.8726,2,1.9863c0,1.1104-.897,2.0137-2,2.0137Z" class="aw-theme-iconOutline" fill="#464646"/>
  <path d="m8,13c-.5703,0-1,.4238-1,.9863,0,.5493.458,1.0137,1,1.0137s1-.4644,1-1.0137c0-.5625-.4297-.9863-1-.9863Z" fill="#ffcd50"/>
  <path d="m8.0264,11.5c-1.1113,0-2.0273-.8345-2.1309-1.9414l-.6128-6.5615c-.0757-.7627.1772-1.5293.6934-2.0996,1.0298-1.1377,3.0039-1.1426,4.04-.0078.5161.5649.772,1.3262.7026,2.0879l-.5605,6.5645c-.0947,1.1162-1.0112,1.958-2.1318,1.958Z" class="aw-theme-iconOutline" fill="#464646"/>
  <path d="m8,1c-.4946,0-.9502.2021-1.2822.5688-.3325.3667-.4883.8398-.4395,1.3325l.6133,6.5645c.0547.5894.5425,1.0342,1.1348,1.0342.5967,0,1.085-.4482,1.1357-1.043l.5605-6.5674c.0449-.4927-.1133-.9624-.4448-1.3262-.332-.3633-.7856-.5635-1.2778-.5635Z" fill="#ffcd50"/>
</svg>