<svg id="Layer_1" data-name="Layer 1" xmlns="http://www.w3.org/2000/svg" viewBox="0 0 16 16">
  <circle cx="8.002" cy="8" r="8" class="aw-theme-iconOutline" fill="#464646"/>
  <circle cx="8.002" cy="8" r="7" fill="#ffcd50"/>
  <path d="M8,3.8496c-.2305,0-.4404-.0898-.6006-.25-.0801-.0796-.1396-.1797-.1797-.2798-.0498-.1001-.0703-.21-.0703-.3198,0-.23,.0908-.4502,.25-.6001,.3203-.3203,.8906-.3203,1.2002,0,.1602,.1499,.25,.3701,.25,.6001,0,.2197-.0898,.4399-.25,.5996-.1602,.1602-.3701,.25-.5996,.25Z" fill="#464646"/>
  <circle cx="8" cy="3" r=".85" fill="#464646"/>
  <circle cx="3" cy="8" r=".85" fill="#464646"/>
  <circle cx="3.672" cy="10.4828" r=".85" fill="#464646"/>
  <circle cx="5.4973" cy="12.311" r=".85" fill="#464646"/>
  <circle cx="8" cy="13" r=".85" fill="#464646"/>
  <circle cx="10.4881" cy="12.3149" r=".85" fill="#464646"/>
  <circle cx="12.3163" cy="10.4896" r=".85" fill="#464646"/>
  <circle cx="13" cy="8" r=".85" fill="#464646"/>
  <circle cx="12.3202" cy="5.4988" r=".85" fill="#464646"/>
  <circle cx="10.4949" cy="3.6706" r=".85" fill="#464646"/>
</svg>
