<?xml version="1.0" encoding="UTF-8"?>
<svg id="Layer_1" data-name="Layer 1" xmlns="http://www.w3.org/2000/svg" viewBox="0 0 16 16">
  <path d="m12,7.0505V1.04c0-.1885-.106-.3608-.2739-.4463-1.8428-.9321-3.6548-.5029-5.5059.0625-.0002,0-.0002.0002-.0004.0002l-.3658.1125c-1.6878.5223-3.2875,1.0027-4.854.3483V0H0v16h1v-5.7416c.5411.1762,1.0785.2552,1.6113.2552,1.2026,0,2.3838-.3657,3.541-.7236l.3608-.1113s.0002-.0002.0004-.0002c.3535-.108.6981-.2058,1.0382-.2921-.3405.6332-.5518,1.3456-.5518,2.1136,0,2.4814,2.0186,4.5,4.5,4.5s4.5-2.0186,4.5-4.5c0-2.3102-1.7562-4.197-4-4.4495Z" class="aw-theme-iconOutline" fill="#464646"/>
  <path d="m5.8667,8.8315l-.0098.0029c-1.6895.5229-3.2915,1.0181-4.8569.3643v-2.9663c1.6099.5203,3.303.1055,4.8667-.3877v2.9868Z" fill="#ebf0f5"/>
  <path d="m5.8667,4.7983c-1.5565.478-3.2894,1.0402-4.8667.3524v-2.9519c1.6606.5415,3.2861.0981,4.8667-.3872v2.9868Z"/>
  <path d="m6.8667,1.5059c1.4663-.4321,2.8125-.6982,4.1333-.146v2.9668c-1.3546-.439-2.7935-.208-4.1333.1724V1.5059Z" fill="#ebf0f5"/>
  <path d="m6.8667,5.541c1.3299-.3944,2.8116-.7208,4.1333-.1353v1.6449c-.963.1083-1.8314.5113-2.5131,1.1307-.5388.0726-1.0783.1987-1.6202.351v-2.9913Z"/>
  <path d="m8,11.5c0-1.9297,1.5703-3.5,3.5-3.5.7845,0,1.502.2689,2.0863.7067l-4.8796,4.8796c-.4377-.5844-.7067-1.3018-.7067-2.0863Z" fill="#ffcd50"/>
  <path d="m11.5,15c-.7845,0-1.502-.2689-2.0863-.7067l4.8796-4.8796c.4377.5844.7067,1.3018.7067,2.0863,0,1.9297-1.5703,3.5-3.5,3.5Z" fill="#ffcd50"/>
</svg>