<?xml version="1.0" encoding="UTF-8"?>
<svg id="Layer_1" data-name="Layer 1" xmlns="http://www.w3.org/2000/svg" viewBox="0 0 16 16">
  <path d="M14.2903,7.9992l1.2087,.0002h.001c.2759,0,.4995-.2236,.5-.4995,.0005-.2764-.2231-.5001-.499-.5006h-4.5009c-.5347,0-.7812-.2842-1.0669-.6133-.2559-.2949-.581-.6724-1.0972-.6426-.688,.0234-1.0508,.5035-1.3154,.8541-.1396,.1856-.2334,.3018-.3193,.3589-.0254-.187-.02-.4966-.0161-.7007,.0117-.6705,.0229-1.3038-.459-1.5792-.2856-.1621-.6279-.1231-1.02,.1187-.9482,.584-.9521,1.4288-.9546,1.9337-.001,.1123-.0107,.2525,.0444,.2578-.0122,.0029-.0425,.0083-.0996,.0083-.0513,.0088-.1245-.0273-.1514-.0649-.187-.2637-.1816-1.1016,.1909-2.1935,.2515-.7359,.4585-1.0977,.772-1.6446l.1255-.2188c.375-.6582,.4853-1.3468,.3027-1.8893-.1304-.3872-.3984-.6773-.7749-.8379-.8765-.3736-2.1421,.0347-2.9585,.4991C1.1955,1.2178,.5588,1.9839,.4562,2.7472c-.1645,1.2242,.4492,2.0822,.9907,2.8395,.3247,.4536,.6323,.8838,.7119,1.3263-.145,.0674-.6123,.1675-1.5552-.0322-.2671-.0542-.5352,.1157-.5928,.3858-.0571,.27,.1157,.5357,.3857,.5928,.6748,.1441,1.896,.3037,2.4819-.2359,.2187-.2007,.3193-.4712,.2832-.7618-.0884-.7198-.5019-1.2979-.9014-1.8571-.4756-.6646-.9248-1.2926-.813-2.1247,.0586-.4375,.5376-.961,1.2495-1.3658,.7764-.4409,1.6474-.6304,2.0718-.4483,.1128,.0483,.1807,.1211,.2197,.2373,.0889,.2642,.0034,.6763-.2241,1.0753l-.1235,.2158c-.3301,.5762-.5688,.9923-.8511,1.819-.2207,.646-.668,2.2409-.0591,3.0964,.2212,.3111,.5605,.4834,.9556,.4854h.0098c.5586,0,.8125-.2647,.9277-.4878,.1255-.2432,.1265-.5127,.1279-.7735,.002-.4742,.0249-.7847,.4297-1.0552,.0107,.1719,.0068,.3999,.0039,.5591-.0107,.6084-.021,1.1832,.3159,1.5265,.1514,.1538,.3486,.2354,.5708,.2354,.6435,0,.9922-.4619,1.2471-.7994,.2363-.313,.3599-.4507,.5532-.4576,.0586,.0142,.2134,.1924,.3057,.2988,.1077,.1242,.2446,.2658,.3992,.4047-1.5196,.7233-2.577,2.2617-2.577,4.0539,0,2.4816,2.0186,4.5,4.5,4.5s4.5-2.0184,4.5-4.5c0-1.4211-.6779-2.6754-1.7097-3.5008Z" fill="#464646"/>
  <path d="M8,11.5c0-1.9298,1.5675-3.5005,3.4971-3.5005,.7845,0,1.5019,.2689,2.0863,.7067l-4.8796,4.88c-.4377-.5844-.7038-1.3015-.7038-2.0861Z" fill="#fff"/>
  <path d="M11.5,15c-.7845,0-1.5048-.269-2.0892-.7068l4.8796-4.88c.4377,.5844,.7067,1.3018,.7067,2.0864,0,1.9298-1.5674,3.5003-3.4971,3.5003Z" fill="#fff"/>
</svg>