<?xml version="1.0" encoding="UTF-8"?>
<svg id="Layer_1" data-name="Layer 1" xmlns="http://www.w3.org/2000/svg" viewBox="0 0 16 16">
  <polygon points="11.707 16 4.293 16 0 11.707 0 4.293 4.293 0 11.707 0 16 4.293 16 11.707 11.707 16" class="aw-theme-iconOutline" fill="#464646"/>
  <polygon points="4.707 15 11.293 15 15 11.293 15 4.707 11.293 1 4.707 1 1 4.707 1 11.293 4.707 15" fill="#fa142d"/>
  <path d="M11.3754,3.1617c-.0128,0-.0256,.0002-.0385,.0007-.2787,.0107-.5402,.1373-.7215,.3492l-4.4172,5.1639-2.2107-1.2182c-.1522-.0839-.318-.1242-.4821-.1242-.2996,0-.5935,.1346-.7888,.3847l-.5049,.6468c-.3144,.4027-.2747,.9775,.092,1.3332l3.9781,3.8583c.1877,.182,.4379,.2822,.6962,.2822,.0403,0,.0807-.0024,.1212-.0074,.3-.0366,.5673-.207,.7273-.4634L12.8485,5.3167c.2461-.3945,.1878-.9066-.1407-1.2357l-.6247-.6258c-.1879-.1883-.4427-.2935-.7077-.2935h0Z" fill="#464646"/>
  <polyline points="11.3753 4.1617 12 4.7875 7 12.8383 3 8.9799 3.5049 8.3332 6.4288 10 11.3753 4.1617" fill="#fff"/>
</svg>