<?xml version="1.0" encoding="UTF-8"?>
<svg id="Layer_1" data-name="Layer 1" xmlns="http://www.w3.org/2000/svg" viewBox="0 0 16 16">
  <path d="M5,7c-1.6616,0-3-2.1196-3-3.875C2,1.4019,3.3457,0,5,0s3,1.4019,3,3.125c0,1.7554-1.3384,3.875-3,3.875Z" fill="#464646"/>
  <path d="M5,1c-1.103,0-2,.9531-2,2.125,0,1.2554,.9697,2.875,2,2.875s2-1.6196,2-2.875c0-1.1719-.897-2.125-2-2.125Z" fill="#dcdcdc"/>
  <path d="M10.4995,5c-2.0613,0-3.8593,1.142-4.8008,2.8253-.2003,.0298-.4233,.0497-.6987,.0497-1.2056,0-1.5869-.3027-2.1143-.7212-.1299-.103-.2627-.2085-.4097-.312l-.2417-.1709-.2661,.1299c-1.1958,.583-1.9683,1.8633-1.9683,3.2617v4.9375H7.3473c.8937,.628,1.9795,1,3.1522,1,3.0332,0,5.5005-2.4668,5.5005-5.499s-2.4673-5.501-5.5005-5.501Z" fill="#464646"/>
  <path d="M1,10.0625c0-.8975,.4521-1.752,1.1499-2.2158,.0386,.0303,.0762,.0605,.1138,.0903,.5811,.4609,1.1821,.938,2.7363,.938,.0887,0,.1664-.0056,.2481-.0091-.1612,.5168-.2481,1.0659-.2481,1.6351,0,1.3281,.4734,2.5476,1.2603,3.499H1v-3.9375Z" fill="#dcdcdc"/>
  <path d="M10.4995,15c-2.481,0-4.4995-2.0181-4.4995-4.499s2.0186-4.501,4.4995-4.501,4.5005,2.019,4.5005,4.501-2.019,4.499-4.5005,4.499Z" fill="#fff"/>
  <path d="M13.8535,10.147l-1.5-1.5c-.1953-.1953-.5117-.1953-.707,0s-.1953,.5117,0,.707l.6436,.6436-3.5825,.0024,.646-.646c.1953-.1953,.1953-.5117,0-.707s-.5117-.1953-.707,0l-1.5,1.5c-.1953,.1953-.1953,.5117,0,.707l1.5,1.5c.0977,.0977,.2256,.1465,.3535,.1465s.2559-.0488,.3535-.1465c.1953-.1953,.1953-.5117,0-.707l-.647-.647,3.5894-.0024-.6494,.6494c-.1953,.1953-.1953,.5117,0,.707,.0977,.0977,.2256,.1465,.3535,.1465s.2559-.0488,.3535-.1465l1.5-1.5c.1953-.1953,.1953-.5117,0-.707Z" fill="#464646"/>
</svg>