<?xml version="1.0" encoding="UTF-8"?>
<svg id="Layer_1" data-name="Layer 1" xmlns="http://www.w3.org/2000/svg" viewBox="0 0 16 16">
  <path d="M15.8278,6.8408c.1083-.4301,.1722-.8776,.1722-1.3408,0-3.0327-2.4673-5.5-5.5-5.5-.8598,0-1.6915,.2177-2.4814,.6256l-.0186-.0109-.0186,.0109c-.7899-.408-1.6216-.6256-2.4814-.6256C2.4673,0,0,2.4673,0,5.5s2.4673,5.5,5.5,5.5c.0745,0,.1476-.0108,.2217-.014l-.9752,.8495c-.0176,.0153-.0347,.0312-.0511,.0478-.4484,.4496-.6954,1.0527-.6954,1.6984,0,.6464,.2512,1.2538,.7074,1.7101,.4568,.4568,1.0642,.7083,1.7104,.7083s1.2558-.2542,1.7167-.7157c.0161-.0161,.0316-.0327,.0465-.0499l3.5493-4.0751c.2583,.034,.5172,.0518,.7634,.0518,1.018,0,1.8535-.2974,2.4163-.8599,.8204-.8207,1.2144-1.9967,1.0541-3.1461-.0185-.1328-.0707-.2529-.1364-.3644Z" fill="#464646"/>
  <path d="M14.9738,7.3432l-1.1496,1.1494c-.0311,.0312-.0709,.0526-.1139,.0615l-1.22,.2526c-.0154,.0033-.0309,.0049-.0463,.0049-.0591,0-.1167-.0236-.1595-.0663l-1.0302-1.03c-.0538-.0538-.077-.1312-.0616-.2057l.2528-1.22c.009-.0432,.0305-.0828,.0616-.1139l1.1492-1.1493c-.1248-.0174-.251-.0261-.3769-.0261-.7268,0-1.4099,.2829-1.9234,.7966-.7827,.7823-.5491,2.2845-.459,2.7263,.0164,.0798-.0115,.1623-.0728,.2157l-4.4207,3.8509c-.2562,.2568-.4034,.6129-.4034,.9921s.1472,.7357,.4146,1.0031c.2678,.2678,.6241,.4153,1.0032,.4153,.3788,0,.7372-.15,1.0092-.4224l3.8339-4.4019c.0433-.0501,.1063-.0774,.171-.0774,.015,0,.0302,.0015,.0451,.0045,.3424,.0709,.6942,.1083,1.0167,.1083,.7471,0,1.3381-.196,1.7092-.5671,.6063-.6064,.8884-1.4567,.7708-2.3008ZM6.8537,13.8535l-.0004,.0004c-.1954,.195-.5118,.195-.7072-.0004-.1949-.1953-.1949-.5114-.0001-.7067v-.0002c.1954-.1953,.5122-.1953,.7076-.0002,.1951,.1952,.1951,.5118,0,.7071Z" fill="#dcdcdc"/>
  <path d="M7.8675,9.1168l.9744-.8488c-.1105-.8636-.1094-2.2625,.8068-3.1783,.0924-.0924,.1986-.1642,.2986-.2455-.1826-1.2431-.8752-2.3451-1.9473-3.0614-1.2578,.8403-2,2.2095-2,3.7173,0,1.452,.6934,2.7704,1.8675,3.6168Z" fill="#dcdcdc"/>
  <path d="M15,5.5c0,.2928-.0328,.5778-.0864,.8551-.2391,.0148-.4713,.1055-.6468,.2809l-.986,.9857-.5846,.121-.4396-.4395,.121-.5842,.9857-.9858c.2682-.2682,.3616-.6651,.2411-1.0248-.1205-.3596-.4341-.6202-.8098-.6727-.1699-.0237-.3433-.0358-.5153-.0358-.4957,0-.9763,.0966-1.4209,.2802-.0637-.2731-.155-.5375-.2594-.7965-.0179-.0443-.0354-.088-.0544-.1318-.2284-.5268-.5386-1.0153-.92-1.4498-.0161-.0184-.0317-.0369-.0481-.0551-.1825-.2025-.3747-.397-.5872-.5721,.4897-.1826,.9956-.2749,1.5107-.2749,2.4814,0,4.5,2.0186,4.5,4.5Z" fill="#fff"/>
  <path d="M5.5,10c-2.4814,0-4.5-2.0186-4.5-4.5S3.0186,1,5.5,1c.5151,0,1.021,.0923,1.5107,.2749-.1068,.088-.2045,.1847-.3039,.2798-.0392,.0376-.082,.0718-.1201,.1105-.1562,.1587-.3023,.3259-.4377,.501-.0312,.0405-.0575,.0842-.0876,.1255-.1004,.1377-.1964,.2779-.2836,.4238-.0396,.0663-.0742,.135-.111,.2029-.069,.1273-.1343,.2559-.193,.3882-.0338,.0761-.0649,.1529-.0952,.2305-.0513,.1313-.0967,.2645-.1378,.3996-.024,.0792-.0485,.1579-.069,.2383-.0372,.1462-.0655,.2944-.0904,.4438-.0118,.0705-.0273,.1398-.0363,.2109-.028,.2212-.0453,.4444-.0453,.67s.0173,.4488,.0453,.67c.009,.071,.0245,.1403,.0363,.2108,.025,.1495,.0532,.2979,.0905,.4441,.0204,.0803,.0448,.1588,.0688,.2379,.0411,.1353,.0865,.2684,.1379,.3999,.0303,.0776,.0614,.1544,.0952,.2305,.0587,.1323,.124,.2609,.193,.3882,.0368,.0679,.0714,.1366,.111,.2029,.0872,.1459,.1832,.2861,.2836,.4238,.0301,.0413,.0563,.0851,.0876,.1255,.1354,.1752,.2816,.3425,.4379,.5013,.0376,.0382,.0797,.0719,.1185,.1091,.0997,.0956,.198,.1927,.3052,.2811-.4897,.1826-.9956,.2749-1.5107,.2749Z" fill="#fff"/>
</svg>