<?xml version="1.0" encoding="UTF-8"?>
<svg id="Layer_1" data-name="Layer 1" xmlns="http://www.w3.org/2000/svg" viewBox="0 0 16 16">
  <path d="M15.8535,2.1465c-.1953-.1953-.5117-.1953-.707,0l-1.1465,1.1465v-.793c0-1.3784-1.1216-2.5-2.5-2.5h-3.5V1h3.5c.8271,0,1.5,.6729,1.5,1.5v.793l-1.1465-1.1465c-.1953-.1953-.5117-.1953-.707,0s-.1953,.5117,0,.707l2,2c.0977,.0977,.2256,.1465,.3535,.1465s.2559-.0488,.3535-.1465l2-2c.1953-.1953,.1953-.5117,0-.707Z" fill="#464646"/>
  <path d="M14.7236,11.5527l-2.8733-1.4366c1.3236-.6364,2.1497-1.5637,2.1497-2.6161,0-1.9624-2.855-3.5-6.5-3.5S1,5.5376,1,7.5c0,1.0524,.826,1.9797,2.1497,2.6161L.2764,11.5527c-.1694,.085-.2764,.2578-.2764,.4473s.1069,.3623,.2764,.4473l7,3.5c.0703,.0352,.147,.0527,.2236,.0527s.1533-.0176,.2236-.0527l7-3.5c.1694-.085,.2764-.2578,.2764-.4473s-.1069-.3623-.2764-.4473Z" fill="#464646"/>
  <path d="M7.5,11c-1.1195,0-2.1632-.1461-3.0739-.404l-2.808,1.404,5.8818,2.9409,5.8818-2.9409-2.808-1.404c-.9106,.2579-1.9543,.404-3.0739,.404Z" fill="#dbdbdb"/>
  <ellipse cx="7.5" cy="7.5" rx="5.5" ry="2.5" fill="#969696"/>
</svg>