<?xml version="1.0" encoding="UTF-8"?>
<svg id="Layer_1" data-name="Layer 1" xmlns="http://www.w3.org/2000/svg" viewBox="0 0 16 16">
  <path d="M11,0V1h3.293l-2.4226,2.4226c-1.0458-.8856-2.3958-1.4226-3.8704-1.4226-3.3086,0-6,2.6914-6,6,0,1.4746,.537,2.8246,1.4226,3.8704l-2.4226,2.4226v-3.293H0v5H5v-1H1.707l2.4226-2.4226c1.0458,.8856,2.3958,1.4226,3.8704,1.4226,3.3086,0,6-2.6914,6-6,0-1.4746-.537-2.8246-1.4226-3.8704l2.4226-2.4226v3.293h1V0h-5Z" fill="#464646"/>
  <path d="M13,8c0,2.7568-2.2432,5-5,5-1.1981,0-2.2844-.4411-3.1465-1.1465l2.5-2.5c.1953-.1953,.1953-.5117,0-.707s-.5117-.1953-.707,0l-2.5,2.5c-.7054-.8621-1.1465-1.9484-1.1465-3.1465,0-2.7568,2.2432-5,5-5,1.1981,0,2.2844,.4411,3.1465,1.1465l-2.5,2.5c-.1953,.1953-.1953,.5117,0,.707,.0977,.0977,.2256,.1465,.3535,.1465s.2559-.0488,.3535-.1465l2.5-2.5c.7054,.8621,1.1465,1.9484,1.1465,3.1465Z" fill="#fff"/>
</svg>