<?xml version="1.0" encoding="UTF-8"?>
<svg id="Layer_1" data-name="Layer 1" xmlns="http://www.w3.org/2000/svg" viewBox="0 0 16 16">
  <path d="m3.7026,16h-1.2026c-.8271,0-1.5-.6705-1.5-1.4948,0-.2998.0889-.5792.2422-.8131-.4487-.316-.7422-.8365-.7422-1.4245,0-.3755.1196-.7237.3232-1.0084C.3291,10.9511,0,10.4037,0,9.7815,0,9.2951.2007,8.8547.5244,8.5382.2007,8.2218,0,7.7813,0,7.2949,0,6.3339.7852,5.5516,1.75,5.5516h3.9287c-1.5142-3.1117-1.1025-4.8062-.1504-5.3624.7017-.4092,1.623-.1338,2.0977.6275.188.316.3618.6173.5308.9107,1.2778,2.22,2.2017,3.8242,4.8433,3.8242h1.5c.1587,0,.3081.0752.4023.2031.0444.0606,1.0977,1.5217,1.0977,4.6216,0,3.056-.8643,3.5492-1.2358,3.6195l-1.9126.0088c-.6772,0-1.4292.3565-1.9272.5919-.1475.0703-.2749.1304-.376.1709-2.1475.8688-3.0737,1.1774-5.0342,1.2326h-1.8115Z"  class="aw-theme-iconOutline" fill="#464646"/>
  <path d="m2.5,14.0111c-.2759,0-.5.2217-.5.4942,0,.273.2241.4947.5.4947h3c1.8467-.0518,2.6436-.3384,4.6733-1.1593.0864-.0352.1958-.0874.3232-.1475.5781-.2744,1.4526-.6885,2.355-.6885h1.6763c.1196-.1387.4722-.71.4722-2.6282,0-2.1179-.5356-3.3631-.7822-3.8246h-1.2178c-3.2197,0-4.374-2.0041-5.71-4.3251-.1665-.2891-.3379-.5865-.5181-.8892-.1807-.291-.5088-.418-.7393-.2847-.5156.3013-.6992,1.8171.9062,4.7592.0845.1553.0811.3433-.0088.4952-.0903.1514-.2539.2447-.4302.2447H1.75c-.4136,0-.75.3335-.75.7432s.3364.7432.75.7432h1.75c.2764,0,.5.2237.5.5s-.2236.5-.5.5h-1.75c-.4136,0-.75.3335-.75.7432s.3364.7427.75.7427h1.7466c.2764,0,.5.2237.5.5s-.2236.5-.5.5h-1.2466c-.4136,0-.75.3335-.75.7432s.3364.7432.75.7432h1.25c.2764,0,.5.2237.5.5s-.2236.5-.5.5h-1Z" fill="#3caf82"/>
</svg>