<svg xmlns="http://www.w3.org/2000/svg" id="Layer_1" data-name="Layer 1" viewBox="0 0 16 16">
  <path d="M8,0a8,8,0,1,0,8,8A8,8,0,0,0,8,0Z" fill="#f58c14"/>
  <g>
    <polygon points="5.081 4.01 5.533 10.01 6.614 10.01 7.066 4.01 5.081 4.01" fill="#fff"/>
    <path d="M6.8,11.281A.963.963,0,0,0,6.079,11a.991.991,0,0,0-.719.279.952.952,0,0,0-.286.715.989.989,0,0,0,.283.712A.963.963,0,0,0,6.079,13a.957.957,0,0,0,.719-.285,1,1,0,0,0,.276-.721A.969.969,0,0,0,6.8,11.281Z" fill="#fff"/>
  </g>
  <g>
    <polygon points="8.934 4.01 9.386 10.01 10.467 10.01 10.919 4.01 8.934 4.01" fill="#fff"/>
    <path d="M10.648,11.281A.963.963,0,0,0,9.932,11a.991.991,0,0,0-.719.279.953.953,0,0,0-.287.715.99.99,0,0,0,.284.712,1.041,1.041,0,0,0,1.441.009,1,1,0,0,0,.275-.721A.968.968,0,0,0,10.648,11.281Z" fill="#fff"/>
  </g>
</svg>