<?xml version="1.0" encoding="UTF-8"?>
<svg id="Layer_1" data-name="Layer 1" xmlns="http://www.w3.org/2000/svg" viewBox="0 0 16 16">
  <path d="m15,9v-.5c0-1.7585-1.3083-3.2042-3-3.4495V1.04c0-.1885-.106-.3608-.2739-.4463-1.8433-.9321-3.6553-.5029-5.5059.0625-.0002,0-.0002.0002-.0004.0002l-.3658.1125c-1.6882.5223-3.2879,1.0027-4.854.3483V0H0v16h1v-5.7416c2.0268.6807,4.0498-.1582,6-.7234v4.4621c0,1.1045.8984,2.0029,2.0029,2.0029h4.9941c1.1045,0,2.0029-.8984,2.0029-2.0029v-4.9971h-1Z" class="aw-theme-iconOutline" fill="#464646"/>
  <path d="m5.8667,8.8315l-.0098.0029c-1.6895.5229-3.291,1.0181-4.8569.3643v-2.9663c.0701.0229.1396.0342.2096.0536,1.3546.395,2.7796.1109,4.1035-.2751.1851-.054.3697-.1096.5536-.1661v2.9868Z" fill="#ebf0f5"/>
  <path d="m5.8667,4.7983c-1.5565.478-3.2894,1.0403-4.8667.3524v-2.9519c1.6616.5415,3.2866.0981,4.8667-.3872v2.9868Z"/>
  <path d="m6.8667,1.5059c1.4673-.4321,2.812-.6982,4.1333-.146v2.9668c-1.3546-.439-2.7936-.2081-4.1333.1724V1.5059Z" fill="#ebf0f5"/>
  <path d="m6.8667,5.541c1.1313-.327,2.3401-.63,3.5093-.3392-1.3021.4457-2.2513,1.6291-2.3514,3.0552-.3851.0727-.7708.1664-1.1579.2752v-2.9913Z"/>
  <path d="m9,8.5c0-1.3784,1.1216-2.5,2.5-2.5s2.5,1.1216,2.5,2.5v.5h-1v-.5c0-.8271-.6729-1.5-1.5-1.5s-1.5.6729-1.5,1.5v.5h-1v-.5Z" fill="#f58c14"/>
  <path d="m15,13.9971c0,.5532-.4497,1.0029-1.0029,1.0029h-4.9941c-.5532,0-1.0029-.4497-1.0029-1.0029v-3.9971h7v3.9971Z" fill="#f58c14"/>
  <path d="m12.75,12.25c0-.6895-.5605-1.25-1.25-1.25s-1.25.5605-1.25,1.25c0,.5111.3098.9487.75,1.1423v.6077h1v-.6077c.4402-.1935.75-.6312.75-1.1423Z" fill="#464646"/>
  <path d="m11.5,12c.1377,0,.25.1123.25.25,0,.2754-.5.2754-.5,0,0-.1377.1123-.25.25-.25Z" fill="#ebf0f5"/>
  <path d="m12,9h-1v-.5c0-.2759.2241-.5.5-.5s.5.2241.5.5v.5Z" fill="#ebf0f5"/>
</svg>