<?xml version="1.0" encoding="UTF-8"?>
<svg id="Layer_1" data-name="Layer 1" xmlns="http://www.w3.org/2000/svg" viewBox="0 0 16 16">
  <path d="M15.4251,15c-.1392,0-.2955-.0503-.4488-.1845-.022-.019-.1201-.1123-.2828-.2685-2.3524-2.2544-4.5598-4.2603-6.5665-5.9665-1.6262,1.4513-3.126,3.0574-4.4616,4.7792-.4835,.661-1.0729,1.3854-1.8479,1.4675-.4376,.0449-.861-.1147-1.2678-.4779-1.0549-.9422-.358-2.5717,.1582-3.3015,1.3005-1.8121,2.851-3.4104,4.6179-4.7612-1.1281-.8841-2.3094-1.715-3.5186-2.4755-.2896-.1762-1.2663-.8372-1.4079-1.7862-.0488-.3285-.0122-.8265,.4405-1.3337C1.8185-.4014,3.3954,.0618,3.9209,.3338c1.823,.9729,3.483,2.1968,4.9436,3.6437,1.9764-1.1018,4.0802-1.9713,6.2593-2.5864,.3086-.0932,.6217,.0342,.7555,.3071,.1133,.2314,.0816,.5707-.2466,.8079-.2388,.1709-2.2963,1.6539-4.7376,3.676,1.992,2.4013,3.6788,5.0433,5.0189,7.8611l.001,.0029c.1538,.3276,.0957,.6581-.1475,.8406-.0864,.0654-.2066,.1133-.3423,.1133Z" fill="#464646"/>
  <path d="M2.4778,1.0006c-.3165,0-.6481,.084-.8922,.3569-.211,.2363-.2134,.4101-.1968,.5204,.0659,.4423,.6466,.9017,.9445,1.0828,1.4314,.8997,2.8178,1.8917,4.1271,2.9515l.5089,.412-.5313,.3822c-1.8982,1.3659-3.5523,3.0218-4.9153,4.9213-.0078,.0107-.9357,1.4142-.3067,1.9756,.2823,.2519,.4449,.2353,.4962,.2294,.3995-.042,.9289-.7659,1.1545-1.0745,1.4719-1.897,3.126-3.6481,4.9251-5.2157l.3233-.2817,.3277,.2763c1.7171,1.4479,3.5841,3.119,5.5658,4.9809-1.1906-2.1592-2.5981-4.1959-4.1994-6.0744l-.3272-.3832,.3863-.3241c1.2463-1.0442,2.4159-1.9644,3.3291-2.6635-1.4411,.5389-2.8364,1.1951-4.1691,1.9615l-.337,.1933-.271-.2783c-1.4538-1.4933-3.124-2.7484-4.9642-3.7306-.0039-.0015-.4713-.2182-.9782-.2182Z" fill="#fff"/>
  <path d="M15.4012,2.3514c-.002,.0005-.0039,.001-.0054,.0015,.0015-.0005,.0034-.001,.0054-.0015Z" fill="#464646"/>
</svg>