<?xml version="1.0" encoding="UTF-8"?>
<svg id="Layer_1" data-name="Layer 1" xmlns="http://www.w3.org/2000/svg" viewBox="0 0 16 16">
  <circle cx="6.5" cy="6.5" r="6.5" fill="#006487"/>
  <polyline points="2.5 6.5 5 9 10 4" fill="none" stroke="#fff" stroke-miterlimit="10" stroke-width="1.4"/>
  <path d="m14.4258,16h-7.8516c-.5483,0-1.0479-.2842-1.3364-.7603-.2988-.4932-.3184-1.0933-.0513-1.605.0024-.0049.0049-.0098.0078-.0142l3.7954-6.7407c.3091-.5508.874-.8799,1.5103-.8799s1.2012.3291,1.5107.8799l3.7949,6.7407c.2749.5259.2554,1.126-.0435,1.6191-.2886.4761-.7881.7603-1.3364.7603Z" fill="#464646"/>
  <path d="m6.0698,14.103c-.1001.1978-.0918.4282.0229.6182.0508.084.1997.2788.4814.2788h7.8516c.2817,0,.4307-.1948.4814-.2788.1162-.1919.1235-.4253.0195-.6245l-3.7876-6.7266c-.2607-.4639-1.0181-.4639-1.2778,0l-3.7915,6.7329Z" fill="#fadc5a"/>
  <rect x="10" y="9" width="1" height="3" class="aw-theme-iconOutline" fill="#464646"/>
  <rect x="10" y="13" width="1" height="1" class="aw-theme-iconOutline" fill="#464646"/>
</svg>