<?xml version="1.0" encoding="UTF-8"?>
<svg id="Layer_1" data-name="Layer 1" xmlns="http://www.w3.org/2000/svg" viewBox="0 0 16 16">
  <path d="M15.75,8.1499l-2.75-1.5878V1.5c0-.8271-.6729-1.5-1.5-1.5H1.5C.6729,0,0,.6729,0,1.5V11.5c0,.8271,.6729,1.5,1.5,1.5H7v.1865c0,.1787,.0952,.3433,.2495,.4326l4,2.3135c.0776,.0449,.1641,.0674,.2505,.0674s.1729-.0225,.2505-.0674l4-2.313c.1543-.0894,.2495-.2539,.2495-.4326v-4.604c0-.1787-.0952-.3438-.25-.4331Z" fill="#464646"/>
  <path d="M11.5,1H1.5c-.2759,0-.5,.2241-.5,.5v2.5H12V1.5c0-.2759-.2241-.5-.5-.5ZM3.4999,3c-.2761,0-.4999-.2239-.4999-.5001s.2239-.4999,.4999-.4999,.5001,.2238,.5001,.4999-.2239,.5001-.5001,.5001Zm6,0c-.2761,0-.4999-.2239-.4999-.5001s.2239-.4999,.4999-.4999,.5001,.2238,.5001,.4999-.2239,.5001-.5001,.5001Z" fill="#969696"/>
  <polygon points="11.4937 6.8472 14.5007 8.5833 11.5 10.3184 8.498 8.5822 11.4937 6.8472" fill="#969696"/>
  <polygon points="12 14.6332 12 11.1843 15 9.4496 15 12.8984 12 14.6332" fill="#969696"/>
  <polygon points="8 9.4492 11 11.1843 11 14.6332 8 12.8979 8 9.4492" fill="#969696"/>
  <path d="M12,5v.9847l-.2568-.1483c-.1543-.0889-.3462-.0894-.5005,.0005l-2.2427,1.299v-2.1359h3Z" fill="#dbdbdb"/>
  <polygon points="5 5 8 5 8 7.7152 7.5083 8 5 8 5 5" fill="#dbdbdb"/>
  <path d="M4,12H1.5c-.2759,0-.5-.2241-.5-.5v-2.5h3v3Z" fill="#dbdbdb"/>
  <rect x="1" y="5" width="3" height="3" fill="#dbdbdb"/>
  <rect x="5" y="9" width="2" height="3" fill="#dbdbdb"/>
</svg>