<?xml version="1.0" encoding="UTF-8"?>
<svg id="Layer_1" data-name="Layer 1" xmlns="http://www.w3.org/2000/svg" viewBox="0 0 16 16">
  <path d="m15.7256.7725c-2.4546-1.2417-4.8882-.6636-7.3721.0972-.0002,0-.0002.0002-.0004.0002l-.4982.1531c-2.3754.7355-4.6253,1.4111-6.855.4237V0H0v16h1v-2.4601c.7977.2932,1.5914.4142,2.3799.4142,1.6157,0,3.2095-.4927,4.7705-.9756l.4951-.1527s.0007,0,.001-.0001c2.3677-.7241,4.5005-1.2368,6.6279-.1606.1538.0776.3389.0703.4873-.0205.1479-.0908.2383-.252.2383-.4258V1.2188c0-.1885-.106-.3608-.2744-.4463Z" class="aw-theme-iconOutline" fill="#464646"/>
  <path d="m15,1.5347v4.4219c-.0376-.0138-.0752-.0209-.1128-.0339-1.8768-.6572-3.8938-.3233-5.7561.2182-.0438.0125-.0873.0233-.1311.0359V1.7188c2.1279-.6343,4.0703-1.0381,6-.1841Z" fill="#f0f0f0"/>
  <path d="m8,2.0249v4.4535l-.145.0446c-2.0908.6419-4.3899,1.3814-6.5306.556-.1082-.0402-.2162-.0844-.3243-.1323V2.5435c2.3799.8735,4.7231.1846,7-.5186Z" fill="#019ce0"/>
  <path d="m1,12.4648v-4.4214c.0085.0031.017.0043.0255.0074.2811.102.5616.1822.8416.2433,1.7443.3745,3.5217.0032,5.2054-.4894.3103-.0908.6196-.1847.9276-.2798v4.4536l-.145.0444c-2.3755.7358-4.6245,1.4287-6.855.4419Z" fill="#f0f0f0"/>
  <path d="m9,11.6768v-4.4554c.084-.0251.168-.0499.2514-.0742,1.7532-.5129,3.6807-.9175,5.4393-.2248.1032.0386.2062.0829.3093.1286v4.4056c-1.9956-.7319-3.9824-.3628-6,.2202Z" fill="#019ce0"/>
</svg>