<?xml version="1.0" encoding="UTF-8"?>
<svg id="Layer_1" data-name="Layer 1" xmlns="http://www.w3.org/2000/svg" viewBox="0 0 16 16">
  <path d="M13.1304,4h-2.1304v-1.1304c0-1.5825-1.2871-2.8696-2.8696-2.8696H2.8696C1.2871,0,0,1.2871,0,2.8696v3.2061c0,1.6123,1.312,2.9243,2.9243,2.9243h.0757v3.0005l2.0398-1.5314c.1945,1.4251,1.4069,2.5309,2.8845,2.5309h1.3945l3.6812,3v-3h.1304c1.5825,0,2.8696-1.2871,2.8696-2.8696v-3.2607c0-1.5825-1.2871-2.8696-2.8696-2.8696Z" fill="#464646"/>
  <path d="M3.4077,3.9912c-.2715-.0508-.4502-.312-.3989-.5835,.0508-.271,.3091-.4507,.5835-.3989,1.139,.2134,2.2091,.6259,3.2078,1.2042,.3328-.1349,.6948-.213,1.0754-.213h2.1245v-1.1304c0-1.0308-.8389-1.8696-1.8696-1.8696H2.8696c-1.0308,0-1.8696,.8389-1.8696,1.8696v3.2061c0,1.061,.8633,1.9243,1.9243,1.9243h1.0757v1.9995l1-.7511v-2.3729c0-.7955,.3253-1.5161,.8491-2.0372-.7727-.3933-1.585-.6865-2.4414-.8471Z" fill="#dcdcdc"/>
  <path d="M15,10.1304c0,1.0308-.8389,1.8696-1.8696,1.8696h-1.1304v1.9326l-2.3188-1.9326h-1.7568c-1.061,0-1.9243-.8633-1.9243-1.9243v-3.2002c0-.6152,.3018-1.1573,.7606-1.4995,1.3093,.8678,2.4722,2.0782,3.4435,3.624h-1.7042c-.2764,0-.5,.2236-.5,.5s.2236,.5,.5,.5h3.5v-3.5c0-.2764-.2236-.5-.5-.5s-.5,.2236-.5,.5v1.8879c-.8765-1.378-1.9009-2.5068-3.0413-3.3879h5.1717c1.0308,0,1.8696,.8389,1.8696,1.8696v3.2607Z" fill="#fff"/>
</svg>