<svg id="Layer_1" data-name="Layer 1" xmlns="http://www.w3.org/2000/svg" viewBox="0 0 16 16">
  <path d="m7.3096,12.8518c-1.7321,0-3.2897-1.0054-4.0356-2.5197l1.5435.4142.2588-.9668-3.2148-.8613-.8613,3.2158.9658.2578.4269-1.5934c.9171,1.8353,2.811,3.0534,4.9169,3.0534.4053,0,.8281-.0547,1.2925-.167l-.2354-.9727c-.3862.0938-.7319.1396-1.0571.1396Z" fill="#55a0b9"/>
  <path d="m1.8613,8.9182l3.2148.8613-.2588.9668-1.5435-.4142c.7459,1.5143,2.3036,2.5197,4.0356,2.5197.3252,0,.6709-.0459,1.0571-.1396l.2354.9726c-.4644.1123-.8872.167-1.2925.167-2.1058,0-3.9998-1.2181-4.9169-3.0534l-.4269,1.5934-.9658-.2578.8613-3.2158m0-1c-.1741,0-.3467.0454-.5001.134-.2297.1326-.3973.3511-.4659.6073L.034,11.8753c-.0687.2563-.0326.5294.1002.7592.1328.2297.3515.3973.6079.4657l.9658.2578c.0864.0231.1732.0341.2585.0341.3185,0,.6175-.1533.8044-.4065,1.2001,1.1706,2.8315,1.8662,4.5388,1.8662.4853,0,.985-.0638,1.5276-.195.2578-.0624.4803-.2246.6185-.451.1382-.2264.1808-.4984.1184-.7562l-.2354-.9726c-.0624-.2579-.2247-.4804-.4513-.6186-.1581-.0964-.3385-.1462-.5207-.1462-.0788,0-.158.0093-.2359.0282-.3089.075-.5775.1114-.8212.1114-.6128,0-1.2066-.166-1.7257-.4631.0928-.1108.1615-.2414.1996-.3838l.2588-.9668c.1428-.5334-.1738-1.0816-.7072-1.2245l-3.2148-.8613c-.0851-.0228-.1721-.0341-.2588-.0341h0Z" class="aw-theme-iconOutline" fill="#464646"/>
  <path d="m6.4561,1.7053l1.1638,1.1638c-.1035-.0058-.2065-.0173-.3102-.0173-2.5127,0-4.6992,1.709-5.3174,4.1572l.9697.2441c.5054-2.0029,2.2935-3.4014,4.3477-3.4014.089,0,.175.0242.2636.0294l-1.1171,1.1171.707.707,2.3535-2.3535L7.1631.9982l-.707.707Z" fill="#55a0b9"/>
  <path d="m7.1631.9982l2.3535,2.3535-2.3535,2.3535-.707-.707,1.1171-1.1171c-.0886-.0052-.1746-.0294-.2636-.0294-2.0542,0-3.8423,1.3984-4.3477,3.4014l-.9697-.2441c.6182-2.4482,2.8047-4.1572,5.3174-4.1572.1038,0,.2068.0115.3102.0173l-1.1638-1.1638.707-.707M7.1631-.0018c-.2559,0-.5118.0976-.7071.2929l-.707.707c-.2975.2975-.3683.7358-.2126,1.1004-2.184.6219-3.9338,2.3687-4.5137,4.6656-.065.2573-.025.5298.1111.7576.1361.2278.3571.3922.6144.457l.9697.2441c.0819.0206.1641.0305.2449.0305.4473,0,.8545-.3022.9689-.7556.2333-.9248.8177-1.6841,1.5879-2.1485.0486.1298.1251.2516.2295.356l.707.707c.1953.1953.4512.2929.7071.2929s.5118-.0976.7071-.2929l2.3535-2.3535c.1875-.1875.2929-.4419.2929-.7071s-.1054-.5196-.2929-.7071L7.8702.2911C7.6749.0959,7.419-.0018,7.1631-.0018h0Z" class="aw-theme-iconOutline" fill="#464646"/>
  <path d="m13.4658,10.9367l-1.5535.4168c.5831-.8854.8973-1.9208.8973-3.0018,0-1.4678-.5713-2.8477-1.6084-3.8857l-.707.707c.8481.8496,1.3154,1.9785,1.3154,3.1787,0,.9061-.2755,1.7708-.7761,2.506l-.4197-1.5666-.9658.2578.8613,3.2158,3.2153-.8613-.2588-.9668Z" fill="#55a0b9"/>
  <path d="m11.2012,4.466c1.0371,1.0381,1.6084,2.418,1.6084,3.8857,0,1.0809-.3142,2.1164-.8973,3.0018l1.5535-.4168.2588.9668-3.2153.8613-.8613-3.2158.9658-.2578.4197,1.5666c.5006-.7353.7761-1.5999.7761-2.506,0-1.2002-.4673-2.3291-1.3154-3.1787l.707-.707m.0002-1c-.2653,0-.5197.1053-.7073.2929l-.707.707c-.3903.3903-.3906,1.023-.0006,1.4136.65.6511,1.0123,1.5129,1.0229,2.4307-.0636-.0127-.1288-.0193-.1949-.0193-.0854,0-.1721.011-.2585.0341l-.9658.2578c-.2564.0684-.4751.236-.6079.4657-.1328.2297-.1688.5028-.1002.7592l.8613,3.2158c.0686.2562.2362.4746.4659.6073.1534.0886.326.134.5001.134.0866,0,.1736-.0113.2587-.0341l3.2153-.8613c.5334-.1429.85-.6911.7072-1.2245l-.2588-.9668c-.0686-.2563-.2362-.4748-.466-.6075-.1105-.0638-.231-.1052-.3548-.1234.1314-.5176.1986-1.0528.1986-1.5956,0-1.7345-.6751-3.3655-1.901-4.5925-.1875-.1877-.4419-.2932-.7072-.2932h0Z" class="aw-theme-iconOutline" fill="#464646"/>
  <path d="m11.4994,15.5c-2.2052,0-3.9994-1.7942-3.9994-3.9994s1.7942-4.0006,3.9994-4.0006,4.0006,1.7948,4.0006,4.0006-1.7948,3.9994-4.0006,3.9994Z" fill="#fa142d"/>
  <path d="m11.499,16c-2.4805,0-4.499-2.0186-4.499-4.499s2.0186-4.501,4.499-4.501,4.501,2.0195,4.501,4.501-2.0195,4.499-4.501,4.499Zm0-8c-1.9297,0-3.499,1.5703-3.499,3.501,0,1.9297,1.5693,3.499,3.499,3.499,1.9307,0,3.501-1.5693,3.501-3.499,0-1.9307-1.5703-3.501-3.501-3.501Z" class="aw-theme-iconOutline" fill="#464646"/>
  <polygon points="13.6211 10.0859 12.9141 9.3789 11.5 10.793 10.0859 9.3789 9.3789 10.0859 10.793 11.5 9.3789 12.9141 10.0859 13.6211 11.5 12.207 12.9141 13.6211 13.6211 12.9141 12.207 11.5 13.6211 10.0859" fill="#fff"/>
</svg>