<?xml version="1.0" encoding="UTF-8"?>
<svg id="Layer_1" data-name="Layer 1" xmlns="http://www.w3.org/2000/svg" viewBox="0 0 16 16">
  <g>
    <circle cx="8" cy="8" r="8" class="aw-theme-iconOutline" fill="#464646"/>
    <circle cx="8" cy="8" r="7" fill="#a1a1a1"/>
  </g>
  <path d="M10.0156,8l2.5645-2.5645c.293-.2925,.293-.7686,0-1.061l-.9541-.9556c-.293-.291-.7705-.292-1.0615,.001l-2.5645,2.5645-2.5645-2.5645c-.291-.293-.7686-.293-1.0615,0l-.9541,.9546c-.293,.2925-.293,.7686,0,1.061l2.5645,2.5645-2.5645,2.5645c-.293,.2925-.293,.7686,0,1.061l.9541,.9546v.001c.1465,.1455,.3389,.2183,.5312,.2183s.3848-.0728,.5303-.2192l2.5645-2.5645,2.5645,2.5645c.1455,.1465,.3379,.2192,.5303,.2192s.3848-.0728,.5312-.2192l.9541-.9546c.293-.2925,.293-.7686,0-1.061l-2.5645-2.5645Z" fill="#464646"/>
  <polygon points="11.9149 4.8808 11.1192 4.0851 8 7.2043 4.8808 4.0851 4.0851 4.8808 7.2043 7.9999 4.0851 11.1191 4.8808 11.9149 8 8.7957 11.1192 11.9149 11.9149 11.1191 8.7957 7.9999 11.9149 4.8808" fill="#fff"/>
</svg>