<svg id="Layer_1" data-name="Layer 1" xmlns="http://www.w3.org/2000/svg" viewBox="0 0 16 16">
  <rect x=".5" y=".5" width="15" height="15" rx="2" ry="2" fill="#fff"/>
  <path d="m13.5,16H2.5c-1.3784,0-2.5-1.1211-2.5-2.5V2.5C0,1.1216,1.1216,0,2.5,0h11c1.3789,0,2.5,1.1216,2.5,2.5v11c0,1.3789-1.1211,2.5-2.5,2.5ZM2.5,1c-.8271,0-1.5.6729-1.5,1.5v11c0,.8271.6729,1.5,1.5,1.5h11c.8271,0,1.5-.6729,1.5-1.5V2.5c0-.8271-.6729-1.5-1.5-1.5H2.5Z" class="aw-theme-iconOutline" fill="#464646"/>
  <path d="m4.418,13.5c-.5132,0-.9951-.1992-1.3569-.5615-.3618-.3613-.561-.8438-.561-1.3574,0-.5049.2002-.9951.5493-1.3457l4.3276-3.771c-.126-.7188-.2393-2.1572.6255-3.0215.6074-.6084,1.4165-.9434,2.2769-.9434.1494,0,.2988.0103.4463.0312.1885.0264.3447.1567.4053.3364.0596.1797.0127.3784-.1211.5122l-1.0918,1.0908-.2061.9956.8262.8252.9902-.21,1.0918-1.0918c.0957-.0952.2227-.1465.3535-.1465.0527,0,.1064.0083.1592.0259.1797.0601.3096.2168.3359.4048.1396.9951-.2012,2.0132-.9121,2.7236-.4668.4668-1.1807.7139-2.0635.7139-.3057,0-.6338-.0303-.959-.0884l-3.7305,4.2827c-.3896.3926-.8735.5947-1.3857.5947Z" fill="#dcdcdc"/>
  <path d="m10.2792,2.9995c.1259,0,.2521.0087.3769.0262l-1.1492,1.1493c-.0311.0311-.0525.0708-.0616.1139l-.2528,1.22c-.0155.0746.0077.152.0616.2058l1.0302,1.03c.0427.0427.1004.0664.1595.0664.0154,0,.0309-.0016.0463-.0049l1.22-.2526c.0431-.0089.0828-.0303.1139-.0615l1.1496-1.1494c.1177.8441-.1645,1.6944-.7708,2.3009-.3711.371-.9621.5671-1.7093.5671-.3226,0-.6743-.0374-1.0167-.1083-.015-.003-.0301-.0045-.0451-.0045-.0648,0-.1277.0273-.171.0774l-3.8339,4.402c-.272.2723-.6303.4224-1.0092.4224-.3791,0-.7354-.1475-1.0032-.4153-.2674-.2675-.4146-.6237-.4146-1.0031s.1473-.7354.4034-.9922l4.4207-3.851c.0614-.0534.0892-.1359.0728-.2157-.0901-.4418-.3236-1.944.459-2.7263.5135-.5137,1.1966-.7967,1.9234-.7967m0-1c-.994,0-1.9283.387-2.6307,1.0897-.9162.9158-.9173,2.3147-.8067,3.1783l-4.0954,3.5676c-.0176.0153-.0347.0313-.0512.0478-.4484.4496-.6954,1.0527-.6954,1.6984,0,.6464.2512,1.2538.7074,1.7101.4567.4568,1.0642.7083,1.7105.7083s1.2558-.2542,1.7167-.7157c.0161-.0161.0316-.0328.0466-.0499l3.5493-4.0753c.2583.034.5172.0518.7633.0518,1.0181,0,1.8536-.2973,2.4163-.8599.8204-.8207,1.2144-1.9967,1.0542-3.1461-.0524-.3757-.3128-.6895-.6725-.8101-.1041-.0349-.2114-.0519-.3177-.0519-.261,0-.5166.1023-.7072.2928l-.986.9857-.5845.121-.4396-.4396.1211-.5842.9857-.9858c.2682-.2682.3616-.6651.241-1.0248-.1205-.3597-.4341-.6202-.8098-.6727-.1699-.0237-.3433-.0358-.5153-.0358h0Z" class="aw-theme-iconOutline" fill="#464646"/>
  <path d="m4.1461,11.1464l-.0002.0002c-.1947.1953-.1947.5115.0002.7067.1953.1953.5117.1953.7072.0004l.0003-.0004c.1951-.1953.1951-.5119,0-.7071-.1954-.1952-.5122-.1952-.7075.0002Z" class="aw-theme-iconOutline" fill="#464646"/>
</svg>