<?xml version="1.0" encoding="UTF-8"?>
<svg xmlns="http://www.w3.org/2000/svg" viewBox="0 0 16 16">
  <g isolation="isolate">
    <g id="Layer_1" data-name="Layer 1">
      <rect x="0" width="16" height="16" rx="3.5" ry="3.5" fill="#464646" mix-blend-mode="hue"/>
      <path d="m12.5,1c.5088,0,.9813.1545,1.3765.4164l-2.73,2.73c-.8621-.7054-1.9484-1.1465-3.1465-1.1465s-2.2844.4411-3.1465,1.1465L2.1235,1.4164c.3952-.262.8677-.4164,1.3765-.4164h9Z" fill="#fff"/>
      <path d="m7.293,8l-2.4398,2.4398c-.5266-.6774-.8531-1.5173-.8531-2.4398s.3265-1.7624.8531-2.4398l2.4398,2.4398Z" fill="#dcdcdc"/>
      <path d="m5.5601,4.8531c.6774-.5266,1.5173-.8531,2.4399-.8531s1.7625.3265,2.4399.8531l-2.4399,2.4399-2.4399-2.4399Z" fill="#dcdcdc"/>
      <path d="m8,8.707l2.4399,2.4399c-.6774.5266-1.5173.8531-2.4399.8531s-1.7625-.3265-2.4399-.8531l2.4399-2.4399Z" fill="#dcdcdc"/>
      <path d="m8.707,8l2.4398-2.4398c.5266.6774.8531,1.5173.8531,2.4398s-.3265,1.7624-.8531,2.4398l-2.4398-2.4398Z" fill="#dcdcdc"/>
      <path d="m1,12.5V3.5c0-.5087.1545-.9813.4164-1.3765l2.73,2.73c-.7054.8621-1.1465,1.9484-1.1465,3.1465s.4411,2.2844,1.1465,3.1465l-2.73,2.73c-.262-.3953-.4164-.8679-.4164-1.3765Z" fill="#fff"/>
      <path d="m3.5,15c-.5088,0-.9813-.1545-1.3765-.4164l2.73-2.73c.8621.7054,1.9484,1.1465,3.1465,1.1465s2.2844-.4411,3.1465-1.1465l2.73,2.73c-.3952.262-.8677.4164-1.3765.4164H3.5Z" fill="#fff"/>
      <path d="m15,12.5c0,.5087-.1545.9813-.4164,1.3765l-2.73-2.73c.7054-.8621,1.1465-1.9484,1.1465-3.1465s-.4411-2.2844-1.1465-3.1465l2.73-2.73c.262.3953.4164.8679.4164,1.3765v9Z" fill="#fff"/>
    </g>
  </g>
</svg>