<?xml version="1.0" encoding="UTF-8"?>
<svg id="Layer_1" data-name="Layer 1" xmlns="http://www.w3.org/2000/svg" viewBox="0 0 16 16">
  <g>
    <rect width="16" height="16" class="aw-theme-iconOutline" fill="#464646"/>
    <rect x="1" y="1" width="14" height="14" fill="#dcdcdc"/>
  </g>
  <path d="M5,7h-1v-1.5c0-.8271,.6729-1.5,1.5-1.5h1.5v1h-1.5c-.2754,0-.5,.2241-.5,.5v1.5Z" fill="#464646"/>
  <path d="M12,7h-1v-1.5c0-.2759-.2246-.5-.5-.5h-1.5v-1h1.5c.8271,0,1.5,.6729,1.5,1.5v1.5Z" fill="#464646"/>
  <path d="M10.5,12h-1.5v-1h1.5c.2754,0,.5-.2241,.5-.5v-1.5h1v1.5c0,.8271-.6729,1.5-1.5,1.5Z" fill="#464646"/>
  <path d="M7,12h-1.5c-.8271,0-1.5-.6729-1.5-1.5v-1.5h1v1.5c0,.2759,.2246,.5,.5,.5h1.5v1Z" fill="#464646"/>
</svg>