<?xml version="1.0" encoding="UTF-8"?>
<svg id="Layer_1" data-name="Layer 1" xmlns="http://www.w3.org/2000/svg" viewBox="0 0 16 16">
  <polygon points="16 6.5 11.6211 6.5 15.9604 2.1606 13.8394 .0395 9.5 4.3789 9.5 0 6.5 0 6.5 4.3789 2.1606 .0395 .0396 2.1606 4.3789 6.5 0 6.5 0 9.5 4.3789 9.5 .0396 13.8394 2.1606 15.9604 6.5 11.6211 6.5 16 9.5 16 9.5 11.6211 13.8394 15.9604 15.9604 13.8394 11.6211 9.5 16 9.5 16 6.5" class="aw-theme-iconOutline" fill="#464646"/>
  <path d="m15,8.5v-1h-3.8504c-.0804-.509-.2766-.9761-.5672-1.3754l4.0211-4.0211-.707-.707-4.0211,4.0211c-.3993-.2906-.8663-.4868-1.3754-.5672V1h-1v3.8504c-.509.0804-.9761.2766-1.3754.5672L2.1035,1.3965l-.707.707,4.0211,4.0211c-.2906.3993-.4868.8663-.5672,1.3754H1v1h3.8504c.0804.509.2766.9761.5672,1.3754L1.3965,13.8965l.707.707,4.0211-4.0211c.3993.2906.8663.4868,1.3754.5672v3.8504h1v-3.8504c.509-.0804.9761-.2766,1.3754-.5672l4.0211,4.0211.707-.707-4.0211-4.0211c.2906-.3993.4868-.8663.5672-1.3754h3.8504Z" fill="#d9d9d9"/>
</svg>