<?xml version="1.0" encoding="UTF-8"?>
<svg id="Layer_1" data-name="Layer 1" xmlns="http://www.w3.org/2000/svg" viewBox="0 0 24 24">
  <polyline points="7 11.5 2 11.5 2.0027 6.5" fill="none" stroke="#464646" stroke-linecap="square" stroke-miterlimit="10" stroke-width="4"/>
  <path d="m2.7475,10.7058l6.5216-6.5216c2.9124-2.9124,7.6343-2.9124,10.5466,0h0c.9667.9667,1.6125,2.1328,1.9375,3.3659" fill="none" stroke="#464646" stroke-miterlimit="10" stroke-width="4"/>
  <rect x="1" y="12.5" width="4" height=".9628" fill="#464646"/>
  <g>
    <path d="m1.333,9.999l6.876-6.8755c1.689-1.6895,3.9385-2.6196,6.334-2.6196s4.6445.9307,6.333,2.6196c1.1221,1.1216,1.9268,2.5205,2.3271,4.0454l.127.4834-2.8999.7632-.1274-.4834c-.2666-1.0117-.8018-1.9409-1.5479-2.6875-1.1235-1.1235-2.6196-1.7422-4.2129-1.7422s-3.0889.6187-4.2119,1.7422l-6.876,6.8755-2.1211-2.1211Z" fill="#ffcd50"/>
    <path d="m14.5427,1.004c2.166,0,4.3316.8244,5.9797,2.473,1.0596,1.0591,1.8193,2.3799,2.1973,3.8189l-1.9336.5088c-.2891-1.0972-.8691-2.1045-1.6777-2.9136-1.2588-1.2588-2.9128-1.8885-4.5664-1.8885s-3.3067.6293-4.5654,1.8885l-6.5225,6.522-1.4141-1.4141,6.5225-6.522c1.6487-1.6487,3.8147-2.473,5.9802-2.473m0-1C12.014.004,9.639.9863,7.8554,2.7699L1.333,9.2919l-.7072.7071.7071.7071,1.4141,1.4141.7071.7071.7071-.7071,6.5225-6.522c1.0287-1.0291,2.3989-1.5957,3.8584-1.5957s2.8303.5667,3.8593,1.5957c.6835.6839,1.1738,1.535,1.4178,2.4612l.2547.9667.9668-.2544,1.9336-.5088.9666-.2544-.2539-.9667c-.423-1.6107-1.2728-3.088-2.4575-4.2721C19.4465.9864,17.0717.004,14.5427.004h0Z" fill="#464646"/>
  </g>
  <polyline points="7 11.5 2 11.5 2.0027 6.5" fill="none" stroke="#ffcd50" stroke-linecap="square" stroke-miterlimit="10" stroke-width="2"/>
  <polyline points="17 12.5 22 12.5 21.9973 17.5" fill="none" stroke="#464646" stroke-linecap="square" stroke-miterlimit="10" stroke-width="4"/>
  <path d="m21.2525,13.261l-6.5216,6.5216c-2.9124,2.9124-7.6343,2.9124-10.5466,0h0c-.9667-.9667-1.6125-2.1328-1.9375-3.3659" fill="none" stroke="#464646" stroke-miterlimit="10" stroke-width="4"/>
  <g>
    <path d="m9.4575,23.4629c-2.3955,0-4.6445-.9302-6.3335-2.6196-1.1221-1.1216-1.9268-2.5205-2.3271-4.0454l-.127-.4834,2.8999-.7632.1274.4834c.2666,1.0117.8018,1.9409,1.5479,2.6875,1.1235,1.123,2.6196,1.7422,4.2129,1.7422h.0005c1.5928,0,3.0884-.6187,4.2114-1.7422l6.876-6.8755,2.1211,2.1211-6.876,6.8755c-1.689,1.689-3.9385,2.6196-6.3335,2.6196Z" fill="#ffcd50"/>
    <path d="m20.5459,12.5538l1.4141,1.4141-6.5225,6.522c-1.6487,1.6487-3.8147,2.473-5.9802,2.473s-4.3316-.8244-5.9797-2.473c-1.0596-1.0591-1.8193-2.3799-2.1973-3.8189l1.9336-.5088c.2891,1.0972.8691,2.1045,1.6777,2.9136,1.2588,1.2588,2.9128,1.8885,4.5664,1.8885s3.3067-.6293,4.5654-1.8885l6.5225-6.522m0-1.4142l-.7071.7071-6.5225,6.522c-1.0287,1.0291-2.3989,1.5957-3.8584,1.5957s-2.8303-.5667-3.8593-1.5957c-.6835-.6839-1.1738-1.535-1.4178-2.4612l-.2547-.9667-.9668.2544-1.9336.5088-.9666.2544.2539.9667c.423,1.6107,1.2728,3.088,2.4575,4.2721,1.7829,1.7834,4.1577,2.7657,6.6867,2.7657s4.9037-.9823,6.6873-2.7659l6.5224-6.5219.7072-.7071-.7071-.7071-1.4141-1.4141-.7071-.7071h0Z" fill="#464646"/>
  </g>
  <polyline points="17 12.5 22 12.5 21.9973 17.5" fill="none" stroke="#ffcd50" stroke-linecap="square" stroke-miterlimit="10" stroke-width="2"/>
</svg>