<?xml version="1.0" encoding="UTF-8"?><svg id="Layer_1" xmlns="http://www.w3.org/2000/svg" viewBox="0 0 24 24"><rect x="0" width="24" height="24" fill="#b47797"/><rect x="4" y="4" width="16" height="16" transform="translate(0 24) rotate(-90)" fill="#fff" opacity="0"/><path d="M6.379,6.156c-.013-.258,.017-.577,.134-.854,.169-.414,.613-.683,1.058-.739,.595-.073,.935,.179,1.24,.505,.303,.327,.844,.265,1.13,.087,.287-.184,.876-.407,1.404,.043,.53,.442,.712,.105,1.24-.013,.524-.116,1.248,.203,1.253,.997-.03,.843-.87,1.168-1.326,.967-.456-.203-.638-.499-1.203-.032-.536,.444-1.24,.184-1.515-.154-.266-.344-.783-.331-1.099-.017-.31,.32-.548,.393-.985,.399-.359,.005-.656-.171-.889-.344-.485,0-.857,.474-.954,1.027h-.59c-.013-.566,.431-1.507,1.101-1.87Z" fill="none" stroke="#fff" stroke-miterlimit="10"/><g><polygon points="16.491 16.09 16.491 19.495 19.495 17.638 19.495 14.232 16.491 16.09" fill="none" stroke="#fff" stroke-linejoin="round"/><polygon points="16.509 16.09 16.509 19.495 13.505 17.638 13.505 14.232 16.509 16.09" fill="none" stroke="#fff" stroke-linejoin="round"/><polygon points="13.505 14.229 16.5 12.377 19.495 14.229 16.5 16.08 13.505 14.229" fill="none" stroke="#fff" stroke-linejoin="round"/></g><polyline points="13.373 17.487 4.522 17.487 4.522 9.507 6.5 9.507 6.5 12.398 10.519 11.19 10.519 13.17 15.495 11.081 15.495 12.946" fill="none" stroke="#fff" stroke-miterlimit="10"/></svg>