<?xml version="1.0" encoding="UTF-8"?><svg id="Layer_1" xmlns="http://www.w3.org/2000/svg" viewBox="0 0 24 24"><rect width="24" height="24" fill="#689962"/><rect x="4" y="4" width="16" height="16" transform="translate(0 24) rotate(-90)" fill="#fff" opacity="0"/><g><polygon points="11.992 7.399 11.992 10.03 14.5 8.595 14.5 5.964 11.992 7.399" fill="none" stroke="#fff" stroke-linejoin="round"/><polygon points="12.008 7.399 12.008 10.03 9.5 8.595 9.5 5.964 12.008 7.399" fill="none" stroke="#fff" stroke-linejoin="round"/><polyline points="9.5 5.961 12 4.53 14.5 5.961 12 7.392" fill="none" stroke="#fff" stroke-linejoin="round"/></g><g><polygon points="7.01 16.783 7.01 19.546 9.509 18.039 9.509 15.275 7.01 16.783" fill="none" stroke="#fff" stroke-linejoin="round"/><polygon points="7.025 16.783 7.025 19.546 4.526 18.039 4.526 15.275 7.025 16.783" fill="none" stroke="#fff" stroke-linejoin="round"/><polygon points="4.526 15.272 7.018 13.77 9.509 15.272 7.018 16.775 4.526 15.272" fill="none" stroke="#fff" stroke-linejoin="round"/></g><g><polygon points="16.998 16.783 16.998 19.546 19.497 18.039 19.497 15.275 16.998 16.783" fill="none" stroke="#fff" stroke-linejoin="round"/><polygon points="17.013 16.783 17.013 19.546 14.514 18.039 14.514 15.275 17.013 16.783" fill="none" stroke="#fff" stroke-linejoin="round"/><polygon points="14.514 15.272 17.005 13.77 19.497 15.272 17.005 16.775 14.514 15.272" fill="none" stroke="#fff" stroke-linejoin="round"/></g><polyline points="16.994 13.989 16.994 11.537 7.006 11.537 7.006 13.989" fill="none" stroke="#fff" stroke-linejoin="round"/><line x1="12" y1="10.182" x2="12" y2="11.78" fill="none" stroke="#fff" stroke-linejoin="round"/></svg>