<?xml version="1.0" encoding="UTF-8"?>
<svg id="Layer_1" data-name="Layer 1" xmlns="http://www.w3.org/2000/svg" viewBox="0 0 24 24">
  <rect x=".5" y=".5" width="23" height="23" fill="#3caf82" stroke="#464646" stroke-miterlimit="10"/>
  <path d="m9,17.5c0,1.3807-1.1193,2.5-2.5,2.5h0c-1.3807,0-2.5-1.1193-2.5-2.5h0c0-1.3807,1.1193-2.5,2.5-2.5h11c1.3807,0,2.5,1.1193,2.5,2.5h0c0,1.3807-1.1193,2.5-2.5,2.5h0c-1.3807,0-2.5-1.1193-2.5-2.5V6.5c0-1.3807,1.1193-2.5,2.5-2.5h0c1.3807,0,2.5,1.1193,2.5,2.5h0c0,1.3807-1.1193,2.5-2.5,2.5H6.5c-1.3807,0-2.5-1.1193-2.5-2.5h0c0-1.3807,1.1193-2.5,2.5-2.5h0c1.3807,0,2.5,1.1193,2.5,2.5v11Z" fill="none" stroke="#fff" stroke-miterlimit="10" stroke-width="2"/>
</svg>