<?xml version="1.0" encoding="UTF-8"?><svg id="Layer_1" xmlns="http://www.w3.org/2000/svg" viewBox="0 0 48 48"><rect width="48" height="48" fill="#b47797"/><rect x="9" y="8" width="30" height="30" transform="translate(1 47) rotate(-90)" fill="#fff" opacity="0"/><path d="M12.608,12.823c-.025-.5,.033-1.121,.26-1.658,.328-.803,1.191-1.326,2.054-1.435,1.154-.143,1.816,.347,2.408,.979,.588,.635,1.639,.514,2.194,.168,.556-.358,1.701-.789,2.726,.084,1.029,.858,1.382,.204,2.407-.026,1.018-.226,2.422,.395,2.433,1.936-.058,1.636-1.69,2.268-2.573,1.878-.885-.395-1.239-.968-2.336-.062-1.04,.862-2.408,.358-2.942-.3-.516-.668-1.52-.642-2.133-.033-.602,.621-1.065,.763-1.913,.774-.696,.011-1.274-.332-1.725-.669-.942,0-1.664,.92-1.851,1.994h-1.145c-.025-1.099,.837-2.925,2.137-3.63Z" fill="none" stroke="#fff" stroke-miterlimit="10"/><g><polygon points="32.482 30.689 32.482 37.399 38.402 33.739 38.402 27.03 32.482 30.689" fill="none" stroke="#fff" stroke-linejoin="round"/><polygon points="32.519 30.689 32.519 37.399 26.599 33.739 26.599 27.03 32.519 30.689" fill="none" stroke="#fff" stroke-linejoin="round"/><polygon points="26.599 27.022 32.501 23.374 38.402 27.022 32.501 30.671 26.599 27.022" fill="none" stroke="#fff" stroke-linejoin="round"/></g><polyline points="27.751 34.5 9.5 34.5 9.5 18.5 12.5 18.5 12.5 24.047 22.5 20.948 22.5 24.791 30.5 21.506 30.5 24.52" fill="none" stroke="#fff" stroke-miterlimit="10"/></svg>