<?xml version="1.0" encoding="UTF-8"?>
<svg id="Layer_1" data-name="Layer 1" xmlns="http://www.w3.org/2000/svg" viewBox="0 0 24 24">
  <g>
    <polygon points=".5 19.5 .5 .5 9.5 .5 15.5 6.5 15.5 19.5 .5 19.5" fill="#fff" stroke="#464646" stroke-linecap="round" stroke-miterlimit="10"/>
    <polyline points="9.5 1.0741 9.5 6.5 14.9038 6.5" fill="#becdd7" stroke="#464646" stroke-linecap="round" stroke-linejoin="round"/>
  </g>
  <g>
    <path d="m10,23.5v-4.3335c0-3.1245,2.519-5.6665,5.6152-5.6665h4.3994l-2.5752-2.5752,1.4141-1.4141,4.3535,4.3535c.3901.3896.3901,1.0244,0,1.4141l-4.3535,4.3535-1.4141-1.4141,2.7178-2.7178h-4.542c-1.9937,0-3.6152,1.645-3.6152,3.6665v4.3335h-2Z" fill="#3caf82"/>
    <path d="m18.8535,10.2178l4,4c.1953.1953.1953.5117,0,.707l-4,4-.707-.707,3.2178-3.2178h-5.749c-2.269,0-4.1152,1.8691-4.1152,4.1665v3.8335h-1v-3.8335c0-2.8486,2.2949-5.1665,5.1152-5.1665h5.6064l-3.0752-3.0752.707-.707m0-1.4142l-.7071.7071-.707.707-.7071.7071.7071.7071,1.3681,1.3681h-3.1922c-3.372,0-6.1152,2.7663-6.1152,6.1665v4.8335h3v-4.8335c0-1.746,1.3975-3.1665,3.1152-3.1665h3.3348l-1.5107,1.5107-.7071.7071.7071.7071.707.707.7071.7071.7071-.7071,4-4c.2833-.2833.4394-.66.4394-1.0606s-.156-.7773-.4394-1.0606l-4-4-.7071-.7071h0Z" fill="#464646"/>
  </g>
</svg>