<?xml version="1.0" encoding="UTF-8"?>
<svg id="Layer_1" data-name="Layer 1" xmlns="http://www.w3.org/2000/svg" viewBox="0 0 200 130">
  <path d="M200,130H0V0H200V130Z" fill="#464646"/>
  <polygon points="1 1 1 129 6.7877 129 64.5127 69.2686 64.8452 69.4463 96.2833 86.224 159.8799 26.0811 160.2207 26.3667 199 58.798 199 1 1 1" fill="#f0f0f0"/>
  <path d="M41.5,52.5c-8.8223,0-16-7.1777-16-16s7.1777-16,16-16,16,7.1777,16,16-7.1777,16-16,16Z" fill="#464646"/>
  <circle cx="41.5" cy="36.5" r="15" fill="#fff"/>
  <polygon points="64.707 70.5059 8.1797 128.999 174.0049 128.8354 64.707 70.5059" fill="#828282"/>
  <polygon points="159.9209 27.4189 97.2137 86.7206 176.4365 128.9998 199 129 199 60.1016 159.9209 27.4189" fill="#bebebe"/>
</svg>