<?xml version="1.0" encoding="UTF-8"?>
<svg id="Layer_1" data-name="Layer 1" xmlns="http://www.w3.org/2000/svg" xmlns:xlink="http://www.w3.org/1999/xlink" viewBox="0 0 48 48">
  <defs>
    <linearGradient id="paper_gradient_2" data-name="paper gradient 2" x1=".5" y1=".5" x2="47.5159" y2="47.5159" gradientUnits="userSpaceOnUse">
      <stop offset="0" stop-color="#fff"/>
      <stop offset=".2191" stop-color="#f8f8f8"/>
      <stop offset=".5359" stop-color="#e4e4e4"/>
      <stop offset=".9105" stop-color="#c5c5c5"/>
      <stop offset="1" stop-color="#bdbdbd"/>
    </linearGradient>
    <linearGradient id="Dark_Blue_Grad_2" data-name="Dark Blue Grad 2" x1="8.5" y1="23" x2="17.4999" y2="31.9999" gradientUnits="userSpaceOnUse">
      <stop offset="0" stop-color="#81b1c5"/>
      <stop offset=".2056" stop-color="#78a9be"/>
      <stop offset=".5374" stop-color="#6095ad"/>
      <stop offset=".9522" stop-color="#397590"/>
      <stop offset="1" stop-color="#35718d"/>
    </linearGradient>
    <linearGradient id="Dark_Blue_Grad_2-2" data-name="Dark Blue Grad 2" x1="6.2821" y1="9.3052" x2="19.7179" y2="22.7409" xlink:href="#Dark_Blue_Grad_2"/>
    <linearGradient id="New_Gradient_Swatch_4" data-name="New Gradient Swatch 4" x1="9.1097" y1="12.1338" x2="16.8894" y2="19.9135" gradientUnits="userSpaceOnUse">
      <stop offset="0" stop-color="#fff"/>
      <stop offset=".2265" stop-color="#fafafa"/>
      <stop offset=".4841" stop-color="#ececec"/>
      <stop offset=".7559" stop-color="#d6d5d5"/>
      <stop offset="1" stop-color="#bcbbbb"/>
    </linearGradient>
  </defs>
  <polygon points="47.5319 47.5 .5 47.5 .5 .5 47.5 .5 47.5319 47.5" fill="url(#paper_gradient_2)" stroke="#464646" stroke-miterlimit="10"/>
  <g id="Production">
    <g>
      <path d="M37.8238,15.5001c-.1567,0-.3052-.0737-.3999-.2002l-2.8237-3.7646c-.1494-.1987-.1294-.4775,.0464-.6533l.4707-.4707c.0972-.0972,.2251-.1465,.3535-.1465,.1104,0,.2207,.0361,.3125,.1094l1.9502,1.5601,3.9253-5.2339c.0869-.1162,.2197-.1885,.3643-.1987,.0122-.001,.0239-.0015,.0356-.0015,.1323,0,.2593,.0522,.3535,.1465l.4707,.4707c.1646,.1646,.1938,.4209,.0703,.6187l-4.7056,7.5293c-.0874,.1396-.2378,.2275-.4028,.2344-.0068,.0005-.0142,.0005-.021,.0005Z" fill="#538eab"/>
      <path d="M42.0589,7.0001l.4706,.4706-4.7059,7.5294-2.8235-3.7647,.4706-.4706,2.3529,1.8823,4.2353-5.6471m0-1c-.0236,0-.0472,.0008-.071,.0025-.2892,.0206-.5552,.1656-.7291,.3975l-3.6163,4.8217-1.5473-1.2378c-.1835-.1468-.4044-.2191-.6244-.2191-.2572,0-.5132,.0987-.7074,.2929l-.4706,.4706c-.3519,.3519-.3915,.909-.0929,1.3071l2.8235,3.7647c.1893,.2524,.4861,.4,.7999,.4,.0142,0,.0283-.0003,.0425-.0009,.3294-.014,.6308-.1895,.8056-.4691l4.7059-7.5294c.2468-.3949,.1884-.9078-.1409-1.2371l-.4706-.4706c-.1882-.1882-.4428-.2929-.707-.2929h0Z" fill="#35718d"/>
    </g>
  </g>
  <polyline points="17.5 23 17.4998 32 12.9999 28.5747 8.5 32 8.5 23" fill="url(#Dark_Blue_Grad_2)" stroke="#464646" stroke-miterlimit="10"/>
  <path d="M20.9053,16.5655c-.1314,.1217-.1515,.323-.0464,.4675l1.2752,1.7613-2.0379,.7558c-.168,.0622-.2628,.24-.2213,.4142l.5048,2.1147-2.1736-.0823c-.1943,0-.3347,.1217-.3631,.298l-.3437,2.1464-1.9757-.9066c-.1625-.0746-.3555-.0166-.4495,.1362l-1.139,1.8526-1.4792-1.5939c-.0691-.0747-.1639-.1134-.2593-.1134-.0726,0-.1452,.0222-.2075,.0671l-1.7599,1.2745-.7566-2.0379c-.0622-.1673-.2358-.2641-.4142-.2213l-2.1148,.5041,.0816-2.1727c.0062-.1784-.121-.3347-.2981-.363l-2.1466-.3437,.9073-1.9756c.0746-.1632,.0166-.3555-.1362-.4495l-1.8519-1.1396,1.5939-1.477c.1314-.1217,.1515-.323,.0464-.4675l-1.2752-1.7613,2.0379-.7558c.168-.0622,.2628-.24,.2213-.4142l-.5041-2.1153,2.1735,.0823c.177,.0103,.3347-.1224,.3631-.298l.343-2.1465,1.9757,.9073c.1619,.0747,.3555,.0166,.4495-.1362l1.139-1.8526,1.4792,1.594c.1217,.1314,.3223,.15,.4668,.0463l1.7606-1.2745,.7559,2.0379c.0622,.1674,.2379,.2642,.4142,.2213l2.1154-.5048-.0823,2.1735c-.0062,.1784,.121,.3347,.2981,.363l2.1466,.3436-.9073,1.9757c-.0746,.1631-.0166,.3561,.1362,.4494l1.8526,1.1389-1.5947,1.4778Z" fill="url(#Dark_Blue_Grad_2-2)" stroke="#464646" stroke-linejoin="round"/>
  <path d="M15.1034,21.1059c-2.8047,1.1602-6.024-.174-7.1838-2.9781-1.162-2.8078,.1729-6.0262,2.977-7.1869,2.8042-1.1604,6.0233,.174,7.185,2.9814,1.16,2.8045-.175,6.0231-2.9782,7.1836Z" fill="url(#New_Gradient_Swatch_4)" stroke="#35718d" stroke-linecap="round" stroke-linejoin="round"/>
  <polygon points="9.5455 16.9711 10.4091 16.5393 12.5682 17.8347 15.5909 13.0847 16.4545 13.5165 13 19.9938 9.5455 16.9711" fill="#5a5a5a"/>
  <line x1="32.0001" y1="11.5002" x2="25.0001" y2="11.5002" fill="none" stroke="#6e6e6e" stroke-linejoin="round"/>
  <g id="Production-2" data-name="Production">
    <g>
      <path d="M37.8238,24.5007c-.1567,0-.3052-.0737-.3999-.2002l-2.8237-3.7646c-.1494-.1987-.1294-.4775,.0464-.6533l.4707-.4707c.0972-.0972,.2251-.1465,.3535-.1465,.1104,0,.2207,.0361,.3125,.1094l1.9502,1.5601,3.9253-5.2339c.0869-.1162,.2197-.1885,.3643-.1987,.0122-.001,.0239-.0015,.0356-.0015,.1323,0,.2593,.0522,.3535,.1465l.4707,.4707c.1646,.1646,.1938,.4209,.0703,.6187l-4.7056,7.5293c-.0874,.1396-.2378,.2275-.4028,.2344-.0068,.0005-.0142,.0005-.021,.0005Z" fill="#538eab"/>
      <path d="M42.0589,16.0007l.4706,.4706-4.7059,7.5294-2.8235-3.7647,.4706-.4706,2.3529,1.8823,4.2353-5.6471m0-1c-.0236,0-.0472,.0008-.071,.0025-.2892,.0206-.5552,.1656-.7291,.3975l-3.6163,4.8217-1.5473-1.2378c-.1835-.1468-.4044-.2191-.6244-.2191-.2572,0-.5132,.0987-.7074,.2929l-.4706,.4706c-.3519,.3519-.3915,.909-.0929,1.3071l2.8235,3.7647c.1893,.2524,.4861,.4,.7999,.4,.0142,0,.0283-.0003,.0425-.0009,.3294-.014,.6308-.1895,.8056-.4691l4.7059-7.5294c.2468-.3949,.1884-.9078-.1409-1.2371l-.4706-.4706c-.1882-.1882-.4428-.2929-.707-.2929h0Z" fill="#35718d"/>
    </g>
  </g>
  <line x1="32.0001" y1="20.5008" x2="25.0001" y2="20.5008" fill="none" stroke="#6e6e6e" stroke-linejoin="round"/>
  <g id="Production-3" data-name="Production">
    <g>
      <path d="M37.8238,33.5013c-.1567,0-.3052-.0737-.3999-.2002l-2.8237-3.7646c-.1494-.1987-.1294-.4775,.0464-.6533l.4707-.4707c.0972-.0972,.2251-.1465,.3535-.1465,.1104,0,.2207,.0361,.3125,.1094l1.9502,1.5601,3.9253-5.2339c.0869-.1162,.2197-.1885,.3643-.1987,.0122-.001,.0239-.0015,.0356-.0015,.1323,0,.2593,.0522,.3535,.1465l.4707,.4707c.1646,.1646,.1938,.4209,.0703,.6187l-4.7056,7.5293c-.0874,.1396-.2378,.2275-.4028,.2344-.0068,.0005-.0142,.0005-.021,.0005Z" fill="#538eab"/>
      <path d="M42.0589,25.0013l.4706,.4706-4.7059,7.5294-2.8235-3.7647,.4706-.4706,2.3529,1.8823,4.2353-5.6471m0-1c-.0236,0-.0472,.0008-.071,.0025-.2892,.0206-.5552,.1656-.7291,.3975l-3.6163,4.8217-1.5473-1.2378c-.1835-.1468-.4044-.2191-.6244-.2191-.2572,0-.5132,.0987-.7074,.2929l-.4706,.4706c-.3519,.3519-.3915,.909-.0929,1.3071l2.8235,3.7647c.1893,.2524,.4861,.4,.7999,.4,.0142,0,.0283-.0003,.0425-.0009,.3294-.014,.6308-.1895,.8056-.4691l4.7059-7.5294c.2468-.3949,.1884-.9078-.1409-1.2371l-.4706-.4706c-.1882-.1882-.4428-.2929-.707-.2929h0Z" fill="#35718d"/>
    </g>
  </g>
  <line x1="32.0001" y1="29.5013" x2="25.0001" y2="29.5013" fill="none" stroke="#6e6e6e" stroke-linejoin="round"/>
  <g id="Production-4" data-name="Production">
    <g>
      <path d="M37.8238,42.5018c-.1567,0-.3052-.0737-.3999-.2002l-2.8237-3.7646c-.1494-.1987-.1294-.4775,.0464-.6533l.4707-.4707c.0972-.0972,.2251-.1465,.3535-.1465,.1104,0,.2207,.0361,.3125,.1094l1.9502,1.5601,3.9253-5.2339c.0869-.1162,.2197-.1885,.3643-.1987,.0122-.001,.0239-.0015,.0356-.0015,.1323,0,.2593,.0522,.3535,.1465l.4707,.4707c.1646,.1646,.1938,.4209,.0703,.6187l-4.7056,7.5293c-.0874,.1396-.2378,.2275-.4028,.2344-.0068,.0005-.0142,.0005-.021,.0005Z" fill="#538eab"/>
      <path d="M42.0589,34.0018l.4706,.4706-4.7059,7.5294-2.8235-3.7647,.4706-.4706,2.3529,1.8823,4.2353-5.6471m0-1c-.0236,0-.0472,.0008-.071,.0025-.2892,.0206-.5552,.1656-.7291,.3975l-3.6163,4.8217-1.5473-1.2378c-.1835-.1468-.4044-.2191-.6244-.2191-.2572,0-.5132,.0987-.7074,.2929l-.4706,.4706c-.3519,.3519-.3915,.909-.0929,1.3071l2.8235,3.7647c.1893,.2524,.4861,.4,.7999,.4,.0142,0,.0283-.0003,.0425-.0009,.3294-.014,.6308-.1895,.8056-.4691l4.7059-7.5294c.2468-.3949,.1884-.9078-.1409-1.2371l-.4706-.4706c-.1882-.1882-.4428-.2929-.707-.2929h0Z" fill="#35718d"/>
    </g>
  </g>
  <line x1="32.0001" y1="38.5019" x2="25.0001" y2="38.5019" fill="none" stroke="#6e6e6e" stroke-linejoin="round"/>
</svg>