<?xml version="1.0" encoding="UTF-8"?>
<svg id="Layer_1" data-name="Layer 1" xmlns="http://www.w3.org/2000/svg" xmlns:xlink="http://www.w3.org/1999/xlink" viewBox="0 0 48 48">
  <defs>
    <linearGradient id="paper_gradient" data-name="paper gradient" x1="3.5" y1=".4999" x2="14.5" y2="11.4999" gradientUnits="userSpaceOnUse">
      <stop offset="0" stop-color="#fff"/>
      <stop offset=".2214" stop-color="#f8f8f8"/>
      <stop offset=".5415" stop-color="#e4e4e4"/>
      <stop offset=".92" stop-color="#c5c5c5"/>
      <stop offset="1" stop-color="#bebebe"/>
    </linearGradient>
    <linearGradient id="paper_gradient-2" data-name="paper gradient" x1="21.5" y1="14.5" x2="32.5001" y2="25.5" xlink:href="#paper_gradient"/>
    <linearGradient id="Dark_Blue_Grad" data-name="Dark Blue Grad" x1="21.5" y1="28.5" x2="32.5" y2="39.5" gradientUnits="userSpaceOnUse">
      <stop offset="0" stop-color="#73b4c8"/>
      <stop offset=".1747" stop-color="#6aaec2"/>
      <stop offset=".4567" stop-color="#529db5"/>
      <stop offset=".8089" stop-color="#2b839e"/>
      <stop offset="1" stop-color="#147391"/>
    </linearGradient>
    <linearGradient id="paper_gradient-3" data-name="paper gradient" x1="32.136" y1="32.136" x2="44.864" y2="44.864" xlink:href="#paper_gradient"/>
  </defs>
  <polyline points="9 11.4999 9 34 24.0002 34.0001" fill="none" stroke="#969696" stroke-miterlimit="10" stroke-width="2"/>
  <rect x="3.5" y=".4999" width="11" height="11.0001" fill="url(#paper_gradient)" stroke="#464646" stroke-miterlimit="10"/>
  <line x1="10" y1="20.0001" x2="24.0002" y2="20.0001" fill="none" stroke="#969696" stroke-miterlimit="10" stroke-width="2"/>
  <rect x="21.5" y="14.5" width="11" height="11" fill="url(#paper_gradient-2)" stroke="#464646" stroke-miterlimit="10"/>
  <rect x="21.5" y="28.5" width="11" height="11" fill="url(#Dark_Blue_Grad)" stroke="#464646" stroke-miterlimit="10"/>
  <circle cx="38.5" cy="38.5" r="9" fill="url(#paper_gradient-3)" stroke="#464646" stroke-miterlimit="10"/>
  <path d="M41.5444,40.4629c0,.8613-.3076,1.5371-.9229,2.0264-.6152,.4902-1.4741,.7354-2.5771,.7354-.4102,0-.8477-.0596-1.3125-.1777-.4648-.1191-.8066-.251-1.0254-.3965v-1.7773c.2871,.2686,.6655,.4961,1.1348,.6836,.4692,.1865,.9297,.2803,1.3809,.2803,.5059,0,.8945-.1035,1.1655-.3115,.271-.207,.4067-.5088,.4067-.9053,0-.3418-.1343-.6543-.4033-.9365-.269-.2832-.7793-.625-1.5312-1.0254-.7383-.3877-1.2876-.8037-1.6475-1.248s-.54-.9717-.54-1.582c0-.5244,.1367-.9951,.4102-1.4121s.6655-.7422,1.1758-.9775c.5103-.2344,1.0894-.3516,1.7363-.3516,.4238,0,.8408,.041,1.251,.123s.7017,.166,.875,.2529v1.709c-.2598-.2148-.5801-.3838-.9604-.5098-.3804-.125-.7646-.1875-1.1519-.1875-.4878,0-.876,.1133-1.1655,.3418-.2896,.2275-.4341,.5234-.4341,.8887,0,.2549,.0479,.4736,.1436,.6562,.0957,.1816,.2461,.3555,.4512,.5195s.5767,.3867,1.1143,.6699c.8657,.4512,1.4868,.9033,1.8628,1.3564,.376,.4541,.564,.9717,.564,1.5557Z" fill="#6e6e6e"/>
</svg>