<?xml version="1.0" encoding="UTF-8"?>
<svg id="Layer_1" data-name="Layer 1" xmlns="http://www.w3.org/2000/svg" xmlns:xlink="http://www.w3.org/1999/xlink" viewBox="0 0 48 48">
  <defs>
    <linearGradient id="Dark_Blue_Grad_4" data-name="Dark Blue Grad 4" x1="15.0879" y1="15.0908" x2="32.9063" y2="32.9092" gradientUnits="userSpaceOnUse">
      <stop offset="0" stop-color="#75b2c5"/>
      <stop offset=".1774" stop-color="#6cacbf"/>
      <stop offset=".4638" stop-color="#549cb1"/>
      <stop offset=".8215" stop-color="#2d829a"/>
      <stop offset="1" stop-color="#18748e"/>
    </linearGradient>
  </defs>
  <path d="m13.0933,47.5c-3.3652,0-6.5288-1.3105-8.9087-3.6904-2.376-2.376-3.6846-5.5391-3.6846-8.9072s1.3086-6.5322,3.6846-8.9082l7.9297-7.9287c2.376-2.376,5.5405-3.6846,8.9102-3.6846s6.5332,1.3086,8.9092,3.6846c1.9932,1.9941,3.2344,4.5225,3.5879,7.3115.0352.2734-.1592.5234-.4336.5586l-1.7549.2227c-.0205.0029-.042.0039-.0635.0039-.248,0-.4629-.1846-.4951-.4365-.2764-2.1738-1.2441-4.1455-2.7988-5.7021-1.8535-1.8525-4.3213-2.873-6.9502-2.873s-5.0986,1.0205-6.9531,2.873l-7.9297,7.9287c-1.8535,1.8535-2.8745,4.3213-2.8745,6.9502s1.021,5.0957,2.8745,6.9492c1.8569,1.8564,4.3257,2.8789,6.9507,2.8789s5.0942-1.0225,6.9507-2.8789l6.9014-6.9004c.0977-.0977.2256-.1465.3535-.1465s.2559.0488.3535.1465l1.251,1.251c.0938.0938.1465.2207.1465.3535s-.0527.2598-.1465.3535l-6.9014,6.9004c-2.3789,2.3799-5.5425,3.6904-8.9087,3.6904Zm13.8774-13.875c-3.3633,0-6.5273-1.3105-8.9082-3.6904-2.0176-2.0166-3.2627-4.5771-3.6011-7.4043-.0327-.2744.1631-.5234.437-.5557,0,0,1.7949-.2148,1.8149-.2148.1113,0,.2202.0371.3091.1064.104.082.1714.2021.1875.334.2646,2.2061,1.2363,4.2031,2.8105,5.7764,1.8564,1.8564,4.3252,2.8789,6.9502,2.8789s5.0938-1.0225,6.9512-2.8789l7.9297-7.9287c1.8564-1.8564,2.8789-4.3252,2.8789-6.9502s-1.0225-5.0928-2.8789-6.9492-4.3252-2.8789-6.9512-2.8789-5.0947,1.0225-6.9502,2.8789l-6.9551,6.9541c-.0977.0977-.2256.1465-.3535.1465s-.2559-.0488-.3535-.1465l-1.251-1.251c-.0938-.0938-.1465-.2207-.1465-.3535s.0527-.2598.1465-.3535l6.9551-6.9541c2.3809-2.3799,5.5449-3.6904,8.9082-3.6904,3.3662,0,6.5303,1.3105,8.9092,3.6904,2.3799,2.3779,3.6904,5.541,3.6904,8.9072s-1.3105,6.5293-3.6904,8.9082l-7.9297,7.9287c-2.3789,2.3799-5.543,3.6904-8.9092,3.6904Z" fill="url(#Dark_Blue_Grad_4)"/>
  <path d="m34.9006,1c3.2331,0,6.2709,1.2587,8.5553,3.5436,2.2861,2.2849,3.5441,5.3231,3.5441,8.554s-1.258,6.2699-3.5441,8.5549l-7.9298,7.9285c-2.2844,2.2849-5.3222,3.5436-8.5553,3.5436-3.2313,0-6.2691-1.2587-8.5553-3.5436-1.9371-1.9368-3.1329-4.3953-3.4577-7.1105l1.7556-.2108c.2782,2.3177,1.2995,4.4169,2.9531,6.0704,1.9509,1.9506,4.5463,3.0253,7.3042,3.0253,2.7596,0,5.3533-1.0746,7.3042-3.0253l7.9297-7.9286c1.9509-1.9506,3.0257-4.5448,3.0257-7.304s-1.0748-5.3525-3.0257-7.3032c-1.9509-1.9506-4.5446-3.0252-7.3042-3.0252-2.7579,0-5.3533,1.0746-7.3042,3.0252l-6.9552,6.9542-1.2511-1.2509,6.9552-6.9541c2.2861-2.2849,5.3239-3.5436,8.5553-3.5436m-13.8763,13.8808c3.0983,0,6.1965,1.1788,8.5558,3.5382,1.9129,1.9143,3.1052,4.3418,3.4456,7.0206l-1.7556.2229c-.2903-2.2867-1.3081-4.3582-2.9411-5.9927-2.0135-2.0132-4.6584-3.0192-7.3034-3.0192-2.6462,0-5.2923,1.0068-7.3068,3.0192l-7.9298,7.9286c-4.028,4.0273-4.028,10.5798,0,14.6071,1.9518,1.9506,4.5463,3.0252,7.3042,3.0252,2.7596,0,5.3533-1.0746,7.3042-3.0252l6.9016-6.9006,1.2511,1.2509-6.9016,6.9006c-2.2844,2.2849-5.3222,3.5436-8.5553,3.5436-3.2313,0-6.27-1.2587-8.5553-3.5436C-.1794,38.7397-.1794,31.0643,4.5381,26.3475l7.9298-7.9285c2.3581-2.3582,5.4574-3.5382,8.5565-3.5382M34.9006,0c-3.4976,0-6.787,1.3624-9.2622,3.8363l-6.9553,6.9542c-.1876.1876-.293.4419-.293.7072s.1054.5196.2929.7072l1.2511,1.2509c.1953.1953.4512.2928.7071.2928s.5118-.0976.7071-.2928l6.9552-6.9542c1.7623-1.762,4.1052-2.7324,6.5972-2.7324s4.8349.9704,6.5972,2.7324c1.7622,1.762,2.7328,4.1045,2.7328,6.596s-.9705,4.8348-2.7328,6.5968l-7.9298,7.9286c-1.7623,1.762-4.1052,2.7324-6.5972,2.7324s-4.8349-.9704-6.5972-2.7324c-1.4937-1.4935-2.4161-3.3893-2.6673-5.4824-.0316-.2633-.1665-.5033-.3751-.6671-.177-.1391-.3949-.2137-.6178-.2137-.0397,0-.0794.0024-.1192.0071l-1.7556.2108c-.5482.0658-.9393.5634-.8737,1.1116.3517,2.9396,1.6462,5.6019,3.7436,7.6989,2.4753,2.474,5.7647,3.8364,9.2623,3.8364,3.4995,0,6.789-1.3625,9.2625-3.8365l7.9296-7.9284c2.4743-2.4731,3.8371-5.7624,3.8371-9.262s-1.3627-6.7882-3.8372-9.2613c-2.4732-2.4738-5.7627-3.8363-9.2622-3.8363h0Zm-13.8763,13.8808c-3.5033,0-6.7932,1.3606-9.2636,3.8311l-7.9297,7.9285C1.3605,28.1105,0,31.3997,0,34.902s1.3605,6.7915,3.831,9.2616c2.4743,2.4739,5.7638,3.8364,9.2623,3.8364s6.789-1.3625,9.2625-3.8365l6.9015-6.9005c.1876-.1875.2929-.4419.2929-.7072s-.1054-.5196-.2929-.7072l-1.2511-1.2509c-.1953-.1953-.4512-.2928-.7071-.2928s-.5118.0976-.707.2928l-6.9016,6.9006c-1.7623,1.762-4.1052,2.7324-6.5972,2.7324s-4.8341-.9705-6.5973-2.7325c-1.759-1.7587-2.7279-4.1014-2.7279-6.5962s.9688-4.8375,2.728-6.5964l7.9298-7.9286c1.7598-1.7581,4.1038-2.7264,6.5997-2.7264,2.4954,0,4.838.9683,6.5963,2.7264,1.4756,1.4769,2.3941,3.3483,2.6561,5.4114.0334.2631.17.5022.3796.6646.1762.1365.3919.2095.6124.2095.0419,0,.0839-.0026.126-.0079l1.7556-.2229c.2631-.0334.5022-.17.6646-.3797.1624-.2097.2349-.4753.2014-.7384-.3684-2.8995-1.6584-5.528-3.7303-7.6014-2.4707-2.4708-5.7603-3.8314-9.2631-3.8314h0Z" fill="#464646"/>
</svg>