<?xml version="1.0" encoding="UTF-8"?><svg id="Layer_1" xmlns="http://www.w3.org/2000/svg" xmlns:xlink="http://www.w3.org/1999/xlink" viewBox="0 0 48 48"><defs><linearGradient id="linear-gradient" x1="39.146" y1="-1147.146" x2="27.846" y2="-1135.846" gradientTransform="translate(0 -1126) scale(1 -1)" gradientUnits="userSpaceOnUse"><stop offset="0" stop-color="#afd7e1"/><stop offset="1" stop-color="#73b4c8"/></linearGradient><linearGradient id="linear-gradient-2" x1="21.146" y1="-1164.146" x2="9.846" y2="-1152.846" xlink:href="#linear-gradient"/></defs><g><polygon points="22.707 15 32.984 4.707 44.293 16 34 26.293 22.707 15" fill="url(#linear-gradient)"/><path d="M32.985,5.414l10.6,10.586-9.585,9.585-10.586-10.586,9.572-9.585m0-1.414l-10.984,11,12,12,11-11-12.016-12h0Z" fill="#464646"/></g><g><polygon points="4.707 32 14.984 21.707 26.293 33 16 43.293 4.707 32" fill="url(#linear-gradient-2)"/><path d="M14.985,22.414l10.6,10.586-9.585,9.585L5.414,32l9.572-9.585m0-1.414l-10.984,11,12,12,11-11-12.016-12h0Z" fill="#464646"/></g><rect x="21.879" y="21.879" width="4.243" height="4.243" transform="translate(-9.941 24) rotate(-45)" fill="#bebebe"/><rect x="39.464" y="2.88" width="7.072" height="4.242" transform="translate(9.052 31.863) rotate(-44.988)" fill="#bebebe"/><rect x="1.464" y="40.879" width="7.071" height="4.243" transform="translate(-28.941 16.13) rotate(-45)" fill="#bebebe"/></svg>