<?xml version="1.0" encoding="UTF-8"?>
<svg id="Layer_1" data-name="Layer 1" xmlns="http://www.w3.org/2000/svg" xmlns:xlink="http://www.w3.org/1999/xlink" viewBox="0 0 48 48">
  <defs>
    <linearGradient id="New_Gradient_Swatch_5" data-name="New Gradient Swatch 5" x1="358.6821" y1="-326.6822" x2="375.682" y2="-343.6821" gradientTransform="translate(-326.1819 -341.1818) rotate(90)" gradientUnits="userSpaceOnUse">
      <stop offset="0" stop-color="#b0b0b0"/>
      <stop offset="1" stop-color="#7e7e7e"/>
    </linearGradient>
    <linearGradient id="New_Gradient_Swatch_4" data-name="New Gradient Swatch 4" x1="-16.136" y1="-704.8639" x2=".8641" y2="-687.8638" gradientTransform="translate(1.3641 -687.3637) rotate(-180)" gradientUnits="userSpaceOnUse">
      <stop offset="0" stop-color="#fff"/>
      <stop offset=".2284" stop-color="#fafafa"/>
      <stop offset=".4881" stop-color="#ececec"/>
      <stop offset=".7621" stop-color="#d6d5d5"/>
      <stop offset="1" stop-color="#bdbcbc"/>
    </linearGradient>
    <linearGradient id="front_-45_2" data-name="front -45 2" x1="-320.8182" y1="-357.8182" x2="-337.8181" y2="-340.8182" gradientTransform="translate(375.3182 -320.3182) rotate(-90)" gradientUnits="userSpaceOnUse">
      <stop offset="0" stop-color="#f1f1f1"/>
      <stop offset=".5" stop-color="#cacac9"/>
      <stop offset=".6282" stop-color="#c5c5c4"/>
      <stop offset=".7762" stop-color="#b7b7b6"/>
      <stop offset=".9335" stop-color="#a0a09f"/>
      <stop offset=".99" stop-color="#969696"/>
    </linearGradient>
    <linearGradient id="New_Gradient_Swatch_4-2" data-name="New Gradient Swatch 4" x1="17.5001" y1="17.5" x2="34.5" y2="34.5" gradientTransform="matrix(1, 0, 0, 1, 0, 0)" xlink:href="#New_Gradient_Swatch_4"/>
    <linearGradient id="linear-gradient" x1="34.3671" y1="17.8607" x2="41.6329" y2="25.1264" gradientUnits="userSpaceOnUse">
      <stop offset="0" stop-color="#fff"/>
      <stop offset="1" stop-color="#bebebe"/>
    </linearGradient>
    <linearGradient id="Dark_Blue_Grad" data-name="Dark Blue Grad" x1="30.2896" y1="29.8687" x2="45.7104" y2="45.2896" gradientUnits="userSpaceOnUse">
      <stop offset="0" stop-color="#73b4c8"/>
      <stop offset=".1747" stop-color="#6aaec2"/>
      <stop offset=".4567" stop-color="#529db5"/>
      <stop offset=".8089" stop-color="#2b839e"/>
      <stop offset="1" stop-color="#147391"/>
    </linearGradient>
    <linearGradient id="linear-gradient-2" x1="22.3671" y1="21.8607" x2="29.6329" y2="29.1264" xlink:href="#linear-gradient"/>
    <linearGradient id="Dark_Blue_Grad-2" data-name="Dark Blue Grad" x1="18.2896" y1="33.8687" x2="33.7104" y2="49.2896" xlink:href="#Dark_Blue_Grad"/>
  </defs>
  <path d="m17.5003,28.2017c.5687.5779,1.3988.9377,2.2737.9377,1.7316,0,3.1354-1.4038,3.1354-3.1354s-1.4038-3.1354-3.1354-3.1354c-.8749,0-1.705.3598-2.2737.9377v-6.3061h-6.2709c.5829.5693.9469,1.3615.9469,2.2407,0,1.7316-1.4038,3.1354-3.1354,3.1354s-3.1354-1.4038-3.1354-3.1354c0-.8792.3641-1.6713.9469-2.2407H.5004l-.0004,16.9998,17.0003.0002v-6.2985Z" fill="url(#New_Gradient_Swatch_5)" stroke="#464646" stroke-miterlimit="10"/>
  <path d="m6.7985,17.5002c-.5779.5687-.9377,1.3988-.9377,2.2737,0,1.7316,1.4038,3.1354,3.1354,3.1354s3.1354-1.4038,3.1354-3.1354c0-.8749-.3598-1.705-.9377-2.2737h6.3061v-6.2709c-.5693.5829-1.3615.9469-2.2407.9469-1.7316,0-3.1354-1.4038-3.1354-3.1354s1.4038-3.1354,3.1354-3.1354c.8792,0,1.6713.3641,2.2407.9469V.5003l-16.9999-.0003v17l6.2985.0002Z" fill="url(#New_Gradient_Swatch_4)" stroke="#464646" stroke-miterlimit="10"/>
  <path d="m17.5,6.7984c-.5687-.5779-1.3988-.9377-2.2737-.9377-1.7316,0-3.1354,1.4038-3.1354,3.1354,0,1.7316,1.4038,3.1354,3.1354,3.1354.8749,0,1.705-.3598,2.2737-.9377v6.3061s6.2709,0,6.2709,0c-.5829-.5693-.9469-1.3615-.9469-2.2407,0-1.7316,1.4038-3.1354,3.1354-3.1354,1.7316,0,3.1354,1.4038,3.1354,3.1354,0,.8792-.3641,1.6713-.9469,2.2407h6.3522s0-16.9999,0-16.9999h-17s0,6.2985,0,6.2985Z" fill="url(#front_-45_2)" stroke="#464646" stroke-miterlimit="10"/>
  <path d="m28.2016,17.5c.5779-.5687.9377-1.3988.9377-2.2737,0-1.7316-1.4038-3.1354-3.1354-3.1354s-3.1354,1.4038-3.1354,3.1354c0,.8749.3598,1.705.9377,2.2737h-6.3061v6.2709c.5693-.5829,1.3615-.9469,2.2407-.9469,1.7316,0,3.1354,1.4038,3.1354,3.1354s-1.4038,3.1354-3.1354,3.1354c-.8792,0-1.6713-.3641-2.2407-.9469v6.3522h16.9999v-16.9999h-6.2985Z" fill="url(#New_Gradient_Swatch_4-2)" stroke="#464646" stroke-miterlimit="10"/>
  <path d="m42.9762,21.1072c0,2.6234-2.2279,6.1071-4.9762,6.1071s-4.9762-3.4838-4.9762-6.1071,2.2279-4.75,4.9762-4.75,4.9762,2.1266,4.9762,4.75Z" fill="url(#linear-gradient)" stroke="#464646" stroke-miterlimit="10" stroke-width="1.0207"/>
  <path d="m47.5,43.5v-9.5009c0-2.3897-1.543-4.4495-3.8045-5.5522-1.609,1.1374-3.5515,1.855-5.6955,1.855s-4.0865-.7176-5.6955-1.855c-2.2614,1.1028-3.8045,3.1626-3.8045,5.5522v9.5009h19Z" fill="url(#Dark_Blue_Grad)" stroke="#464646" stroke-miterlimit="10"/>
  <line x1="43.5001" y1="43" x2="43.5" y2="35" fill="none" stroke="#147391" stroke-miterlimit="10"/>
  <path d="m30.9762,25.1072c0,2.6234-2.2279,6.1071-4.9762,6.1071s-4.9762-3.4838-4.9762-6.1071,2.2279-4.75,4.9762-4.75,4.9762,2.1266,4.9762,4.75Z" fill="url(#linear-gradient-2)" stroke="#464646" stroke-miterlimit="10" stroke-width="1.0207"/>
  <path d="m35.5,47.5v-9.5009c0-2.3897-1.543-4.4495-3.8045-5.5522-1.609,1.1374-3.5515,1.855-5.6955,1.855s-4.0865-.7176-5.6955-1.855c-2.2614,1.1028-3.8045,3.1626-3.8045,5.5522v9.5009h19Z" fill="url(#Dark_Blue_Grad-2)" stroke="#464646" stroke-miterlimit="10"/>
  <line x1="20.5" y1="47" x2="20.5" y2="39" fill="none" stroke="#147391" stroke-miterlimit="10"/>
  <line x1="31.5" y1="47" x2="31.5" y2="39" fill="none" stroke="#147391" stroke-miterlimit="10"/>
</svg>