<svg id="Layer_1" data-name="Layer 1" xmlns="http://www.w3.org/2000/svg" xmlns:xlink="http://www.w3.org/1999/xlink" viewBox="0 0 48 48">
  <defs>
    <linearGradient id="paper_gradient" data-name="paper gradient" x1="9.4997" y1="1.909" x2="27.5003" y2="19.9095" gradientUnits="userSpaceOnUse">
      <stop offset="0" stop-color="#fff"/>
      <stop offset=".2214" stop-color="#f8f8f8"/>
      <stop offset=".5415" stop-color="#e4e4e4"/>
      <stop offset=".92" stop-color="#c5c5c5"/>
      <stop offset="1" stop-color="#bebebe"/>
    </linearGradient>
    <linearGradient id="front_-45" data-name="front -45" x1="-2.782" y1="14.1907" x2="21.782" y2="38.7547" gradientUnits="userSpaceOnUse">
      <stop offset="0" stop-color="#f2f2f2"/>
      <stop offset=".5" stop-color="#ccc"/>
      <stop offset=".6296" stop-color="#c7c7c7"/>
      <stop offset=".7792" stop-color="#b9b9b9"/>
      <stop offset=".9383" stop-color="#a2a2a2"/>
      <stop offset=".99" stop-color="#999"/>
    </linearGradient>
    <linearGradient id="Dark_Blue_Grad" data-name="Dark Blue Grad" x1="25.4517" y1="27.6841" x2="37.3154" y2="39.5479" gradientUnits="userSpaceOnUse">
      <stop offset="0" stop-color="#73b4c8"/>
      <stop offset=".1747" stop-color="#6aaec2"/>
      <stop offset=".4567" stop-color="#529db5"/>
      <stop offset=".8089" stop-color="#2b839e"/>
      <stop offset="1" stop-color="#147391"/>
    </linearGradient>
  </defs>
    <polygon points="18.5 21.3185 36.5 10.9098 36.5 31.6281 18.5 42.0368 18.5 21.3185" fill="#888"/>
    <polygon points=".5 10.9087 18.4697 .5 36.5 10.9098 18.5 21.3185 .5 10.9087" fill="url(#paper_gradient)"/>
    <polygon points="18.5 21.3185 18.5 42.0368 .5 31.6269 .5 10.9087 18.5 21.3185" fill="url(#front_-45)"/>
    <line x1="18.5" y1="21.6765" x2="18.5" y2="41.7941" fill="none" stroke="#6e6e6e" stroke-miterlimit="10"/>
  <polyline points="36.5 10.9098 18.5 21.3185 .5 10.9087" fill="none" stroke="#6e6e6e" stroke-miterlimit="10"/>
  <polygon points="18.4697 .5 .5 10.9087 .5 31.6269 18.5 42.0367 36.5 31.6281 36.5 10.9098 18.4697 .5" fill="none" stroke="#464646" stroke-linejoin="round"/>
    <path d="m22.1118,47.5c-1.2329,0-2.3916-.4795-3.2627-1.3506-.8701-.8701-1.3491-2.0283-1.3491-3.2627,0-1.2148.4795-2.3926,1.3159-3.2305l12.8462-11.1914c.042-.0361.0605-.0928.0488-.1484-.2744-1.3428-.9785-5.9141,1.4678-8.3594,1.583-1.5845,3.6895-2.457,5.9316-2.457.3877,0,.7783.0269,1.1621.0806.1875.0259.3447.1562.4043.3359.0605.1802.0137.3784-.1201.5127l-3.333,3.333-.7754,3.6167c-.0107.0518.0059.1045.043.1416l2.9873,2.9873c.0283.0283.0693.0449.1094.0449l3.5703-.7354,3.4121-3.3755c.0957-.0952.2227-.1465.3535-.1465.0537,0,.1064.0083.1592.0259.1797.0605.3096.2173.3359.4048.3623,2.5923-.5264,5.2446-2.377,7.0952-1.1719,1.1719-3.0078,1.791-5.3105,1.791-.9707,0-2.0254-.1123-3.0498-.3252h-.0127c-.0674,0-.1074.0186-.1348.0508l-11.1191,12.7656c-.9058.9092-2.0708,1.3965-3.3032,1.3965Zm.7212-6.7051c-.3667,0-.7114.1426-.9702.4014-.5327.5342-.5327,1.4043.0005,1.9385.2588.2588.603.4014.9697.4014.3657,0,.7104-.1426.9697-.4014.5342-.5342.5352-1.4043.0005-1.9385-.2588-.2588-.6035-.4014-.9702-.4014Z" fill="url(#Dark_Blue_Grad)"/>
    <path d="m39.1102,18c.365,0,.7312.0253,1.0929.0758l-3.3325,3.3329c-.0903.0903-.1524.2052-.1787.3304l-.7331,3.538c-.0448.2164.0224.4408.1786.5967l2.9875,2.9871c.124.124.291.1925.4625.1925.0446,0,.0896-.0046.1342-.0142l3.5382-.7324c.1249-.0259.2401-.0878.3304-.1784l3.3339-3.3331c.3413,2.4479-.4769,4.9136-2.2352,6.6723-1.0762,1.0759-2.7902,1.6445-4.9569,1.6445-.9355,0-1.9554-.1085-2.9484-.314-.0435-.0087-.0873-.0129-.1308-.0129-.1878,0-.3702.0792-.4961.2245l-11.1182,12.7655c-.7888.7897-1.828,1.2248-2.9266,1.2248-1.0994,0-2.1328-.4277-2.9094-1.2043-.7754-.7757-1.2024-1.8087-1.2024-2.9089s.427-2.1326,1.1698-2.8773l12.82-11.1675c.178-.1549.2587-.3941.2113-.6256-.2612-1.2811-.9386-5.6374,1.3311-7.9061,1.4893-1.4899,3.4703-2.3103,5.578-2.3103m-16.2772,26.0366c.4786,0,.9572-.1824,1.3226-.5471l.0013-.0014c.7299-.7307.7299-1.9155,0-2.6458-.3656-.3651-.8446-.5477-1.3236-.5476-.4792,0-.9584.1828-1.3238.5483l-.0006.0006c-.7287.731-.7287,1.9139.0006,2.6445.3655.3657.8445.5484,1.3235.5484m16.2772-27.0366c-2.375,0-4.6071.9246-6.2853,2.6033-2.5097,2.5085-1.9463,7.0044-1.6424,8.6156l-12.6696,11.0365c-.0176.0153-.0347.0313-.0512.0478-.9426.945-1.4617,2.2177-1.4617,3.5835,0,1.3672.531,2.6514,1.4952,3.6159.9655.9656,2.2499,1.4973,3.6166,1.4973,1.3657,0,2.6563-.5392,3.6341-1.5181.0161-.0161.0316-.0328.0466-.0499l10.9869-12.6148c.9912.1927,2.01.2949,2.9525.2949,2.4376,0,4.3961-.6699,5.6639-1.9373,1.9601-1.9606,2.9015-4.7708,2.5186-7.5176-.0524-.3757-.3129-.6895-.6725-.8101-.1041-.0349-.2114-.0519-.3178-.0519-.261,0-.5165.1023-.7072.2928l-3.2611,3.2603-3.2553.6739-2.7248-2.7244.6743-3.2545,3.2602-3.2605c.2682-.2682.3616-.6651.241-1.0248-.1205-.3597-.4341-.6202-.8098-.6727-.4058-.0567-.8201-.0854-1.2313-.0854h0Zm-16.2772,26.0366c-.2328,0-.4517-.0907-.6162-.2554-.3384-.339-.3385-.8917.0003-1.2316.1639-.164.3832-.2549.6163-.2549.233,0,.4521.0906.617.2552.3387.3389.3386.8916-.0009,1.2314-.1649.1646-.3838.2552-.6164.2552h0Z" fill="#464646"/>
</svg>