<?xml version="1.0" encoding="UTF-8"?><svg id="Layer_1" xmlns="http://www.w3.org/2000/svg" xmlns:xlink="http://www.w3.org/1999/xlink" viewBox="0 0 48 48"><defs><linearGradient id="linear-gradient" x1="35.146" y1="35.146" x2="12.854" y2="12.854" gradientTransform="matrix(1, 0, 0, 1, 0, 0)" gradientUnits="userSpaceOnUse"><stop offset="0" stop-color="#afd7e1"/><stop offset="1" stop-color="#73b4c8"/></linearGradient></defs><polygon points="36.987 6.987 41 11 47 5.013 42.987 1 36.987 6.987" fill="#bebebe"/><polygon points="1.007 42.986 5.021 47 11 41 6.986 36.986 1.007 42.986" fill="#bebebe"/><g><path d="M1.707,24L24,1.707l22.293,22.293-22.293,22.293L1.707,24Zm7.586,0l14.707,14.707,14.707-14.707-14.707-14.707-14.707,14.707Z" fill="url(#linear-gradient)"/><path d="M24,2.414l21.586,21.586-21.586,21.586L2.414,24,24,2.414m0,37l.707-.707,14-14,.707-.707-.707-.707-14-14-.707-.707-.707,.707-14,14-.707,.707,.707,.707,14,14,.707,.707M24,1L1,24l23,23,23-23L24,1h0Zm0,37l-14-14,14-14,14,14-14,14h0Z" fill="#464646"/></g></svg>