<?xml version="1.0" encoding="UTF-8"?><svg id="Layer_1" xmlns="http://www.w3.org/2000/svg" xmlns:xlink="http://www.w3.org/1999/xlink" viewBox="0 0 48 48"><defs><linearGradient id="linear-gradient" x1="12.5" y1="12.5" x2="1.5" y2="1.5" gradientTransform="matrix(1, 0, 0, 1, 0, 0)" gradientUnits="userSpaceOnUse"><stop offset="0" stop-color="#afd7e1"/><stop offset="1" stop-color="#73b4c8"/></linearGradient><linearGradient id="linear-gradient-2" x1="46.5" x2="35.5" xlink:href="#linear-gradient"/><linearGradient id="linear-gradient-3" y1="46.5" y2="35.5" xlink:href="#linear-gradient"/><linearGradient id="linear-gradient-4" x1="46.5" y1="46.5" x2="35.5" y2="35.5" xlink:href="#linear-gradient"/></defs><rect x="16" y="6.031" width="3.119" height="3" fill="#bebebe"/><rect x="23" y="6.031" width="3.119" height="3" fill="#bebebe"/><rect x="28.994" y="6.031" width="3.119" height="3" fill="#bebebe"/><rect x="16" y="40.031" width="3.119" height="3" fill="#bebebe"/><rect x="23" y="40.031" width="3.119" height="3" fill="#bebebe"/><rect x="28.994" y="40.031" width="3.119" height="3" fill="#bebebe"/><rect x="4.994" y="15.912" width="3" height="3.119" fill="#bebebe"/><rect x="4.994" y="21.881" width="3" height="3.119" fill="#bebebe"/><rect x="4.994" y="28.881" width="3" height="3.119" fill="#bebebe"/><rect x="39.994" y="15.912" width="3" height="3.119" fill="#bebebe"/><rect x="39.994" y="21.881" width="3" height="3.119" fill="#bebebe"/><rect x="39.994" y="28.881" width="3" height="3.119" fill="#bebebe"/><g><rect x="1.5" y="1.5" width="11" height="11" fill="url(#linear-gradient)"/><path d="M12,2V12H2V2H12m1-1H1V13H13V1h0Z" fill="#464646"/></g><g><rect x="35.5" y="1.5" width="11" height="11" fill="url(#linear-gradient-2)"/><path d="M46,2V12h-10V2h10m1-1h-12V13h12V1h0Z" fill="#464646"/></g><g><rect x="1.5" y="35.5" width="11" height="11" fill="url(#linear-gradient-3)"/><path d="M12,36v10H2v-10H12m1-1H1v12H13v-12h0Z" fill="#464646"/></g><g><rect x="35.5" y="35.5" width="11" height="11" fill="url(#linear-gradient-4)"/><path d="M46,36v10h-10v-10h10m1-1h-12v12h12v-12h0Z" fill="#464646"/></g></svg>