<?xml version="1.0" encoding="UTF-8"?>
<svg id="Layer_1" data-name="Layer 1" xmlns="http://www.w3.org/2000/svg" xmlns:xlink="http://www.w3.org/1999/xlink" viewBox="0 0 48 48">
  <defs>
    <linearGradient id="Dark_Blue_Grad" data-name="Dark Blue Grad" x1="-1.5" y1="3.5" x2="35.5" y2="40.5" gradientUnits="userSpaceOnUse">
      <stop offset="0" stop-color="#73b4c8"/>
      <stop offset=".1747" stop-color="#6aaec2"/>
      <stop offset=".4567" stop-color="#529db5"/>
      <stop offset=".8089" stop-color="#2b839e"/>
      <stop offset="1" stop-color="#147391"/>
    </linearGradient>
    <linearGradient id="front_-45" data-name="front -45" x1="-9.25" y1="10.25" x2="14.25" y2="33.75" gradientUnits="userSpaceOnUse">
      <stop offset="0" stop-color="#f2f2f2"/>
      <stop offset=".5" stop-color="#ccc"/>
      <stop offset=".6296" stop-color="#c7c7c7"/>
      <stop offset=".7792" stop-color="#b9b9b9"/>
      <stop offset=".9383" stop-color="#a2a2a2"/>
      <stop offset=".99" stop-color="#999"/>
    </linearGradient>
    <linearGradient id="Dark_Blue_Grad_2" data-name="Dark Blue Grad 2" x1="26.1612" y1="26.1612" x2="43.8388" y2="43.8388" gradientUnits="userSpaceOnUse">
      <stop offset="0" stop-color="#74b3c7"/>
      <stop offset=".1774" stop-color="#6badc1"/>
      <stop offset=".4638" stop-color="#539cb3"/>
      <stop offset=".8215" stop-color="#2c829c"/>
      <stop offset="1" stop-color="#177490"/>
    </linearGradient>
  </defs>
  <rect x="1" y="1" width="32" height="42" fill="url(#Dark_Blue_Grad)"/>
  <rect x=".5" y=".5" width="4" height="43" fill="url(#front_-45)" stroke="#147391" stroke-miterlimit="10"/>
  <rect x="9.5" y="8.5" width="19" height="9" rx="1" ry="1" fill="#fff" stroke="#147391"/>
  <line x1="23" y1="14.5" x2="12" y2="14.5" fill="none" stroke="#147391"/>
  <line x1="25" y1="11.5" x2="12" y2="11.5" fill="none" stroke="#147391"/>
  <path d="m24.9985,29.5643l1.0629,2.2374-1.236,1.2357-2.2374-1.0634c-.1473-.0698-.3181-.0095-.3843.1756l-.8299,2.3504h-1.7475l-.83-2.3506c-.0619-.1735-.2434-.2382-.3842-.1714l-2.2371,1.0613-1.2357-1.2367,1.0634-2.2378c.0694-.1457.0039-.3249-.1639-.3843l-2.3388-.8303v-1.7474l2.3388-.8302c.1644-.0582.2309-.2406.1628-.3839l-1.0629-2.2373,1.236-1.2358,2.2374,1.0635c.1498.0713.3319-.0058.3843-.1523l.8299-2.3271h1.7475l.83,2.3272c.0527.1477.2284.2277.3842.1539l2.2371-1.0644,1.2357,1.2354-1.0634,2.2369c-.0698.1467-.0028.3249.1639.3839l2.3388.8301v1.7474l-2.3388.8302c-.1636.0579-.2315.2391-.1628.3838Zm-2.5385-2.0643c0-1.0807-.8793-1.96-1.96-1.96s-1.96.8793-1.96,1.96.8793,1.96,1.96,1.96,1.96-.8793,1.96-1.96Z" fill="#fff" stroke="#464646" stroke-linejoin="round"/>
  <path d="m16.2725,35.123l1.2162,1.0985-.4426,1.0682-1.6369-.0835c-.1077-.0054-.1968.0747-.1904.2046l.0878,1.6468-1.0682.4425-1.1025-1.2266c-.0817-.0904-.2091-.084-.2782-.0075l-1.0987,1.2152-1.0684-.4431.0834-1.6371c.0055-.1067-.0799-.1996-.1975-.1934l-1.6398.0846-.4424-1.0681,1.2194-1.0996c.0858-.0772.0802-.2055.0023-.2759l-1.2162-1.0984.4426-1.0683,1.6369.0836c.1096.0057.2014-.0876.1963-.1904l-.0819-1.6326,1.0682-.4425,1.0966,1.2124c.0696.077.1973.0814.2738-.0032l1.098-1.217,1.0681.4423-.0837,1.6366c-.0055.1073.0805.1993.1974.1932l1.6398-.0847.4424,1.0681-1.2194,1.0996c-.0853.0768-.081.2048-.0023.2758Zm-2.0743-.6191c-.2736-.6606-1.0337-.9754-1.6943-.7018s-.9754,1.0337-.7018,1.6943,1.0337.9754,1.6943.7018.9754-1.0337.7018-1.6943Z" fill="#fff" stroke="#464646" stroke-linejoin="round"/>
  <rect x=".5" y=".5" width="33" height="43" fill="none" stroke="#464646" stroke-miterlimit="10"/>
  <g>
    <circle cx="35" cy="35" r="12.5" fill="url(#Dark_Blue_Grad_2)" stroke="#464646" stroke-miterlimit="10"/>
    <g>
      <path d="m35,40.499c-.8271,0-1.5-.6729-1.5-1.5v-1.7305c0-1.7129,1-3.2822,2.5469-3.9985,1.0469-.4839,1.6143-1.5835,1.4121-2.7368-.1748-.998-.9941-1.8174-1.9932-1.9927-.1562-.0269-.3125-.0405-.4668-.0405-.5947,0-1.1504.2017-1.6055.5835-.5674.4766-.8936,1.1748-.8936,1.9155,0,.8271-.6729,1.5-1.5,1.5s-1.5-.6729-1.5-1.5c0-1.6289.7158-3.1641,1.9648-4.2129.9873-.8296,2.2451-1.2861,3.542-1.2861.3252,0,.6543.0288.9775.0859,2.2188.3892,4.041,2.2104,4.4297,4.4287.4336,2.4736-.8438,4.9321-3.1074,5.978-.4902.2271-.8066.7275-.8066,1.2759v1.7305c0,.8271-.6729,1.5-1.5,1.5Z" fill="#fff"/>
      <path d="m35.0065,26c.2957,0,.5935.0257.891.0781,2.0156.3535,3.6709,2.0078,4.0244,4.0229.3945,2.2505-.7676,4.4868-2.8252,5.438-.666.3081-1.0967.9873-1.0967,1.7295v1.7305c0,.5522-.4473,1-1,1s-1-.4478-1-1v-1.7305c0-1.519.8857-2.9102,2.2568-3.5449,1.2559-.5801,1.9365-1.897,1.6943-3.2768-.21-1.2017-1.1973-2.188-2.3994-2.3989-.1856-.032-.3702-.0479-.5523-.0479-.7069,0-1.3766.239-1.9271.7002-.6816.5723-1.0723,1.4102-1.0723,2.2988,0,.5522-.4473,1-1,1s-1-.4478-1-1c0-1.4809.6514-2.877,1.7861-3.8301.9068-.7612,2.0445-1.1689,3.2204-1.169m.0003-1h0c-1.4138,0-2.7859.4984-3.8636,1.4031-1.3621,1.1441-2.1432,2.8192-2.1432,4.596,0,1.1028.8972,2,2,2s2-.8972,2-2c0-.5926.2607-1.1513.7153-1.5329.3637-.3047.808-.4661,1.2841-.4661.1255,0,.2542.0112.3824.0333.7802.1369,1.4477.8039,1.5843,1.5856.1628.9274-.2908,1.8099-1.1286,2.1969-1.724.7982-2.8375,2.5458-2.8375,4.4528v1.7305c0,1.1028.8972,2,2,2s2-.8972,2-2v-1.7305c0-.3541.2028-.6767.5165-.8219,2.4688-1.1412,3.8631-3.8217,3.3903-6.5183-.4249-2.422-2.4138-4.4103-4.8366-4.8352-.3508-.0618-.7088-.0932-1.0634-.0932h0Z" fill="#147391"/>
    </g>
    <g>
      <path d="m35,45c-.5254,0-1.043-.2192-1.4209-.6021-.3613-.3618-.5791-.8892-.5791-1.4072,0-.5361.2119-1.0557.582-1.4253.3672-.3604.8848-.5654,1.4238-.5654.54,0,1.0557.2065,1.4131.5664.3691.3721.5811.8911.5811,1.4243,0,.5156-.2168,1.042-.5811,1.4082-.3789.3823-.8965.6011-1.4189.6011Z" fill="#fff"/>
      <path d="m35.0055,41.5c.3918,0,.7819.1397,1.0594.419.2695.2712.4351.6641.4351,1.0716,0,.3921-.1655.7849-.4351,1.0561-.2856.2874-.6753.4533-1.0649.4533s-.7808-.1658-1.0649-.4533c-.271-.2712-.4351-.664-.4351-1.0561,0-.4076.1641-.8004.4351-1.0716.2849-.2793.6786-.419,1.0704-.419m0-1c-.6682,0-1.3136.2569-1.7705.7049-.4698.4701-.735,1.1183-.735,1.7857,0,.6576.2652,1.3001.7277,1.763.4676.473,1.115.7464,1.7723.7464.6549,0,1.3016-.2728,1.7742-.7484.4612-.4641.7258-1.106.7258-1.761,0-.6649-.2645-1.3124-.7258-1.7765-.451-.4538-1.0957-.7141-1.7688-.7141h0Z" fill="#147391"/>
    </g>
  </g>
</svg>