<?xml version="1.0" encoding="UTF-8"?>
<svg id="Layer_1" data-name="Layer 1" xmlns="http://www.w3.org/2000/svg" xmlns:xlink="http://www.w3.org/1999/xlink" viewBox="0 0 48 48">
  <defs>
    <linearGradient id="paper_gradient" data-name="paper gradient" x1=".5" y1=".5" x2="47.5" y2="47.5" gradientTransform="matrix(1, 0, 0, 1, 0, 0)" gradientUnits="userSpaceOnUse">
      <stop offset="0" stop-color="#fff"/>
      <stop offset=".2214" stop-color="#f8f8f8"/>
      <stop offset=".5415" stop-color="#e4e4e4"/>
      <stop offset=".92" stop-color="#c5c5c5"/>
      <stop offset="1" stop-color="#bebebe"/>
    </linearGradient>
    <linearGradient id="front_-45" data-name="front -45" x1="10.5" y1="-9.5" x2="37.5" y2="17.5" gradientTransform="matrix(1, 0, 0, 1, 0, 0)" gradientUnits="userSpaceOnUse">
      <stop offset="0" stop-color="#f2f2f2"/>
      <stop offset=".5" stop-color="#ccc"/>
      <stop offset=".6296" stop-color="#c7c7c7"/>
      <stop offset=".7792" stop-color="#b9b9b9"/>
      <stop offset=".9383" stop-color="#a2a2a2"/>
      <stop offset=".99" stop-color="#999"/>
    </linearGradient>
    <linearGradient id="Light_Blue_Grad" data-name="Light Blue Grad" x1="11" y1="12" x2="37" y2="38" gradientTransform="matrix(1, 0, 0, 1, 0, 0)" gradientUnits="userSpaceOnUse">
      <stop offset="0" stop-color="#afd7e1"/>
      <stop offset="1" stop-color="#73b4c8"/>
    </linearGradient>
    <linearGradient id="Light_Blue_Grad-2" data-name="Light Blue Grad" x1="10.25" y1="23.25" x2="12.75" y2="25.75" xlink:href="#Light_Blue_Grad"/>
    <linearGradient id="Light_Blue_Grad-3" data-name="Light Blue Grad" x1="19.25" y1="23.25" x2="21.75" y2="25.75" xlink:href="#Light_Blue_Grad"/>
    <linearGradient id="Light_Blue_Grad-4" data-name="Light Blue Grad" x1="28.25" y1="23.25" x2="30.75" y2="25.75" xlink:href="#Light_Blue_Grad"/>
    <linearGradient id="Light_Blue_Grad-5" data-name="Light Blue Grad" x1="37.25" y1="23.25" x2="39.75" y2="25.75" xlink:href="#Light_Blue_Grad"/>
  </defs>
  <rect x=".5" y=".5" width="47" height="47" fill="url(#paper_gradient)"/>
  <rect x=".5" y=".5" width="47" height="7" fill="url(#front_-45)"/>
  <line x1="47.5" y1="7.5" x2=".5" y2="7.5" fill="none" stroke="#464646" stroke-miterlimit="10" stroke-width="1.0002"/>
  <line x1="11.5" y1="7" x2="11.5" y2="1" fill="none" stroke="#6e6e6e" stroke-miterlimit="10"/>
  <line x1="20.5" y1="7" x2="20.5" y2="1" fill="none" stroke="#6e6e6e" stroke-miterlimit="10"/>
  <line x1="29.5" y1="7" x2="29.5" y2="1" fill="none" stroke="#6e6e6e" stroke-miterlimit="10"/>
  <line x1="38.5" y1="7" x2="38.5" y2="1" fill="none" stroke="#6e6e6e" stroke-miterlimit="10"/>
  <line x1="11.5" y1="47" x2="11.5" y2="8" fill="none" stroke="#6e6e6e" stroke-miterlimit="10"/>
  <line x1="20.5" y1="47" x2="20.5" y2="8" fill="none" stroke="#6e6e6e" stroke-miterlimit="10"/>
  <line x1="29.5" y1="47" x2="29.5" y2="8" fill="none" stroke="#6e6e6e" stroke-miterlimit="10"/>
  <line x1="38.5" y1="47" x2="38.5" y2="8" fill="none" stroke="#6e6e6e" stroke-miterlimit="10"/>
  <line x1="47" y1="17.5" x2="1" y2="17.5" fill="none" stroke="#6e6e6e" stroke-miterlimit="10"/>
  <line x1="47" y1="12.5" x2="1" y2="12.5" fill="none" stroke="#6e6e6e" stroke-miterlimit="10"/>
  <line x1="47" y1="22.5" x2="1" y2="22.5" fill="none" stroke="#6e6e6e" stroke-miterlimit="10"/>
  <line x1="47" y1="27.5" x2="1" y2="27.5" fill="none" stroke="#6e6e6e" stroke-miterlimit="10"/>
  <line x1="47" y1="32.5" x2="1" y2="32.5" fill="none" stroke="#6e6e6e" stroke-miterlimit="10"/>
  <line x1="47" y1="37.5" x2="1" y2="37.5" fill="none" stroke="#6e6e6e" stroke-miterlimit="10"/>
  <line x1="47" y1="42.5" x2="1" y2="42.5" fill="none" stroke="#6e6e6e" stroke-miterlimit="10"/>
  <rect x=".5" y="22.5" width="47" height="5" fill="url(#Light_Blue_Grad)" stroke="#147391" stroke-miterlimit="10" stroke-width="1"/>
  <line x1="11.5" y1="27" x2="11.5" y2="22" fill="url(#Light_Blue_Grad-2)" stroke="#147391" stroke-miterlimit="10"/>
  <line x1="20.5" y1="27" x2="20.5" y2="22" fill="url(#Light_Blue_Grad-3)" stroke="#147391" stroke-miterlimit="10"/>
  <line x1="29.5" y1="27" x2="29.5" y2="22" fill="url(#Light_Blue_Grad-4)" stroke="#147391" stroke-miterlimit="10"/>
  <line x1="38.5" y1="27" x2="38.5" y2="22" fill="url(#Light_Blue_Grad-5)" stroke="#147391" stroke-miterlimit="10"/>
  <rect x=".5" y=".5" width="47" height="47" fill="none" stroke="#464646" stroke-miterlimit="10"/>
</svg>